<svg xmlns = "http://www.w3.org/2000/svg" width = "1000" height = "1000">
<g>
<polygon points = ""
fill = "none" stroke = "black"/>
</g>
<g>
<polygon points = ""
fill = "none" stroke = "black"/>
</g>
<g>
<polygon points = ""
fill = "none" stroke = "black"/>
</g>
<g>
<polygon points = ""
fill = "none" stroke = "black"/>
</g>
<g>
<polygon points = ""
fill = "none" stroke = "black"/>
</g>
<g>
<polygon points = ""
fill = "none" stroke = "black"/>
</g>
<g>
<polygon points = ""
fill = "none" stroke = "black"/>
</g>
<g>
<polygon points = ""
fill = "none" stroke = "black"/>
</g>
<g>
<polygon points = ""
fill = "none" stroke = "black"/>
</g>
<g>
<polygon points = ""
fill = "none" stroke = "black"/>
</g>
<g>
<polygon points = ""
fill = "none" stroke = "black"/>
</g>
<g>
<polygon points = ""
fill = "none" stroke = "black"/>
</g>
<g>
<polygon points = ""
fill = "none" stroke = "black"/>
</g>
<g>
<polygon points = ""
fill = "none" stroke = "black"/>
</g>
<g>
<polygon points = ""
fill = "none" stroke = "black"/>
</g>
<g>
<polygon points = "757.342, 553.897 727.171, 922.001 826.019, 999.000 999.000, 999.000 999.000, 539.322 "
fill = "none" stroke = "black"/>
</g>
<g>
<polygon points = ""
fill = "none" stroke = "black"/>
</g>
<g>
<polygon points = "1.000, 394.150 15.845, 400.241 136.913, 389.781 214.813, 335.006 135.702, 1.000 1.000, 1.000 "
fill = "none" stroke = "black"/>
</g>
<g>
<polygon points = ""
fill = "none" stroke = "black"/>
</g>
<g>
<polygon points = ""
fill = "none" stroke = "black"/>
</g>
<g>
<polygon points = ""
fill = "none" stroke = "black"/>
</g>
<g>
<polygon points = "743.105, 534.544 741.475, 533.085 685.969, 485.596 411.263, 741.085 458.306, 864.393 727.171, 922.001 757.342, 553.897 "
fill = "none" stroke = "black"/>
</g>
<g>
<polygon points = ""
fill = "none" stroke = "black"/>
</g>
<g>
<polygon points = "526.529, 296.986 383.219, 264.814 214.813, 335.006 136.913, 389.781 365.590, 688.811 379.838, 696.626 "
fill = "none" stroke = "black"/>
</g>
<g>
<polygon points = ""
fill = "none" stroke = "black"/>
</g>
<g>
<polygon points = ""
fill = "none" stroke = "black"/>
</g>
<g>
<polygon points = ""
fill = "none" stroke = "black"/>
</g>
<g>
<polygon points = ""
fill = "none" stroke = "black"/>
</g>
<g>
<polygon points = ""
fill = "none" stroke = "black"/>
</g>
<g>
<polygon points = "346.275, 141.665 443.254, 1.000 251.047, 1.000 "
fill = "none" stroke = "black"/>
</g>
<g>
<polygon points = ""
fill = "none" stroke = "black"/>
</g>
<g>
<polygon points = "365.590, 688.811 136.913, 389.781 15.845, 400.241 52.584, 724.486 "
fill = "none" stroke = "black"/>
</g>
<g>
<polygon points = ""
fill = "none" stroke = "black"/>
</g>
<g>
<polygon points = ""
fill = "none" stroke = "black"/>
</g>
<g>
<polygon points = ""
fill = "none" stroke = "black"/>
</g>
<g>
<polygon points = ""
fill = "none" stroke = "black"/>
</g>
<g>
<polygon points = ""
fill = "none" stroke = "black"/>
</g>
<g>
<polygon points = ""
fill = "none" stroke = "black"/>
</g>
<g>
<polygon points = ""
fill = "none" stroke = "black"/>
</g>
<g>
<polygon points = ""
fill = "none" stroke = "black"/>
</g>
<g>
<polygon points = ""
fill = "none" stroke = "black"/>
</g>
<g>
<polygon points = ""
fill = "none" stroke = "black"/>
</g>
<g>
<polygon points = ""
fill = "none" stroke = "black"/>
</g>
<g>
<polygon points = ""
fill = "none" stroke = "black"/>
</g>
<g>
<polygon points = "743.105, 534.544 757.342, 553.897 999.000, 539.322 999.000, 252.269 "
fill = "none" stroke = "black"/>
</g>
<g>
<polygon points = "46.033, 737.051 52.584, 724.486 15.845, 400.241 1.000, 394.150 1.000, 742.459 "
fill = "none" stroke = "black"/>
</g>
<g>
<polygon points = ""
fill = "none" stroke = "black"/>
</g>
<g>
<polygon points = "214.813, 335.006 383.219, 264.814 346.275, 141.665 251.047, 1.000 135.702, 1.000 "
fill = "none" stroke = "black"/>
</g>
<g>
<polygon points = ""
fill = "none" stroke = "black"/>
</g>
<g>
<polygon points = ""
fill = "none" stroke = "black"/>
</g>
<g>
<polygon points = ""
fill = "none" stroke = "black"/>
</g>
<g>
<polygon points = "84.155, 912.405 46.033, 737.051 1.000, 742.459 1.000, 999.000 24.326, 999.000 "
fill = "none" stroke = "black"/>
</g>
<g>
<polygon points = ""
fill = "none" stroke = "black"/>
</g>
<g>
<polygon points = "727.171, 922.001 458.306, 864.393 421.306, 898.321 382.323, 999.000 826.019, 999.000 "
fill = "none" stroke = "black"/>
</g>
<g>
<polygon points = ""
fill = "none" stroke = "black"/>
</g>
<g>
<polygon points = ""
fill = "none" stroke = "black"/>
</g>
<g>
<polygon points = ""
fill = "none" stroke = "black"/>
</g>
<g>
<polygon points = ""
fill = "none" stroke = "black"/>
</g>
<g>
<polygon points = ""
fill = "none" stroke = "black"/>
</g>
<g>
<polygon points = "421.306, 898.321 84.155, 912.405 24.326, 999.000 382.323, 999.000 "
fill = "none" stroke = "black"/>
</g>
<g>
<polygon points = ""
fill = "none" stroke = "black"/>
</g>
<g>
<polygon points = ""
fill = "none" stroke = "black"/>
</g>
<g>
<polygon points = "741.475, 533.085 743.105, 534.544 999.000, 252.269 999.000, 84.308 "
fill = "none" stroke = "black"/>
</g>
<g>
<polygon points = ""
fill = "none" stroke = "black"/>
</g>
<g>
<polygon points = ""
fill = "none" stroke = "black"/>
</g>
<g>
<polygon points = ""
fill = "none" stroke = "black"/>
</g>
<g>
<polygon points = "578.145, 288.129 526.529, 296.986 379.838, 696.626 411.263, 741.085 685.969, 485.596 "
fill = "none" stroke = "black"/>
</g>
<g>
<polygon points = "578.145, 288.129 685.969, 485.596 741.475, 533.085 999.000, 84.308 999.000, 1.000 840.472, 1.000 "
fill = "none" stroke = "black"/>
</g>
<g>
<polygon points = ""
fill = "none" stroke = "black"/>
</g>
<g>
<polygon points = ""
fill = "none" stroke = "black"/>
</g>
<g>
<polygon points = ""
fill = "none" stroke = "black"/>
</g>
<g>
<polygon points = ""
fill = "none" stroke = "black"/>
</g>
<g>
<polygon points = ""
fill = "none" stroke = "black"/>
</g>
<g>
<polygon points = "421.306, 898.321 458.306, 864.393 411.263, 741.085 379.838, 696.626 365.590, 688.811 52.584, 724.486 46.033, 737.051 84.155, 912.405 "
fill = "none" stroke = "black"/>
</g>
<g>
<polygon points = ""
fill = "none" stroke = "black"/>
</g>
<g>
<polygon points = ""
fill = "none" stroke = "black"/>
</g>
<g>
<polygon points = ""
fill = "none" stroke = "black"/>
</g>
<g>
<polygon points = ""
fill = "none" stroke = "black"/>
</g>
<g>
<polygon points = ""
fill = "none" stroke = "black"/>
</g>
<g>
<polygon points = "346.275, 141.665 383.219, 264.814 526.529, 296.986 578.145, 288.129 840.472, 1.000 443.254, 1.000 "
fill = "none" stroke = "black"/>
</g>
<circle cx="125.892" cy="151.152" r="1" stroke="red" stroke-width="1" fill="red" />
<circle cx="-2971.208" cy="3353.122" r="1" stroke="red" stroke-width="1" fill="red" />
<circle cx="-298.942" cy="3575.177" r="1" stroke="red" stroke-width="1" fill="red" />
<circle cx="996.168" cy="1988.302" r="1" stroke="red" stroke-width="1" fill="red" />
<circle cx="194.545" cy="2539.675" r="1" stroke="red" stroke-width="1" fill="red" />
<circle cx="885.831" cy="652.749" r="1" stroke="red" stroke-width="1" fill="red" />
<circle cx="-6118.233" cy="1841.089" r="1" stroke="red" stroke-width="1" fill="red" />
<circle cx="-4258.943" cy="4264.932" r="1" stroke="red" stroke-width="1" fill="red" />
<circle cx="-1214.272" cy="488.025" r="1" stroke="red" stroke-width="1" fill="red" />
<circle cx="-237.355" cy="734.610" r="1" stroke="red" stroke-width="1" fill="red" />
<circle cx="-228.120" cy="1692.427" r="1" stroke="red" stroke-width="1" fill="red" />
<circle cx="-651.262" cy="47.761" r="1" stroke="red" stroke-width="1" fill="red" />
<circle cx="-1142.446" cy="425.444" r="1" stroke="red" stroke-width="1" fill="red" />
<circle cx="-3766.465" cy="3554.240" r="1" stroke="red" stroke-width="1" fill="red" />
<circle cx="-1274.331" cy="1955.030" r="1" stroke="red" stroke-width="1" fill="red" />
<circle cx="-5667.015" cy="4404.754" r="1" stroke="red" stroke-width="1" fill="red" />
<circle cx="614.471" cy="630.508" r="1" stroke="red" stroke-width="1" fill="red" />
<circle cx="865.289" cy="2778.535" r="1" stroke="red" stroke-width="1" fill="red" />
<circle cx="357.740" cy="480.887" r="1" stroke="red" stroke-width="1" fill="red" />
<circle cx="-1284.091" cy="929.586" r="1" stroke="red" stroke-width="1" fill="red" />
<circle cx="166.984" cy="626.763" r="1" stroke="red" stroke-width="1" fill="red" />
<circle cx="-2111.798" cy="2617.091" r="1" stroke="red" stroke-width="1" fill="red" />
<circle cx="-1678.896" cy="1398.951" r="1" stroke="red" stroke-width="1" fill="red" />
<circle cx="-2036.558" cy="646.910" r="1" stroke="red" stroke-width="1" fill="red" />
<circle cx="386.131" cy="12.795" r="1" stroke="red" stroke-width="1" fill="red" />
<circle cx="279.830" cy="2258.181" r="1" stroke="red" stroke-width="1" fill="red" />
<circle cx="-6076.724" cy="1651.541" r="1" stroke="red" stroke-width="1" fill="red" />
<circle cx="133.339" cy="2490.638" r="1" stroke="red" stroke-width="1" fill="red" />
<circle cx="873.020" cy="440.319" r="1" stroke="red" stroke-width="1" fill="red" />
<circle cx="744.482" cy="2183.675" r="1" stroke="red" stroke-width="1" fill="red" />
<circle cx="-1631.067" cy="3012.914" r="1" stroke="red" stroke-width="1" fill="red" />
<circle cx="-1737.368" cy="1119.358" r="1" stroke="red" stroke-width="1" fill="red" />
<circle cx="-80.780" cy="654.837" r="1" stroke="red" stroke-width="1" fill="red" />
<circle cx="-1617.654" cy="5415.708" r="1" stroke="red" stroke-width="1" fill="red" />
<circle cx="-681.703" cy="572.000" r="1" stroke="red" stroke-width="1" fill="red" />
<circle cx="-998.411" cy="4288.956" r="1" stroke="red" stroke-width="1" fill="red" />
<circle cx="-4500.080" cy="5137.322" r="1" stroke="red" stroke-width="1" fill="red" />
<circle cx="-430.942" cy="289.573" r="1" stroke="red" stroke-width="1" fill="red" />
<circle cx="-395.274" cy="2271.527" r="1" stroke="red" stroke-width="1" fill="red" />
<circle cx="-4187.569" cy="31.166" r="1" stroke="red" stroke-width="1" fill="red" />
<circle cx="-320.201" cy="456.031" r="1" stroke="red" stroke-width="1" fill="red" />
<circle cx="-2795.602" cy="402.783" r="1" stroke="red" stroke-width="1" fill="red" />
<circle cx="-6658.472" cy="4337.460" r="1" stroke="red" stroke-width="1" fill="red" />
<circle cx="-2856.614" cy="543.506" r="1" stroke="red" stroke-width="1" fill="red" />
<circle cx="-8372.484" cy="4631.582" r="1" stroke="red" stroke-width="1" fill="red" />
<circle cx="211.821" cy="130.800" r="1" stroke="red" stroke-width="1" fill="red" />
<circle cx="-6090.398" cy="2219.214" r="1" stroke="red" stroke-width="1" fill="red" />
<circle cx="-57.710" cy="846.952" r="1" stroke="red" stroke-width="1" fill="red" />
<circle cx="504.934" cy="1141.730" r="1" stroke="red" stroke-width="1" fill="red" />
<circle cx="-4486.641" cy="806.183" r="1" stroke="red" stroke-width="1" fill="red" />
<circle cx="195.564" cy="1021.941" r="1" stroke="red" stroke-width="1" fill="red" />
<circle cx="-2066.738" cy="1535.508" r="1" stroke="red" stroke-width="1" fill="red" />
<circle cx="-3438.823" cy="8889.201" r="1" stroke="red" stroke-width="1" fill="red" />
<circle cx="-145.379" cy="2132.351" r="1" stroke="red" stroke-width="1" fill="red" />
<circle cx="824.173" cy="396.037" r="1" stroke="red" stroke-width="1" fill="red" />
<circle cx="-368.304" cy="1323.753" r="1" stroke="red" stroke-width="1" fill="red" />
<circle cx="-2921.013" cy="549.797" r="1" stroke="red" stroke-width="1" fill="red" />
<circle cx="-4037.245" cy="3340.132" r="1" stroke="red" stroke-width="1" fill="red" />
<circle cx="-2913.516" cy="1030.646" r="1" stroke="red" stroke-width="1" fill="red" />
<circle cx="-4733.180" cy="4336.740" r="1" stroke="red" stroke-width="1" fill="red" />
<circle cx="-1458.280" cy="2320.213" r="1" stroke="red" stroke-width="1" fill="red" />
<circle cx="186.040" cy="793.959" r="1" stroke="red" stroke-width="1" fill="red" />
<circle cx="818.073" cy="392.537" r="1" stroke="red" stroke-width="1" fill="red" />
<circle cx="-2926.642" cy="5013.009" r="1" stroke="red" stroke-width="1" fill="red" />
<circle cx="-2135.918" cy="1935.314" r="1" stroke="red" stroke-width="1" fill="red" />
<circle cx="536.261" cy="546.415" r="1" stroke="red" stroke-width="1" fill="red" />
<circle cx="-352.307" cy="5118.263" r="1" stroke="red" stroke-width="1" fill="red" />
<circle cx="-3666.423" cy="26.444" r="1" stroke="red" stroke-width="1" fill="red" />
<circle cx="396.404" cy="1887.404" r="1" stroke="red" stroke-width="1" fill="red" />
<circle cx="-402.130" cy="291.761" r="1" stroke="red" stroke-width="1" fill="red" />
<circle cx="-592.770" cy="437.321" r="1" stroke="red" stroke-width="1" fill="red" />
<circle cx="-597.215" cy="542.453" r="1" stroke="red" stroke-width="1" fill="red" />
<circle cx="-831.576" cy="1272.686" r="1" stroke="red" stroke-width="1" fill="red" />
<circle cx="-2876.054" cy="405.442" r="1" stroke="red" stroke-width="1" fill="red" />
<circle cx="-1584.207" cy="98.096" r="1" stroke="red" stroke-width="1" fill="red" />
<circle cx="907.704" cy="2198.252" r="1" stroke="red" stroke-width="1" fill="red" />
<circle cx="452.545" cy="58.583" r="1" stroke="red" stroke-width="1" fill="red" />
<circle cx="-873.128" cy="4674.277" r="1" stroke="red" stroke-width="1" fill="red" />
<circle cx="-4764.410" cy="1044.579" r="1" stroke="red" stroke-width="1" fill="red" />
<circle cx="-349.076" cy="2007.096" r="1" stroke="red" stroke-width="1" fill="red" />
</svg>
