<svg xmlns = "http://www.w3.org/2000/svg" width = "1000" height = "1000">
<g>
<polygon points = "915.476, 573.117 867.930, 592.514 863.944, 600.560 908.162, 683.969 999.000, 645.107 999.000, 629.343 "
fill = "none" stroke = "black"/>
</g>
<g>
<polygon points = "697.508, 703.495 669.782, 657.090 654.333, 658.801 639.805, 723.809 696.114, 800.671 709.236, 792.841 "
fill = "none" stroke = "black"/>
</g>
<g>
<polygon points = "590.829, 210.026 469.894, 239.321 482.420, 281.738 573.181, 256.971 "
fill = "none" stroke = "black"/>
</g>
<g>
<polygon points = "673.050, 317.933 654.869, 304.541 584.553, 296.147 567.077, 329.978 600.343, 383.654 667.858, 407.457 675.093, 400.753 "
fill = "none" stroke = "black"/>
</g>
<g>
<polygon points = "654.103, 940.987 653.059, 924.843 617.984, 882.489 615.340, 882.058 564.903, 955.792 564.278, 999.000 594.658, 999.000 "
fill = "none" stroke = "black"/>
</g>
<g>
<polygon points = "354.049, 337.566 351.918, 366.625 422.097, 476.005 469.972, 332.270 "
fill = "none" stroke = "black"/>
</g>
<g>
<polygon points = "940.849, 527.653 925.615, 481.610 916.609, 472.777 826.254, 463.915 817.504, 490.402 867.930, 592.514 915.476, 573.117 "
fill = "none" stroke = "black"/>
</g>
<g>
<polygon points = "902.004, 903.663 841.726, 922.406 839.901, 999.000 999.000, 999.000 999.000, 932.992 "
fill = "none" stroke = "black"/>
</g>
<g>
<polygon points = "446.803, 19.979 568.086, 72.479 597.417, 51.936 620.418, 1.000 445.540, 1.000 "
fill = "none" stroke = "black"/>
</g>
<g>
<polygon points = "809.412, 411.653 798.400, 394.553 675.093, 400.753 667.858, 407.457 663.095, 429.373 742.972, 533.529 817.504, 490.402 826.254, 463.915 "
fill = "none" stroke = "black"/>
</g>
<g>
<polygon points = "941.719, 396.169 940.953, 392.579 809.412, 411.653 826.254, 463.915 916.609, 472.777 "
fill = "none" stroke = "black"/>
</g>
<g>
<polygon points = "23.453, 421.146 183.671, 476.534 143.125, 402.021 111.852, 377.955 "
fill = "none" stroke = "black"/>
</g>
<g>
<polygon points = "679.831, 828.898 693.388, 840.408 781.803, 850.213 790.305, 782.826 775.439, 780.373 709.236, 792.841 696.114, 800.671 "
fill = "none" stroke = "black"/>
</g>
<g>
<polygon points = "323.617, 57.703 325.170, 60.441 442.039, 27.886 446.803, 19.979 445.540, 1.000 324.204, 1.000 "
fill = "none" stroke = "black"/>
</g>
<g>
<polygon points = "303.498, 644.783 250.078, 727.362 260.069, 735.939 322.975, 677.594 "
fill = "none" stroke = "black"/>
</g>
<g>
<polygon points = "597.417, 51.936 664.514, 102.258 723.546, 1.000 620.418, 1.000 "
fill = "none" stroke = "black"/>
</g>
<g>
<polygon points = "442.039, 27.886 325.170, 60.441 311.914, 104.980 428.924, 141.819 "
fill = "none" stroke = "black"/>
</g>
<g>
<polygon points = "436.474, 183.345 439.833, 173.276 428.924, 141.819 311.914, 104.980 273.362, 136.811 323.087, 248.688 "
fill = "none" stroke = "black"/>
</g>
<g>
<polygon points = "391.508, 552.604 462.498, 662.167 554.122, 628.375 569.104, 503.823 510.281, 464.133 426.228, 490.047 "
fill = "none" stroke = "black"/>
</g>
<g>
<polygon points = "80.603, 175.073 70.505, 229.869 138.906, 230.369 149.691, 213.735 124.890, 110.091 "
fill = "none" stroke = "black"/>
</g>
<g>
<polygon points = "962.848, 302.717 810.177, 360.412 798.400, 394.553 809.412, 411.653 940.953, 392.579 "
fill = "none" stroke = "black"/>
</g>
<g>
<polygon points = "41.493, 871.026 1.000, 872.174 1.000, 999.000 53.933, 999.000 "
fill = "none" stroke = "black"/>
</g>
<g>
<polygon points = "474.624, 330.121 567.077, 329.978 584.553, 296.147 573.181, 256.971 482.420, 281.738 "
fill = "none" stroke = "black"/>
</g>
<g>
<polygon points = "719.072, 903.015 772.492, 918.002 792.320, 906.860 786.906, 873.466 781.803, 850.213 693.388, 840.408 "
fill = "none" stroke = "black"/>
</g>
<g>
<polygon points = "311.543, 282.872 276.233, 314.458 224.472, 384.893 213.761, 504.014 222.611, 522.644 351.918, 366.625 354.049, 337.566 "
fill = "none" stroke = "black"/>
</g>
<g>
<polygon points = "772.995, 643.479 825.771, 755.788 874.294, 759.787 892.917, 749.331 908.162, 683.969 863.944, 600.560 "
fill = "none" stroke = "black"/>
</g>
<g>
<polygon points = "442.770, 744.376 453.149, 739.545 461.155, 666.194 322.975, 677.594 260.069, 735.939 271.929, 756.928 "
fill = "none" stroke = "black"/>
</g>
<g>
<polygon points = "630.110, 646.707 554.122, 628.375 462.498, 662.167 461.155, 666.194 453.149, 739.545 455.902, 743.584 623.927, 748.441 639.805, 723.809 654.333, 658.801 "
fill = "none" stroke = "black"/>
</g>
<g>
<polygon points = "664.514, 102.258 696.246, 149.293 755.070, 129.959 729.544, 1.000 723.546, 1.000 "
fill = "none" stroke = "black"/>
</g>
<g>
<polygon points = "727.763, 629.599 732.805, 559.301 650.258, 526.285 630.110, 646.707 654.333, 658.801 669.782, 657.090 "
fill = "none" stroke = "black"/>
</g>
<g>
<polygon points = "521.421, 415.377 510.281, 464.133 569.104, 503.823 626.440, 477.429 663.095, 429.373 667.858, 407.457 600.343, 383.654 "
fill = "none" stroke = "black"/>
</g>
<g>
<polygon points = "127.101, 944.506 224.952, 857.222 145.733, 824.311 107.170, 870.559 "
fill = "none" stroke = "black"/>
</g>
<g>
<polygon points = "147.533, 651.426 143.452, 655.021 116.987, 684.424 120.898, 764.156 145.733, 824.311 224.952, 857.222 259.129, 860.598 271.929, 756.928 260.069, 735.939 250.078, 727.362 "
fill = "none" stroke = "black"/>
</g>
<g>
<polygon points = "141.646, 55.366 206.657, 139.867 257.811, 132.784 242.463, 58.845 153.935, 1.000 117.128, 1.000 "
fill = "none" stroke = "black"/>
</g>
<g>
<polygon points = "939.676, 760.896 999.000, 797.480 999.000, 690.682 "
fill = "none" stroke = "black"/>
</g>
<g>
<polygon points = "124.890, 110.091 149.691, 213.735 206.657, 139.867 141.646, 55.366 "
fill = "none" stroke = "black"/>
</g>
<g>
<polygon points = "442.039, 27.886 428.924, 141.819 439.833, 173.276 556.807, 145.493 568.086, 72.479 446.803, 19.979 "
fill = "none" stroke = "black"/>
</g>
<g>
<polygon points = "623.927, 748.441 616.546, 775.840 673.648, 830.697 679.831, 828.898 696.114, 800.671 639.805, 723.809 "
fill = "none" stroke = "black"/>
</g>
<g>
<polygon points = "882.621, 814.766 874.294, 759.787 825.771, 755.788 790.305, 782.826 781.803, 850.213 786.906, 873.466 "
fill = "none" stroke = "black"/>
</g>
<g>
<polygon points = "165.207, 590.151 223.038, 526.293 222.611, 522.644 213.761, 504.014 183.671, 476.534 23.453, 421.146 1.000, 421.943 1.000, 503.098 "
fill = "none" stroke = "black"/>
</g>
<g>
<polygon points = "145.025, 235.974 138.906, 230.369 70.505, 229.869 45.550, 237.897 23.302, 247.936 111.713, 358.842 165.238, 322.778 "
fill = "none" stroke = "black"/>
</g>
<g>
<polygon points = "614.389, 196.756 600.236, 195.817 590.829, 210.026 573.181, 256.971 584.553, 296.147 654.869, 304.541 "
fill = "none" stroke = "black"/>
</g>
<g>
<polygon points = "908.162, 683.969 892.917, 749.331 939.676, 760.896 999.000, 690.682 999.000, 645.107 "
fill = "none" stroke = "black"/>
</g>
<g>
<polygon points = "426.228, 490.047 510.281, 464.133 521.421, 415.377 474.103, 330.818 469.972, 332.270 422.097, 476.005 "
fill = "none" stroke = "black"/>
</g>
<g>
<polygon points = "297.558, 907.546 442.770, 744.376 271.929, 756.928 259.129, 860.598 "
fill = "none" stroke = "black"/>
</g>
<g>
<polygon points = "44.684, 823.783 120.898, 764.156 116.987, 684.424 1.000, 707.436 1.000, 781.274 "
fill = "none" stroke = "black"/>
</g>
<g>
<polygon points = "458.225, 908.132 302.475, 922.486 287.278, 999.000 477.558, 999.000 "
fill = "none" stroke = "black"/>
</g>
<g>
<polygon points = "810.177, 360.412 788.699, 268.498 721.600, 265.622 673.050, 317.933 675.093, 400.753 798.400, 394.553 "
fill = "none" stroke = "black"/>
</g>
<g>
<polygon points = "755.070, 129.959 819.546, 149.368 999.000, 75.254 999.000, 1.000 729.544, 1.000 "
fill = "none" stroke = "black"/>
</g>
<g>
<polygon points = "750.417, 963.770 772.492, 918.002 719.072, 903.015 653.059, 924.843 654.103, 940.987 702.917, 999.000 726.311, 999.000 "
fill = "none" stroke = "black"/>
</g>
<g>
<polygon points = "721.600, 265.622 672.284, 180.940 614.389, 196.756 654.869, 304.541 673.050, 317.933 "
fill = "none" stroke = "black"/>
</g>
<g>
<polygon points = "271.608, 27.944 323.617, 57.703 324.204, 1.000 263.708, 1.000 "
fill = "none" stroke = "black"/>
</g>
<g>
<polygon points = "107.170, 870.559 145.733, 824.311 120.898, 764.156 44.684, 823.783 42.160, 870.479 "
fill = "none" stroke = "black"/>
</g>
<g>
<polygon points = "80.603, 175.073 124.890, 110.091 141.646, 55.366 117.128, 1.000 77.690, 1.000 "
fill = "none" stroke = "black"/>
</g>
<g>
<polygon points = "564.903, 955.792 485.140, 871.484 458.225, 908.132 477.558, 999.000 564.278, 999.000 "
fill = "none" stroke = "black"/>
</g>
<g>
<polygon points = "792.486, 263.260 819.546, 149.368 755.070, 129.959 696.246, 149.293 672.284, 180.940 721.600, 265.622 788.699, 268.498 "
fill = "none" stroke = "black"/>
</g>
<g>
<polygon points = "650.258, 526.285 626.440, 477.429 569.104, 503.823 554.122, 628.375 630.110, 646.707 "
fill = "none" stroke = "black"/>
</g>
<g>
<polygon points = "987.569, 271.984 962.848, 302.717 940.953, 392.579 941.719, 396.169 999.000, 438.220 999.000, 262.886 "
fill = "none" stroke = "black"/>
</g>
<g>
<polygon points = "474.103, 330.818 521.421, 415.377 600.343, 383.654 567.077, 329.978 474.624, 330.121 "
fill = "none" stroke = "black"/>
</g>
<g>
<polygon points = "925.615, 481.610 940.849, 527.653 999.000, 529.167 999.000, 456.081 "
fill = "none" stroke = "black"/>
</g>
<g>
<polygon points = "941.719, 396.169 916.609, 472.777 925.615, 481.610 999.000, 456.081 999.000, 438.220 "
fill = "none" stroke = "black"/>
</g>
<g>
<polygon points = "819.546, 149.368 792.486, 263.260 987.569, 271.984 999.000, 262.886 999.000, 75.254 "
fill = "none" stroke = "black"/>
</g>
<g>
<polygon points = "223.038, 526.293 165.207, 590.151 147.533, 651.426 250.078, 727.362 303.498, 644.783 270.747, 539.923 "
fill = "none" stroke = "black"/>
</g>
<g>
<polygon points = "719.072, 903.015 693.388, 840.408 679.831, 828.898 673.648, 830.697 617.984, 882.489 653.059, 924.843 "
fill = "none" stroke = "black"/>
</g>
<g>
<polygon points = "792.486, 263.260 788.699, 268.498 810.177, 360.412 962.848, 302.717 987.569, 271.984 "
fill = "none" stroke = "black"/>
</g>
<g>
<polygon points = "173.735, 340.249 168.372, 326.348 165.238, 322.778 111.713, 358.842 111.852, 377.955 143.125, 402.021 "
fill = "none" stroke = "black"/>
</g>
<g>
<polygon points = "143.452, 655.021 147.533, 651.426 165.207, 590.151 1.000, 503.098 1.000, 592.542 "
fill = "none" stroke = "black"/>
</g>
<g>
<polygon points = "578.847, 858.040 496.364, 843.298 485.140, 871.484 564.903, 955.792 615.340, 882.058 "
fill = "none" stroke = "black"/>
</g>
<g>
<polygon points = "841.726, 922.406 792.320, 906.860 772.492, 918.002 750.417, 963.770 803.039, 999.000 839.901, 999.000 "
fill = "none" stroke = "black"/>
</g>
<g>
<polygon points = "213.761, 504.014 224.472, 384.893 173.735, 340.249 143.125, 402.021 183.671, 476.534 "
fill = "none" stroke = "black"/>
</g>
<g>
<polygon points = "242.463, 58.845 271.608, 27.944 263.708, 1.000 153.935, 1.000 "
fill = "none" stroke = "black"/>
</g>
<g>
<polygon points = "476.544, 783.079 615.331, 776.885 616.546, 775.840 623.927, 748.441 455.902, 743.584 "
fill = "none" stroke = "black"/>
</g>
<g>
<polygon points = "41.493, 871.026 42.160, 870.479 44.684, 823.783 1.000, 781.274 1.000, 872.174 "
fill = "none" stroke = "black"/>
</g>
<g>
<polygon points = "257.811, 132.784 206.657, 139.867 149.691, 213.735 138.906, 230.369 145.025, 235.974 311.244, 281.031 323.087, 248.688 273.362, 136.811 "
fill = "none" stroke = "black"/>
</g>
<g>
<polygon points = "461.155, 666.194 462.498, 662.167 391.508, 552.604 270.747, 539.923 303.498, 644.783 322.975, 677.594 "
fill = "none" stroke = "black"/>
</g>
<g>
<polygon points = "775.439, 780.373 697.508, 703.495 709.236, 792.841 "
fill = "none" stroke = "black"/>
</g>
<g>
<polygon points = "436.474, 183.345 323.087, 248.688 311.244, 281.031 311.543, 282.872 354.049, 337.566 469.972, 332.270 474.103, 330.818 474.624, 330.121 482.420, 281.738 469.894, 239.321 "
fill = "none" stroke = "black"/>
</g>
<g>
<polygon points = "271.608, 27.944 242.463, 58.845 257.811, 132.784 273.362, 136.811 311.914, 104.980 325.170, 60.441 323.617, 57.703 "
fill = "none" stroke = "black"/>
</g>
<g>
<polygon points = "600.236, 195.817 556.807, 145.493 439.833, 173.276 436.474, 183.345 469.894, 239.321 590.829, 210.026 "
fill = "none" stroke = "black"/>
</g>
<g>
<polygon points = "302.475, 922.486 297.558, 907.546 259.129, 860.598 224.952, 857.222 127.101, 944.506 119.060, 999.000 287.278, 999.000 "
fill = "none" stroke = "black"/>
</g>
<g>
<polygon points = "168.372, 326.348 276.233, 314.458 311.543, 282.872 311.244, 281.031 145.025, 235.974 165.238, 322.778 "
fill = "none" stroke = "black"/>
</g>
<g>
<polygon points = "940.849, 527.653 915.476, 573.117 999.000, 629.343 999.000, 529.167 "
fill = "none" stroke = "black"/>
</g>
<g>
<polygon points = "45.550, 237.897 70.505, 229.869 80.603, 175.073 77.690, 1.000 39.049, 1.000 "
fill = "none" stroke = "black"/>
</g>
<g>
<polygon points = "485.140, 871.484 496.364, 843.298 476.544, 783.079 455.902, 743.584 453.149, 739.545 442.770, 744.376 297.558, 907.546 302.475, 922.486 458.225, 908.132 "
fill = "none" stroke = "black"/>
</g>
<g>
<polygon points = "615.331, 776.885 476.544, 783.079 496.364, 843.298 578.847, 858.040 "
fill = "none" stroke = "black"/>
</g>
<g>
<polygon points = "654.103, 940.987 594.658, 999.000 702.917, 999.000 "
fill = "none" stroke = "black"/>
</g>
<g>
<polygon points = "1.000, 252.524 23.302, 247.936 45.550, 237.897 39.049, 1.000 1.000, 1.000 "
fill = "none" stroke = "black"/>
</g>
<g>
<polygon points = "168.372, 326.348 173.735, 340.249 224.472, 384.893 276.233, 314.458 "
fill = "none" stroke = "black"/>
</g>
<g>
<polygon points = "882.621, 814.766 786.906, 873.466 792.320, 906.860 841.726, 922.406 902.004, 903.663 "
fill = "none" stroke = "black"/>
</g>
<g>
<polygon points = "222.611, 522.644 223.038, 526.293 270.747, 539.923 391.508, 552.604 426.228, 490.047 422.097, 476.005 351.918, 366.625 "
fill = "none" stroke = "black"/>
</g>
<g>
<polygon points = "116.987, 684.424 143.452, 655.021 1.000, 592.542 1.000, 707.436 "
fill = "none" stroke = "black"/>
</g>
<g>
<polygon points = "626.440, 477.429 650.258, 526.285 732.805, 559.301 742.972, 533.529 663.095, 429.373 "
fill = "none" stroke = "black"/>
</g>
<g>
<polygon points = "673.648, 830.697 616.546, 775.840 615.331, 776.885 578.847, 858.040 615.340, 882.058 617.984, 882.489 "
fill = "none" stroke = "black"/>
</g>
<g>
<polygon points = "939.676, 760.896 892.917, 749.331 874.294, 759.787 882.621, 814.766 902.004, 903.663 999.000, 932.992 999.000, 797.480 "
fill = "none" stroke = "black"/>
</g>
<g>
<polygon points = "742.972, 533.529 732.805, 559.301 727.763, 629.599 772.995, 643.479 863.944, 600.560 867.930, 592.514 817.504, 490.402 "
fill = "none" stroke = "black"/>
</g>
<g>
<polygon points = "825.771, 755.788 772.995, 643.479 727.763, 629.599 669.782, 657.090 697.508, 703.495 775.439, 780.373 790.305, 782.826 "
fill = "none" stroke = "black"/>
</g>
<g>
<polygon points = "127.101, 944.506 107.170, 870.559 42.160, 870.479 41.493, 871.026 53.933, 999.000 119.060, 999.000 "
fill = "none" stroke = "black"/>
</g>
<g>
<polygon points = "111.713, 358.842 23.302, 247.936 1.000, 252.524 1.000, 421.943 23.453, 421.146 111.852, 377.955 "
fill = "none" stroke = "black"/>
</g>
<g>
<polygon points = "750.417, 963.770 726.311, 999.000 803.039, 999.000 "
fill = "none" stroke = "black"/>
</g>
<g>
<polygon points = "600.236, 195.817 614.389, 196.756 672.284, 180.940 696.246, 149.293 664.514, 102.258 597.417, 51.936 568.086, 72.479 556.807, 145.493 "
fill = "none" stroke = "black"/>
</g>
<circle cx="690.807" cy="757.649" r="1" stroke="red" stroke-width="1" fill="red" />
<circle cx="933.674" cy="631.147" r="1" stroke="red" stroke-width="1" fill="red" />
<circle cx="887.890" cy="518.917" r="1" stroke="red" stroke-width="1" fill="red" />
<circle cx="530.499" cy="240.135" r="1" stroke="red" stroke-width="1" fill="red" />
<circle cx="609.904" cy="326.698" r="1" stroke="red" stroke-width="1" fill="red" />
<circle cx="425.076" cy="395.972" r="1" stroke="red" stroke-width="1" fill="red" />
<circle cx="603.368" cy="948.048" r="1" stroke="red" stroke-width="1" fill="red" />
<circle cx="884.459" cy="987.276" r="1" stroke="red" stroke-width="1" fill="red" />
<circle cx="743.983" cy="471.378" r="1" stroke="red" stroke-width="1" fill="red" />
<circle cx="541.447" cy="0.784" r="1" stroke="red" stroke-width="1" fill="red" />
<circle cx="897.402" cy="421.936" r="1" stroke="red" stroke-width="1" fill="red" />
<circle cx="104.182" cy="414.175" r="1" stroke="red" stroke-width="1" fill="red" />
<circle cx="731.458" cy="825.768" r="1" stroke="red" stroke-width="1" fill="red" />
<circle cx="672.798" cy="60.099" r="1" stroke="red" stroke-width="1" fill="red" />
<circle cx="350.450" cy="13.490" r="1" stroke="red" stroke-width="1" fill="red" />
<circle cx="295.611" cy="666.993" r="1" stroke="red" stroke-width="1" fill="red" />
<circle cx="350.431" cy="153.155" r="1" stroke="red" stroke-width="1" fill="red" />
<circle cx="123.349" cy="133.324" r="1" stroke="red" stroke-width="1" fill="red" />
<circle cx="371.083" cy="87.561" r="1" stroke="red" stroke-width="1" fill="red" />
<circle cx="505.481" cy="532.703" r="1" stroke="red" stroke-width="1" fill="red" />
<circle cx="890.857" cy="376.800" r="1" stroke="red" stroke-width="1" fill="red" />
<circle cx="12.433" cy="917.158" r="1" stroke="red" stroke-width="1" fill="red" />
<circle cx="727.325" cy="863.033" r="1" stroke="red" stroke-width="1" fill="red" />
<circle cx="544.967" cy="293.153" r="1" stroke="red" stroke-width="1" fill="red" />
<circle cx="275.263" cy="384.985" r="1" stroke="red" stroke-width="1" fill="red" />
<circle cx="850.125" cy="675.439" r="1" stroke="red" stroke-width="1" fill="red" />
<circle cx="331.491" cy="705.677" r="1" stroke="red" stroke-width="1" fill="red" />
<circle cx="579.249" cy="732.718" r="1" stroke="red" stroke-width="1" fill="red" />
<circle cx="697.120" cy="74.278" r="1" stroke="red" stroke-width="1" fill="red" />
<circle cx="668.295" cy="554.367" r="1" stroke="red" stroke-width="1" fill="red" />
<circle cx="572.069" cy="434.014" r="1" stroke="red" stroke-width="1" fill="red" />
<circle cx="151.788" cy="891.050" r="1" stroke="red" stroke-width="1" fill="red" />
<circle cx="197.297" cy="781.509" r="1" stroke="red" stroke-width="1" fill="red" />
<circle cx="215.139" cy="69.824" r="1" stroke="red" stroke-width="1" fill="red" />
<circle cx="993.692" cy="727.095" r="1" stroke="red" stroke-width="1" fill="red" />
<circle cx="46.565" cy="788.902" r="1" stroke="red" stroke-width="1" fill="red" />
<circle cx="136.781" cy="130.110" r="1" stroke="red" stroke-width="1" fill="red" />
<circle cx="497.581" cy="102.123" r="1" stroke="red" stroke-width="1" fill="red" />
<circle cx="82.640" cy="476.486" r="1" stroke="red" stroke-width="1" fill="red" />
<circle cx="656.693" cy="782.641" r="1" stroke="red" stroke-width="1" fill="red" />
<circle cx="836.641" cy="839.040" r="1" stroke="red" stroke-width="1" fill="red" />
<circle cx="467.704" cy="410.170" r="1" stroke="red" stroke-width="1" fill="red" />
<circle cx="121.931" cy="327.176" r="1" stroke="red" stroke-width="1" fill="red" />
<circle cx="616.383" cy="272.422" r="1" stroke="red" stroke-width="1" fill="red" />
<circle cx="963.984" cy="701.995" r="1" stroke="red" stroke-width="1" fill="red" />
<circle cx="338.342" cy="798.922" r="1" stroke="red" stroke-width="1" fill="red" />
<circle cx="411.497" cy="971.442" r="1" stroke="red" stroke-width="1" fill="red" />
<circle cx="736.551" cy="323.573" r="1" stroke="red" stroke-width="1" fill="red" />
<circle cx="787.439" cy="56.400" r="1" stroke="red" stroke-width="1" fill="red" />
<circle cx="662.697" cy="255.028" r="1" stroke="red" stroke-width="1" fill="red" />
<circle cx="705.324" cy="941.455" r="1" stroke="red" stroke-width="1" fill="red" />
<circle cx="297.704" cy="12.944" r="1" stroke="red" stroke-width="1" fill="red" />
<circle cx="78.993" cy="830.351" r="1" stroke="red" stroke-width="1" fill="red" />
<circle cx="103.829" cy="120.021" r="1" stroke="red" stroke-width="1" fill="red" />
<circle cx="526.679" cy="946.937" r="1" stroke="red" stroke-width="1" fill="red" />
<circle cx="741.454" cy="209.163" r="1" stroke="red" stroke-width="1" fill="red" />
<circle cx="992.692" cy="401.613" r="1" stroke="red" stroke-width="1" fill="red" />
<circle cx="624.063" cy="546.967" r="1" stroke="red" stroke-width="1" fill="red" />
<circle cx="545.081" cy="366.872" r="1" stroke="red" stroke-width="1" fill="red" />
<circle cx="978.147" cy="489.053" r="1" stroke="red" stroke-width="1" fill="red" />
<circle cx="286.474" cy="661.082" r="1" stroke="red" stroke-width="1" fill="red" />
<circle cx="962.185" cy="443.169" r="1" stroke="red" stroke-width="1" fill="red" />
<circle cx="862.397" cy="237.898" r="1" stroke="red" stroke-width="1" fill="red" />
<circle cx="685.118" cy="880.348" r="1" stroke="red" stroke-width="1" fill="red" />
<circle cx="859.854" cy="294.761" r="1" stroke="red" stroke-width="1" fill="red" />
<circle cx="24.793" cy="585.605" r="1" stroke="red" stroke-width="1" fill="red" />
<circle cx="144.899" cy="361.264" r="1" stroke="red" stroke-width="1" fill="red" />
<circle cx="558.178" cy="917.136" r="1" stroke="red" stroke-width="1" fill="red" />
<circle cx="233.851" cy="204.970" r="1" stroke="red" stroke-width="1" fill="red" />
<circle cx="795.953" cy="985.167" r="1" stroke="red" stroke-width="1" fill="red" />
<circle cx="241.545" cy="29.412" r="1" stroke="red" stroke-width="1" fill="red" />
<circle cx="400.713" cy="854.429" r="1" stroke="red" stroke-width="1" fill="red" />
<circle cx="174.481" cy="375.923" r="1" stroke="red" stroke-width="1" fill="red" />
<circle cx="578.415" cy="761.556" r="1" stroke="red" stroke-width="1" fill="red" />
<circle cx="9.868" cy="826.614" r="1" stroke="red" stroke-width="1" fill="red" />
<circle cx="206.033" cy="307.593" r="1" stroke="red" stroke-width="1" fill="red" />
<circle cx="326.773" cy="648.496" r="1" stroke="red" stroke-width="1" fill="red" />
<circle cx="717.958" cy="754.086" r="1" stroke="red" stroke-width="1" fill="red" />
<circle cx="419.454" cy="272.928" r="1" stroke="red" stroke-width="1" fill="red" />
<circle cx="271.900" cy="58.042" r="1" stroke="red" stroke-width="1" fill="red" />
<circle cx="523.408" cy="210.863" r="1" stroke="red" stroke-width="1" fill="red" />
<circle cx="183.018" cy="926.062" r="1" stroke="red" stroke-width="1" fill="red" />
<circle cx="976.088" cy="568.141" r="1" stroke="red" stroke-width="1" fill="red" />
<circle cx="682.686" cy="518.387" r="1" stroke="red" stroke-width="1" fill="red" />
<circle cx="55.547" cy="120.829" r="1" stroke="red" stroke-width="1" fill="red" />
<circle cx="579.928" cy="795.442" r="1" stroke="red" stroke-width="1" fill="red" />
<circle cx="645.807" cy="991.534" r="1" stroke="red" stroke-width="1" fill="red" />
<circle cx="209.214" cy="336.449" r="1" stroke="red" stroke-width="1" fill="red" />
<circle cx="29.148" cy="121.553" r="1" stroke="red" stroke-width="1" fill="red" />
<circle cx="840.139" cy="844.743" r="1" stroke="red" stroke-width="1" fill="red" />
<circle cx="12.012" cy="614.744" r="1" stroke="red" stroke-width="1" fill="red" />
<circle cx="348.105" cy="445.356" r="1" stroke="red" stroke-width="1" fill="red" />
<circle cx="624.950" cy="815.682" r="1" stroke="red" stroke-width="1" fill="red" />
<circle cx="933.725" cy="824.338" r="1" stroke="red" stroke-width="1" fill="red" />
<circle cx="797.359" cy="563.624" r="1" stroke="red" stroke-width="1" fill="red" />
<circle cx="748.372" cy="723.255" r="1" stroke="red" stroke-width="1" fill="red" />
<circle cx="78.893" cy="910.698" r="1" stroke="red" stroke-width="1" fill="red" />
<circle cx="78.566" cy="361.746" r="1" stroke="red" stroke-width="1" fill="red" />
<circle cx="626.360" cy="122.016" r="1" stroke="red" stroke-width="1" fill="red" />
<circle cx="787.550" cy="997.718" r="1" stroke="red" stroke-width="1" fill="red" />
</svg>
