<svg xmlns = "http://www.w3.org/2000/svg" width = "1000" height = "1000">
<g>
<polygon points = "679.683, 615.847 678.376, 613.658 610.963, 621.124 599.909, 624.626 590.574, 666.394 675.238, 781.960 699.581, 767.433 "
fill = "none" stroke = "black"/>
</g>
<g>
<polygon points = "867.772, 573.996 828.572, 589.987 883.981, 694.506 983.527, 651.919 "
fill = "none" stroke = "black"/>
</g>
<g>
<polygon points = "888.432, 536.978 865.274, 466.987 854.480, 456.401 795.185, 450.585 779.796, 497.170 825.234, 589.182 828.572, 589.987 867.772, 573.996 "
fill = "none" stroke = "black"/>
</g>
<g>
<polygon points = "602.990, 196.590 423.079, 240.172 439.560, 295.981 580.037, 257.647 "
fill = "none" stroke = "black"/>
</g>
<g>
<polygon points = "710.936, 316.416 593.010, 302.339 566.998, 352.694 604.559, 413.301 662.744, 433.815 667.737, 431.919 712.756, 390.199 "
fill = "none" stroke = "black"/>
</g>
<g>
<polygon points = "402.918, 490.523 441.457, 374.818 436.141, 352.897 431.299, 347.250 360.198, 350.499 355.365, 416.407 "
fill = "none" stroke = "black"/>
</g>
<g>
<polygon points = "613.797, 909.045 572.705, 859.425 549.944, 855.714 488.928, 944.915 488.145, 999.000 521.621, 999.000 "
fill = "none" stroke = "black"/>
</g>
<g>
<polygon points = "930.701, 914.864 929.273, 974.788 931.882, 999.000 999.000, 999.000 999.000, 935.515 "
fill = "none" stroke = "black"/>
</g>
<g>
<polygon points = "774.720, 387.083 712.756, 390.199 667.737, 431.919 736.839, 522.026 779.796, 497.170 795.185, 450.585 "
fill = "none" stroke = "black"/>
</g>
<g>
<polygon points = "479.048, 34.314 588.368, 81.635 650.861, 37.864 667.508, 1.000 476.832, 1.000 "
fill = "none" stroke = "black"/>
</g>
<g>
<polygon points = "898.511, 322.065 806.303, 335.435 774.720, 387.083 795.185, 450.585 854.480, 456.401 "
fill = "none" stroke = "black"/>
</g>
<g>
<polygon points = "225.565, 543.807 178.488, 457.289 101.251, 397.853 1.000, 446.834 1.000, 475.848 216.639, 550.396 "
fill = "none" stroke = "black"/>
</g>
<g>
<polygon points = "668.885, 792.972 688.692, 809.789 831.357, 825.610 840.766, 751.042 811.902, 746.280 699.581, 767.433 675.238, 781.960 "
fill = "none" stroke = "black"/>
</g>
<g>
<polygon points = "650.861, 37.864 759.626, 119.438 828.673, 1.000 667.508, 1.000 "
fill = "none" stroke = "black"/>
</g>
<g>
<polygon points = "362.895, 107.444 449.532, 83.311 479.048, 34.314 476.832, 1.000 363.997, 1.000 "
fill = "none" stroke = "black"/>
</g>
<g>
<polygon points = ""
fill = "none" stroke = "black"/>
</g>
<g>
<polygon points = "419.737, 189.814 342.945, 165.637 310.171, 192.698 339.698, 259.132 410.157, 218.529 "
fill = "none" stroke = "black"/>
</g>
<g>
<polygon points = "110.957, 35.337 70.708, 253.737 157.615, 254.372 174.833, 246.203 214.621, 184.837 111.077, 35.161 "
fill = "none" stroke = "black"/>
</g>
<g>
<polygon points = "440.179, 164.561 449.532, 83.311 362.895, 107.444 359.175, 111.102 342.945, 165.637 419.737, 189.814 "
fill = "none" stroke = "black"/>
</g>
<g>
<polygon points = "521.653, 540.129 477.439, 510.297 414.449, 529.717 393.267, 567.882 435.384, 632.884 513.983, 603.896 "
fill = "none" stroke = "black"/>
</g>
<g>
<polygon points = "910.439, 309.245 933.009, 216.611 834.442, 253.860 806.303, 335.435 898.511, 322.065 "
fill = "none" stroke = "black"/>
</g>
<g>
<polygon points = "98.584, 866.349 90.169, 859.896 1.000, 862.423 1.000, 999.000 111.479, 999.000 "
fill = "none" stroke = "black"/>
</g>
<g>
<polygon points = "719.606, 885.142 795.329, 906.386 814.379, 897.868 843.611, 881.442 831.357, 825.610 688.692, 809.789 "
fill = "none" stroke = "black"/>
</g>
<g>
<polygon points = "431.299, 347.250 436.141, 352.897 566.998, 352.694 593.010, 302.339 580.037, 257.647 439.560, 295.981 "
fill = "none" stroke = "black"/>
</g>
<g>
<polygon points = "333.736, 316.449 329.902, 319.878 251.313, 426.823 241.351, 537.607 255.388, 537.037 355.365, 416.407 360.198, 350.499 "
fill = "none" stroke = "black"/>
</g>
<g>
<polygon points = "825.234, 589.182 776.450, 612.204 841.448, 750.522 870.360, 752.905 883.981, 694.506 828.572, 589.987 "
fill = "none" stroke = "black"/>
</g>
<g>
<polygon points = "407.700, 747.402 425.475, 668.852 426.491, 659.542 377.411, 663.592 288.344, 753.500 289.794, 756.065 "
fill = "none" stroke = "black"/>
</g>
<g>
<polygon points = "513.983, 603.896 435.384, 632.884 426.491, 659.542 425.475, 668.852 585.999, 673.492 590.574, 666.394 599.909, 624.626 "
fill = "none" stroke = "black"/>
</g>
<g>
<polygon points = "759.626, 119.438 768.200, 132.147 885.489, 93.596 867.161, 1.000 828.673, 1.000 "
fill = "none" stroke = "black"/>
</g>
<g>
<polygon points = "718.773, 594.504 721.111, 561.895 627.160, 524.317 610.963, 621.124 678.376, 613.658 "
fill = "none" stroke = "black"/>
</g>
<g>
<polygon points = "614.118, 497.566 662.744, 433.815 604.559, 413.301 488.986, 459.756 477.439, 510.297 521.653, 540.129 "
fill = "none" stroke = "black"/>
</g>
<g>
<polygon points = "192.415, 972.940 296.847, 879.787 278.985, 843.616 207.495, 813.916 163.707, 866.429 "
fill = "none" stroke = "black"/>
</g>
<g>
<polygon points = "166.479, 663.257 169.336, 721.489 207.495, 813.916 278.985, 843.616 289.794, 756.065 288.344, 753.500 "
fill = "none" stroke = "black"/>
</g>
<g>
<polygon points = "242.825, 110.181 106.560, 21.144 110.949, 34.878 111.077, 35.161 214.621, 184.837 257.101, 178.955 "
fill = "none" stroke = "black"/>
</g>
<g>
<polygon points = "903.875, 778.658 999.000, 837.319 999.000, 666.072 "
fill = "none" stroke = "black"/>
</g>
<g>
<polygon points = "94.486, 780.049 169.336, 721.489 166.479, 663.257 160.291, 651.642 1.000, 683.245 1.000, 689.078 "
fill = "none" stroke = "black"/>
</g>
<g>
<polygon points = ""
fill = "none" stroke = "black"/>
</g>
<g>
<polygon points = "449.532, 83.311 440.179, 164.561 580.714, 131.181 588.368, 81.635 479.048, 34.314 "
fill = "none" stroke = "black"/>
</g>
<g>
<polygon points = "174.378, 597.062 216.639, 550.396 1.000, 475.848 1.000, 505.147 "
fill = "none" stroke = "black"/>
</g>
<g>
<polygon points = "585.999, 673.492 567.823, 740.969 632.862, 803.452 668.885, 792.972 675.238, 781.960 590.574, 666.394 "
fill = "none" stroke = "black"/>
</g>
<g>
<polygon points = "906.626, 847.053 895.972, 776.703 870.360, 752.905 841.448, 750.522 840.766, 751.042 831.357, 825.610 843.611, 881.442 848.385, 882.771 "
fill = "none" stroke = "black"/>
</g>
<g>
<polygon points = "414.449, 529.717 477.439, 510.297 488.986, 459.756 441.457, 374.818 402.918, 490.523 "
fill = "none" stroke = "black"/>
</g>
<g>
<polygon points = "100.997, 362.902 171.781, 315.209 157.615, 254.372 70.708, 253.737 25.554, 268.263 "
fill = "none" stroke = "black"/>
</g>
<g>
<polygon points = "713.009, 311.547 662.533, 177.150 617.825, 174.184 602.990, 196.590 580.037, 257.647 593.010, 302.339 710.936, 316.416 "
fill = "none" stroke = "black"/>
</g>
<g>
<polygon points = "983.527, 651.919 883.981, 694.506 870.360, 752.905 895.972, 776.703 903.875, 778.658 999.000, 666.072 999.000, 653.318 "
fill = "none" stroke = "black"/>
</g>
<g>
<polygon points = "298.673, 882.018 408.798, 758.273 408.737, 754.071 407.700, 747.402 289.794, 756.065 278.985, 843.616 296.847, 879.787 "
fill = "none" stroke = "black"/>
</g>
<g>
<polygon points = "381.226, 905.053 308.460, 911.760 291.132, 999.000 401.214, 999.000 "
fill = "none" stroke = "black"/>
</g>
<g>
<polygon points = "834.442, 253.860 827.772, 225.315 794.371, 223.884 713.009, 311.547 710.936, 316.416 712.756, 390.199 774.720, 387.083 806.303, 335.435 "
fill = "none" stroke = "black"/>
</g>
<g>
<polygon points = "885.489, 93.596 894.451, 96.294 999.000, 53.115 999.000, 1.000 867.161, 1.000 "
fill = "none" stroke = "black"/>
</g>
<g>
<polygon points = "794.371, 223.884 752.795, 152.491 662.533, 177.150 713.009, 311.547 "
fill = "none" stroke = "black"/>
</g>
<g>
<polygon points = "795.329, 906.386 719.606, 885.142 629.996, 914.773 700.868, 999.000 731.958, 999.000 "
fill = "none" stroke = "black"/>
</g>
<g>
<polygon points = "283.044, 67.540 359.175, 111.102 362.895, 107.444 363.997, 1.000 263.532, 1.000 "
fill = "none" stroke = "black"/>
</g>
<g>
<polygon points = "163.707, 866.429 207.495, 813.916 169.336, 721.489 94.486, 780.049 90.169, 859.896 98.584, 866.349 "
fill = "none" stroke = "black"/>
</g>
<g>
<polygon points = "110.957, 35.337 111.077, 35.161 110.949, 34.878 "
fill = "none" stroke = "black"/>
</g>
<g>
<polygon points = "488.928, 944.915 411.812, 863.406 381.226, 905.053 401.214, 999.000 488.145, 999.000 "
fill = "none" stroke = "black"/>
</g>
<g>
<polygon points = "881.431, 151.094 894.451, 96.294 885.489, 93.596 768.200, 132.147 752.795, 152.491 794.371, 223.884 827.772, 225.315 "
fill = "none" stroke = "black"/>
</g>
<g>
<polygon points = "982.090, 155.595 933.009, 216.611 910.439, 309.245 999.000, 374.260 999.000, 142.137 "
fill = "none" stroke = "black"/>
</g>
<g>
<polygon points = "627.160, 524.317 614.118, 497.566 521.653, 540.129 513.983, 603.896 599.909, 624.626 610.963, 621.124 "
fill = "none" stroke = "black"/>
</g>
<g>
<polygon points = "488.986, 459.756 604.559, 413.301 566.998, 352.694 436.141, 352.897 441.457, 374.818 "
fill = "none" stroke = "black"/>
</g>
<g>
<polygon points = "865.274, 466.987 888.432, 536.978 999.000, 539.856 999.000, 420.466 "
fill = "none" stroke = "black"/>
</g>
<g>
<polygon points = "174.378, 597.062 162.627, 637.804 160.291, 651.642 166.479, 663.257 288.344, 753.500 377.411, 663.592 345.966, 562.914 255.388, 537.037 241.351, 537.607 225.565, 543.807 216.639, 550.396 "
fill = "none" stroke = "black"/>
</g>
<g>
<polygon points = "910.439, 309.245 898.511, 322.065 854.480, 456.401 865.274, 466.987 999.000, 420.466 999.000, 374.260 "
fill = "none" stroke = "black"/>
</g>
<g>
<polygon points = "894.451, 96.294 881.431, 151.094 982.090, 155.595 999.000, 142.137 999.000, 53.115 "
fill = "none" stroke = "black"/>
</g>
<g>
<polygon points = "629.996, 914.773 719.606, 885.142 688.692, 809.789 668.885, 792.972 632.862, 803.452 572.705, 859.425 613.797, 909.045 "
fill = "none" stroke = "black"/>
</g>
<g>
<polygon points = "881.431, 151.094 827.772, 225.315 834.442, 253.860 933.009, 216.611 982.090, 155.595 "
fill = "none" stroke = "black"/>
</g>
<g>
<polygon points = "162.627, 637.804 174.378, 597.062 1.000, 505.147 1.000, 566.915 "
fill = "none" stroke = "black"/>
</g>
<g>
<polygon points = "211.113, 391.450 189.471, 335.359 171.781, 315.209 100.997, 362.902 101.251, 397.853 178.488, 457.289 "
fill = "none" stroke = "black"/>
</g>
<g>
<polygon points = "520.449, 836.301 429.107, 819.976 411.812, 863.406 488.928, 944.915 549.944, 855.714 "
fill = "none" stroke = "black"/>
</g>
<g>
<polygon points = "257.101, 178.955 214.621, 184.837 174.833, 246.203 329.119, 288.025 339.698, 259.132 310.171, 192.698 "
fill = "none" stroke = "black"/>
</g>
<g>
<polygon points = "929.273, 974.788 930.701, 914.864 919.278, 905.079 848.385, 882.771 843.611, 881.442 814.379, 897.868 "
fill = "none" stroke = "black"/>
</g>
<g>
<polygon points = "106.560, 21.144 242.825, 110.181 283.044, 67.540 263.532, 1.000 96.659, 1.000 "
fill = "none" stroke = "black"/>
</g>
<g>
<polygon points = "411.812, 863.406 429.107, 819.976 408.798, 758.273 298.673, 882.018 308.460, 911.760 381.226, 905.053 "
fill = "none" stroke = "black"/>
</g>
<g>
<polygon points = "241.351, 537.607 251.313, 426.823 211.113, 391.450 178.488, 457.289 225.565, 543.807 "
fill = "none" stroke = "black"/>
</g>
<g>
<polygon points = "560.461, 747.299 567.823, 740.969 585.999, 673.492 425.475, 668.852 407.700, 747.402 408.737, 754.071 "
fill = "none" stroke = "black"/>
</g>
<g>
<polygon points = "90.169, 859.896 94.486, 780.049 1.000, 689.078 1.000, 862.423 "
fill = "none" stroke = "black"/>
</g>
<g>
<polygon points = "189.471, 335.359 329.902, 319.878 333.736, 316.449 329.119, 288.025 174.833, 246.203 157.615, 254.372 171.781, 315.209 "
fill = "none" stroke = "black"/>
</g>
<g>
<polygon points = "345.966, 562.914 377.411, 663.592 426.491, 659.542 435.384, 632.884 393.267, 567.882 "
fill = "none" stroke = "black"/>
</g>
<g>
<polygon points = "811.902, 746.280 679.683, 615.847 699.581, 767.433 "
fill = "none" stroke = "black"/>
</g>
<g>
<polygon points = "410.157, 218.529 339.698, 259.132 329.119, 288.025 333.736, 316.449 360.198, 350.499 431.299, 347.250 439.560, 295.981 423.079, 240.172 "
fill = "none" stroke = "black"/>
</g>
<g>
<polygon points = "283.044, 67.540 242.825, 110.181 257.101, 178.955 310.171, 192.698 342.945, 165.637 359.175, 111.102 "
fill = "none" stroke = "black"/>
</g>
<g>
<polygon points = "617.825, 174.184 580.714, 131.181 440.179, 164.561 419.737, 189.814 410.157, 218.529 423.079, 240.172 602.990, 196.590 "
fill = "none" stroke = "black"/>
</g>
<g>
<polygon points = "308.460, 911.760 298.673, 882.018 296.847, 879.787 192.415, 972.940 188.570, 999.000 291.132, 999.000 "
fill = "none" stroke = "black"/>
</g>
<g>
<polygon points = "888.432, 536.978 867.772, 573.996 983.527, 651.919 999.000, 653.318 999.000, 539.856 "
fill = "none" stroke = "black"/>
</g>
<g>
<polygon points = "736.839, 522.026 667.737, 431.919 662.744, 433.815 614.118, 497.566 627.160, 524.317 721.111, 561.895 "
fill = "none" stroke = "black"/>
</g>
<g>
<polygon points = "1.000, 270.609 25.554, 268.263 70.708, 253.737 110.957, 35.337 110.949, 34.878 106.560, 21.144 96.659, 1.000 1.000, 1.000 "
fill = "none" stroke = "black"/>
</g>
<g>
<polygon points = "560.461, 747.299 408.737, 754.071 408.798, 758.273 429.107, 819.976 520.449, 836.301 "
fill = "none" stroke = "black"/>
</g>
<g>
<polygon points = "629.996, 914.773 613.797, 909.045 521.621, 999.000 700.868, 999.000 "
fill = "none" stroke = "black"/>
</g>
<g>
<polygon points = "189.471, 335.359 211.113, 391.450 251.313, 426.823 329.902, 319.878 "
fill = "none" stroke = "black"/>
</g>
<g>
<polygon points = ""
fill = "none" stroke = "black"/>
</g>
<g>
<polygon points = "906.626, 847.053 848.385, 882.771 919.278, 905.079 "
fill = "none" stroke = "black"/>
</g>
<g>
<polygon points = "160.291, 651.642 162.627, 637.804 1.000, 566.915 1.000, 683.245 "
fill = "none" stroke = "black"/>
</g>
<g>
<polygon points = "255.388, 537.037 345.966, 562.914 393.267, 567.882 414.449, 529.717 402.918, 490.523 355.365, 416.407 "
fill = "none" stroke = "black"/>
</g>
<g>
<polygon points = "632.862, 803.452 567.823, 740.969 560.461, 747.299 520.449, 836.301 549.944, 855.714 572.705, 859.425 "
fill = "none" stroke = "black"/>
</g>
<g>
<polygon points = "903.875, 778.658 895.972, 776.703 906.626, 847.053 919.278, 905.079 930.701, 914.864 999.000, 935.515 999.000, 837.319 "
fill = "none" stroke = "black"/>
</g>
<g>
<polygon points = "736.839, 522.026 721.111, 561.895 718.773, 594.504 776.450, 612.204 825.234, 589.182 779.796, 497.170 "
fill = "none" stroke = "black"/>
</g>
<g>
<polygon points = "841.448, 750.522 776.450, 612.204 718.773, 594.504 678.376, 613.658 679.683, 615.847 811.902, 746.280 840.766, 751.042 "
fill = "none" stroke = "black"/>
</g>
<g>
<polygon points = "192.415, 972.940 163.707, 866.429 98.584, 866.349 111.479, 999.000 188.570, 999.000 "
fill = "none" stroke = "black"/>
</g>
<g>
<polygon points = "100.997, 362.902 25.554, 268.263 1.000, 270.609 1.000, 446.834 101.251, 397.853 "
fill = "none" stroke = "black"/>
</g>
<g>
<polygon points = "617.825, 174.184 662.533, 177.150 752.795, 152.491 768.200, 132.147 759.626, 119.438 650.861, 37.864 588.368, 81.635 580.714, 131.181 "
fill = "none" stroke = "black"/>
</g>
<g>
<polygon points = "929.273, 974.788 814.379, 897.868 795.329, 906.386 731.958, 999.000 931.882, 999.000 "
fill = "none" stroke = "black"/>
</g>
<circle cx="690.807" cy="757.649" r="1" stroke="red" stroke-width="1" fill="red" />
<circle cx="933.674" cy="631.147" r="1" stroke="red" stroke-width="1" fill="red" />
<circle cx="887.890" cy="518.917" r="1" stroke="red" stroke-width="1" fill="red" />
<circle cx="530.499" cy="240.135" r="1" stroke="red" stroke-width="1" fill="red" />
<circle cx="609.904" cy="326.698" r="1" stroke="red" stroke-width="1" fill="red" />
<circle cx="425.076" cy="395.972" r="1" stroke="red" stroke-width="1" fill="red" />
<circle cx="603.368" cy="948.048" r="1" stroke="red" stroke-width="1" fill="red" />
<circle cx="884.459" cy="987.276" r="1" stroke="red" stroke-width="1" fill="red" />
<circle cx="743.983" cy="471.378" r="1" stroke="red" stroke-width="1" fill="red" />
<circle cx="541.447" cy="0.784" r="1" stroke="red" stroke-width="1" fill="red" />
<circle cx="897.402" cy="421.936" r="1" stroke="red" stroke-width="1" fill="red" />
<circle cx="104.182" cy="414.175" r="1" stroke="red" stroke-width="1" fill="red" />
<circle cx="731.458" cy="825.768" r="1" stroke="red" stroke-width="1" fill="red" />
<circle cx="672.798" cy="60.099" r="1" stroke="red" stroke-width="1" fill="red" />
<circle cx="350.450" cy="13.490" r="1" stroke="red" stroke-width="1" fill="red" />
<circle cx="295.611" cy="666.993" r="1" stroke="red" stroke-width="1" fill="red" />
<circle cx="350.431" cy="153.155" r="1" stroke="red" stroke-width="1" fill="red" />
<circle cx="123.349" cy="133.324" r="1" stroke="red" stroke-width="1" fill="red" />
<circle cx="371.083" cy="87.561" r="1" stroke="red" stroke-width="1" fill="red" />
<circle cx="505.481" cy="532.703" r="1" stroke="red" stroke-width="1" fill="red" />
<circle cx="890.857" cy="376.800" r="1" stroke="red" stroke-width="1" fill="red" />
<circle cx="12.433" cy="917.158" r="1" stroke="red" stroke-width="1" fill="red" />
<circle cx="727.325" cy="863.033" r="1" stroke="red" stroke-width="1" fill="red" />
<circle cx="544.967" cy="293.153" r="1" stroke="red" stroke-width="1" fill="red" />
<circle cx="275.263" cy="384.985" r="1" stroke="red" stroke-width="1" fill="red" />
<circle cx="850.125" cy="675.439" r="1" stroke="red" stroke-width="1" fill="red" />
<circle cx="331.491" cy="705.677" r="1" stroke="red" stroke-width="1" fill="red" />
<circle cx="579.249" cy="732.718" r="1" stroke="red" stroke-width="1" fill="red" />
<circle cx="697.120" cy="74.278" r="1" stroke="red" stroke-width="1" fill="red" />
<circle cx="668.295" cy="554.367" r="1" stroke="red" stroke-width="1" fill="red" />
<circle cx="572.069" cy="434.014" r="1" stroke="red" stroke-width="1" fill="red" />
<circle cx="151.788" cy="891.050" r="1" stroke="red" stroke-width="1" fill="red" />
<circle cx="197.297" cy="781.509" r="1" stroke="red" stroke-width="1" fill="red" />
<circle cx="215.139" cy="69.824" r="1" stroke="red" stroke-width="1" fill="red" />
<circle cx="993.692" cy="727.095" r="1" stroke="red" stroke-width="1" fill="red" />
<circle cx="46.565" cy="788.902" r="1" stroke="red" stroke-width="1" fill="red" />
<circle cx="136.781" cy="130.110" r="1" stroke="red" stroke-width="1" fill="red" />
<circle cx="497.581" cy="102.123" r="1" stroke="red" stroke-width="1" fill="red" />
<circle cx="82.640" cy="476.486" r="1" stroke="red" stroke-width="1" fill="red" />
<circle cx="656.693" cy="782.641" r="1" stroke="red" stroke-width="1" fill="red" />
<circle cx="836.641" cy="839.040" r="1" stroke="red" stroke-width="1" fill="red" />
<circle cx="467.704" cy="410.170" r="1" stroke="red" stroke-width="1" fill="red" />
<circle cx="121.931" cy="327.176" r="1" stroke="red" stroke-width="1" fill="red" />
<circle cx="616.383" cy="272.422" r="1" stroke="red" stroke-width="1" fill="red" />
<circle cx="963.984" cy="701.995" r="1" stroke="red" stroke-width="1" fill="red" />
<circle cx="338.342" cy="798.922" r="1" stroke="red" stroke-width="1" fill="red" />
<circle cx="411.497" cy="971.442" r="1" stroke="red" stroke-width="1" fill="red" />
<circle cx="736.551" cy="323.573" r="1" stroke="red" stroke-width="1" fill="red" />
<circle cx="787.439" cy="56.400" r="1" stroke="red" stroke-width="1" fill="red" />
<circle cx="662.697" cy="255.028" r="1" stroke="red" stroke-width="1" fill="red" />
<circle cx="705.324" cy="941.455" r="1" stroke="red" stroke-width="1" fill="red" />
<circle cx="297.704" cy="12.944" r="1" stroke="red" stroke-width="1" fill="red" />
<circle cx="78.993" cy="830.351" r="1" stroke="red" stroke-width="1" fill="red" />
<circle cx="103.829" cy="120.021" r="1" stroke="red" stroke-width="1" fill="red" />
<circle cx="526.679" cy="946.937" r="1" stroke="red" stroke-width="1" fill="red" />
<circle cx="741.454" cy="209.163" r="1" stroke="red" stroke-width="1" fill="red" />
<circle cx="992.692" cy="401.613" r="1" stroke="red" stroke-width="1" fill="red" />
<circle cx="624.063" cy="546.967" r="1" stroke="red" stroke-width="1" fill="red" />
<circle cx="545.081" cy="366.872" r="1" stroke="red" stroke-width="1" fill="red" />
<circle cx="978.147" cy="489.053" r="1" stroke="red" stroke-width="1" fill="red" />
<circle cx="286.474" cy="661.082" r="1" stroke="red" stroke-width="1" fill="red" />
<circle cx="962.185" cy="443.169" r="1" stroke="red" stroke-width="1" fill="red" />
<circle cx="862.397" cy="237.898" r="1" stroke="red" stroke-width="1" fill="red" />
<circle cx="685.118" cy="880.348" r="1" stroke="red" stroke-width="1" fill="red" />
<circle cx="859.854" cy="294.761" r="1" stroke="red" stroke-width="1" fill="red" />
<circle cx="24.793" cy="585.605" r="1" stroke="red" stroke-width="1" fill="red" />
<circle cx="144.899" cy="361.264" r="1" stroke="red" stroke-width="1" fill="red" />
<circle cx="558.178" cy="917.136" r="1" stroke="red" stroke-width="1" fill="red" />
<circle cx="233.851" cy="204.970" r="1" stroke="red" stroke-width="1" fill="red" />
<circle cx="795.953" cy="985.167" r="1" stroke="red" stroke-width="1" fill="red" />
<circle cx="241.545" cy="29.412" r="1" stroke="red" stroke-width="1" fill="red" />
<circle cx="400.713" cy="854.429" r="1" stroke="red" stroke-width="1" fill="red" />
<circle cx="174.481" cy="375.923" r="1" stroke="red" stroke-width="1" fill="red" />
<circle cx="578.415" cy="761.556" r="1" stroke="red" stroke-width="1" fill="red" />
<circle cx="9.868" cy="826.614" r="1" stroke="red" stroke-width="1" fill="red" />
<circle cx="206.033" cy="307.593" r="1" stroke="red" stroke-width="1" fill="red" />
<circle cx="326.773" cy="648.496" r="1" stroke="red" stroke-width="1" fill="red" />
<circle cx="717.958" cy="754.086" r="1" stroke="red" stroke-width="1" fill="red" />
<circle cx="419.454" cy="272.928" r="1" stroke="red" stroke-width="1" fill="red" />
<circle cx="271.900" cy="58.042" r="1" stroke="red" stroke-width="1" fill="red" />
<circle cx="523.408" cy="210.863" r="1" stroke="red" stroke-width="1" fill="red" />
<circle cx="183.018" cy="926.062" r="1" stroke="red" stroke-width="1" fill="red" />
<circle cx="976.088" cy="568.141" r="1" stroke="red" stroke-width="1" fill="red" />
<circle cx="682.686" cy="518.387" r="1" stroke="red" stroke-width="1" fill="red" />
<circle cx="55.547" cy="120.829" r="1" stroke="red" stroke-width="1" fill="red" />
<circle cx="579.928" cy="795.442" r="1" stroke="red" stroke-width="1" fill="red" />
<circle cx="645.807" cy="991.534" r="1" stroke="red" stroke-width="1" fill="red" />
<circle cx="209.214" cy="336.449" r="1" stroke="red" stroke-width="1" fill="red" />
<circle cx="29.148" cy="121.553" r="1" stroke="red" stroke-width="1" fill="red" />
<circle cx="840.139" cy="844.743" r="1" stroke="red" stroke-width="1" fill="red" />
<circle cx="12.012" cy="614.744" r="1" stroke="red" stroke-width="1" fill="red" />
<circle cx="348.105" cy="445.356" r="1" stroke="red" stroke-width="1" fill="red" />
<circle cx="624.950" cy="815.682" r="1" stroke="red" stroke-width="1" fill="red" />
<circle cx="933.725" cy="824.338" r="1" stroke="red" stroke-width="1" fill="red" />
<circle cx="797.359" cy="563.624" r="1" stroke="red" stroke-width="1" fill="red" />
<circle cx="748.372" cy="723.255" r="1" stroke="red" stroke-width="1" fill="red" />
<circle cx="78.893" cy="910.698" r="1" stroke="red" stroke-width="1" fill="red" />
<circle cx="78.566" cy="361.746" r="1" stroke="red" stroke-width="1" fill="red" />
<circle cx="626.360" cy="122.016" r="1" stroke="red" stroke-width="1" fill="red" />
<circle cx="787.550" cy="997.718" r="1" stroke="red" stroke-width="1" fill="red" />
</svg>
