<svg xmlns = "http://www.w3.org/2000/svg" width = "1000" height = "1000">
<g>
<polygon points = "241.667, 850.000 187.500, 850.000 135.000, 885.000 59.000, 999.000 341.000, 999.000 "
fill = "none" stroke = "black"/>
</g>
<g>
<polygon points = "300.000, 475.000 300.000, 775.000 999.000, 775.000 999.000, 1.000 418.500, 1.000 "
fill = "none" stroke = "black"/>
</g>
<g>
<polygon points = "25.000, 775.000 1.000, 763.000 1.000, 999.000 59.000, 999.000 135.000, 885.000 "
fill = "none" stroke = "black"/>
</g>
<g>
<polygon points = "300.000, 775.000 285.000, 785.000 241.667, 850.000 341.000, 999.000 999.000, 999.000 999.000, 775.000 "
fill = "none" stroke = "black"/>
</g>
<g>
<polygon points = "191.667, 691.667 285.000, 785.000 300.000, 775.000 300.000, 475.000 "
fill = "none" stroke = "black"/>
</g>
<g>
<polygon points = "191.667, 691.667 150.000, 712.500 150.000, 775.000 187.500, 850.000 241.667, 850.000 285.000, 785.000 "
fill = "none" stroke = "black"/>
</g>
<g>
<polygon points = "150.000, 775.000 150.000, 712.500 1.000, 638.000 1.000, 763.000 25.000, 775.000 "
fill = "none" stroke = "black"/>
</g>
<g>
<polygon points = "1.000, 638.000 150.000, 712.500 191.667, 691.667 300.000, 475.000 418.500, 1.000 1.000, 1.000 "
fill = "none" stroke = "black"/>
</g>
<g>
<polygon points = "150.000, 775.000 25.000, 775.000 135.000, 885.000 187.500, 850.000 "
fill = "none" stroke = "black"/>
</g>
<g>
<polygon points = "50.000, 850.000 200.000, 950.000 350.000, 850.000 350.000, 700.000 250.000, 700.000 200.000, 750.000 150.000, 650.000 100.000, 750.000 100.000, 800.000 "
fill = "none" stroke = "black"/>
</g>
</svg>
