<svg xmlns = "http://www.w3.org/2000/svg" width = "1000" height = "1000">
<g>
<polygon points = "30.098, 775.265 1.000, 760.717 1.000, 999.000 58.120, 999.000 136.405, 881.572 "
fill = "none" stroke = "black"/>
</g>
<g>
<polygon points = "221.354, 848.162 186.521, 848.162 136.405, 881.572 58.120, 999.000 321.913, 999.000 "
fill = "none" stroke = "black"/>
</g>
<g>
<polygon points = "236.453, 825.514 221.354, 848.162 321.913, 999.000 999.000, 999.000 999.000, 825.514 "
fill = "none" stroke = "black"/>
</g>
<g>
<polygon points = "202.711, 724.288 236.453, 825.514 999.000, 825.514 999.000, 1.000 383.533, 1.000 "
fill = "none" stroke = "black"/>
</g>
<g>
<polygon points = ""
fill = "none" stroke = "black"/>
</g>
<g>
<polygon points = "202.711, 724.288 150.073, 750.607 150.073, 775.265 186.521, 848.162 221.354, 848.162 236.453, 825.514 "
fill = "none" stroke = "black"/>
</g>
<g>
<polygon points = "1.000, 676.071 150.073, 750.607 202.711, 724.288 383.533, 1.000 1.000, 1.000 "
fill = "none" stroke = "black"/>
</g>
<g>
<polygon points = "150.073, 775.265 150.073, 750.607 1.000, 676.071 1.000, 760.717 30.098, 775.265 "
fill = "none" stroke = "black"/>
</g>
<g>
<polygon points = "150.073, 775.265 30.098, 775.265 136.405, 881.572 186.521, 848.162 "
fill = "none" stroke = "black"/>
</g>
</svg>
