<svg xmlns = "http://www.w3.org/2000/svg" width = "1000" height = "1000">
<g>
<polygon points = "373.315, 718.203 421.477, 802.367 554.811, 721.359 430.381, 665.326 416.324, 665.636 "
fill = "none" stroke = "black"/>
</g>
<g>
<polygon points = "928.409, 467.802 917.564, 462.412 817.925, 624.031 835.926, 629.492 999.000, 598.503 999.000, 588.155 "
fill = "none" stroke = "black"/>
</g>
<g>
<polygon points = "663.348, 899.082 631.848, 862.748 427.563, 859.030 423.212, 865.207 437.499, 999.000 734.448, 999.000 "
fill = "none" stroke = "black"/>
</g>
<g>
<polygon points = "567.964, 648.166 534.390, 593.351 430.381, 665.326 554.811, 721.359 561.579, 721.287 "
fill = "none" stroke = "black"/>
</g>
<g>
<polygon points = "323.648, 327.967 347.497, 375.677 442.957, 335.894 441.418, 260.838 "
fill = "none" stroke = "black"/>
</g>
<g>
<polygon points = "200.506, 185.839 297.989, 238.852 332.025, 222.015 277.583, 130.176 "
fill = "none" stroke = "black"/>
</g>
<g>
<polygon points = "427.563, 859.030 631.848, 862.748 612.318, 768.801 561.579, 721.287 554.811, 721.359 421.477, 802.367 "
fill = "none" stroke = "black"/>
</g>
<g>
<polygon points = "381.572, 505.138 456.227, 543.661 495.898, 523.782 467.303, 454.574 460.024, 449.883 "
fill = "none" stroke = "black"/>
</g>
<g>
<polygon points = "126.804, 682.235 240.756, 650.896 221.528, 531.105 210.473, 532.290 104.790, 603.932 "
fill = "none" stroke = "black"/>
</g>
<g>
<polygon points = "229.281, 737.894 280.391, 693.448 240.756, 650.896 126.804, 682.235 78.086, 803.159 "
fill = "none" stroke = "black"/>
</g>
<g>
<polygon points = "104.790, 603.932 210.473, 532.290 45.704, 452.530 1.000, 469.907 1.000, 565.228 "
fill = "none" stroke = "black"/>
</g>
<g>
<polygon points = "78.086, 803.159 126.804, 682.235 104.790, 603.932 1.000, 565.228 1.000, 899.906 "
fill = "none" stroke = "black"/>
</g>
<g>
<polygon points = "883.524, 391.571 723.669, 446.577 705.795, 480.074 800.433, 625.783 817.925, 624.031 917.564, 462.412 "
fill = "none" stroke = "black"/>
</g>
<g>
<polygon points = "835.926, 629.492 817.925, 624.031 800.433, 625.783 793.903, 635.032 826.479, 999.000 999.000, 999.000 999.000, 815.884 "
fill = "none" stroke = "black"/>
</g>
<g>
<polygon points = "643.159, 489.064 556.909, 391.437 467.303, 454.574 495.898, 523.782 533.457, 540.616 "
fill = "none" stroke = "black"/>
</g>
<g>
<polygon points = "327.752, 880.625 282.501, 825.161 247.908, 826.528 1.000, 918.378 1.000, 999.000 240.396, 999.000 "
fill = "none" stroke = "black"/>
</g>
<g>
<polygon points = "243.554, 463.402 241.093, 512.076 324.776, 533.038 360.359, 505.734 377.138, 421.111 352.534, 405.086 "
fill = "none" stroke = "black"/>
</g>
<g>
<polygon points = "434.146, 419.461 448.539, 356.764 442.957, 335.894 347.497, 375.677 352.534, 405.086 377.138, 421.111 "
fill = "none" stroke = "black"/>
</g>
<g>
<polygon points = "533.457, 540.616 495.898, 523.782 456.227, 543.661 403.792, 604.263 416.324, 665.636 430.381, 665.326 534.390, 593.351 "
fill = "none" stroke = "black"/>
</g>
<g>
<polygon points = "200.031, 356.941 152.971, 328.621 45.704, 452.530 210.473, 532.290 221.528, 531.105 241.093, 512.076 243.554, 463.402 "
fill = "none" stroke = "black"/>
</g>
<g>
<polygon points = "555.613, 381.125 448.539, 356.764 434.146, 419.461 460.024, 449.883 467.303, 454.574 556.909, 391.437 "
fill = "none" stroke = "black"/>
</g>
<g>
<polygon points = "591.224, 252.308 484.628, 215.566 462.138, 216.836 441.418, 260.838 442.957, 335.894 448.539, 356.764 555.613, 381.125 "
fill = "none" stroke = "black"/>
</g>
<g>
<polygon points = "627.187, 624.243 650.233, 489.769 643.159, 489.064 533.457, 540.616 534.390, 593.351 567.964, 648.166 "
fill = "none" stroke = "black"/>
</g>
<g>
<polygon points = "777.809, 138.108 549.457, 65.008 484.628, 215.566 591.224, 252.308 677.991, 236.362 "
fill = "none" stroke = "black"/>
</g>
<g>
<polygon points = "793.903, 635.032 782.632, 641.054 663.348, 899.082 734.448, 999.000 826.479, 999.000 "
fill = "none" stroke = "black"/>
</g>
<g>
<polygon points = "322.232, 716.181 282.501, 825.161 327.752, 880.625 423.212, 865.207 427.563, 859.030 421.477, 802.367 373.315, 718.203 "
fill = "none" stroke = "black"/>
</g>
<g>
<polygon points = "229.281, 737.894 78.086, 803.159 1.000, 899.906 1.000, 918.378 247.908, 826.528 "
fill = "none" stroke = "black"/>
</g>
<g>
<polygon points = "704.154, 671.283 782.632, 641.054 793.903, 635.032 800.433, 625.783 705.795, 480.074 650.233, 489.769 627.187, 624.243 "
fill = "none" stroke = "black"/>
</g>
<g>
<polygon points = "345.627, 564.028 324.776, 533.038 241.093, 512.076 221.528, 531.105 240.756, 650.896 280.391, 693.448 284.045, 694.469 "
fill = "none" stroke = "black"/>
</g>
<g>
<polygon points = "106.910, 200.225 1.000, 120.691 1.000, 469.907 45.704, 452.530 152.971, 328.621 "
fill = "none" stroke = "black"/>
</g>
<g>
<polygon points = "423.212, 865.207 327.752, 880.625 240.396, 999.000 437.499, 999.000 "
fill = "none" stroke = "black"/>
</g>
<g>
<polygon points = "200.031, 356.941 243.554, 463.402 352.534, 405.086 347.497, 375.677 323.648, 327.967 300.555, 320.337 "
fill = "none" stroke = "black"/>
</g>
<g>
<polygon points = "345.627, 564.028 403.792, 604.263 456.227, 543.661 381.572, 505.138 360.359, 505.734 324.776, 533.038 "
fill = "none" stroke = "black"/>
</g>
<g>
<polygon points = "928.409, 467.802 999.000, 588.155 999.000, 461.345 "
fill = "none" stroke = "black"/>
</g>
<g>
<polygon points = ""
fill = "none" stroke = "black"/>
</g>
<g>
<polygon points = "677.991, 236.362 591.224, 252.308 555.613, 381.125 556.909, 391.437 643.159, 489.064 650.233, 489.769 705.795, 480.074 723.669, 446.577 "
fill = "none" stroke = "black"/>
</g>
<g>
<polygon points = "322.232, 716.181 284.045, 694.469 280.391, 693.448 229.281, 737.894 247.908, 826.528 282.501, 825.161 "
fill = "none" stroke = "black"/>
</g>
<g>
<polygon points = "536.569, 37.820 549.457, 65.008 777.809, 138.108 999.000, 9.047 999.000, 1.000 536.801, 1.000 "
fill = "none" stroke = "black"/>
</g>
<g>
<polygon points = "462.138, 216.836 435.199, 194.774 332.025, 222.015 297.989, 238.852 300.555, 320.337 323.648, 327.967 441.418, 260.838 "
fill = "none" stroke = "black"/>
</g>
<g>
<polygon points = "348.723, 61.177 380.144, 92.706 536.569, 37.820 536.801, 1.000 333.704, 1.000 "
fill = "none" stroke = "black"/>
</g>
<g>
<polygon points = "782.632, 641.054 704.154, 671.283 612.318, 768.801 631.848, 862.748 663.348, 899.082 "
fill = "none" stroke = "black"/>
</g>
<g>
<polygon points = "883.524, 391.571 917.564, 462.412 928.409, 467.802 999.000, 461.345 999.000, 96.600 "
fill = "none" stroke = "black"/>
</g>
<g>
<polygon points = "403.792, 604.263 345.627, 564.028 284.045, 694.469 322.232, 716.181 373.315, 718.203 416.324, 665.636 "
fill = "none" stroke = "black"/>
</g>
<g>
<polygon points = "434.146, 419.461 377.138, 421.111 360.359, 505.734 381.572, 505.138 460.024, 449.883 "
fill = "none" stroke = "black"/>
</g>
<g>
<polygon points = "777.809, 138.108 677.991, 236.362 723.669, 446.577 883.524, 391.571 999.000, 96.600 999.000, 9.047 "
fill = "none" stroke = "black"/>
</g>
<g>
<polygon points = "380.144, 92.706 435.199, 194.774 462.138, 216.836 484.628, 215.566 549.457, 65.008 536.569, 37.820 "
fill = "none" stroke = "black"/>
</g>
<g>
<polygon points = "835.926, 629.492 999.000, 815.884 999.000, 598.503 "
fill = "none" stroke = "black"/>
</g>
<g>
<polygon points = "106.910, 200.225 152.971, 328.621 200.031, 356.941 300.555, 320.337 297.989, 238.852 200.506, 185.839 "
fill = "none" stroke = "black"/>
</g>
<g>
<polygon points = "1.000, 120.691 106.910, 200.225 200.506, 185.839 277.583, 130.176 348.723, 61.177 333.704, 1.000 1.000, 1.000 "
fill = "none" stroke = "black"/>
</g>
<g>
<polygon points = "704.154, 671.283 627.187, 624.243 567.964, 648.166 561.579, 721.287 612.318, 768.801 "
fill = "none" stroke = "black"/>
</g>
<circle cx="471.777" cy="730.716" r="1" stroke="red" stroke-width="1" fill="red" />
<circle cx="926.696" cy="545.732" r="1" stroke="red" stroke-width="1" fill="red" />
<circle cx="505.707" cy="930.209" r="1" stroke="red" stroke-width="1" fill="red" />
<circle cx="506.783" cy="652.982" r="1" stroke="red" stroke-width="1" fill="red" />
<circle cx="301.538" cy="188.379" r="1" stroke="red" stroke-width="1" fill="red" />
<circle cx="384.866" cy="344.913" r="1" stroke="red" stroke-width="1" fill="red" />
<circle cx="508.246" cy="790.741" r="1" stroke="red" stroke-width="1" fill="red" />
<circle cx="420.118" cy="500.914" r="1" stroke="red" stroke-width="1" fill="red" />
<circle cx="168.556" cy="626.779" r="1" stroke="red" stroke-width="1" fill="red" />
<circle cx="191.042" cy="708.541" r="1" stroke="red" stroke-width="1" fill="red" />
<circle cx="107.179" cy="536.238" r="1" stroke="red" stroke-width="1" fill="red" />
<circle cx="62.271" cy="656.661" r="1" stroke="red" stroke-width="1" fill="red" />
<circle cx="839.021" cy="491.679" r="1" stroke="red" stroke-width="1" fill="red" />
<circle cx="864.856" cy="749.568" r="1" stroke="red" stroke-width="1" fill="red" />
<circle cx="338.605" cy="458.386" r="1" stroke="red" stroke-width="1" fill="red" />
<circle cx="744.418" cy="760.348" r="1" stroke="red" stroke-width="1" fill="red" />
<circle cx="256.710" cy="872.667" r="1" stroke="red" stroke-width="1" fill="red" />
<circle cx="533.436" cy="454.093" r="1" stroke="red" stroke-width="1" fill="red" />
<circle cx="395.654" cy="370.799" r="1" stroke="red" stroke-width="1" fill="red" />
<circle cx="468.855" cy="598.175" r="1" stroke="red" stroke-width="1" fill="red" />
<circle cx="149.494" cy="448.822" r="1" stroke="red" stroke-width="1" fill="red" />
<circle cx="490.008" cy="392.458" r="1" stroke="red" stroke-width="1" fill="red" />
<circle cx="501.369" cy="342.524" r="1" stroke="red" stroke-width="1" fill="red" />
<circle cx="600.054" cy="595.853" r="1" stroke="red" stroke-width="1" fill="red" />
<circle cx="576.041" cy="125.886" r="1" stroke="red" stroke-width="1" fill="red" />
<circle cx="334.218" cy="809.432" r="1" stroke="red" stroke-width="1" fill="red" />
<circle cx="253.042" cy="779.837" r="1" stroke="red" stroke-width="1" fill="red" />
<circle cx="224.415" cy="785.854" r="1" stroke="red" stroke-width="1" fill="red" />
<circle cx="301.781" cy="605.394" r="1" stroke="red" stroke-width="1" fill="red" />
<circle cx="662.225" cy="606.508" r="1" stroke="red" stroke-width="1" fill="red" />
<circle cx="34.507" cy="349.279" r="1" stroke="red" stroke-width="1" fill="red" />
<circle cx="300.462" cy="387.104" r="1" stroke="red" stroke-width="1" fill="red" />
<circle cx="356.302" cy="946.163" r="1" stroke="red" stroke-width="1" fill="red" />
<circle cx="400.464" cy="539.000" r="1" stroke="red" stroke-width="1" fill="red" />
<circle cx="317.149" cy="179.125" r="1" stroke="red" stroke-width="1" fill="red" />
<circle cx="997.263" cy="504.342" r="1" stroke="red" stroke-width="1" fill="red" />
<circle cx="621.981" cy="375.867" r="1" stroke="red" stroke-width="1" fill="red" />
<circle cx="606.453" cy="30.885" r="1" stroke="red" stroke-width="1" fill="red" />
<circle cx="340.260" cy="266.658" r="1" stroke="red" stroke-width="1" fill="red" />
<circle cx="716.513" cy="747.447" r="1" stroke="red" stroke-width="1" fill="red" />
<circle cx="466.778" cy="30.005" r="1" stroke="red" stroke-width="1" fill="red" />
<circle cx="989.492" cy="419.377" r="1" stroke="red" stroke-width="1" fill="red" />
<circle cx="229.866" cy="89.134" r="1" stroke="red" stroke-width="1" fill="red" />
<circle cx="341.550" cy="624.169" r="1" stroke="red" stroke-width="1" fill="red" />
<circle cx="398.533" cy="470.268" r="1" stroke="red" stroke-width="1" fill="red" />
<circle cx="951.093" cy="674.119" r="1" stroke="red" stroke-width="1" fill="red" />
<circle cx="786.843" cy="340.044" r="1" stroke="red" stroke-width="1" fill="red" />
<circle cx="486.962" cy="87.529" r="1" stroke="red" stroke-width="1" fill="red" />
<circle cx="257.552" cy="269.263" r="1" stroke="red" stroke-width="1" fill="red" />
<circle cx="627.385" cy="663.513" r="1" stroke="red" stroke-width="1" fill="red" />
</svg>
