<svg xmlns = "http://www.w3.org/2000/svg" width = "1000" height = "1000">
<g>
<polygon points = "858.205, 508.954 822.720, 534.995 826.541, 663.867 999.000, 653.974 999.000, 552.059 "
fill = "none" stroke = "black"/>
</g>
<g>
<polygon points = "419.514, 663.501 366.421, 754.514 461.373, 819.583 517.901, 754.170 462.780, 672.394 "
fill = "none" stroke = "black"/>
</g>
<g>
<polygon points = "655.416, 857.299 463.852, 907.065 463.120, 908.375 464.946, 999.000 669.696, 999.000 "
fill = "none" stroke = "black"/>
</g>
<g>
<polygon points = "595.177, 638.574 546.480, 604.444 462.780, 672.394 517.901, 754.170 570.524, 750.241 "
fill = "none" stroke = "black"/>
</g>
<g>
<polygon points = "457.567, 242.017 315.526, 280.617 334.803, 337.138 448.385, 359.015 480.531, 307.507 "
fill = "none" stroke = "black"/>
</g>
<g>
<polygon points = "201.529, 59.073 137.322, 173.558 280.232, 250.498 318.531, 152.847 "
fill = "none" stroke = "black"/>
</g>
<g>
<polygon points = "657.143, 853.457 643.254, 803.639 570.524, 750.241 517.901, 754.170 461.373, 819.583 463.852, 907.065 655.416, 857.299 "
fill = "none" stroke = "black"/>
</g>
<g>
<polygon points = "422.262, 520.217 435.861, 545.608 534.629, 559.401 561.621, 507.456 541.062, 450.511 457.320, 429.375 "
fill = "none" stroke = "black"/>
</g>
<g>
<polygon points = "60.994, 601.625 135.438, 504.109 12.189, 392.237 1.000, 392.007 1.000, 602.581 "
fill = "none" stroke = "black"/>
</g>
<g>
<polygon points = "212.305, 536.644 178.192, 499.807 135.438, 504.109 60.994, 601.625 125.530, 661.587 199.893, 647.434 "
fill = "none" stroke = "black"/>
</g>
<g>
<polygon points = "101.297, 766.115 125.530, 661.587 60.994, 601.625 1.000, 602.581 1.000, 777.306 "
fill = "none" stroke = "black"/>
</g>
<g>
<polygon points = "875.415, 400.883 809.536, 335.523 702.850, 414.586 707.689, 499.565 822.720, 534.995 858.205, 508.954 "
fill = "none" stroke = "black"/>
</g>
<g>
<polygon points = "264.498, 722.324 255.724, 686.275 199.893, 647.434 125.530, 661.587 101.297, 766.115 157.937, 812.983 "
fill = "none" stroke = "black"/>
</g>
<g>
<polygon points = "302.123, 541.950 332.880, 503.293 322.910, 429.691 312.174, 415.996 215.296, 417.645 178.192, 499.807 212.305, 536.644 "
fill = "none" stroke = "black"/>
</g>
<g>
<polygon points = "842.670, 818.336 827.292, 839.382 845.729, 999.000 999.000, 999.000 999.000, 810.764 "
fill = "none" stroke = "black"/>
</g>
<g>
<polygon points = "827.292, 839.382 657.143, 853.457 655.416, 857.299 669.696, 999.000 845.729, 999.000 "
fill = "none" stroke = "black"/>
</g>
<g>
<polygon points = "693.922, 512.266 707.689, 499.565 702.850, 414.586 610.343, 354.552 541.062, 450.511 561.621, 507.456 "
fill = "none" stroke = "black"/>
</g>
<g>
<polygon points = "248.871, 918.322 166.361, 852.017 1.000, 976.045 1.000, 999.000 249.407, 999.000 "
fill = "none" stroke = "black"/>
</g>
<g>
<polygon points = "312.174, 415.996 322.910, 429.691 452.081, 421.394 448.385, 359.015 334.803, 337.138 "
fill = "none" stroke = "black"/>
</g>
<g>
<polygon points = "604.483, 336.547 480.531, 307.507 448.385, 359.015 452.081, 421.394 457.320, 429.375 541.062, 450.511 610.343, 354.552 "
fill = "none" stroke = "black"/>
</g>
<g>
<polygon points = "534.629, 559.401 435.861, 545.608 400.179, 631.516 419.514, 663.501 462.780, 672.394 546.480, 604.444 "
fill = "none" stroke = "black"/>
</g>
<g>
<polygon points = "669.483, 625.732 693.922, 512.266 561.621, 507.456 534.629, 559.401 546.480, 604.444 595.177, 638.574 "
fill = "none" stroke = "black"/>
</g>
<g>
<polygon points = "647.440, 226.437 589.581, 173.261 471.021, 189.615 457.567, 242.017 480.531, 307.507 604.483, 336.547 "
fill = "none" stroke = "black"/>
</g>
<g>
<polygon points = "589.581, 173.261 647.440, 226.437 757.169, 208.507 780.181, 138.688 736.323, 1.000 608.876, 1.000 "
fill = "none" stroke = "black"/>
</g>
<g>
<polygon points = "306.743, 873.641 463.120, 908.375 463.852, 907.065 461.373, 819.583 366.421, 754.514 325.139, 764.882 "
fill = "none" stroke = "black"/>
</g>
<g>
<polygon points = "875.415, 400.883 858.205, 508.954 999.000, 552.059 999.000, 381.196 "
fill = "none" stroke = "black"/>
</g>
<g>
<polygon points = "463.120, 908.375 306.743, 873.641 248.871, 918.322 249.407, 999.000 464.946, 999.000 "
fill = "none" stroke = "black"/>
</g>
<g>
<polygon points = "437.762, 144.589 380.086, 124.161 318.531, 152.847 280.232, 250.498 281.100, 253.909 315.526, 280.617 457.567, 242.017 471.021, 189.615 "
fill = "none" stroke = "black"/>
</g>
<g>
<polygon points = "707.689, 499.565 693.922, 512.266 669.483, 625.732 723.680, 682.510 808.794, 685.574 826.541, 663.867 822.720, 534.995 "
fill = "none" stroke = "black"/>
</g>
<g>
<polygon points = "327.422, 614.080 302.123, 541.950 212.305, 536.644 199.893, 647.434 255.724, 686.275 "
fill = "none" stroke = "black"/>
</g>
<g>
<polygon points = "281.100, 253.909 180.994, 348.366 215.296, 417.645 312.174, 415.996 334.803, 337.138 315.526, 280.617 "
fill = "none" stroke = "black"/>
</g>
<g>
<polygon points = "1.000, 162.257 110.141, 185.968 137.322, 173.558 201.529, 59.073 198.373, 1.000 1.000, 1.000 "
fill = "none" stroke = "black"/>
</g>
<g>
<polygon points = "110.141, 185.968 1.000, 162.257 1.000, 392.007 12.189, 392.237 123.729, 331.397 "
fill = "none" stroke = "black"/>
</g>
<g>
<polygon points = "780.181, 138.688 999.000, 105.386 999.000, 1.000 736.323, 1.000 "
fill = "none" stroke = "black"/>
</g>
<g>
<polygon points = "422.262, 520.217 457.320, 429.375 452.081, 421.394 322.910, 429.691 332.880, 503.293 "
fill = "none" stroke = "black"/>
</g>
<g>
<polygon points = "809.377, 279.875 757.169, 208.507 647.440, 226.437 604.483, 336.547 610.343, 354.552 702.850, 414.586 809.536, 335.523 "
fill = "none" stroke = "black"/>
</g>
<g>
<polygon points = "809.377, 279.875 809.536, 335.523 875.415, 400.883 999.000, 381.196 999.000, 225.319 "
fill = "none" stroke = "black"/>
</g>
<g>
<polygon points = "826.541, 663.867 808.794, 685.574 842.670, 818.336 999.000, 810.764 999.000, 653.974 "
fill = "none" stroke = "black"/>
</g>
<g>
<polygon points = "400.179, 631.516 327.422, 614.080 255.724, 686.275 264.498, 722.324 325.139, 764.882 366.421, 754.514 419.514, 663.501 "
fill = "none" stroke = "black"/>
</g>
<g>
<polygon points = "180.994, 348.366 123.729, 331.397 12.189, 392.237 135.438, 504.109 178.192, 499.807 215.296, 417.645 "
fill = "none" stroke = "black"/>
</g>
<g>
<polygon points = "808.794, 685.574 723.680, 682.510 643.254, 803.639 657.143, 853.457 827.292, 839.382 842.670, 818.336 "
fill = "none" stroke = "black"/>
</g>
<g>
<polygon points = "380.086, 124.161 437.762, 144.589 522.776, 1.000 360.127, 1.000 "
fill = "none" stroke = "black"/>
</g>
<g>
<polygon points = "780.181, 138.688 757.169, 208.507 809.377, 279.875 999.000, 225.319 999.000, 105.386 "
fill = "none" stroke = "black"/>
</g>
<g>
<polygon points = "437.762, 144.589 471.021, 189.615 589.581, 173.261 608.876, 1.000 522.776, 1.000 "
fill = "none" stroke = "black"/>
</g>
<g>
<polygon points = "281.100, 253.909 280.232, 250.498 137.322, 173.558 110.141, 185.968 123.729, 331.397 180.994, 348.366 "
fill = "none" stroke = "black"/>
</g>
<g>
<polygon points = "166.361, 852.017 157.937, 812.983 101.297, 766.115 1.000, 777.306 1.000, 976.045 "
fill = "none" stroke = "black"/>
</g>
<g>
<polygon points = "723.680, 682.510 669.483, 625.732 595.177, 638.574 570.524, 750.241 643.254, 803.639 "
fill = "none" stroke = "black"/>
</g>
<g>
<polygon points = "201.529, 59.073 318.531, 152.847 380.086, 124.161 360.127, 1.000 198.373, 1.000 "
fill = "none" stroke = "black"/>
</g>
<g>
<polygon points = "264.498, 722.324 157.937, 812.983 166.361, 852.017 248.871, 918.322 306.743, 873.641 325.139, 764.882 "
fill = "none" stroke = "black"/>
</g>
<g>
<polygon points = "400.179, 631.516 435.861, 545.608 422.262, 520.217 332.880, 503.293 302.123, 541.950 327.422, 614.080 "
fill = "none" stroke = "black"/>
</g>
<circle cx="902.024" cy="590.338" r="1" stroke="red" stroke-width="1" fill="red" />
<circle cx="442.678" cy="739.384" r="1" stroke="red" stroke-width="1" fill="red" />
<circle cx="572.607" cy="938.747" r="1" stroke="red" stroke-width="1" fill="red" />
<circle cx="532.418" cy="678.894" r="1" stroke="red" stroke-width="1" fill="red" />
<circle cx="399.824" cy="308.268" r="1" stroke="red" stroke-width="1" fill="red" />
<circle cx="236.036" cy="159.900" r="1" stroke="red" stroke-width="1" fill="red" />
<circle cx="543.435" cy="826.456" r="1" stroke="red" stroke-width="1" fill="red" />
<circle cx="485.092" cy="500.055" r="1" stroke="red" stroke-width="1" fill="red" />
<circle cx="50.750" cy="511.020" r="1" stroke="red" stroke-width="1" fill="red" />
<circle cx="151.095" cy="587.623" r="1" stroke="red" stroke-width="1" fill="red" />
<circle cx="53.641" cy="692.511" r="1" stroke="red" stroke-width="1" fill="red" />
<circle cx="793.712" cy="442.743" r="1" stroke="red" stroke-width="1" fill="red" />
<circle cx="176.478" cy="720.988" r="1" stroke="red" stroke-width="1" fill="red" />
<circle cx="267.828" cy="479.523" r="1" stroke="red" stroke-width="1" fill="red" />
<circle cx="918.324" cy="901.469" r="1" stroke="red" stroke-width="1" fill="red" />
<circle cx="752.811" cy="920.587" r="1" stroke="red" stroke-width="1" fill="red" />
<circle cx="615.772" cy="452.875" r="1" stroke="red" stroke-width="1" fill="red" />
<circle cx="143.135" cy="944.538" r="1" stroke="red" stroke-width="1" fill="red" />
<circle cx="384.449" cy="388.094" r="1" stroke="red" stroke-width="1" fill="red" />
<circle cx="134.141" cy="419.150" r="1" stroke="red" stroke-width="1" fill="red" />
<circle cx="470.729" cy="602.906" r="1" stroke="red" stroke-width="1" fill="red" />
<circle cx="611.666" cy="565.825" r="1" stroke="red" stroke-width="1" fill="red" />
<circle cx="515.307" cy="380.340" r="1" stroke="red" stroke-width="1" fill="red" />
<circle cx="379.832" cy="831.092" r="1" stroke="red" stroke-width="1" fill="red" />
<circle cx="669.884" cy="120.771" r="1" stroke="red" stroke-width="1" fill="red" />
<circle cx="544.039" cy="257.700" r="1" stroke="red" stroke-width="1" fill="red" />
<circle cx="940.075" cy="466.050" r="1" stroke="red" stroke-width="1" fill="red" />
<circle cx="746.835" cy="594.939" r="1" stroke="red" stroke-width="1" fill="red" />
<circle cx="354.946" cy="943.132" r="1" stroke="red" stroke-width="1" fill="red" />
<circle cx="374.235" cy="214.103" r="1" stroke="red" stroke-width="1" fill="red" />
<circle cx="260.716" cy="599.904" r="1" stroke="red" stroke-width="1" fill="red" />
<circle cx="265.692" cy="354.015" r="1" stroke="red" stroke-width="1" fill="red" />
<circle cx="55.587" cy="275.133" r="1" stroke="red" stroke-width="1" fill="red" />
<circle cx="97.501" cy="82.206" r="1" stroke="red" stroke-width="1" fill="red" />
<circle cx="859.794" cy="60.279" r="1" stroke="red" stroke-width="1" fill="red" />
<circle cx="702.352" cy="319.463" r="1" stroke="red" stroke-width="1" fill="red" />
<circle cx="389.265" cy="463.073" r="1" stroke="red" stroke-width="1" fill="red" />
<circle cx="916.627" cy="318.851" r="1" stroke="red" stroke-width="1" fill="red" />
<circle cx="909.936" cy="728.281" r="1" stroke="red" stroke-width="1" fill="red" />
<circle cx="342.058" cy="680.687" r="1" stroke="red" stroke-width="1" fill="red" />
<circle cx="740.479" cy="771.520" r="1" stroke="red" stroke-width="1" fill="red" />
<circle cx="432.150" cy="50.587" r="1" stroke="red" stroke-width="1" fill="red" />
<circle cx="879.516" cy="189.864" r="1" stroke="red" stroke-width="1" fill="red" />
<circle cx="522.880" cy="104.305" r="1" stroke="red" stroke-width="1" fill="red" />
<circle cx="180.268" cy="263.483" r="1" stroke="red" stroke-width="1" fill="red" />
<circle cx="635.127" cy="701.569" r="1" stroke="red" stroke-width="1" fill="red" />
<circle cx="71.037" cy="848.413" r="1" stroke="red" stroke-width="1" fill="red" />
<circle cx="307.451" cy="70.796" r="1" stroke="red" stroke-width="1" fill="red" />
<circle cx="370.659" cy="561.341" r="1" stroke="red" stroke-width="1" fill="red" />
<circle cx="251.714" cy="809.421" r="1" stroke="red" stroke-width="1" fill="red" />
</svg>
