<svg xmlns = "http://www.w3.org/2000/svg" width = "1000" height = "1000">
<g>
<polygon points = "729.854, 114.184 763.043, 162.983 919.583, 46.237 "
fill = "none" stroke = "black"/>
</g>
<g>
<polygon points = "915.307, 570.533 903.846, 558.869 889.918, 553.505 874.542, 558.397 866.795, 586.686 903.337, 607.678 "
fill = "none" stroke = "black"/>
</g>
<g>
<polygon points = "697.927, 793.449 695.233, 837.148 719.675, 862.444 738.037, 853.358 728.742, 773.507 719.158, 771.859 "
fill = "none" stroke = "black"/>
</g>
<g>
<polygon points = "344.634, 683.259 325.624, 599.409 247.145, 635.419 245.636, 654.852 261.337, 691.801 277.549, 707.833 334.644, 699.154 "
fill = "none" stroke = "black"/>
</g>
<g>
<polygon points = "533.643, 47.553 539.030, 45.402 554.934, 1.000 469.512, 1.000 "
fill = "none" stroke = "black"/>
</g>
<g>
<polygon points = "354.654, 448.533 385.620, 438.549 397.451, 427.460 300.955, 329.285 309.821, 423.597 "
fill = "none" stroke = "black"/>
</g>
<g>
<polygon points = "224.201, 578.154 226.131, 575.641 222.691, 527.288 203.851, 502.994 182.290, 518.419 204.562, 570.306 "
fill = "none" stroke = "black"/>
</g>
<g>
<polygon points = "481.272, 203.828 432.716, 188.402 431.842, 188.814 393.890, 234.645 412.286, 249.990 432.127, 260.512 438.086, 261.653 512.851, 240.202 "
fill = "none" stroke = "black"/>
</g>
<g>
<polygon points = "831.780, 885.203 906.286, 944.128 860.421, 789.888 800.062, 784.583 "
fill = "none" stroke = "black"/>
</g>
<g>
<polygon points = "986.006, 191.515 924.943, 341.679 955.097, 379.217 999.000, 284.175 999.000, 182.824 "
fill = "none" stroke = "black"/>
</g>
<g>
<polygon points = "369.851, 929.993 338.065, 884.978 338.033, 884.973 291.422, 958.154 "
fill = "none" stroke = "black"/>
</g>
<g>
<polygon points = "431.095, 526.419 470.360, 587.156 483.424, 575.501 482.871, 496.436 470.617, 480.733 447.963, 498.409 "
fill = "none" stroke = "black"/>
</g>
<g>
<polygon points = "564.709, 727.735 603.557, 711.688 604.950, 682.352 604.781, 681.589 576.695, 662.452 513.267, 688.720 "
fill = "none" stroke = "black"/>
</g>
<g>
<polygon points = "810.107, 582.393 720.679, 554.290 735.201, 615.570 755.307, 631.718 776.659, 635.153 813.251, 601.131 "
fill = "none" stroke = "black"/>
</g>
<g>
<polygon points = "367.956, 747.561 353.395, 738.306 319.794, 783.624 330.459, 813.375 330.609, 813.360 378.871, 795.912 "
fill = "none" stroke = "black"/>
</g>
<g>
<polygon points = "797.074, 691.924 854.272, 684.097 880.854, 663.996 833.268, 611.179 813.251, 601.131 776.659, 635.153 "
fill = "none" stroke = "black"/>
</g>
<g>
<polygon points = "297.665, 777.797 288.608, 768.220 262.572, 781.931 272.891, 816.807 "
fill = "none" stroke = "black"/>
</g>
<g>
<polygon points = "300.513, 327.877 277.853, 321.501 228.662, 423.320 291.573, 432.300 309.821, 423.597 300.955, 329.285 "
fill = "none" stroke = "black"/>
</g>
<g>
<polygon points = "918.887, 421.577 924.317, 425.037 952.779, 397.369 955.097, 379.217 924.943, 341.679 897.786, 371.325 "
fill = "none" stroke = "black"/>
</g>
<g>
<polygon points = "295.628, 521.370 283.974, 505.697 204.344, 501.365 203.851, 502.994 222.691, 527.288 "
fill = "none" stroke = "black"/>
</g>
<g>
<polygon points = "338.334, 131.917 308.026, 192.500 348.527, 211.840 383.370, 158.673 381.492, 144.832 "
fill = "none" stroke = "black"/>
</g>
<g>
<polygon points = "152.295, 526.770 144.707, 530.628 178.636, 570.451 204.562, 570.306 182.290, 518.419 "
fill = "none" stroke = "black"/>
</g>
<g>
<polygon points = "772.801, 725.998 797.074, 691.924 776.659, 635.153 755.307, 631.718 718.067, 689.138 "
fill = "none" stroke = "black"/>
</g>
<g>
<polygon points = "441.350, 749.420 438.026, 787.493 440.883, 820.665 482.476, 807.497 504.609, 793.729 487.329, 737.613 "
fill = "none" stroke = "black"/>
</g>
<g>
<polygon points = "425.868, 403.196 439.953, 333.071 429.899, 331.238 392.030, 367.154 399.578, 424.022 "
fill = "none" stroke = "black"/>
</g>
<g>
<polygon points = "887.362, 663.689 903.037, 644.007 903.337, 607.678 866.795, 586.686 833.268, 611.179 880.854, 663.996 "
fill = "none" stroke = "black"/>
</g>
<g>
<polygon points = "369.271, 235.865 336.268, 312.040 398.192, 313.121 412.286, 249.990 393.890, 234.645 "
fill = "none" stroke = "black"/>
</g>
<g>
<polygon points = "672.987, 808.851 667.643, 807.620 662.794, 835.411 691.922, 834.787 "
fill = "none" stroke = "black"/>
</g>
<g>
<polygon points = "578.365, 636.964 573.830, 626.043 564.884, 614.519 507.672, 648.134 511.605, 687.716 512.175, 688.453 513.267, 688.720 576.695, 662.452 "
fill = "none" stroke = "black"/>
</g>
<g>
<polygon points = "904.229, 736.609 914.097, 694.686 887.362, 663.689 880.854, 663.996 854.272, 684.097 853.977, 733.465 "
fill = "none" stroke = "black"/>
</g>
<g>
<polygon points = "878.857, 497.949 842.258, 515.266 861.036, 555.198 874.542, 558.397 889.918, 553.505 "
fill = "none" stroke = "black"/>
</g>
<g>
<polygon points = "334.452, 313.648 336.268, 312.040 369.271, 235.865 348.527, 211.840 308.026, 192.500 272.686, 196.001 215.157, 273.580 277.853, 321.501 300.513, 327.877 "
fill = "none" stroke = "black"/>
</g>
<g>
<polygon points = "808.428, 523.727 816.597, 514.297 813.261, 490.056 785.901, 414.890 761.302, 425.703 749.614, 482.735 744.032, 519.120 "
fill = "none" stroke = "black"/>
</g>
<g>
<polygon points = "225.216, 609.625 210.812, 613.167 168.172, 664.025 178.536, 669.681 192.234, 670.344 245.636, 654.852 247.145, 635.419 "
fill = "none" stroke = "black"/>
</g>
<g>
<polygon points = "691.316, 637.995 687.323, 688.000 718.067, 689.138 755.307, 631.718 735.201, 615.570 "
fill = "none" stroke = "black"/>
</g>
<g>
<polygon points = "892.904, 236.449 865.252, 321.383 878.061, 359.214 897.786, 371.325 924.943, 341.679 986.006, 191.515 "
fill = "none" stroke = "black"/>
</g>
<g>
<polygon points = "812.478, 575.946 861.036, 555.198 842.258, 515.266 816.597, 514.297 808.428, 523.727 "
fill = "none" stroke = "black"/>
</g>
<g>
<polygon points = "426.302, 730.695 370.218, 747.304 438.026, 787.493 441.350, 749.420 "
fill = "none" stroke = "black"/>
</g>
<g>
<polygon points = "400.180, 487.891 447.963, 498.409 470.617, 480.733 469.833, 470.275 467.784, 464.534 398.041, 427.143 397.451, 427.460 385.620, 438.549 "
fill = "none" stroke = "black"/>
</g>
<g>
<polygon points = "218.961, 769.879 217.177, 770.748 225.854, 826.655 254.648, 854.686 265.240, 851.285 272.891, 816.807 262.572, 781.931 "
fill = "none" stroke = "black"/>
</g>
<g>
<polygon points = "501.247, 952.956 421.612, 992.214 419.669, 999.000 515.381, 999.000 "
fill = "none" stroke = "black"/>
</g>
<g>
<polygon points = "421.612, 992.214 407.986, 947.218 403.628, 941.287 376.837, 937.004 321.893, 999.000 419.669, 999.000 "
fill = "none" stroke = "black"/>
</g>
<g>
<polygon points = "204.344, 501.365 283.974, 505.697 276.296, 488.634 224.010, 458.003 204.976, 488.426 "
fill = "none" stroke = "black"/>
</g>
<g>
<polygon points = "75.553, 628.950 76.766, 628.950 76.389, 588.574 57.015, 558.688 20.886, 575.513 "
fill = "none" stroke = "black"/>
</g>
<g>
<polygon points = "410.443, 50.641 462.320, 26.458 463.533, 1.000 367.554, 1.000 "
fill = "none" stroke = "black"/>
</g>
<g>
<polygon points = "215.157, 273.580 210.760, 273.790 196.352, 304.329 215.504, 422.860 223.485, 426.273 228.662, 423.320 277.853, 321.501 "
fill = "none" stroke = "black"/>
</g>
<g>
<polygon points = "541.702, 429.576 550.312, 409.155 493.585, 378.997 487.328, 385.650 479.375, 447.160 "
fill = "none" stroke = "black"/>
</g>
<g>
<polygon points = "861.036, 555.198 812.478, 575.946 810.107, 582.393 813.251, 601.131 833.268, 611.179 866.795, 586.686 874.542, 558.397 "
fill = "none" stroke = "black"/>
</g>
<g>
<polygon points = "443.715, 115.109 390.297, 135.505 381.492, 144.832 383.370, 158.673 431.842, 188.814 432.716, 188.402 "
fill = "none" stroke = "black"/>
</g>
<g>
<polygon points = "504.670, 911.737 429.070, 852.961 403.628, 941.287 407.986, 947.218 "
fill = "none" stroke = "black"/>
</g>
<g>
<polygon points = "698.197, 481.605 662.233, 538.372 665.104, 540.544 715.709, 547.378 744.032, 519.120 749.614, 482.735 "
fill = "none" stroke = "black"/>
</g>
<g>
<polygon points = "668.606, 91.939 679.234, 96.550 720.649, 104.856 808.653, 1.000 670.475, 1.000 "
fill = "none" stroke = "black"/>
</g>
<g>
<polygon points = "186.088, 235.337 41.584, 78.406 1.000, 50.377 1.000, 208.551 166.025, 274.850 207.219, 271.995 "
fill = "none" stroke = "black"/>
</g>
<g>
<polygon points = "422.671, 629.665 445.900, 599.050 387.891, 565.329 329.422, 559.830 325.818, 598.937 "
fill = "none" stroke = "black"/>
</g>
<g>
<polygon points = "248.329, 133.061 272.686, 196.001 308.026, 192.500 338.334, 131.917 319.644, 60.238 287.079, 22.746 "
fill = "none" stroke = "black"/>
</g>
<g>
<polygon points = "126.014, 578.658 76.389, 588.574 76.766, 628.950 116.631, 659.319 123.861, 655.231 141.258, 613.541 "
fill = "none" stroke = "black"/>
</g>
<g>
<polygon points = "81.044, 509.638 57.015, 558.688 76.389, 588.574 126.014, 578.658 127.162, 531.745 89.208, 505.668 "
fill = "none" stroke = "black"/>
</g>
<g>
<polygon points = "743.690, 854.248 794.501, 776.719 786.938, 757.862 772.836, 746.027 728.742, 773.507 738.037, 853.358 "
fill = "none" stroke = "black"/>
</g>
<g>
<polygon points = "683.367, 342.648 693.982, 314.350 682.615, 275.241 644.059, 284.650 611.679, 309.546 611.473, 328.469 626.303, 384.349 "
fill = "none" stroke = "black"/>
</g>
<g>
<polygon points = "123.330, 459.218 139.853, 458.604 167.973, 441.911 188.302, 417.936 155.969, 386.863 "
fill = "none" stroke = "black"/>
</g>
<g>
<polygon points = "952.779, 397.369 924.317, 425.037 937.738, 463.500 999.000, 452.802 999.000, 392.967 "
fill = "none" stroke = "black"/>
</g>
<g>
<polygon points = "207.219, 271.995 166.025, 274.850 24.540, 356.999 35.221, 364.143 186.646, 319.097 196.352, 304.329 210.760, 273.790 "
fill = "none" stroke = "black"/>
</g>
<g>
<polygon points = "186.331, 479.257 204.976, 488.426 224.010, 458.003 223.485, 426.273 215.504, 422.860 188.302, 417.936 167.973, 441.911 "
fill = "none" stroke = "black"/>
</g>
<g>
<polygon points = "291.422, 958.154 338.033, 884.973 306.301, 853.873 265.240, 851.285 254.648, 854.686 187.848, 999.000 260.113, 999.000 "
fill = "none" stroke = "black"/>
</g>
<g>
<polygon points = "487.328, 385.650 493.585, 378.997 489.255, 334.871 456.652, 329.521 439.953, 333.071 425.868, 403.196 "
fill = "none" stroke = "black"/>
</g>
<g>
<polygon points = "691.808, 900.690 705.233, 879.787 657.144, 839.540 625.982, 844.240 664.064, 904.794 "
fill = "none" stroke = "black"/>
</g>
<g>
<polygon points = "848.894, 749.843 853.977, 733.465 854.272, 684.097 797.074, 691.924 772.801, 725.998 772.836, 746.027 786.938, 757.862 "
fill = "none" stroke = "black"/>
</g>
<g>
<polygon points = "599.668, 824.356 616.389, 942.996 664.064, 904.794 625.982, 844.240 "
fill = "none" stroke = "black"/>
</g>
<g>
<polygon points = "314.480, 537.025 295.628, 521.370 222.691, 527.288 226.131, 575.641 "
fill = "none" stroke = "black"/>
</g>
<g>
<polygon points = "398.654, 507.940 324.361, 548.249 329.422, 559.830 387.891, 565.329 416.462, 524.937 "
fill = "none" stroke = "black"/>
</g>
<g>
<polygon points = "915.307, 570.533 903.337, 607.678 903.037, 644.007 999.000, 617.163 999.000, 564.475 "
fill = "none" stroke = "black"/>
</g>
<g>
<polygon points = "152.198, 609.129 141.258, 613.541 123.861, 655.231 125.859, 655.791 168.172, 664.025 210.812, 613.167 "
fill = "none" stroke = "black"/>
</g>
<g>
<polygon points = "314.480, 537.025 315.650, 537.393 354.654, 448.533 309.821, 423.597 291.573, 432.300 276.296, 488.634 283.974, 505.697 295.628, 521.370 "
fill = "none" stroke = "black"/>
</g>
<g>
<polygon points = "679.704, 686.403 639.811, 652.386 627.822, 649.888 604.781, 681.589 604.950, 682.352 "
fill = "none" stroke = "black"/>
</g>
<g>
<polygon points = "398.041, 427.143 399.578, 424.022 392.030, 367.154 334.452, 313.648 300.513, 327.877 300.955, 329.285 397.451, 427.460 "
fill = "none" stroke = "black"/>
</g>
<g>
<polygon points = "627.231, 728.058 674.871, 712.939 685.150, 689.436 679.704, 686.403 604.950, 682.352 603.557, 711.688 "
fill = "none" stroke = "black"/>
</g>
<g>
<polygon points = "579.808, 398.118 543.575, 320.521 527.056, 296.512 489.255, 334.871 493.585, 378.997 550.312, 409.155 "
fill = "none" stroke = "black"/>
</g>
<g>
<polygon points = "449.654, 107.143 474.568, 97.945 462.320, 26.458 410.443, 50.641 409.944, 82.645 "
fill = "none" stroke = "black"/>
</g>
<g>
<polygon points = "315.650, 537.393 324.361, 548.249 398.654, 507.940 400.180, 487.891 385.620, 438.549 354.654, 448.533 "
fill = "none" stroke = "black"/>
</g>
<g>
<polygon points = "111.117, 672.397 116.631, 659.319 76.766, 628.950 75.553, 628.950 1.000, 641.096 1.000, 702.120 "
fill = "none" stroke = "black"/>
</g>
<g>
<polygon points = "720.649, 104.856 679.234, 96.550 710.665, 231.003 756.615, 217.151 763.043, 162.983 729.854, 114.184 "
fill = "none" stroke = "black"/>
</g>
<g>
<polygon points = "812.478, 575.946 808.428, 523.727 744.032, 519.120 715.709, 547.378 720.679, 554.290 810.107, 582.393 "
fill = "none" stroke = "black"/>
</g>
<g>
<polygon points = "274.500, 716.723 288.608, 768.220 297.665, 777.797 319.794, 783.624 353.395, 738.306 334.644, 699.154 277.549, 707.833 "
fill = "none" stroke = "black"/>
</g>
<g>
<polygon points = "287.079, 22.746 319.644, 60.238 367.649, 79.730 409.944, 82.645 410.443, 50.641 367.554, 1.000 281.920, 1.000 "
fill = "none" stroke = "black"/>
</g>
<g>
<polygon points = "403.348, 856.819 427.905, 850.710 430.747, 834.175 378.871, 795.912 330.609, 813.360 "
fill = "none" stroke = "black"/>
</g>
<g>
<polygon points = "796.941, 412.460 836.899, 426.584 918.887, 421.577 897.786, 371.325 878.061, 359.214 "
fill = "none" stroke = "black"/>
</g>
<g>
<polygon points = "502.819, 712.774 487.329, 737.613 504.609, 793.729 547.798, 794.587 "
fill = "none" stroke = "black"/>
</g>
<g>
<polygon points = "530.075, 287.744 527.056, 296.512 543.575, 320.521 584.772, 337.219 611.473, 328.469 611.679, 309.546 "
fill = "none" stroke = "black"/>
</g>
<g>
<polygon points = "376.837, 937.004 369.851, 929.993 291.422, 958.154 260.113, 999.000 321.893, 999.000 "
fill = "none" stroke = "black"/>
</g>
<g>
<polygon points = "325.818, 598.937 329.422, 559.830 324.361, 548.249 315.650, 537.393 314.480, 537.025 226.131, 575.641 224.201, 578.154 225.216, 609.625 247.145, 635.419 325.624, 599.409 "
fill = "none" stroke = "black"/>
</g>
<g>
<polygon points = "162.343, 476.307 139.853, 458.604 123.330, 459.218 98.170, 468.029 89.208, 505.668 127.162, 531.745 144.707, 530.628 152.295, 526.770 "
fill = "none" stroke = "black"/>
</g>
<g>
<polygon points = "469.088, 589.599 445.900, 599.050 422.671, 629.665 412.888, 668.878 428.738, 686.641 511.605, 687.716 507.672, 648.134 "
fill = "none" stroke = "black"/>
</g>
<g>
<polygon points = "672.478, 426.417 622.543, 522.204 656.623, 535.635 699.263, 427.436 "
fill = "none" stroke = "black"/>
</g>
<g>
<polygon points = "35.805, 868.458 112.287, 687.188 111.117, 672.397 1.000, 702.120 1.000, 898.930 "
fill = "none" stroke = "black"/>
</g>
<g>
<polygon points = "412.888, 668.878 422.671, 629.665 325.818, 598.937 325.624, 599.409 344.634, 683.259 "
fill = "none" stroke = "black"/>
</g>
<g>
<polygon points = "731.268, 422.756 725.912, 424.687 698.197, 481.605 749.614, 482.735 761.302, 425.703 "
fill = "none" stroke = "black"/>
</g>
<g>
<polygon points = "127.162, 531.745 126.014, 578.658 141.258, 613.541 152.198, 609.129 178.636, 570.451 144.707, 530.628 "
fill = "none" stroke = "black"/>
</g>
<g>
<polygon points = "353.395, 738.306 367.956, 747.561 370.218, 747.304 426.302, 730.695 428.738, 686.641 412.888, 668.878 344.634, 683.259 334.644, 699.154 "
fill = "none" stroke = "black"/>
</g>
<g>
<polygon points = "479.375, 447.160 487.328, 385.650 425.868, 403.196 399.578, 424.022 398.041, 427.143 467.784, 464.534 "
fill = "none" stroke = "black"/>
</g>
<g>
<polygon points = "914.097, 694.686 904.229, 736.609 904.561, 745.147 926.521, 779.125 999.000, 853.433 999.000, 717.775 "
fill = "none" stroke = "black"/>
</g>
<g>
<polygon points = "862.603, 772.629 861.295, 764.886 848.894, 749.843 786.938, 757.862 794.501, 776.719 800.062, 784.583 860.421, 789.888 "
fill = "none" stroke = "black"/>
</g>
<g>
<polygon points = "880.374, 495.566 936.445, 468.669 937.738, 463.500 924.317, 425.037 918.887, 421.577 836.899, 426.584 859.306, 473.591 "
fill = "none" stroke = "black"/>
</g>
<g>
<polygon points = "218.961, 769.879 262.572, 781.931 288.608, 768.220 274.500, 716.723 "
fill = "none" stroke = "black"/>
</g>
<g>
<polygon points = "20.886, 575.513 57.015, 558.688 81.044, 509.638 1.000, 491.542 1.000, 581.183 "
fill = "none" stroke = "black"/>
</g>
<g>
<polygon points = "610.819, 949.089 537.114, 909.769 511.978, 915.448 501.247, 952.956 515.381, 999.000 618.430, 999.000 "
fill = "none" stroke = "black"/>
</g>
<g>
<polygon points = "527.056, 296.512 530.075, 287.744 527.530, 246.385 512.851, 240.202 438.086, 261.653 456.652, 329.521 489.255, 334.871 "
fill = "none" stroke = "black"/>
</g>
<g>
<polygon points = "926.521, 779.125 862.603, 772.629 860.421, 789.888 906.286, 944.128 955.299, 999.000 999.000, 999.000 999.000, 853.433 "
fill = "none" stroke = "black"/>
</g>
<g>
<polygon points = "568.995, 552.477 585.021, 536.723 589.076, 530.964 560.885, 505.950 482.871, 496.436 483.424, 575.501 "
fill = "none" stroke = "black"/>
</g>
<g>
<polygon points = "691.808, 900.690 664.064, 904.794 616.389, 942.996 610.819, 949.089 618.430, 999.000 759.307, 999.000 "
fill = "none" stroke = "black"/>
</g>
<g>
<polygon points = "185.285, 726.812 178.536, 669.681 168.172, 664.025 125.859, 655.791 "
fill = "none" stroke = "black"/>
</g>
<g>
<polygon points = "462.320, 26.458 474.568, 97.945 479.468, 99.643 533.643, 47.553 469.512, 1.000 463.533, 1.000 "
fill = "none" stroke = "black"/>
</g>
<g>
<polygon points = "392.030, 367.154 429.899, 331.238 412.847, 317.782 398.192, 313.121 336.268, 312.040 334.452, 313.648 "
fill = "none" stroke = "black"/>
</g>
<g>
<polygon points = "496.403, 113.901 479.468, 99.643 474.568, 97.945 449.654, 107.143 443.715, 115.109 432.716, 188.402 481.272, 203.828 "
fill = "none" stroke = "black"/>
</g>
<g>
<polygon points = "639.811, 652.386 679.704, 686.403 685.150, 689.436 687.323, 688.000 691.316, 637.995 672.414, 620.478 "
fill = "none" stroke = "black"/>
</g>
<g>
<polygon points = "550.468, 227.704 527.530, 246.385 530.075, 287.744 611.679, 309.546 644.059, 284.650 "
fill = "none" stroke = "black"/>
</g>
<g>
<polygon points = "691.782, 755.633 674.871, 712.939 627.231, 728.058 625.794, 757.326 682.356, 761.464 "
fill = "none" stroke = "black"/>
</g>
<g>
<polygon points = "539.030, 45.402 581.997, 83.015 600.627, 1.000 554.934, 1.000 "
fill = "none" stroke = "black"/>
</g>
<g>
<polygon points = "75.553, 628.950 20.886, 575.513 1.000, 581.183 1.000, 641.096 "
fill = "none" stroke = "black"/>
</g>
<g>
<polygon points = "501.247, 952.956 511.978, 915.448 511.227, 914.924 504.670, 911.737 407.986, 947.218 421.612, 992.214 "
fill = "none" stroke = "black"/>
</g>
<g>
<polygon points = "697.079, 237.821 710.665, 231.003 679.234, 96.550 668.606, 91.939 598.295, 136.097 593.961, 143.269 595.302, 164.671 "
fill = "none" stroke = "black"/>
</g>
<g>
<polygon points = "537.114, 909.769 610.819, 949.089 616.389, 942.996 599.668, 824.356 591.799, 816.058 581.996, 816.123 "
fill = "none" stroke = "black"/>
</g>
<g>
<polygon points = "937.738, 463.500 936.445, 468.669 941.299, 481.348 999.000, 563.511 999.000, 452.802 "
fill = "none" stroke = "black"/>
</g>
<g>
<polygon points = "699.263, 427.436 656.623, 535.635 662.233, 538.372 698.197, 481.605 725.912, 424.687 "
fill = "none" stroke = "black"/>
</g>
<g>
<polygon points = "370.218, 747.304 367.956, 747.561 378.871, 795.912 430.747, 834.175 440.883, 820.665 438.026, 787.493 "
fill = "none" stroke = "black"/>
</g>
<g>
<polygon points = "955.097, 379.217 952.779, 397.369 999.000, 392.967 999.000, 284.175 "
fill = "none" stroke = "black"/>
</g>
<g>
<polygon points = "580.748, 398.188 597.731, 400.956 624.608, 387.728 626.303, 384.349 611.473, 328.469 584.772, 337.219 "
fill = "none" stroke = "black"/>
</g>
<g>
<polygon points = "581.997, 83.015 598.295, 136.097 668.606, 91.939 670.475, 1.000 600.627, 1.000 "
fill = "none" stroke = "black"/>
</g>
<g>
<polygon points = "456.652, 329.521 438.086, 261.653 432.127, 260.512 412.847, 317.782 429.899, 331.238 439.953, 333.071 "
fill = "none" stroke = "black"/>
</g>
<g>
<polygon points = "1.000, 50.377 41.584, 78.406 198.018, 136.225 248.329, 133.061 287.079, 22.746 281.920, 1.000 1.000, 1.000 "
fill = "none" stroke = "black"/>
</g>
<g>
<polygon points = "223.485, 426.273 224.010, 458.003 276.296, 488.634 291.573, 432.300 228.662, 423.320 "
fill = "none" stroke = "black"/>
</g>
<g>
<polygon points = "416.462, 524.937 387.891, 565.329 445.900, 599.050 469.088, 589.599 470.360, 587.156 431.095, 526.419 "
fill = "none" stroke = "black"/>
</g>
<g>
<polygon points = "780.769, 346.419 799.815, 240.561 756.615, 217.151 710.665, 231.003 697.079, 237.821 682.615, 275.241 693.982, 314.350 "
fill = "none" stroke = "black"/>
</g>
<g>
<polygon points = "661.245, 594.649 672.414, 620.478 691.316, 637.995 735.201, 615.570 720.679, 554.290 715.709, 547.378 665.104, 540.544 "
fill = "none" stroke = "black"/>
</g>
<g>
<polygon points = "367.649, 79.730 319.644, 60.238 338.334, 131.917 381.492, 144.832 390.297, 135.505 "
fill = "none" stroke = "black"/>
</g>
<g>
<polygon points = "926.521, 779.125 904.561, 745.147 861.295, 764.886 862.603, 772.629 "
fill = "none" stroke = "black"/>
</g>
<g>
<polygon points = "613.716, 615.893 624.180, 625.856 661.245, 594.649 665.104, 540.544 662.233, 538.372 656.623, 535.635 622.543, 522.204 615.905, 521.601 589.076, 530.964 585.021, 536.723 "
fill = "none" stroke = "black"/>
</g>
<g>
<polygon points = "210.785, 708.917 261.337, 691.801 245.636, 654.852 192.234, 670.344 "
fill = "none" stroke = "black"/>
</g>
<g>
<polygon points = "376.837, 937.004 403.628, 941.287 429.070, 852.961 427.905, 850.710 403.348, 856.819 338.065, 884.978 369.851, 929.993 "
fill = "none" stroke = "black"/>
</g>
<g>
<polygon points = "919.583, 46.237 763.043, 162.983 756.615, 217.151 799.815, 240.561 892.904, 236.449 986.006, 191.515 999.000, 182.824 999.000, 1.000 987.491, 1.000 "
fill = "none" stroke = "black"/>
</g>
<g>
<polygon points = "785.049, 354.859 788.693, 412.036 796.941, 412.460 878.061, 359.214 865.252, 321.383 "
fill = "none" stroke = "black"/>
</g>
<g>
<polygon points = "612.111, 799.962 625.794, 757.326 627.231, 728.058 603.557, 711.688 564.709, 727.735 561.505, 797.045 576.946, 812.057 581.996, 816.123 591.799, 816.058 "
fill = "none" stroke = "black"/>
</g>
<g>
<polygon points = "649.192, 797.082 612.111, 799.962 591.799, 816.058 599.668, 824.356 625.982, 844.240 657.144, 839.540 662.794, 835.411 667.643, 807.620 "
fill = "none" stroke = "black"/>
</g>
<g>
<polygon points = "204.344, 501.365 204.976, 488.426 186.331, 479.257 162.343, 476.307 152.295, 526.770 182.290, 518.419 203.851, 502.994 "
fill = "none" stroke = "black"/>
</g>
<g>
<polygon points = "508.596, 843.731 576.946, 812.057 561.505, 797.045 547.798, 794.587 504.609, 793.729 482.476, 807.497 "
fill = "none" stroke = "black"/>
</g>
<g>
<polygon points = "941.299, 481.348 936.445, 468.669 880.374, 495.566 878.857, 497.949 889.918, 553.505 903.846, 558.869 "
fill = "none" stroke = "black"/>
</g>
<g>
<polygon points = "297.665, 777.797 272.891, 816.807 265.240, 851.285 306.301, 853.873 330.459, 813.375 319.794, 783.624 "
fill = "none" stroke = "black"/>
</g>
<g>
<polygon points = "186.331, 479.257 167.973, 441.911 139.853, 458.604 162.343, 476.307 "
fill = "none" stroke = "black"/>
</g>
<g>
<polygon points = "720.649, 104.856 729.854, 114.184 919.583, 46.237 987.491, 1.000 808.653, 1.000 "
fill = "none" stroke = "black"/>
</g>
<g>
<polygon points = "215.504, 422.860 196.352, 304.329 186.646, 319.097 152.038, 380.022 155.969, 386.863 188.302, 417.936 "
fill = "none" stroke = "black"/>
</g>
<g>
<polygon points = "859.306, 473.591 836.899, 426.584 796.941, 412.460 788.693, 412.036 785.901, 414.890 813.261, 490.056 "
fill = "none" stroke = "black"/>
</g>
<g>
<polygon points = "624.180, 625.856 623.158, 638.448 627.822, 649.888 639.811, 652.386 672.414, 620.478 661.245, 594.649 "
fill = "none" stroke = "black"/>
</g>
<g>
<polygon points = "615.905, 521.601 597.731, 400.956 580.748, 398.188 579.808, 398.118 550.312, 409.155 541.702, 429.576 541.900, 462.200 560.885, 505.950 589.076, 530.964 "
fill = "none" stroke = "black"/>
</g>
<g>
<polygon points = "657.144, 839.540 705.233, 879.787 719.675, 862.444 695.233, 837.148 691.922, 834.787 662.794, 835.411 "
fill = "none" stroke = "black"/>
</g>
<g>
<polygon points = "682.356, 761.464 625.794, 757.326 612.111, 799.962 649.192, 797.082 "
fill = "none" stroke = "black"/>
</g>
<g>
<polygon points = "508.596, 843.731 511.227, 914.924 511.978, 915.448 537.114, 909.769 581.996, 816.123 576.946, 812.057 "
fill = "none" stroke = "black"/>
</g>
<g>
<polygon points = "469.088, 589.599 507.672, 648.134 564.884, 614.519 568.995, 552.477 483.424, 575.501 470.360, 587.156 "
fill = "none" stroke = "black"/>
</g>
<g>
<polygon points = "941.299, 481.348 903.846, 558.869 915.307, 570.533 999.000, 564.475 999.000, 563.511 "
fill = "none" stroke = "black"/>
</g>
<g>
<polygon points = "430.747, 834.175 427.905, 850.710 429.070, 852.961 504.670, 911.737 511.227, 914.924 508.596, 843.731 482.476, 807.497 440.883, 820.665 "
fill = "none" stroke = "black"/>
</g>
<g>
<polygon points = "254.648, 854.686 225.854, 826.655 71.556, 848.065 35.805, 868.458 1.000, 898.930 1.000, 999.000 187.848, 999.000 "
fill = "none" stroke = "black"/>
</g>
<g>
<polygon points = "615.905, 521.601 622.543, 522.204 672.478, 426.417 624.608, 387.728 597.731, 400.956 "
fill = "none" stroke = "black"/>
</g>
<g>
<polygon points = "210.785, 708.917 186.553, 731.426 185.810, 733.711 193.502, 760.147 217.177, 770.748 218.961, 769.879 274.500, 716.723 277.549, 707.833 261.337, 691.801 "
fill = "none" stroke = "black"/>
</g>
<g>
<polygon points = "112.090, 811.287 71.556, 848.065 225.854, 826.655 217.177, 770.748 193.502, 760.147 "
fill = "none" stroke = "black"/>
</g>
<g>
<polygon points = "24.540, 356.999 166.025, 274.850 1.000, 208.551 1.000, 349.813 "
fill = "none" stroke = "black"/>
</g>
<g>
<polygon points = "398.192, 313.121 412.847, 317.782 432.127, 260.512 412.286, 249.990 "
fill = "none" stroke = "black"/>
</g>
<g>
<polygon points = "880.374, 495.566 859.306, 473.591 813.261, 490.056 816.597, 514.297 842.258, 515.266 878.857, 497.949 "
fill = "none" stroke = "black"/>
</g>
<g>
<polygon points = "772.836, 746.027 772.801, 725.998 718.067, 689.138 687.323, 688.000 685.150, 689.436 674.871, 712.939 691.782, 755.633 719.158, 771.859 728.742, 773.507 "
fill = "none" stroke = "black"/>
</g>
<g>
<polygon points = "904.561, 745.147 904.229, 736.609 853.977, 733.465 848.894, 749.843 861.295, 764.886 "
fill = "none" stroke = "black"/>
</g>
<g>
<polygon points = "683.367, 342.648 626.303, 384.349 624.608, 387.728 672.478, 426.417 699.263, 427.436 725.912, 424.687 731.268, 422.756 "
fill = "none" stroke = "black"/>
</g>
<g>
<polygon points = "788.693, 412.036 785.049, 354.859 780.769, 346.419 693.982, 314.350 683.367, 342.648 731.268, 422.756 761.302, 425.703 785.901, 414.890 "
fill = "none" stroke = "black"/>
</g>
<g>
<polygon points = "627.822, 649.888 623.158, 638.448 578.365, 636.964 576.695, 662.452 604.781, 681.589 "
fill = "none" stroke = "black"/>
</g>
<g>
<polygon points = "906.286, 944.128 831.780, 885.203 743.690, 854.248 738.037, 853.358 719.675, 862.444 705.233, 879.787 691.808, 900.690 759.307, 999.000 955.299, 999.000 "
fill = "none" stroke = "black"/>
</g>
<g>
<polygon points = "580.748, 398.188 584.772, 337.219 543.575, 320.521 579.808, 398.118 "
fill = "none" stroke = "black"/>
</g>
<g>
<polygon points = "560.885, 505.950 541.900, 462.200 469.833, 470.275 470.617, 480.733 482.871, 496.436 "
fill = "none" stroke = "black"/>
</g>
<g>
<polygon points = "799.815, 240.561 780.769, 346.419 785.049, 354.859 865.252, 321.383 892.904, 236.449 "
fill = "none" stroke = "black"/>
</g>
<g>
<polygon points = "541.900, 462.200 541.702, 429.576 479.375, 447.160 467.784, 464.534 469.833, 470.275 "
fill = "none" stroke = "black"/>
</g>
<g>
<polygon points = "198.018, 136.225 41.584, 78.406 186.088, 235.337 "
fill = "none" stroke = "black"/>
</g>
<g>
<polygon points = "224.201, 578.154 204.562, 570.306 178.636, 570.451 152.198, 609.129 210.812, 613.167 225.216, 609.625 "
fill = "none" stroke = "black"/>
</g>
<g>
<polygon points = "672.987, 808.851 691.922, 834.787 695.233, 837.148 697.927, 793.449 "
fill = "none" stroke = "black"/>
</g>
<g>
<polygon points = "98.170, 468.029 123.330, 459.218 155.969, 386.863 152.038, 380.022 55.426, 378.886 "
fill = "none" stroke = "black"/>
</g>
<g>
<polygon points = "71.556, 848.065 112.090, 811.287 144.845, 723.101 112.287, 687.188 35.805, 868.458 "
fill = "none" stroke = "black"/>
</g>
<g>
<polygon points = "403.348, 856.819 330.609, 813.360 330.459, 813.375 306.301, 853.873 338.033, 884.973 338.065, 884.978 "
fill = "none" stroke = "black"/>
</g>
<g>
<polygon points = "55.426, 378.886 152.038, 380.022 186.646, 319.097 35.221, 364.143 "
fill = "none" stroke = "black"/>
</g>
<g>
<polygon points = "512.175, 688.453 502.819, 712.774 547.798, 794.587 561.505, 797.045 564.709, 727.735 513.267, 688.720 "
fill = "none" stroke = "black"/>
</g>
<g>
<polygon points = "144.845, 723.101 112.090, 811.287 193.502, 760.147 185.810, 733.711 "
fill = "none" stroke = "black"/>
</g>
<g>
<polygon points = "623.158, 638.448 624.180, 625.856 613.716, 615.893 573.830, 626.043 578.365, 636.964 "
fill = "none" stroke = "black"/>
</g>
<g>
<polygon points = "831.780, 885.203 800.062, 784.583 794.501, 776.719 743.690, 854.248 "
fill = "none" stroke = "black"/>
</g>
<g>
<polygon points = "185.285, 726.812 186.553, 731.426 210.785, 708.917 192.234, 670.344 178.536, 669.681 "
fill = "none" stroke = "black"/>
</g>
<g>
<polygon points = "550.468, 227.704 595.302, 164.671 593.961, 143.269 496.403, 113.901 481.272, 203.828 512.851, 240.202 527.530, 246.385 "
fill = "none" stroke = "black"/>
</g>
<g>
<polygon points = "112.287, 687.188 144.845, 723.101 185.810, 733.711 186.553, 731.426 185.285, 726.812 125.859, 655.791 123.861, 655.231 116.631, 659.319 111.117, 672.397 "
fill = "none" stroke = "black"/>
</g>
<g>
<polygon points = "697.079, 237.821 595.302, 164.671 550.468, 227.704 644.059, 284.650 682.615, 275.241 "
fill = "none" stroke = "black"/>
</g>
<g>
<polygon points = "613.716, 615.893 585.021, 536.723 568.995, 552.477 564.884, 614.519 573.830, 626.043 "
fill = "none" stroke = "black"/>
</g>
<g>
<polygon points = "98.170, 468.029 55.426, 378.886 35.221, 364.143 24.540, 356.999 1.000, 349.813 1.000, 491.542 81.044, 509.638 89.208, 505.668 "
fill = "none" stroke = "black"/>
</g>
<g>
<polygon points = "428.738, 686.641 426.302, 730.695 441.350, 749.420 487.329, 737.613 502.819, 712.774 512.175, 688.453 511.605, 687.716 "
fill = "none" stroke = "black"/>
</g>
<g>
<polygon points = "383.370, 158.673 348.527, 211.840 369.271, 235.865 393.890, 234.645 431.842, 188.814 "
fill = "none" stroke = "black"/>
</g>
<g>
<polygon points = "198.018, 136.225 186.088, 235.337 207.219, 271.995 210.760, 273.790 215.157, 273.580 272.686, 196.001 248.329, 133.061 "
fill = "none" stroke = "black"/>
</g>
<g>
<polygon points = "367.649, 79.730 390.297, 135.505 443.715, 115.109 449.654, 107.143 409.944, 82.645 "
fill = "none" stroke = "black"/>
</g>
<g>
<polygon points = "398.654, 507.940 416.462, 524.937 431.095, 526.419 447.963, 498.409 400.180, 487.891 "
fill = "none" stroke = "black"/>
</g>
<g>
<polygon points = "903.037, 644.007 887.362, 663.689 914.097, 694.686 999.000, 717.775 999.000, 617.163 "
fill = "none" stroke = "black"/>
</g>
<g>
<polygon points = "496.403, 113.901 593.961, 143.269 598.295, 136.097 581.997, 83.015 539.030, 45.402 533.643, 47.553 479.468, 99.643 "
fill = "none" stroke = "black"/>
</g>
<g>
<polygon points = "691.782, 755.633 682.356, 761.464 649.192, 797.082 667.643, 807.620 672.987, 808.851 697.927, 793.449 719.158, 771.859 "
fill = "none" stroke = "black"/>
</g>
<circle cx="775.303" cy="106.737" r="1" stroke="red" stroke-width="1" fill="red" />
<circle cx="701.377" cy="812.523" r="1" stroke="red" stroke-width="1" fill="red" />
<circle cx="294.485" cy="652.800" r="1" stroke="red" stroke-width="1" fill="red" />
<circle cx="881.828" cy="584.397" r="1" stroke="red" stroke-width="1" fill="red" />
<circle cx="342.827" cy="395.119" r="1" stroke="red" stroke-width="1" fill="red" />
<circle cx="519.135" cy="24.261" r="1" stroke="red" stroke-width="1" fill="red" />
<circle cx="203.996" cy="541.490" r="1" stroke="red" stroke-width="1" fill="red" />
<circle cx="444.122" cy="227.852" r="1" stroke="red" stroke-width="1" fill="red" />
<circle cx="834.013" cy="798.849" r="1" stroke="red" stroke-width="1" fill="red" />
<circle cx="945.203" cy="353.786" r="1" stroke="red" stroke-width="1" fill="red" />
<circle cx="341.716" cy="934.991" r="1" stroke="red" stroke-width="1" fill="red" />
<circle cx="456.590" cy="523.013" r="1" stroke="red" stroke-width="1" fill="red" />
<circle cx="765.905" cy="592.012" r="1" stroke="red" stroke-width="1" fill="red" />
<circle cx="572.854" cy="689.697" r="1" stroke="red" stroke-width="1" fill="red" />
<circle cx="349.674" cy="784.710" r="1" stroke="red" stroke-width="1" fill="red" />
<circle cx="818.905" cy="649.014" r="1" stroke="red" stroke-width="1" fill="red" />
<circle cx="272.086" cy="401.769" r="1" stroke="red" stroke-width="1" fill="red" />
<circle cx="274.559" cy="788.935" r="1" stroke="red" stroke-width="1" fill="red" />
<circle cx="932.398" cy="364.072" r="1" stroke="red" stroke-width="1" fill="red" />
<circle cx="241.100" cy="512.716" r="1" stroke="red" stroke-width="1" fill="red" />
<circle cx="356.998" cy="161.613" r="1" stroke="red" stroke-width="1" fill="red" />
<circle cx="472.638" cy="767.032" r="1" stroke="red" stroke-width="1" fill="red" />
<circle cx="752.914" cy="672.743" r="1" stroke="red" stroke-width="1" fill="red" />
<circle cx="184.063" cy="550.046" r="1" stroke="red" stroke-width="1" fill="red" />
<circle cx="418.443" cy="365.333" r="1" stroke="red" stroke-width="1" fill="red" />
<circle cx="872.390" cy="600.826" r="1" stroke="red" stroke-width="1" fill="red" />
<circle cx="396.217" cy="285.281" r="1" stroke="red" stroke-width="1" fill="red" />
<circle cx="554.716" cy="645.900" r="1" stroke="red" stroke-width="1" fill="red" />
<circle cx="670.103" cy="828.059" r="1" stroke="red" stroke-width="1" fill="red" />
<circle cx="718.825" cy="650.634" r="1" stroke="red" stroke-width="1" fill="red" />
<circle cx="878.393" cy="727.684" r="1" stroke="red" stroke-width="1" fill="red" />
<circle cx="865.467" cy="532.966" r="1" stroke="red" stroke-width="1" fill="red" />
<circle cx="314.790" cy="250.002" r="1" stroke="red" stroke-width="1" fill="red" />
<circle cx="783.278" cy="494.355" r="1" stroke="red" stroke-width="1" fill="red" />
<circle cx="197.689" cy="645.285" r="1" stroke="red" stroke-width="1" fill="red" />
<circle cx="901.984" cy="336.212" r="1" stroke="red" stroke-width="1" fill="red" />
<circle cx="426.195" cy="484.060" r="1" stroke="red" stroke-width="1" fill="red" />
<circle cx="841.086" cy="544.431" r="1" stroke="red" stroke-width="1" fill="red" />
<circle cx="407.483" cy="761.344" r="1" stroke="red" stroke-width="1" fill="red" />
<circle cx="373.688" cy="969.492" r="1" stroke="red" stroke-width="1" fill="red" />
<circle cx="256.325" cy="794.330" r="1" stroke="red" stroke-width="1" fill="red" />
<circle cx="474.300" cy="998.290" r="1" stroke="red" stroke-width="1" fill="red" />
<circle cx="242.115" cy="494.068" r="1" stroke="red" stroke-width="1" fill="red" />
<circle cx="52.883" cy="598.161" r="1" stroke="red" stroke-width="1" fill="red" />
<circle cx="504.259" cy="424.677" r="1" stroke="red" stroke-width="1" fill="red" />
<circle cx="218.556" cy="375.908" r="1" stroke="red" stroke-width="1" fill="red" />
<circle cx="416.460" cy="36.661" r="1" stroke="red" stroke-width="1" fill="red" />
<circle cx="855.027" cy="577.058" r="1" stroke="red" stroke-width="1" fill="red" />
<circle cx="409.572" cy="154.481" r="1" stroke="red" stroke-width="1" fill="red" />
<circle cx="714.014" cy="483.730" r="1" stroke="red" stroke-width="1" fill="red" />
<circle cx="439.492" cy="921.144" r="1" stroke="red" stroke-width="1" fill="red" />
<circle cx="119.381" cy="222.930" r="1" stroke="red" stroke-width="1" fill="red" />
<circle cx="387.730" cy="599.522" r="1" stroke="red" stroke-width="1" fill="red" />
<circle cx="726.182" cy="54.212" r="1" stroke="red" stroke-width="1" fill="red" />
<circle cx="303.378" cy="134.788" r="1" stroke="red" stroke-width="1" fill="red" />
<circle cx="100.069" cy="597.721" r="1" stroke="red" stroke-width="1" fill="red" />
<circle cx="638.123" cy="330.287" r="1" stroke="red" stroke-width="1" fill="red" />
<circle cx="764.337" cy="805.194" r="1" stroke="red" stroke-width="1" fill="red" />
<circle cx="94.736" cy="571.030" r="1" stroke="red" stroke-width="1" fill="red" />
<circle cx="150.034" cy="428.983" r="1" stroke="red" stroke-width="1" fill="red" />
<circle cx="985.486" cy="418.683" r="1" stroke="red" stroke-width="1" fill="red" />
<circle cx="183.658" cy="457.495" r="1" stroke="red" stroke-width="1" fill="red" />
<circle cx="126.988" cy="332.707" r="1" stroke="red" stroke-width="1" fill="red" />
<circle cx="291.148" cy="902.784" r="1" stroke="red" stroke-width="1" fill="red" />
<circle cx="447.338" cy="371.137" r="1" stroke="red" stroke-width="1" fill="red" />
<circle cx="829.631" cy="727.392" r="1" stroke="red" stroke-width="1" fill="red" />
<circle cx="662.339" cy="852.089" r="1" stroke="red" stroke-width="1" fill="red" />
<circle cx="617.307" cy="880.409" r="1" stroke="red" stroke-width="1" fill="red" />
<circle cx="243.209" cy="538.701" r="1" stroke="red" stroke-width="1" fill="red" />
<circle cx="934.392" cy="601.337" r="1" stroke="red" stroke-width="1" fill="red" />
<circle cx="394.108" cy="531.705" r="1" stroke="red" stroke-width="1" fill="red" />
<circle cx="181.475" cy="631.692" r="1" stroke="red" stroke-width="1" fill="red" />
<circle cx="366.057" cy="372.286" r="1" stroke="red" stroke-width="1" fill="red" />
<circle cx="303.036" cy="466.659" r="1" stroke="red" stroke-width="1" fill="red" />
<circle cx="637.141" cy="675.436" r="1" stroke="red" stroke-width="1" fill="red" />
<circle cx="636.205" cy="692.706" r="1" stroke="red" stroke-width="1" fill="red" />
<circle cx="537.422" cy="362.298" r="1" stroke="red" stroke-width="1" fill="red" />
<circle cx="376.253" cy="498.796" r="1" stroke="red" stroke-width="1" fill="red" />
<circle cx="425.019" cy="55.021" r="1" stroke="red" stroke-width="1" fill="red" />
<circle cx="52.847" cy="659.711" r="1" stroke="red" stroke-width="1" fill="red" />
<circle cx="779.353" cy="549.219" r="1" stroke="red" stroke-width="1" fill="red" />
<circle cx="395.738" cy="54.565" r="1" stroke="red" stroke-width="1" fill="red" />
<circle cx="706.227" cy="153.718" r="1" stroke="red" stroke-width="1" fill="red" />
<circle cx="310.074" cy="755.347" r="1" stroke="red" stroke-width="1" fill="red" />
<circle cx="868.373" cy="390.957" r="1" stroke="red" stroke-width="1" fill="red" />
<circle cx="363.588" cy="823.195" r="1" stroke="red" stroke-width="1" fill="red" />
<circle cx="516.024" cy="753.672" r="1" stroke="red" stroke-width="1" fill="red" />
<circle cx="584.791" cy="329.707" r="1" stroke="red" stroke-width="1" fill="red" />
<circle cx="264.842" cy="588.196" r="1" stroke="red" stroke-width="1" fill="red" />
<circle cx="344.963" cy="944.034" r="1" stroke="red" stroke-width="1" fill="red" />
<circle cx="461.108" cy="655.200" r="1" stroke="red" stroke-width="1" fill="red" />
<circle cx="152.205" cy="487.387" r="1" stroke="red" stroke-width="1" fill="red" />
<circle cx="678.570" cy="463.896" r="1" stroke="red" stroke-width="1" fill="red" />
<circle cx="67.144" cy="712.680" r="1" stroke="red" stroke-width="1" fill="red" />
<circle cx="376.743" cy="634.151" r="1" stroke="red" stroke-width="1" fill="red" />
<circle cx="714.092" cy="480.177" r="1" stroke="red" stroke-width="1" fill="red" />
<circle cx="157.628" cy="572.568" r="1" stroke="red" stroke-width="1" fill="red" />
<circle cx="835.982" cy="776.458" r="1" stroke="red" stroke-width="1" fill="red" />
<circle cx="461.027" cy="419.088" r="1" stroke="red" stroke-width="1" fill="red" />
<circle cx="393.828" cy="715.236" r="1" stroke="red" stroke-width="1" fill="red" />
<circle cx="931.332" cy="740.146" r="1" stroke="red" stroke-width="1" fill="red" />
<circle cx="872.474" cy="458.116" r="1" stroke="red" stroke-width="1" fill="red" />
<circle cx="263.578" cy="768.085" r="1" stroke="red" stroke-width="1" fill="red" />
<circle cx="24.143" cy="536.446" r="1" stroke="red" stroke-width="1" fill="red" />
<circle cx="548.988" cy="975.364" r="1" stroke="red" stroke-width="1" fill="red" />
<circle cx="461.125" cy="287.112" r="1" stroke="red" stroke-width="1" fill="red" />
<circle cx="887.434" cy="782.964" r="1" stroke="red" stroke-width="1" fill="red" />
<circle cx="509.521" cy="522.643" r="1" stroke="red" stroke-width="1" fill="red" />
<circle cx="677.671" cy="955.742" r="1" stroke="red" stroke-width="1" fill="red" />
<circle cx="168.379" cy="698.987" r="1" stroke="red" stroke-width="1" fill="red" />
<circle cx="507.002" cy="40.975" r="1" stroke="red" stroke-width="1" fill="red" />
<circle cx="395.246" cy="340.875" r="1" stroke="red" stroke-width="1" fill="red" />
<circle cx="464.798" cy="162.769" r="1" stroke="red" stroke-width="1" fill="red" />
<circle cx="598.428" cy="278.661" r="1" stroke="red" stroke-width="1" fill="red" />
<circle cx="662.150" cy="646.108" r="1" stroke="red" stroke-width="1" fill="red" />
<circle cx="654.948" cy="751.766" r="1" stroke="red" stroke-width="1" fill="red" />
<circle cx="567.823" cy="41.701" r="1" stroke="red" stroke-width="1" fill="red" />
<circle cx="44.257" cy="606.986" r="1" stroke="red" stroke-width="1" fill="red" />
<circle cx="680.381" cy="159.760" r="1" stroke="red" stroke-width="1" fill="red" />
<circle cx="448.879" cy="946.723" r="1" stroke="red" stroke-width="1" fill="red" />
<circle cx="598.209" cy="883.101" r="1" stroke="red" stroke-width="1" fill="red" />
<circle cx="689.519" cy="468.211" r="1" stroke="red" stroke-width="1" fill="red" />
<circle cx="997.849" cy="489.482" r="1" stroke="red" stroke-width="1" fill="red" />
<circle cx="400.424" cy="773.253" r="1" stroke="red" stroke-width="1" fill="red" />
<circle cx="589.233" cy="343.263" r="1" stroke="red" stroke-width="1" fill="red" />
<circle cx="980.875" cy="370.264" r="1" stroke="red" stroke-width="1" fill="red" />
<circle cx="612.628" cy="51.878" r="1" stroke="red" stroke-width="1" fill="red" />
<circle cx="431.214" cy="295.294" r="1" stroke="red" stroke-width="1" fill="red" />
<circle cx="204.292" cy="99.983" r="1" stroke="red" stroke-width="1" fill="red" />
<circle cx="749.682" cy="297.864" r="1" stroke="red" stroke-width="1" fill="red" />
<circle cx="264.322" cy="456.160" r="1" stroke="red" stroke-width="1" fill="red" />
<circle cx="417.524" cy="548.269" r="1" stroke="red" stroke-width="1" fill="red" />
<circle cx="697.190" cy="608.297" r="1" stroke="red" stroke-width="1" fill="red" />
<circle cx="623.726" cy="603.057" r="1" stroke="red" stroke-width="1" fill="red" />
<circle cx="370.242" cy="117.354" r="1" stroke="red" stroke-width="1" fill="red" />
<circle cx="889.006" cy="767.501" r="1" stroke="red" stroke-width="1" fill="red" />
<circle cx="820.449" cy="167.272" r="1" stroke="red" stroke-width="1" fill="red" />
<circle cx="383.975" cy="905.153" r="1" stroke="red" stroke-width="1" fill="red" />
<circle cx="210.253" cy="688.594" r="1" stroke="red" stroke-width="1" fill="red" />
<circle cx="845.084" cy="355.476" r="1" stroke="red" stroke-width="1" fill="red" />
<circle cx="597.325" cy="748.936" r="1" stroke="red" stroke-width="1" fill="red" />
<circle cx="658.407" cy="826.018" r="1" stroke="red" stroke-width="1" fill="red" />
<circle cx="167.463" cy="490.426" r="1" stroke="red" stroke-width="1" fill="red" />
<circle cx="514.425" cy="834.207" r="1" stroke="red" stroke-width="1" fill="red" />
<circle cx="904.638" cy="525.166" r="1" stroke="red" stroke-width="1" fill="red" />
<circle cx="297.409" cy="803.447" r="1" stroke="red" stroke-width="1" fill="red" />
<circle cx="170.732" cy="463.849" r="1" stroke="red" stroke-width="1" fill="red" />
<circle cx="769.698" cy="91.086" r="1" stroke="red" stroke-width="1" fill="red" />
<circle cx="838.992" cy="474.076" r="1" stroke="red" stroke-width="1" fill="red" />
<circle cx="197.820" cy="379.259" r="1" stroke="red" stroke-width="1" fill="red" />
<circle cx="646.568" cy="630.187" r="1" stroke="red" stroke-width="1" fill="red" />
<circle cx="571.349" cy="452.964" r="1" stroke="red" stroke-width="1" fill="red" />
<circle cx="653.828" cy="767.069" r="1" stroke="red" stroke-width="1" fill="red" />
<circle cx="670.411" cy="842.444" r="1" stroke="red" stroke-width="1" fill="red" />
<circle cx="519.631" cy="845.441" r="1" stroke="red" stroke-width="1" fill="red" />
<circle cx="532.522" cy="608.126" r="1" stroke="red" stroke-width="1" fill="red" />
<circle cx="497.718" cy="846.251" r="1" stroke="red" stroke-width="1" fill="red" />
<circle cx="194.358" cy="857.982" r="1" stroke="red" stroke-width="1" fill="red" />
<circle cx="929.757" cy="537.302" r="1" stroke="red" stroke-width="1" fill="red" />
<circle cx="187.018" cy="805.086" r="1" stroke="red" stroke-width="1" fill="red" />
<circle cx="96.425" cy="280.069" r="1" stroke="red" stroke-width="1" fill="red" />
<circle cx="638.263" cy="442.884" r="1" stroke="red" stroke-width="1" fill="red" />
<circle cx="222.709" cy="725.383" r="1" stroke="red" stroke-width="1" fill="red" />
<circle cx="411.819" cy="288.764" r="1" stroke="red" stroke-width="1" fill="red" />
<circle cx="843.290" cy="486.097" r="1" stroke="red" stroke-width="1" fill="red" />
<circle cx="715.977" cy="727.592" r="1" stroke="red" stroke-width="1" fill="red" />
<circle cx="681.401" cy="389.509" r="1" stroke="red" stroke-width="1" fill="red" />
<circle cx="725.579" cy="363.093" r="1" stroke="red" stroke-width="1" fill="red" />
<circle cx="877.482" cy="742.244" r="1" stroke="red" stroke-width="1" fill="red" />
<circle cx="600.645" cy="648.909" r="1" stroke="red" stroke-width="1" fill="red" />
<circle cx="748.264" cy="907.273" r="1" stroke="red" stroke-width="1" fill="red" />
<circle cx="515.039" cy="477.401" r="1" stroke="red" stroke-width="1" fill="red" />
<circle cx="579.555" cy="342.624" r="1" stroke="red" stroke-width="1" fill="red" />
<circle cx="512.341" cy="453.322" r="1" stroke="red" stroke-width="1" fill="red" />
<circle cx="826.831" cy="311.745" r="1" stroke="red" stroke-width="1" fill="red" />
<circle cx="179.214" cy="167.835" r="1" stroke="red" stroke-width="1" fill="red" />
<circle cx="184.292" cy="590.794" r="1" stroke="red" stroke-width="1" fill="red" />
<circle cx="125.526" cy="737.313" r="1" stroke="red" stroke-width="1" fill="red" />
<circle cx="692.160" cy="811.955" r="1" stroke="red" stroke-width="1" fill="red" />
<circle cx="128.322" cy="419.189" r="1" stroke="red" stroke-width="1" fill="red" />
<circle cx="354.897" cy="837.740" r="1" stroke="red" stroke-width="1" fill="red" />
<circle cx="129.249" cy="340.308" r="1" stroke="red" stroke-width="1" fill="red" />
<circle cx="530.276" cy="745.837" r="1" stroke="red" stroke-width="1" fill="red" />
<circle cx="150.203" cy="746.479" r="1" stroke="red" stroke-width="1" fill="red" />
<circle cx="601.387" cy="626.520" r="1" stroke="red" stroke-width="1" fill="red" />
<circle cx="780.429" cy="815.740" r="1" stroke="red" stroke-width="1" fill="red" />
<circle cx="195.241" cy="695.813" r="1" stroke="red" stroke-width="1" fill="red" />
<circle cx="510.275" cy="170.420" r="1" stroke="red" stroke-width="1" fill="red" />
<circle cx="160.878" cy="705.264" r="1" stroke="red" stroke-width="1" fill="red" />
<circle cx="617.767" cy="246.877" r="1" stroke="red" stroke-width="1" fill="red" />
<circle cx="597.807" cy="612.452" r="1" stroke="red" stroke-width="1" fill="red" />
<circle cx="41.210" cy="460.960" r="1" stroke="red" stroke-width="1" fill="red" />
<circle cx="460.282" cy="718.912" r="1" stroke="red" stroke-width="1" fill="red" />
<circle cx="391.200" cy="184.026" r="1" stroke="red" stroke-width="1" fill="red" />
<circle cx="208.783" cy="171.394" r="1" stroke="red" stroke-width="1" fill="red" />
<circle cx="392.020" cy="108.511" r="1" stroke="red" stroke-width="1" fill="red" />
<circle cx="422.181" cy="502.291" r="1" stroke="red" stroke-width="1" fill="red" />
<circle cx="951.981" cy="664.215" r="1" stroke="red" stroke-width="1" fill="red" />
<circle cx="539.171" cy="74.432" r="1" stroke="red" stroke-width="1" fill="red" />
<circle cx="678.798" cy="790.319" r="1" stroke="red" stroke-width="1" fill="red" />
</svg>
