<svg xmlns = "http://www.w3.org/2000/svg" width = "1000" height = "1000">
<g>
<polygon points = "712.102, 95.138 761.563, 167.861 819.547, 208.575 915.059, 184.568 955.003, 162.517 999.000, 129.705 999.000, 1.000 812.765, 1.000 "
fill = "none" stroke = "black"/>
</g>
<g>
<polygon points = ""
fill = "none" stroke = "black"/>
</g>
<g>
<polygon points = ""
fill = "none" stroke = "black"/>
</g>
<g>
<polygon points = "936.582, 575.554 921.824, 560.534 908.961, 638.082 915.264, 641.703 "
fill = "none" stroke = "black"/>
</g>
<g>
<polygon points = ""
fill = "none" stroke = "black"/>
</g>
<g>
<polygon points = "464.428, 24.712 530.498, 72.674 536.331, 70.344 561.170, 1.000 461.565, 1.000 "
fill = "none" stroke = "black"/>
</g>
<g>
<polygon points = ""
fill = "none" stroke = "black"/>
</g>
<g>
<polygon points = ""
fill = "none" stroke = "black"/>
</g>
<g>
<polygon points = "871.018, 857.374 838.464, 854.513 870.676, 956.699 924.163, 999.000 951.751, 999.000 "
fill = "none" stroke = "black"/>
</g>
<g>
<polygon points = "981.502, 149.728 941.462, 248.194 968.111, 281.368 999.000, 214.497 999.000, 138.024 "
fill = "none" stroke = "black"/>
</g>
<g>
<polygon points = "330.075, 992.486 390.536, 936.455 374.397, 913.598 286.883, 877.984 283.678, 879.063 207.289, 999.000 311.933, 999.000 "
fill = "none" stroke = "black"/>
</g>
<g>
<polygon points = ""
fill = "none" stroke = "black"/>
</g>
<g>
<polygon points = ""
fill = "none" stroke = "black"/>
</g>
<g>
<polygon points = ""
fill = "none" stroke = "black"/>
</g>
<g>
<polygon points = ""
fill = "none" stroke = "black"/>
</g>
<g>
<polygon points = ""
fill = "none" stroke = "black"/>
</g>
<g>
<polygon points = ""
fill = "none" stroke = "black"/>
</g>
<g>
<polygon points = "271.977, 866.724 243.786, 841.849 254.878, 879.339 264.893, 877.879 "
fill = "none" stroke = "black"/>
</g>
<g>
<polygon points = "968.111, 281.368 941.462, 248.194 887.547, 307.050 884.044, 342.633 915.351, 426.123 924.573, 432.000 952.315, 405.031 "
fill = "none" stroke = "black"/>
</g>
<g>
<polygon points = ""
fill = "none" stroke = "black"/>
</g>
<g>
<polygon points = "332.240, 131.847 308.318, 124.689 295.551, 150.208 "
fill = "none" stroke = "black"/>
</g>
<g>
<polygon points = ""
fill = "none" stroke = "black"/>
</g>
<g>
<polygon points = ""
fill = "none" stroke = "black"/>
</g>
<g>
<polygon points = ""
fill = "none" stroke = "black"/>
</g>
<g>
<polygon points = ""
fill = "none" stroke = "black"/>
</g>
<g>
<polygon points = "903.724, 662.390 915.212, 647.965 915.264, 641.703 908.961, 638.082 "
fill = "none" stroke = "black"/>
</g>
<g>
<polygon points = ""
fill = "none" stroke = "black"/>
</g>
<g>
<polygon points = ""
fill = "none" stroke = "black"/>
</g>
<g>
<polygon points = ""
fill = "none" stroke = "black"/>
</g>
<g>
<polygon points = ""
fill = "none" stroke = "black"/>
</g>
<g>
<polygon points = "927.569, 692.005 903.264, 663.826 888.944, 689.589 "
fill = "none" stroke = "black"/>
</g>
<g>
<polygon points = ""
fill = "none" stroke = "black"/>
</g>
<g>
<polygon points = ""
fill = "none" stroke = "black"/>
</g>
<g>
<polygon points = ""
fill = "none" stroke = "black"/>
</g>
<g>
<polygon points = ""
fill = "none" stroke = "black"/>
</g>
<g>
<polygon points = "881.245, 288.435 887.547, 307.050 941.462, 248.194 981.502, 149.728 955.003, 162.517 915.059, 184.568 "
fill = "none" stroke = "black"/>
</g>
<g>
<polygon points = ""
fill = "none" stroke = "black"/>
</g>
<g>
<polygon points = ""
fill = "none" stroke = "black"/>
</g>
<g>
<polygon points = ""
fill = "none" stroke = "black"/>
</g>
<g>
<polygon points = "419.761, 983.391 407.782, 943.833 403.936, 938.598 390.536, 936.455 330.075, 992.486 324.302, 999.000 415.293, 999.000 "
fill = "none" stroke = "black"/>
</g>
<g>
<polygon points = "208.463, 808.931 221.075, 890.192 254.878, 879.339 243.786, 841.849 "
fill = "none" stroke = "black"/>
</g>
<g>
<polygon points = "518.816, 940.856 507.712, 940.034 419.761, 983.391 415.293, 999.000 536.663, 999.000 "
fill = "none" stroke = "black"/>
</g>
<g>
<polygon points = ""
fill = "none" stroke = "black"/>
</g>
<g>
<polygon points = "57.398, 646.618 88.075, 646.636 87.472, 581.985 61.945, 542.607 1.000, 570.988 1.000, 591.489 "
fill = "none" stroke = "black"/>
</g>
<g>
<polygon points = ""
fill = "none" stroke = "black"/>
</g>
<g>
<polygon points = ""
fill = "none" stroke = "black"/>
</g>
<g>
<polygon points = "357.204, 54.796 392.732, 66.881 464.002, 33.658 464.428, 24.712 461.565, 1.000 310.724, 1.000 "
fill = "none" stroke = "black"/>
</g>
<g>
<polygon points = ""
fill = "none" stroke = "black"/>
</g>
<g>
<polygon points = ""
fill = "none" stroke = "black"/>
</g>
<g>
<polygon points = ""
fill = "none" stroke = "black"/>
</g>
<g>
<polygon points = "443.252, 930.816 407.964, 924.615 403.936, 938.598 407.782, 943.833 "
fill = "none" stroke = "black"/>
</g>
<g>
<polygon points = "1.000, 100.352 1.000, 170.714 103.831, 212.026 "
fill = "none" stroke = "black"/>
</g>
<g>
<polygon points = ""
fill = "none" stroke = "black"/>
</g>
<g>
<polygon points = "670.180, 86.731 712.102, 95.138 812.765, 1.000 671.942, 1.000 "
fill = "none" stroke = "black"/>
</g>
<g>
<polygon points = "220.850, 49.373 266.755, 167.998 295.551, 150.208 308.318, 124.689 282.953, 27.410 260.014, 1.000 237.842, 1.000 "
fill = "none" stroke = "black"/>
</g>
<g>
<polygon points = "114.211, 655.739 100.220, 579.438 87.472, 581.985 88.075, 646.636 106.687, 660.815 "
fill = "none" stroke = "black"/>
</g>
<g>
<polygon points = ""
fill = "none" stroke = "black"/>
</g>
<g>
<polygon points = ""
fill = "none" stroke = "black"/>
</g>
<g>
<polygon points = "91.874, 507.891 82.207, 501.249 61.945, 542.607 87.472, 581.985 100.220, 579.438 "
fill = "none" stroke = "black"/>
</g>
<g>
<polygon points = "114.058, 382.813 77.753, 463.296 79.640, 469.719 95.700, 469.122 118.455, 381.783 "
fill = "none" stroke = "black"/>
</g>
<g>
<polygon points = "952.315, 405.031 924.573, 432.000 934.688, 460.988 936.705, 462.519 999.000, 451.641 999.000, 400.585 "
fill = "none" stroke = "black"/>
</g>
<g>
<polygon points = ""
fill = "none" stroke = "black"/>
</g>
<g>
<polygon points = "170.395, 273.457 179.712, 254.694 148.099, 244.680 23.035, 317.294 "
fill = "none" stroke = "black"/>
</g>
<g>
<polygon points = "283.678, 879.063 264.893, 877.879 254.878, 879.339 221.075, 890.192 126.510, 990.983 122.799, 999.000 207.289, 999.000 "
fill = "none" stroke = "black"/>
</g>
<g>
<polygon points = ""
fill = "none" stroke = "black"/>
</g>
<g>
<polygon points = ""
fill = "none" stroke = "black"/>
</g>
<g>
<polygon points = "701.220, 918.946 680.282, 901.423 661.851, 909.973 670.365, 923.510 "
fill = "none" stroke = "black"/>
</g>
<g>
<polygon points = "670.365, 923.510 661.851, 909.973 580.706, 934.420 581.484, 939.942 617.511, 965.863 "
fill = "none" stroke = "black"/>
</g>
<g>
<polygon points = ""
fill = "none" stroke = "black"/>
</g>
<g>
<polygon points = "936.582, 575.554 915.264, 641.703 915.212, 647.965 999.000, 624.527 999.000, 571.036 "
fill = "none" stroke = "black"/>
</g>
<g>
<polygon points = ""
fill = "none" stroke = "black"/>
</g>
<g>
<polygon points = ""
fill = "none" stroke = "black"/>
</g>
<g>
<polygon points = ""
fill = "none" stroke = "black"/>
</g>
<g>
<polygon points = ""
fill = "none" stroke = "black"/>
</g>
<g>
<polygon points = ""
fill = "none" stroke = "black"/>
</g>
<g>
<polygon points = ""
fill = "none" stroke = "black"/>
</g>
<g>
<polygon points = ""
fill = "none" stroke = "black"/>
</g>
<g>
<polygon points = ""
fill = "none" stroke = "black"/>
</g>
<g>
<polygon points = "436.864, 94.106 473.038, 86.397 464.002, 33.658 392.732, 66.881 "
fill = "none" stroke = "black"/>
</g>
<g>
<polygon points = "59.470, 731.742 89.264, 703.839 103.701, 669.598 106.687, 660.815 88.075, 646.636 57.398, 646.618 1.000, 655.807 1.000, 747.524 "
fill = "none" stroke = "black"/>
</g>
<g>
<polygon points = ""
fill = "none" stroke = "black"/>
</g>
<g>
<polygon points = "282.953, 27.410 349.005, 54.231 357.204, 54.796 310.724, 1.000 260.014, 1.000 "
fill = "none" stroke = "black"/>
</g>
<g>
<polygon points = "670.180, 86.731 655.073, 100.616 656.251, 105.657 761.563, 167.861 712.102, 95.138 "
fill = "none" stroke = "black"/>
</g>
<g>
<polygon points = ""
fill = "none" stroke = "black"/>
</g>
<g>
<polygon points = ""
fill = "none" stroke = "black"/>
</g>
<g>
<polygon points = ""
fill = "none" stroke = "black"/>
</g>
<g>
<polygon points = ""
fill = "none" stroke = "black"/>
</g>
<g>
<polygon points = ""
fill = "none" stroke = "black"/>
</g>
<g>
<polygon points = ""
fill = "none" stroke = "black"/>
</g>
<g>
<polygon points = "330.075, 992.486 311.933, 999.000 324.302, 999.000 "
fill = "none" stroke = "black"/>
</g>
<g>
<polygon points = ""
fill = "none" stroke = "black"/>
</g>
<g>
<polygon points = "95.700, 469.122 79.640, 469.719 75.994, 485.032 82.207, 501.249 91.874, 507.891 "
fill = "none" stroke = "black"/>
</g>
<g>
<polygon points = ""
fill = "none" stroke = "black"/>
</g>
<g>
<polygon points = "59.470, 731.742 1.000, 747.524 1.000, 870.322 "
fill = "none" stroke = "black"/>
</g>
<g>
<polygon points = ""
fill = "none" stroke = "black"/>
</g>
<g>
<polygon points = ""
fill = "none" stroke = "black"/>
</g>
<g>
<polygon points = ""
fill = "none" stroke = "black"/>
</g>
<g>
<polygon points = "855.980, 768.347 847.836, 758.468 807.362, 810.528 838.464, 854.513 871.018, 857.374 "
fill = "none" stroke = "black"/>
</g>
<g>
<polygon points = ""
fill = "none" stroke = "black"/>
</g>
<g>
<polygon points = ""
fill = "none" stroke = "black"/>
</g>
<g>
<polygon points = "946.839, 710.403 947.470, 726.605 999.000, 806.338 999.000, 724.588 "
fill = "none" stroke = "black"/>
</g>
<g>
<polygon points = "934.688, 460.988 924.573, 432.000 915.351, 426.123 922.582, 466.796 "
fill = "none" stroke = "black"/>
</g>
<g>
<polygon points = ""
fill = "none" stroke = "black"/>
</g>
<g>
<polygon points = "61.945, 542.607 82.207, 501.249 75.994, 485.032 1.000, 468.077 1.000, 570.988 "
fill = "none" stroke = "black"/>
</g>
<g>
<polygon points = "617.511, 965.863 581.484, 939.942 574.154, 936.032 518.816, 940.856 536.663, 999.000 622.563, 999.000 "
fill = "none" stroke = "black"/>
</g>
<g>
<polygon points = ""
fill = "none" stroke = "black"/>
</g>
<g>
<polygon points = ""
fill = "none" stroke = "black"/>
</g>
<g>
<polygon points = "184.628, 250.192 183.623, 251.052 179.712, 254.694 170.395, 273.457 118.455, 381.783 95.700, 469.122 91.874, 507.891 100.220, 579.438 114.211, 655.739 149.942, 724.862 153.360, 731.387 184.918, 782.046 208.463, 808.931 243.786, 841.849 271.977, 866.724 286.883, 877.984 374.397, 913.598 407.964, 924.615 443.252, 930.816 507.712, 940.034 518.816, 940.856 574.154, 936.032 580.706, 934.420 661.851, 909.973 680.282, 901.423 735.716, 873.535 746.687, 866.609 807.362, 810.528 847.836, 758.468 888.944, 689.589 903.264, 663.826 903.724, 662.390 908.961, 638.082 921.824, 560.534 922.019, 554.935 922.582, 466.796 915.351, 426.123 884.044, 342.633 880.253, 335.024 "
fill = "none" stroke = "black"/>
</g>
<g>
<polygon points = "755.338, 916.168 754.474, 915.534 701.220, 918.946 670.365, 923.510 617.511, 965.863 622.563, 999.000 812.210, 999.000 "
fill = "none" stroke = "black"/>
</g>
<g>
<polygon points = "103.701, 669.598 149.942, 724.862 114.211, 655.739 106.687, 660.815 "
fill = "none" stroke = "black"/>
</g>
<g>
<polygon points = "464.002, 33.658 473.038, 86.397 517.069, 85.586 530.498, 72.674 464.428, 24.712 "
fill = "none" stroke = "black"/>
</g>
<g>
<polygon points = ""
fill = "none" stroke = "black"/>
</g>
<g>
<polygon points = ""
fill = "none" stroke = "black"/>
</g>
<g>
<polygon points = ""
fill = "none" stroke = "black"/>
</g>
<g>
<polygon points = ""
fill = "none" stroke = "black"/>
</g>
<g>
<polygon points = ""
fill = "none" stroke = "black"/>
</g>
<g>
<polygon points = "536.331, 70.344 556.436, 87.943 617.845, 95.383 639.284, 1.000 561.170, 1.000 "
fill = "none" stroke = "black"/>
</g>
<g>
<polygon points = "57.398, 646.618 1.000, 591.489 1.000, 655.807 "
fill = "none" stroke = "black"/>
</g>
<g>
<polygon points = "651.218, 103.037 656.251, 105.657 655.073, 100.616 "
fill = "none" stroke = "black"/>
</g>
<g>
<polygon points = "507.712, 940.034 443.252, 930.816 407.782, 943.833 419.761, 983.391 "
fill = "none" stroke = "black"/>
</g>
<g>
<polygon points = "574.154, 936.032 581.484, 939.942 580.706, 934.420 "
fill = "none" stroke = "black"/>
</g>
<g>
<polygon points = ""
fill = "none" stroke = "black"/>
</g>
<g>
<polygon points = "936.705, 462.519 949.951, 497.121 999.000, 566.964 999.000, 451.641 "
fill = "none" stroke = "black"/>
</g>
<g>
<polygon points = ""
fill = "none" stroke = "black"/>
</g>
<g>
<polygon points = ""
fill = "none" stroke = "black"/>
</g>
<g>
<polygon points = "968.111, 281.368 952.315, 405.031 999.000, 400.585 999.000, 214.497 "
fill = "none" stroke = "black"/>
</g>
<g>
<polygon points = "617.845, 95.383 651.218, 103.037 655.073, 100.616 670.180, 86.731 671.942, 1.000 639.284, 1.000 "
fill = "none" stroke = "black"/>
</g>
<g>
<polygon points = ""
fill = "none" stroke = "black"/>
</g>
<g>
<polygon points = "207.800, 50.194 220.850, 49.373 237.842, 1.000 74.703, 1.000 "
fill = "none" stroke = "black"/>
</g>
<g>
<polygon points = ""
fill = "none" stroke = "black"/>
</g>
<g>
<polygon points = ""
fill = "none" stroke = "black"/>
</g>
<g>
<polygon points = ""
fill = "none" stroke = "black"/>
</g>
<g>
<polygon points = ""
fill = "none" stroke = "black"/>
</g>
<g>
<polygon points = ""
fill = "none" stroke = "black"/>
</g>
<g>
<polygon points = "349.005, 54.231 282.953, 27.410 308.318, 124.689 332.240, 131.847 373.744, 115.156 "
fill = "none" stroke = "black"/>
</g>
<g>
<polygon points = "947.470, 726.605 855.980, 768.347 871.018, 857.374 951.751, 999.000 999.000, 999.000 999.000, 806.338 "
fill = "none" stroke = "black"/>
</g>
<g>
<polygon points = "955.003, 162.517 981.502, 149.728 999.000, 138.024 999.000, 129.705 "
fill = "none" stroke = "black"/>
</g>
<g>
<polygon points = "403.936, 938.598 407.964, 924.615 374.397, 913.598 390.536, 936.455 "
fill = "none" stroke = "black"/>
</g>
<g>
<polygon points = ""
fill = "none" stroke = "black"/>
</g>
<g>
<polygon points = "865.474, 295.017 880.253, 335.024 884.044, 342.633 887.547, 307.050 881.245, 288.435 "
fill = "none" stroke = "black"/>
</g>
<g>
<polygon points = ""
fill = "none" stroke = "black"/>
</g>
<g>
<polygon points = ""
fill = "none" stroke = "black"/>
</g>
<g>
<polygon points = ""
fill = "none" stroke = "black"/>
</g>
<g>
<polygon points = ""
fill = "none" stroke = "black"/>
</g>
<g>
<polygon points = "949.951, 497.121 936.705, 462.519 934.688, 460.988 922.582, 466.796 922.019, 554.935 "
fill = "none" stroke = "black"/>
</g>
<g>
<polygon points = "271.977, 866.724 264.893, 877.879 283.678, 879.063 286.883, 877.984 "
fill = "none" stroke = "black"/>
</g>
<g>
<polygon points = ""
fill = "none" stroke = "black"/>
</g>
<g>
<polygon points = ""
fill = "none" stroke = "black"/>
</g>
<g>
<polygon points = ""
fill = "none" stroke = "black"/>
</g>
<g>
<polygon points = ""
fill = "none" stroke = "black"/>
</g>
<g>
<polygon points = ""
fill = "none" stroke = "black"/>
</g>
<g>
<polygon points = ""
fill = "none" stroke = "black"/>
</g>
<g>
<polygon points = ""
fill = "none" stroke = "black"/>
</g>
<g>
<polygon points = "746.073, 880.923 735.716, 873.535 680.282, 901.423 701.220, 918.946 754.474, 915.534 "
fill = "none" stroke = "black"/>
</g>
<g>
<polygon points = ""
fill = "none" stroke = "black"/>
</g>
<g>
<polygon points = ""
fill = "none" stroke = "black"/>
</g>
<g>
<polygon points = ""
fill = "none" stroke = "black"/>
</g>
<g>
<polygon points = "126.510, 990.983 68.731, 999.000 122.799, 999.000 "
fill = "none" stroke = "black"/>
</g>
<g>
<polygon points = "949.951, 497.121 922.019, 554.935 921.824, 560.534 936.582, 575.554 999.000, 571.036 999.000, 566.964 "
fill = "none" stroke = "black"/>
</g>
<g>
<polygon points = "126.510, 990.983 221.075, 890.192 208.463, 808.931 184.918, 782.046 46.112, 869.240 1.000, 910.171 1.000, 999.000 68.731, 999.000 "
fill = "none" stroke = "black"/>
</g>
<g>
<polygon points = "23.035, 317.294 148.099, 244.680 103.831, 212.026 1.000, 170.714 1.000, 329.301 "
fill = "none" stroke = "black"/>
</g>
<g>
<polygon points = ""
fill = "none" stroke = "black"/>
</g>
<g>
<polygon points = ""
fill = "none" stroke = "black"/>
</g>
<g>
<polygon points = ""
fill = "none" stroke = "black"/>
</g>
<g>
<polygon points = ""
fill = "none" stroke = "black"/>
</g>
<g>
<polygon points = ""
fill = "none" stroke = "black"/>
</g>
<g>
<polygon points = ""
fill = "none" stroke = "black"/>
</g>
<g>
<polygon points = ""
fill = "none" stroke = "black"/>
</g>
<g>
<polygon points = "947.470, 726.605 946.839, 710.403 927.569, 692.005 888.944, 689.589 847.836, 758.468 855.980, 768.347 "
fill = "none" stroke = "black"/>
</g>
<g>
<polygon points = ""
fill = "none" stroke = "black"/>
</g>
<g>
<polygon points = "870.676, 956.699 755.338, 916.168 812.210, 999.000 924.163, 999.000 "
fill = "none" stroke = "black"/>
</g>
<g>
<polygon points = "656.251, 105.657 651.218, 103.037 617.845, 95.383 556.436, 87.943 517.069, 85.586 473.038, 86.397 436.864, 94.106 373.744, 115.156 332.240, 131.847 295.551, 150.208 266.755, 167.998 184.628, 250.192 880.253, 335.024 865.474, 295.017 819.547, 208.575 761.563, 167.861 "
fill = "none" stroke = "black"/>
</g>
<g>
<polygon points = ""
fill = "none" stroke = "black"/>
</g>
<g>
<polygon points = ""
fill = "none" stroke = "black"/>
</g>
<g>
<polygon points = "865.474, 295.017 881.245, 288.435 915.059, 184.568 819.547, 208.575 "
fill = "none" stroke = "black"/>
</g>
<g>
<polygon points = "1.000, 100.352 103.831, 212.026 148.099, 244.680 179.712, 254.694 183.623, 251.052 207.800, 50.194 74.703, 1.000 1.000, 1.000 "
fill = "none" stroke = "black"/>
</g>
<g>
<polygon points = ""
fill = "none" stroke = "black"/>
</g>
<g>
<polygon points = "46.112, 869.240 102.233, 718.145 89.264, 703.839 59.470, 731.742 1.000, 870.322 1.000, 910.171 "
fill = "none" stroke = "black"/>
</g>
<g>
<polygon points = "746.687, 866.609 735.716, 873.535 746.073, 880.923 "
fill = "none" stroke = "black"/>
</g>
<g>
<polygon points = "77.753, 463.296 114.058, 382.813 38.737, 381.928 "
fill = "none" stroke = "black"/>
</g>
<g>
<polygon points = ""
fill = "none" stroke = "black"/>
</g>
<g>
<polygon points = "170.395, 273.457 23.035, 317.294 1.000, 329.301 1.000, 354.392 38.737, 381.928 114.058, 382.813 118.455, 381.783 "
fill = "none" stroke = "black"/>
</g>
<g>
<polygon points = ""
fill = "none" stroke = "black"/>
</g>
<g>
<polygon points = "102.233, 718.145 46.112, 869.240 184.918, 782.046 153.360, 731.387 "
fill = "none" stroke = "black"/>
</g>
<g>
<polygon points = ""
fill = "none" stroke = "black"/>
</g>
<g>
<polygon points = "870.676, 956.699 838.464, 854.513 807.362, 810.528 746.687, 866.609 746.073, 880.923 754.474, 915.534 755.338, 916.168 "
fill = "none" stroke = "black"/>
</g>
<g>
<polygon points = ""
fill = "none" stroke = "black"/>
</g>
<g>
<polygon points = ""
fill = "none" stroke = "black"/>
</g>
<g>
<polygon points = "102.233, 718.145 153.360, 731.387 149.942, 724.862 103.701, 669.598 89.264, 703.839 "
fill = "none" stroke = "black"/>
</g>
<g>
<polygon points = ""
fill = "none" stroke = "black"/>
</g>
<g>
<polygon points = ""
fill = "none" stroke = "black"/>
</g>
<g>
<polygon points = "75.994, 485.032 79.640, 469.719 77.753, 463.296 38.737, 381.928 1.000, 354.392 1.000, 468.077 "
fill = "none" stroke = "black"/>
</g>
<g>
<polygon points = ""
fill = "none" stroke = "black"/>
</g>
<g>
<polygon points = ""
fill = "none" stroke = "black"/>
</g>
<g>
<polygon points = "207.800, 50.194 183.623, 251.052 184.628, 250.192 266.755, 167.998 220.850, 49.373 "
fill = "none" stroke = "black"/>
</g>
<g>
<polygon points = "349.005, 54.231 373.744, 115.156 436.864, 94.106 392.732, 66.881 357.204, 54.796 "
fill = "none" stroke = "black"/>
</g>
<g>
<polygon points = ""
fill = "none" stroke = "black"/>
</g>
<g>
<polygon points = "915.212, 647.965 903.724, 662.390 903.264, 663.826 927.569, 692.005 946.839, 710.403 999.000, 724.588 999.000, 624.527 "
fill = "none" stroke = "black"/>
</g>
<g>
<polygon points = "517.069, 85.586 556.436, 87.943 536.331, 70.344 530.498, 72.674 "
fill = "none" stroke = "black"/>
</g>
<g>
<polygon points = ""
fill = "none" stroke = "black"/>
</g>
<circle cx="775.303" cy="106.737" r="1" stroke="red" stroke-width="1" fill="red" />
<circle cx="701.377" cy="812.523" r="1" stroke="red" stroke-width="1" fill="red" />
<circle cx="294.485" cy="652.800" r="1" stroke="red" stroke-width="1" fill="red" />
<circle cx="881.828" cy="584.397" r="1" stroke="red" stroke-width="1" fill="red" />
<circle cx="342.827" cy="395.119" r="1" stroke="red" stroke-width="1" fill="red" />
<circle cx="519.135" cy="24.261" r="1" stroke="red" stroke-width="1" fill="red" />
<circle cx="203.996" cy="541.490" r="1" stroke="red" stroke-width="1" fill="red" />
<circle cx="444.122" cy="227.852" r="1" stroke="red" stroke-width="1" fill="red" />
<circle cx="834.013" cy="798.849" r="1" stroke="red" stroke-width="1" fill="red" />
<circle cx="945.203" cy="353.786" r="1" stroke="red" stroke-width="1" fill="red" />
<circle cx="341.716" cy="934.991" r="1" stroke="red" stroke-width="1" fill="red" />
<circle cx="456.590" cy="523.013" r="1" stroke="red" stroke-width="1" fill="red" />
<circle cx="765.905" cy="592.012" r="1" stroke="red" stroke-width="1" fill="red" />
<circle cx="572.854" cy="689.697" r="1" stroke="red" stroke-width="1" fill="red" />
<circle cx="349.674" cy="784.710" r="1" stroke="red" stroke-width="1" fill="red" />
<circle cx="818.905" cy="649.014" r="1" stroke="red" stroke-width="1" fill="red" />
<circle cx="272.086" cy="401.769" r="1" stroke="red" stroke-width="1" fill="red" />
<circle cx="274.559" cy="788.935" r="1" stroke="red" stroke-width="1" fill="red" />
<circle cx="932.398" cy="364.072" r="1" stroke="red" stroke-width="1" fill="red" />
<circle cx="241.100" cy="512.716" r="1" stroke="red" stroke-width="1" fill="red" />
<circle cx="356.998" cy="161.613" r="1" stroke="red" stroke-width="1" fill="red" />
<circle cx="472.638" cy="767.032" r="1" stroke="red" stroke-width="1" fill="red" />
<circle cx="752.914" cy="672.743" r="1" stroke="red" stroke-width="1" fill="red" />
<circle cx="184.063" cy="550.046" r="1" stroke="red" stroke-width="1" fill="red" />
<circle cx="418.443" cy="365.333" r="1" stroke="red" stroke-width="1" fill="red" />
<circle cx="872.390" cy="600.826" r="1" stroke="red" stroke-width="1" fill="red" />
<circle cx="396.217" cy="285.281" r="1" stroke="red" stroke-width="1" fill="red" />
<circle cx="554.716" cy="645.900" r="1" stroke="red" stroke-width="1" fill="red" />
<circle cx="670.103" cy="828.059" r="1" stroke="red" stroke-width="1" fill="red" />
<circle cx="718.825" cy="650.634" r="1" stroke="red" stroke-width="1" fill="red" />
<circle cx="878.393" cy="727.684" r="1" stroke="red" stroke-width="1" fill="red" />
<circle cx="865.467" cy="532.966" r="1" stroke="red" stroke-width="1" fill="red" />
<circle cx="314.790" cy="250.002" r="1" stroke="red" stroke-width="1" fill="red" />
<circle cx="783.278" cy="494.355" r="1" stroke="red" stroke-width="1" fill="red" />
<circle cx="197.689" cy="645.285" r="1" stroke="red" stroke-width="1" fill="red" />
<circle cx="901.984" cy="336.212" r="1" stroke="red" stroke-width="1" fill="red" />
<circle cx="426.195" cy="484.060" r="1" stroke="red" stroke-width="1" fill="red" />
<circle cx="841.086" cy="544.431" r="1" stroke="red" stroke-width="1" fill="red" />
<circle cx="407.483" cy="761.344" r="1" stroke="red" stroke-width="1" fill="red" />
<circle cx="373.688" cy="969.492" r="1" stroke="red" stroke-width="1" fill="red" />
<circle cx="256.325" cy="794.330" r="1" stroke="red" stroke-width="1" fill="red" />
<circle cx="474.300" cy="998.290" r="1" stroke="red" stroke-width="1" fill="red" />
<circle cx="242.115" cy="494.068" r="1" stroke="red" stroke-width="1" fill="red" />
<circle cx="52.883" cy="598.161" r="1" stroke="red" stroke-width="1" fill="red" />
<circle cx="504.259" cy="424.677" r="1" stroke="red" stroke-width="1" fill="red" />
<circle cx="218.556" cy="375.908" r="1" stroke="red" stroke-width="1" fill="red" />
<circle cx="416.460" cy="36.661" r="1" stroke="red" stroke-width="1" fill="red" />
<circle cx="855.027" cy="577.058" r="1" stroke="red" stroke-width="1" fill="red" />
<circle cx="409.572" cy="154.481" r="1" stroke="red" stroke-width="1" fill="red" />
<circle cx="714.014" cy="483.730" r="1" stroke="red" stroke-width="1" fill="red" />
<circle cx="439.492" cy="921.144" r="1" stroke="red" stroke-width="1" fill="red" />
<circle cx="119.381" cy="222.930" r="1" stroke="red" stroke-width="1" fill="red" />
<circle cx="387.730" cy="599.522" r="1" stroke="red" stroke-width="1" fill="red" />
<circle cx="726.182" cy="54.212" r="1" stroke="red" stroke-width="1" fill="red" />
<circle cx="303.378" cy="134.788" r="1" stroke="red" stroke-width="1" fill="red" />
<circle cx="100.069" cy="597.721" r="1" stroke="red" stroke-width="1" fill="red" />
<circle cx="638.123" cy="330.287" r="1" stroke="red" stroke-width="1" fill="red" />
<circle cx="764.337" cy="805.194" r="1" stroke="red" stroke-width="1" fill="red" />
<circle cx="94.736" cy="571.030" r="1" stroke="red" stroke-width="1" fill="red" />
<circle cx="150.034" cy="428.983" r="1" stroke="red" stroke-width="1" fill="red" />
<circle cx="985.486" cy="418.683" r="1" stroke="red" stroke-width="1" fill="red" />
<circle cx="183.658" cy="457.495" r="1" stroke="red" stroke-width="1" fill="red" />
<circle cx="126.988" cy="332.707" r="1" stroke="red" stroke-width="1" fill="red" />
<circle cx="291.148" cy="902.784" r="1" stroke="red" stroke-width="1" fill="red" />
<circle cx="447.338" cy="371.137" r="1" stroke="red" stroke-width="1" fill="red" />
<circle cx="829.631" cy="727.392" r="1" stroke="red" stroke-width="1" fill="red" />
<circle cx="662.339" cy="852.089" r="1" stroke="red" stroke-width="1" fill="red" />
<circle cx="617.307" cy="880.409" r="1" stroke="red" stroke-width="1" fill="red" />
<circle cx="243.209" cy="538.701" r="1" stroke="red" stroke-width="1" fill="red" />
<circle cx="934.392" cy="601.337" r="1" stroke="red" stroke-width="1" fill="red" />
<circle cx="394.108" cy="531.705" r="1" stroke="red" stroke-width="1" fill="red" />
<circle cx="181.475" cy="631.692" r="1" stroke="red" stroke-width="1" fill="red" />
<circle cx="366.057" cy="372.286" r="1" stroke="red" stroke-width="1" fill="red" />
<circle cx="303.036" cy="466.659" r="1" stroke="red" stroke-width="1" fill="red" />
<circle cx="637.141" cy="675.436" r="1" stroke="red" stroke-width="1" fill="red" />
<circle cx="636.205" cy="692.706" r="1" stroke="red" stroke-width="1" fill="red" />
<circle cx="537.422" cy="362.298" r="1" stroke="red" stroke-width="1" fill="red" />
<circle cx="376.253" cy="498.796" r="1" stroke="red" stroke-width="1" fill="red" />
<circle cx="425.019" cy="55.021" r="1" stroke="red" stroke-width="1" fill="red" />
<circle cx="52.847" cy="659.711" r="1" stroke="red" stroke-width="1" fill="red" />
<circle cx="779.353" cy="549.219" r="1" stroke="red" stroke-width="1" fill="red" />
<circle cx="395.738" cy="54.565" r="1" stroke="red" stroke-width="1" fill="red" />
<circle cx="706.227" cy="153.718" r="1" stroke="red" stroke-width="1" fill="red" />
<circle cx="310.074" cy="755.347" r="1" stroke="red" stroke-width="1" fill="red" />
<circle cx="868.373" cy="390.957" r="1" stroke="red" stroke-width="1" fill="red" />
<circle cx="363.588" cy="823.195" r="1" stroke="red" stroke-width="1" fill="red" />
<circle cx="516.024" cy="753.672" r="1" stroke="red" stroke-width="1" fill="red" />
<circle cx="584.791" cy="329.707" r="1" stroke="red" stroke-width="1" fill="red" />
<circle cx="264.842" cy="588.196" r="1" stroke="red" stroke-width="1" fill="red" />
<circle cx="344.963" cy="944.034" r="1" stroke="red" stroke-width="1" fill="red" />
<circle cx="461.108" cy="655.200" r="1" stroke="red" stroke-width="1" fill="red" />
<circle cx="152.205" cy="487.387" r="1" stroke="red" stroke-width="1" fill="red" />
<circle cx="678.570" cy="463.896" r="1" stroke="red" stroke-width="1" fill="red" />
<circle cx="67.144" cy="712.680" r="1" stroke="red" stroke-width="1" fill="red" />
<circle cx="376.743" cy="634.151" r="1" stroke="red" stroke-width="1" fill="red" />
<circle cx="714.092" cy="480.177" r="1" stroke="red" stroke-width="1" fill="red" />
<circle cx="157.628" cy="572.568" r="1" stroke="red" stroke-width="1" fill="red" />
<circle cx="835.982" cy="776.458" r="1" stroke="red" stroke-width="1" fill="red" />
<circle cx="461.027" cy="419.088" r="1" stroke="red" stroke-width="1" fill="red" />
<circle cx="393.828" cy="715.236" r="1" stroke="red" stroke-width="1" fill="red" />
<circle cx="931.332" cy="740.146" r="1" stroke="red" stroke-width="1" fill="red" />
<circle cx="872.474" cy="458.116" r="1" stroke="red" stroke-width="1" fill="red" />
<circle cx="263.578" cy="768.085" r="1" stroke="red" stroke-width="1" fill="red" />
<circle cx="24.143" cy="536.446" r="1" stroke="red" stroke-width="1" fill="red" />
<circle cx="548.988" cy="975.364" r="1" stroke="red" stroke-width="1" fill="red" />
<circle cx="461.125" cy="287.112" r="1" stroke="red" stroke-width="1" fill="red" />
<circle cx="887.434" cy="782.964" r="1" stroke="red" stroke-width="1" fill="red" />
<circle cx="509.521" cy="522.643" r="1" stroke="red" stroke-width="1" fill="red" />
<circle cx="677.671" cy="955.742" r="1" stroke="red" stroke-width="1" fill="red" />
<circle cx="168.379" cy="698.987" r="1" stroke="red" stroke-width="1" fill="red" />
<circle cx="507.002" cy="40.975" r="1" stroke="red" stroke-width="1" fill="red" />
<circle cx="395.246" cy="340.875" r="1" stroke="red" stroke-width="1" fill="red" />
<circle cx="464.798" cy="162.769" r="1" stroke="red" stroke-width="1" fill="red" />
<circle cx="598.428" cy="278.661" r="1" stroke="red" stroke-width="1" fill="red" />
<circle cx="662.150" cy="646.108" r="1" stroke="red" stroke-width="1" fill="red" />
<circle cx="654.948" cy="751.766" r="1" stroke="red" stroke-width="1" fill="red" />
<circle cx="567.823" cy="41.701" r="1" stroke="red" stroke-width="1" fill="red" />
<circle cx="44.257" cy="606.986" r="1" stroke="red" stroke-width="1" fill="red" />
<circle cx="680.381" cy="159.760" r="1" stroke="red" stroke-width="1" fill="red" />
<circle cx="448.879" cy="946.723" r="1" stroke="red" stroke-width="1" fill="red" />
<circle cx="598.209" cy="883.101" r="1" stroke="red" stroke-width="1" fill="red" />
<circle cx="689.519" cy="468.211" r="1" stroke="red" stroke-width="1" fill="red" />
<circle cx="997.849" cy="489.482" r="1" stroke="red" stroke-width="1" fill="red" />
<circle cx="400.424" cy="773.253" r="1" stroke="red" stroke-width="1" fill="red" />
<circle cx="589.233" cy="343.263" r="1" stroke="red" stroke-width="1" fill="red" />
<circle cx="980.875" cy="370.264" r="1" stroke="red" stroke-width="1" fill="red" />
<circle cx="612.628" cy="51.878" r="1" stroke="red" stroke-width="1" fill="red" />
<circle cx="431.214" cy="295.294" r="1" stroke="red" stroke-width="1" fill="red" />
<circle cx="204.292" cy="99.983" r="1" stroke="red" stroke-width="1" fill="red" />
<circle cx="749.682" cy="297.864" r="1" stroke="red" stroke-width="1" fill="red" />
<circle cx="264.322" cy="456.160" r="1" stroke="red" stroke-width="1" fill="red" />
<circle cx="417.524" cy="548.269" r="1" stroke="red" stroke-width="1" fill="red" />
<circle cx="697.190" cy="608.297" r="1" stroke="red" stroke-width="1" fill="red" />
<circle cx="623.726" cy="603.057" r="1" stroke="red" stroke-width="1" fill="red" />
<circle cx="370.242" cy="117.354" r="1" stroke="red" stroke-width="1" fill="red" />
<circle cx="889.006" cy="767.501" r="1" stroke="red" stroke-width="1" fill="red" />
<circle cx="820.449" cy="167.272" r="1" stroke="red" stroke-width="1" fill="red" />
<circle cx="383.975" cy="905.153" r="1" stroke="red" stroke-width="1" fill="red" />
<circle cx="210.253" cy="688.594" r="1" stroke="red" stroke-width="1" fill="red" />
<circle cx="845.084" cy="355.476" r="1" stroke="red" stroke-width="1" fill="red" />
<circle cx="597.325" cy="748.936" r="1" stroke="red" stroke-width="1" fill="red" />
<circle cx="658.407" cy="826.018" r="1" stroke="red" stroke-width="1" fill="red" />
<circle cx="167.463" cy="490.426" r="1" stroke="red" stroke-width="1" fill="red" />
<circle cx="514.425" cy="834.207" r="1" stroke="red" stroke-width="1" fill="red" />
<circle cx="904.638" cy="525.166" r="1" stroke="red" stroke-width="1" fill="red" />
<circle cx="297.409" cy="803.447" r="1" stroke="red" stroke-width="1" fill="red" />
<circle cx="170.732" cy="463.849" r="1" stroke="red" stroke-width="1" fill="red" />
<circle cx="769.698" cy="91.086" r="1" stroke="red" stroke-width="1" fill="red" />
<circle cx="838.992" cy="474.076" r="1" stroke="red" stroke-width="1" fill="red" />
<circle cx="197.820" cy="379.259" r="1" stroke="red" stroke-width="1" fill="red" />
<circle cx="646.568" cy="630.187" r="1" stroke="red" stroke-width="1" fill="red" />
<circle cx="571.349" cy="452.964" r="1" stroke="red" stroke-width="1" fill="red" />
<circle cx="653.828" cy="767.069" r="1" stroke="red" stroke-width="1" fill="red" />
<circle cx="670.411" cy="842.444" r="1" stroke="red" stroke-width="1" fill="red" />
<circle cx="519.631" cy="845.441" r="1" stroke="red" stroke-width="1" fill="red" />
<circle cx="532.522" cy="608.126" r="1" stroke="red" stroke-width="1" fill="red" />
<circle cx="497.718" cy="846.251" r="1" stroke="red" stroke-width="1" fill="red" />
<circle cx="194.358" cy="857.982" r="1" stroke="red" stroke-width="1" fill="red" />
<circle cx="929.757" cy="537.302" r="1" stroke="red" stroke-width="1" fill="red" />
<circle cx="187.018" cy="805.086" r="1" stroke="red" stroke-width="1" fill="red" />
<circle cx="96.425" cy="280.069" r="1" stroke="red" stroke-width="1" fill="red" />
<circle cx="638.263" cy="442.884" r="1" stroke="red" stroke-width="1" fill="red" />
<circle cx="222.709" cy="725.383" r="1" stroke="red" stroke-width="1" fill="red" />
<circle cx="411.819" cy="288.764" r="1" stroke="red" stroke-width="1" fill="red" />
<circle cx="843.290" cy="486.097" r="1" stroke="red" stroke-width="1" fill="red" />
<circle cx="715.977" cy="727.592" r="1" stroke="red" stroke-width="1" fill="red" />
<circle cx="681.401" cy="389.509" r="1" stroke="red" stroke-width="1" fill="red" />
<circle cx="725.579" cy="363.093" r="1" stroke="red" stroke-width="1" fill="red" />
<circle cx="877.482" cy="742.244" r="1" stroke="red" stroke-width="1" fill="red" />
<circle cx="600.645" cy="648.909" r="1" stroke="red" stroke-width="1" fill="red" />
<circle cx="748.264" cy="907.273" r="1" stroke="red" stroke-width="1" fill="red" />
<circle cx="515.039" cy="477.401" r="1" stroke="red" stroke-width="1" fill="red" />
<circle cx="579.555" cy="342.624" r="1" stroke="red" stroke-width="1" fill="red" />
<circle cx="512.341" cy="453.322" r="1" stroke="red" stroke-width="1" fill="red" />
<circle cx="826.831" cy="311.745" r="1" stroke="red" stroke-width="1" fill="red" />
<circle cx="179.214" cy="167.835" r="1" stroke="red" stroke-width="1" fill="red" />
<circle cx="184.292" cy="590.794" r="1" stroke="red" stroke-width="1" fill="red" />
<circle cx="125.526" cy="737.313" r="1" stroke="red" stroke-width="1" fill="red" />
<circle cx="692.160" cy="811.955" r="1" stroke="red" stroke-width="1" fill="red" />
<circle cx="128.322" cy="419.189" r="1" stroke="red" stroke-width="1" fill="red" />
<circle cx="354.897" cy="837.740" r="1" stroke="red" stroke-width="1" fill="red" />
<circle cx="129.249" cy="340.308" r="1" stroke="red" stroke-width="1" fill="red" />
<circle cx="530.276" cy="745.837" r="1" stroke="red" stroke-width="1" fill="red" />
<circle cx="150.203" cy="746.479" r="1" stroke="red" stroke-width="1" fill="red" />
<circle cx="601.387" cy="626.520" r="1" stroke="red" stroke-width="1" fill="red" />
<circle cx="780.429" cy="815.740" r="1" stroke="red" stroke-width="1" fill="red" />
<circle cx="195.241" cy="695.813" r="1" stroke="red" stroke-width="1" fill="red" />
<circle cx="510.275" cy="170.420" r="1" stroke="red" stroke-width="1" fill="red" />
<circle cx="160.878" cy="705.264" r="1" stroke="red" stroke-width="1" fill="red" />
<circle cx="617.767" cy="246.877" r="1" stroke="red" stroke-width="1" fill="red" />
<circle cx="597.807" cy="612.452" r="1" stroke="red" stroke-width="1" fill="red" />
<circle cx="41.210" cy="460.960" r="1" stroke="red" stroke-width="1" fill="red" />
<circle cx="460.282" cy="718.912" r="1" stroke="red" stroke-width="1" fill="red" />
<circle cx="391.200" cy="184.026" r="1" stroke="red" stroke-width="1" fill="red" />
<circle cx="208.783" cy="171.394" r="1" stroke="red" stroke-width="1" fill="red" />
<circle cx="392.020" cy="108.511" r="1" stroke="red" stroke-width="1" fill="red" />
<circle cx="422.181" cy="502.291" r="1" stroke="red" stroke-width="1" fill="red" />
<circle cx="951.981" cy="664.215" r="1" stroke="red" stroke-width="1" fill="red" />
<circle cx="539.171" cy="74.432" r="1" stroke="red" stroke-width="1" fill="red" />
<circle cx="678.798" cy="790.319" r="1" stroke="red" stroke-width="1" fill="red" />
</svg>
