<svg xmlns = "http://www.w3.org/2000/svg" width = "1000" height = "1000">
<g>
<polygon points = "1.371, 496.673 23.040, 350.784 1.520, 266.947 1.000, 266.508 1.000, 497.893 "
fill = "none" stroke = "black"/>
</g>
<g>
<polygon points = ""
fill = "none" stroke = "black"/>
</g>
<g>
<polygon points = ""
fill = "none" stroke = "black"/>
</g>
<g>
<polygon points = ""
fill = "none" stroke = "black"/>
</g>
<g>
<polygon points = ""
fill = "none" stroke = "black"/>
</g>
<g>
<polygon points = ""
fill = "none" stroke = "black"/>
</g>
<g>
<polygon points = ""
fill = "none" stroke = "black"/>
</g>
<g>
<polygon points = "99.993, 990.290 85.178, 986.478 25.535, 998.688 26.069, 999.000 109.270, 999.000 "
fill = "none" stroke = "black"/>
</g>
<g>
<polygon points = ""
fill = "none" stroke = "black"/>
</g>
<g>
<polygon points = ""
fill = "none" stroke = "black"/>
</g>
<g>
<polygon points = ""
fill = "none" stroke = "black"/>
</g>
<g>
<polygon points = "984.051, 323.217 999.000, 385.161 999.000, 185.262 "
fill = "none" stroke = "black"/>
</g>
<g>
<polygon points = "997.116, 967.806 999.000, 970.920 999.000, 956.055 "
fill = "none" stroke = "black"/>
</g>
<g>
<polygon points = ""
fill = "none" stroke = "black"/>
</g>
<g>
<polygon points = "991.739, 989.326 993.823, 987.488 995.075, 980.772 990.991, 979.698 987.122, 986.235 987.649, 988.530 "
fill = "none" stroke = "black"/>
</g>
<g>
<polygon points = "966.975, 996.378 981.779, 992.755 986.954, 986.243 986.769, 982.624 "
fill = "none" stroke = "black"/>
</g>
<g>
<polygon points = ""
fill = "none" stroke = "black"/>
</g>
<g>
<polygon points = "203.319, 965.172 198.149, 938.637 100.830, 890.368 62.771, 908.769 59.499, 966.391 85.178, 986.478 99.993, 990.290 "
fill = "none" stroke = "black"/>
</g>
<g>
<polygon points = ""
fill = "none" stroke = "black"/>
</g>
<g>
<polygon points = ""
fill = "none" stroke = "black"/>
</g>
<g>
<polygon points = ""
fill = "none" stroke = "black"/>
</g>
<g>
<polygon points = "997.216, 1.822 996.802, 5.511 998.881, 9.926 999.000, 10.142 999.000, 1.000 997.868, 1.000 "
fill = "none" stroke = "black"/>
</g>
<g>
<polygon points = "979.274, 21.608 958.862, 49.475 999.000, 112.931 999.000, 19.926 "
fill = "none" stroke = "black"/>
</g>
<g>
<polygon points = "16.270, 979.498 59.499, 966.391 62.771, 908.769 31.186, 891.296 11.434, 906.740 11.196, 974.175 "
fill = "none" stroke = "black"/>
</g>
<g>
<polygon points = "1.667, 988.610 2.363, 985.605 2.231, 985.351 1.000, 983.659 1.000, 988.619 "
fill = "none" stroke = "black"/>
</g>
<g>
<polygon points = "3.814, 26.985 11.406, 19.605 6.161, 18.604 1.095, 23.441 "
fill = "none" stroke = "black"/>
</g>
<g>
<polygon points = "5.456, 12.240 1.000, 10.227 1.000, 23.442 1.095, 23.441 6.161, 18.604 "
fill = "none" stroke = "black"/>
</g>
<g>
<polygon points = "673.789, 11.923 740.578, 63.665 777.550, 63.445 863.701, 1.841 "
fill = "none" stroke = "black"/>
</g>
<g>
<polygon points = ""
fill = "none" stroke = "black"/>
</g>
<g>
<polygon points = "8.383, 995.344 5.790, 996.569 5.856, 999.000 13.361, 999.000 "
fill = "none" stroke = "black"/>
</g>
<g>
<polygon points = ""
fill = "none" stroke = "black"/>
</g>
<g>
<polygon points = "23.469, 4.386 27.473, 8.177 43.885, 1.149 44.121, 1.000 23.220, 1.000 "
fill = "none" stroke = "black"/>
</g>
<g>
<polygon points = ""
fill = "none" stroke = "black"/>
</g>
<g>
<polygon points = "1.000, 6.833 12.604, 4.939 13.095, 1.000 1.000, 1.000 "
fill = "none" stroke = "black"/>
</g>
<g>
<polygon points = "971.525, 791.120 919.242, 832.864 915.512, 843.394 960.688, 918.067 995.074, 906.100 999.000, 901.283 999.000, 852.201 "
fill = "none" stroke = "black"/>
</g>
<g>
<polygon points = ""
fill = "none" stroke = "black"/>
</g>
<g>
<polygon points = ""
fill = "none" stroke = "black"/>
</g>
<g>
<polygon points = "25.535, 998.688 20.108, 996.844 15.163, 999.000 26.069, 999.000 "
fill = "none" stroke = "black"/>
</g>
<g>
<polygon points = "244.267, 990.329 203.319, 965.172 99.993, 990.290 109.270, 999.000 242.081, 999.000 "
fill = "none" stroke = "black"/>
</g>
<g>
<polygon points = "303.467, 848.329 284.582, 762.342 200.725, 719.558 108.741, 761.354 100.830, 890.368 198.149, 938.637 "
fill = "none" stroke = "black"/>
</g>
<g>
<polygon points = ""
fill = "none" stroke = "black"/>
</g>
<g>
<polygon points = ""
fill = "none" stroke = "black"/>
</g>
<g>
<polygon points = "11.434, 906.740 31.186, 891.296 11.354, 799.084 1.000, 794.145 1.000, 900.327 "
fill = "none" stroke = "black"/>
</g>
<g>
<polygon points = ""
fill = "none" stroke = "black"/>
</g>
<g>
<polygon points = "982.203, 993.818 982.286, 993.220 981.779, 992.755 966.975, 996.378 960.127, 999.000 968.013, 999.000 "
fill = "none" stroke = "black"/>
</g>
<g>
<polygon points = "882.494, 165.405 876.796, 131.297 777.550, 63.445 740.578, 63.665 672.255, 115.541 673.901, 253.665 720.749, 284.503 "
fill = "none" stroke = "black"/>
</g>
<g>
<polygon points = "55.322, 721.246 11.354, 799.084 31.186, 891.296 62.771, 908.769 100.830, 890.368 108.741, 761.354 "
fill = "none" stroke = "black"/>
</g>
<g>
<polygon points = "352.782, 978.308 244.267, 990.329 242.081, 999.000 485.540, 999.000 "
fill = "none" stroke = "black"/>
</g>
<g>
<polygon points = "990.704, 978.370 988.700, 978.141 986.769, 982.624 986.954, 986.243 987.122, 986.235 990.991, 979.698 "
fill = "none" stroke = "black"/>
</g>
<g>
<polygon points = ""
fill = "none" stroke = "black"/>
</g>
<g>
<polygon points = ""
fill = "none" stroke = "black"/>
</g>
<g>
<polygon points = "428.635, 125.201 533.404, 283.589 673.901, 253.665 672.255, 115.541 467.924, 65.100 "
fill = "none" stroke = "black"/>
</g>
<g>
<polygon points = "997.116, 967.806 992.147, 974.494 990.704, 978.370 990.991, 979.698 995.075, 980.772 998.837, 977.517 999.000, 976.589 999.000, 970.920 "
fill = "none" stroke = "black"/>
</g>
<g>
<polygon points = "602.701, 791.012 444.789, 649.982 284.582, 762.342 303.467, 848.329 504.127, 919.892 510.887, 920.026 "
fill = "none" stroke = "black"/>
</g>
<g>
<polygon points = ""
fill = "none" stroke = "black"/>
</g>
<g>
<polygon points = "656.699, 7.191 495.680, 24.535 466.297, 60.346 467.924, 65.100 672.255, 115.541 740.578, 63.665 673.789, 11.923 "
fill = "none" stroke = "black"/>
</g>
<g>
<polygon points = ""
fill = "none" stroke = "black"/>
</g>
<g>
<polygon points = ""
fill = "none" stroke = "black"/>
</g>
<g>
<polygon points = "991.546, 992.643 989.139, 995.419 989.276, 999.000 999.000, 999.000 999.000, 992.380 "
fill = "none" stroke = "black"/>
</g>
<g>
<polygon points = "12.411, 8.365 13.246, 6.226 12.604, 4.939 1.000, 6.833 1.000, 10.227 5.456, 12.240 "
fill = "none" stroke = "black"/>
</g>
<g>
<polygon points = "495.680, 24.535 656.699, 7.191 651.694, 1.000 466.803, 1.000 "
fill = "none" stroke = "black"/>
</g>
<g>
<polygon points = "987.649, 988.530 987.122, 986.235 986.954, 986.243 981.779, 992.755 982.286, 993.220 "
fill = "none" stroke = "black"/>
</g>
<g>
<polygon points = ""
fill = "none" stroke = "black"/>
</g>
<g>
<polygon points = "11.196, 974.175 11.434, 906.740 1.000, 900.327 1.000, 977.426 "
fill = "none" stroke = "black"/>
</g>
<g>
<polygon points = "966.975, 996.378 986.769, 982.624 988.700, 978.141 988.593, 976.652 985.670, 973.409 955.339, 971.343 953.585, 996.967 958.228, 999.000 960.127, 999.000 "
fill = "none" stroke = "black"/>
</g>
<g>
<polygon points = ""
fill = "none" stroke = "black"/>
</g>
<g>
<polygon points = "995.638, 438.318 997.035, 662.156 999.000, 668.857 999.000, 426.907 "
fill = "none" stroke = "black"/>
</g>
<g>
<polygon points = ""
fill = "none" stroke = "black"/>
</g>
<g>
<polygon points = ""
fill = "none" stroke = "black"/>
</g>
<g>
<polygon points = "591.712, 981.680 516.011, 999.000 627.565, 999.000 "
fill = "none" stroke = "black"/>
</g>
<g>
<polygon points = "3.814, 26.985 1.095, 23.441 1.000, 23.442 1.000, 31.374 "
fill = "none" stroke = "black"/>
</g>
<g>
<polygon points = ""
fill = "none" stroke = "black"/>
</g>
<g>
<polygon points = "15.523, 993.800 20.108, 996.844 25.535, 998.688 85.178, 986.478 59.499, 966.391 16.270, 979.498 13.510, 991.423 "
fill = "none" stroke = "black"/>
</g>
<g>
<polygon points = "2.231, 985.351 1.000, 982.474 1.000, 983.659 "
fill = "none" stroke = "black"/>
</g>
<g>
<polygon points = ""
fill = "none" stroke = "black"/>
</g>
<g>
<polygon points = ""
fill = "none" stroke = "black"/>
</g>
<g>
<polygon points = "989.139, 995.419 982.502, 994.378 979.592, 999.000 989.276, 999.000 "
fill = "none" stroke = "black"/>
</g>
<g>
<polygon points = ""
fill = "none" stroke = "black"/>
</g>
<g>
<polygon points = "16.114, 635.374 38.974, 656.252 97.610, 489.374 43.149, 410.483 1.371, 496.673 1.000, 497.893 1.000, 571.644 "
fill = "none" stroke = "black"/>
</g>
<g>
<polygon points = "483.943, 500.786 680.170, 507.166 750.394, 392.529 720.749, 284.503 673.901, 253.665 533.404, 283.589 470.396, 375.429 "
fill = "none" stroke = "black"/>
</g>
<g>
<polygon points = "851.277, 974.445 807.696, 911.767 590.700, 976.241 591.712, 981.680 627.565, 999.000 696.340, 999.000 "
fill = "none" stroke = "black"/>
</g>
<g>
<polygon points = "12.604, 4.939 13.246, 6.226 23.469, 4.386 23.220, 1.000 13.095, 1.000 "
fill = "none" stroke = "black"/>
</g>
<g>
<polygon points = "995.227, 3.094 997.216, 1.822 997.868, 1.000 992.115, 1.000 "
fill = "none" stroke = "black"/>
</g>
<g>
<polygon points = "352.782, 978.308 504.127, 919.892 303.467, 848.329 198.149, 938.637 203.319, 965.172 244.267, 990.329 "
fill = "none" stroke = "black"/>
</g>
<g>
<polygon points = "23.855, 179.126 17.763, 157.367 5.019, 147.395 1.000, 148.506 1.000, 266.508 1.520, 266.947 "
fill = "none" stroke = "black"/>
</g>
<g>
<polygon points = ""
fill = "none" stroke = "black"/>
</g>
<g>
<polygon points = "7.226, 989.592 13.510, 991.423 16.270, 979.498 11.196, 974.175 1.000, 977.426 1.000, 982.474 2.231, 985.351 2.363, 985.605 "
fill = "none" stroke = "black"/>
</g>
<g>
<polygon points = ""
fill = "none" stroke = "black"/>
</g>
<g>
<polygon points = "591.712, 981.680 590.700, 976.241 510.887, 920.026 504.127, 919.892 352.782, 978.308 485.540, 999.000 516.011, 999.000 "
fill = "none" stroke = "black"/>
</g>
<g>
<polygon points = ""
fill = "none" stroke = "black"/>
</g>
<g>
<polygon points = ""
fill = "none" stroke = "black"/>
</g>
<g>
<polygon points = "8.072, 993.112 8.248, 993.296 15.523, 993.800 13.510, 991.423 7.226, 989.592 "
fill = "none" stroke = "black"/>
</g>
<g>
<polygon points = "16.114, 635.374 1.000, 571.644 1.000, 688.813 "
fill = "none" stroke = "black"/>
</g>
<g>
<polygon points = "239.759, 32.807 274.226, 24.100 301.670, 1.000 143.604, 1.000 "
fill = "none" stroke = "black"/>
</g>
<g>
<polygon points = ""
fill = "none" stroke = "black"/>
</g>
<g>
<polygon points = "89.168, 239.831 201.700, 297.609 232.484, 275.349 264.608, 155.615 208.936, 88.186 122.924, 93.107 81.568, 215.407 "
fill = "none" stroke = "black"/>
</g>
<g>
<polygon points = "19.989, 15.243 14.643, 16.321 12.620, 18.769 19.951, 15.296 "
fill = "none" stroke = "black"/>
</g>
<g>
<polygon points = "988.593, 976.652 988.700, 978.141 990.704, 978.370 992.147, 974.494 "
fill = "none" stroke = "black"/>
</g>
<g>
<polygon points = "997.035, 662.156 924.573, 567.514 866.161, 647.848 919.242, 832.864 971.525, 791.120 999.000, 677.098 999.000, 668.857 "
fill = "none" stroke = "black"/>
</g>
<g>
<polygon points = ""
fill = "none" stroke = "black"/>
</g>
<g>
<polygon points = ""
fill = "none" stroke = "black"/>
</g>
<g>
<polygon points = ""
fill = "none" stroke = "black"/>
</g>
<g>
<polygon points = ""
fill = "none" stroke = "black"/>
</g>
<g>
<polygon points = ""
fill = "none" stroke = "black"/>
</g>
<g>
<polygon points = ""
fill = "none" stroke = "black"/>
</g>
<g>
<polygon points = "953.585, 996.967 955.339, 971.343 948.632, 964.057 856.314, 976.687 867.749, 999.000 947.434, 999.000 "
fill = "none" stroke = "black"/>
</g>
<g>
<polygon points = "863.701, 1.841 777.550, 63.445 876.796, 131.297 948.191, 49.662 891.423, 1.000 866.349, 1.000 "
fill = "none" stroke = "black"/>
</g>
<g>
<polygon points = ""
fill = "none" stroke = "black"/>
</g>
<g>
<polygon points = "264.608, 155.615 232.484, 275.349 470.396, 375.429 533.404, 283.589 428.635, 125.201 "
fill = "none" stroke = "black"/>
</g>
<g>
<polygon points = "927.181, 528.617 867.358, 420.316 750.394, 392.529 680.170, 507.166 750.611, 658.358 866.161, 647.848 924.573, 567.514 "
fill = "none" stroke = "black"/>
</g>
<g>
<polygon points = ""
fill = "none" stroke = "black"/>
</g>
<g>
<polygon points = "948.191, 49.662 958.862, 49.475 979.274, 21.608 965.735, 1.000 891.423, 1.000 "
fill = "none" stroke = "black"/>
</g>
<g>
<polygon points = ""
fill = "none" stroke = "black"/>
</g>
<g>
<polygon points = ""
fill = "none" stroke = "black"/>
</g>
<g>
<polygon points = ""
fill = "none" stroke = "black"/>
</g>
<g>
<polygon points = ""
fill = "none" stroke = "black"/>
</g>
<g>
<polygon points = ""
fill = "none" stroke = "black"/>
</g>
<g>
<polygon points = ""
fill = "none" stroke = "black"/>
</g>
<g>
<polygon points = ""
fill = "none" stroke = "black"/>
</g>
<g>
<polygon points = ""
fill = "none" stroke = "black"/>
</g>
<g>
<polygon points = "590.700, 976.241 807.696, 911.767 811.586, 897.689 685.287, 774.946 602.701, 791.012 510.887, 920.026 "
fill = "none" stroke = "black"/>
</g>
<g>
<polygon points = "938.651, 251.457 867.358, 420.316 927.181, 528.617 995.638, 438.318 999.000, 426.907 999.000, 385.161 984.051, 323.217 "
fill = "none" stroke = "black"/>
</g>
<g>
<polygon points = "81.568, 215.407 122.924, 93.107 97.483, 64.750 42.572, 76.693 17.763, 157.367 23.855, 179.126 "
fill = "none" stroke = "black"/>
</g>
<g>
<polygon points = ""
fill = "none" stroke = "black"/>
</g>
<g>
<polygon points = ""
fill = "none" stroke = "black"/>
</g>
<g>
<polygon points = "4.037, 992.111 8.072, 993.112 7.226, 989.592 2.363, 985.605 1.667, 988.610 "
fill = "none" stroke = "black"/>
</g>
<g>
<polygon points = ""
fill = "none" stroke = "black"/>
</g>
<g>
<polygon points = "995.074, 906.100 960.688, 918.067 948.632, 964.057 955.339, 971.343 985.670, 973.409 "
fill = "none" stroke = "black"/>
</g>
<g>
<polygon points = "5.019, 147.395 28.692, 57.136 19.951, 15.296 12.620, 18.769 11.406, 19.605 3.814, 26.985 1.000, 31.374 1.000, 148.506 "
fill = "none" stroke = "black"/>
</g>
<g>
<polygon points = "274.226, 24.100 239.759, 32.807 208.936, 88.186 264.608, 155.615 428.635, 125.201 467.924, 65.100 466.297, 60.346 "
fill = "none" stroke = "black"/>
</g>
<g>
<polygon points = "856.314, 976.687 851.277, 974.445 696.340, 999.000 867.749, 999.000 "
fill = "none" stroke = "black"/>
</g>
<g>
<polygon points = "953.585, 996.967 947.434, 999.000 958.228, 999.000 "
fill = "none" stroke = "black"/>
</g>
<g>
<polygon points = "685.287, 774.946 750.611, 658.358 680.170, 507.166 483.943, 500.786 453.687, 537.093 444.789, 649.982 602.701, 791.012 "
fill = "none" stroke = "black"/>
</g>
<g>
<polygon points = "274.226, 24.100 466.297, 60.346 495.680, 24.535 466.803, 1.000 301.670, 1.000 "
fill = "none" stroke = "black"/>
</g>
<g>
<polygon points = ""
fill = "none" stroke = "black"/>
</g>
<g>
<polygon points = "12.620, 18.769 14.643, 16.321 12.411, 8.365 5.456, 12.240 6.161, 18.604 11.406, 19.605 "
fill = "none" stroke = "black"/>
</g>
<g>
<polygon points = ""
fill = "none" stroke = "black"/>
</g>
<g>
<polygon points = ""
fill = "none" stroke = "black"/>
</g>
<g>
<polygon points = ""
fill = "none" stroke = "black"/>
</g>
<g>
<polygon points = "43.149, 410.483 38.129, 370.692 23.040, 350.784 1.371, 496.673 "
fill = "none" stroke = "black"/>
</g>
<g>
<polygon points = "3.913, 994.730 5.790, 996.569 8.383, 995.344 8.248, 993.296 8.072, 993.112 4.037, 992.111 "
fill = "none" stroke = "black"/>
</g>
<g>
<polygon points = ""
fill = "none" stroke = "black"/>
</g>
<g>
<polygon points = ""
fill = "none" stroke = "black"/>
</g>
<g>
<polygon points = "13.246, 6.226 12.411, 8.365 14.643, 16.321 19.989, 15.243 27.473, 8.177 23.469, 4.386 "
fill = "none" stroke = "black"/>
</g>
<g>
<polygon points = "176.584, 492.816 187.222, 481.368 201.700, 297.609 89.168, 239.831 38.129, 370.692 43.149, 410.483 97.610, 489.374 "
fill = "none" stroke = "black"/>
</g>
<g>
<polygon points = ""
fill = "none" stroke = "black"/>
</g>
<g>
<polygon points = ""
fill = "none" stroke = "black"/>
</g>
<g>
<polygon points = "927.181, 528.617 924.573, 567.514 997.035, 662.156 995.638, 438.318 "
fill = "none" stroke = "black"/>
</g>
<g>
<polygon points = ""
fill = "none" stroke = "black"/>
</g>
<g>
<polygon points = ""
fill = "none" stroke = "black"/>
</g>
<g>
<polygon points = ""
fill = "none" stroke = "black"/>
</g>
<g>
<polygon points = ""
fill = "none" stroke = "black"/>
</g>
<g>
<polygon points = "656.699, 7.191 673.789, 11.923 863.701, 1.841 866.349, 1.000 651.694, 1.000 "
fill = "none" stroke = "black"/>
</g>
<g>
<polygon points = ""
fill = "none" stroke = "black"/>
</g>
<g>
<polygon points = "998.837, 977.517 995.075, 980.772 993.823, 987.488 999.000, 988.258 999.000, 977.547 "
fill = "none" stroke = "black"/>
</g>
<g>
<polygon points = ""
fill = "none" stroke = "black"/>
</g>
<g>
<polygon points = ""
fill = "none" stroke = "black"/>
</g>
<g>
<polygon points = ""
fill = "none" stroke = "black"/>
</g>
<g>
<polygon points = ""
fill = "none" stroke = "black"/>
</g>
<g>
<polygon points = ""
fill = "none" stroke = "black"/>
</g>
<g>
<polygon points = "982.502, 994.378 982.203, 993.818 968.013, 999.000 979.592, 999.000 "
fill = "none" stroke = "black"/>
</g>
<g>
<polygon points = "102.618, 21.250 43.885, 1.149 27.473, 8.177 19.989, 15.243 19.951, 15.296 28.692, 57.136 42.572, 76.693 97.483, 64.750 "
fill = "none" stroke = "black"/>
</g>
<g>
<polygon points = "453.687, 537.093 483.943, 500.786 470.396, 375.429 232.484, 275.349 201.700, 297.609 187.222, 481.368 "
fill = "none" stroke = "black"/>
</g>
<g>
<polygon points = ""
fill = "none" stroke = "black"/>
</g>
<g>
<polygon points = ""
fill = "none" stroke = "black"/>
</g>
<g>
<polygon points = "979.274, 21.608 999.000, 19.926 999.000, 10.530 998.881, 9.926 996.802, 5.511 995.227, 3.094 992.115, 1.000 965.735, 1.000 "
fill = "none" stroke = "black"/>
</g>
<g>
<polygon points = "866.161, 647.848 750.611, 658.358 685.287, 774.946 811.586, 897.689 915.512, 843.394 919.242, 832.864 "
fill = "none" stroke = "black"/>
</g>
<g>
<polygon points = "28.692, 57.136 5.019, 147.395 17.763, 157.367 42.572, 76.693 "
fill = "none" stroke = "black"/>
</g>
<g>
<polygon points = "948.191, 49.662 876.796, 131.297 882.494, 165.405 933.768, 211.718 999.000, 132.944 999.000, 112.931 958.862, 49.475 "
fill = "none" stroke = "black"/>
</g>
<g>
<polygon points = "43.885, 1.149 102.618, 21.250 131.589, 1.000 44.121, 1.000 "
fill = "none" stroke = "black"/>
</g>
<g>
<polygon points = ""
fill = "none" stroke = "black"/>
</g>
<g>
<polygon points = ""
fill = "none" stroke = "black"/>
</g>
<g>
<polygon points = "982.502, 994.378 989.139, 995.419 991.546, 992.643 991.739, 989.326 987.649, 988.530 982.286, 993.220 982.203, 993.818 "
fill = "none" stroke = "black"/>
</g>
<g>
<polygon points = "933.768, 211.718 882.494, 165.405 720.749, 284.503 750.394, 392.529 867.358, 420.316 938.651, 251.457 "
fill = "none" stroke = "black"/>
</g>
<g>
<polygon points = ""
fill = "none" stroke = "black"/>
</g>
<g>
<polygon points = "998.837, 977.517 999.000, 977.547 999.000, 976.589 "
fill = "none" stroke = "black"/>
</g>
<g>
<polygon points = "11.354, 799.084 55.322, 721.246 38.974, 656.252 16.114, 635.374 1.000, 688.813 1.000, 794.145 "
fill = "none" stroke = "black"/>
</g>
<g>
<polygon points = "444.789, 649.982 453.687, 537.093 187.222, 481.368 176.584, 492.816 200.725, 719.558 284.582, 762.342 "
fill = "none" stroke = "black"/>
</g>
<g>
<polygon points = "933.768, 211.718 938.651, 251.457 984.051, 323.217 999.000, 185.262 999.000, 132.944 "
fill = "none" stroke = "black"/>
</g>
<g>
<polygon points = "176.584, 492.816 97.610, 489.374 38.974, 656.252 55.322, 721.246 108.741, 761.354 200.725, 719.558 "
fill = "none" stroke = "black"/>
</g>
<g>
<polygon points = "38.129, 370.692 89.168, 239.831 81.568, 215.407 23.855, 179.126 1.520, 266.947 23.040, 350.784 "
fill = "none" stroke = "black"/>
</g>
<g>
<polygon points = ""
fill = "none" stroke = "black"/>
</g>
<g>
<polygon points = "995.074, 906.100 985.670, 973.409 988.593, 976.652 992.147, 974.494 997.116, 967.806 999.000, 956.055 999.000, 901.283 "
fill = "none" stroke = "black"/>
</g>
<g>
<polygon points = "20.108, 996.844 15.523, 993.800 8.248, 993.296 8.383, 995.344 13.361, 999.000 15.163, 999.000 "
fill = "none" stroke = "black"/>
</g>
<g>
<polygon points = "5.790, 996.569 3.913, 994.730 1.000, 995.176 1.000, 999.000 5.856, 999.000 "
fill = "none" stroke = "black"/>
</g>
<g>
<polygon points = ""
fill = "none" stroke = "black"/>
</g>
<g>
<polygon points = "3.913, 994.730 4.037, 992.111 1.667, 988.610 1.000, 988.619 1.000, 995.176 "
fill = "none" stroke = "black"/>
</g>
<g>
<polygon points = "971.525, 791.120 999.000, 852.201 999.000, 677.098 "
fill = "none" stroke = "black"/>
</g>
<g>
<polygon points = ""
fill = "none" stroke = "black"/>
</g>
<g>
<polygon points = ""
fill = "none" stroke = "black"/>
</g>
<g>
<polygon points = "995.227, 3.094 996.802, 5.511 997.216, 1.822 "
fill = "none" stroke = "black"/>
</g>
<g>
<polygon points = ""
fill = "none" stroke = "black"/>
</g>
<g>
<polygon points = "856.314, 976.687 948.632, 964.057 960.688, 918.067 915.512, 843.394 811.586, 897.689 807.696, 911.767 851.277, 974.445 "
fill = "none" stroke = "black"/>
</g>
<g>
<polygon points = ""
fill = "none" stroke = "black"/>
</g>
<g>
<polygon points = "999.000, 10.530 999.000, 10.142 998.881, 9.926 "
fill = "none" stroke = "black"/>
</g>
<g>
<polygon points = ""
fill = "none" stroke = "black"/>
</g>
<g>
<polygon points = "993.823, 987.488 991.739, 989.326 991.546, 992.643 999.000, 992.380 999.000, 988.258 "
fill = "none" stroke = "black"/>
</g>
<g>
<polygon points = ""
fill = "none" stroke = "black"/>
</g>
<g>
<polygon points = ""
fill = "none" stroke = "black"/>
</g>
<g>
<polygon points = "102.618, 21.250 97.483, 64.750 122.924, 93.107 208.936, 88.186 239.759, 32.807 143.604, 1.000 131.589, 1.000 "
fill = "none" stroke = "black"/>
</g>
<circle cx="203.287" cy="461.700" r="1" stroke="red" stroke-width="1" fill="red" />
<circle cx="302.162" cy="948.789" r="1" stroke="red" stroke-width="1" fill="red" />
<circle cx="169.948" cy="735.618" r="1" stroke="red" stroke-width="1" fill="red" />
<circle cx="822.387" cy="596.403" r="1" stroke="red" stroke-width="1" fill="red" />
<circle cx="248.606" cy="751.194" r="1" stroke="red" stroke-width="1" fill="red" />
<circle cx="120.750" cy="411.672" r="1" stroke="red" stroke-width="1" fill="red" />
<circle cx="848.034" cy="102.051" r="1" stroke="red" stroke-width="1" fill="red" />
<circle cx="337.695" cy="793.449" r="1" stroke="red" stroke-width="1" fill="red" />
<circle cx="901.432" cy="219.280" r="1" stroke="red" stroke-width="1" fill="red" />
<circle cx="705.192" cy="177.944" r="1" stroke="red" stroke-width="1" fill="red" />
<circle cx="39.147" cy="598.332" r="1" stroke="red" stroke-width="1" fill="red" />
<circle cx="754.711" cy="429.068" r="1" stroke="red" stroke-width="1" fill="red" />
<circle cx="977.032" cy="693.255" r="1" stroke="red" stroke-width="1" fill="red" />
<circle cx="971.450" cy="382.185" r="1" stroke="red" stroke-width="1" fill="red" />
<circle cx="873.807" cy="806.831" r="1" stroke="red" stroke-width="1" fill="red" />
<circle cx="737.390" cy="768.194" r="1" stroke="red" stroke-width="1" fill="red" />
<circle cx="305.450" cy="30.413" r="1" stroke="red" stroke-width="1" fill="red" />
<circle cx="374.732" cy="649.486" r="1" stroke="red" stroke-width="1" fill="red" />
<circle cx="24.878" cy="360.880" r="1" stroke="red" stroke-width="1" fill="red" />
<circle cx="320.053" cy="176.321" r="1" stroke="red" stroke-width="1" fill="red" />
<circle cx="356.291" cy="972.032" r="1" stroke="red" stroke-width="1" fill="red" />
<circle cx="968.736" cy="126.284" r="1" stroke="red" stroke-width="1" fill="red" />
<circle cx="709.066" cy="339.107" r="1" stroke="red" stroke-width="1" fill="red" />
<circle cx="300.306" cy="645.258" r="1" stroke="red" stroke-width="1" fill="red" />
<circle cx="40.324" cy="805.297" r="1" stroke="red" stroke-width="1" fill="red" />
<circle cx="65.171" cy="180.913" r="1" stroke="red" stroke-width="1" fill="red" />
<circle cx="19.790" cy="133.373" r="1" stroke="red" stroke-width="1" fill="red" />
<circle cx="563.244" cy="289.830" r="1" stroke="red" stroke-width="1" fill="red" />
<circle cx="631.842" cy="219.065" r="1" stroke="red" stroke-width="1" fill="red" />
<circle cx="152.643" cy="964.279" r="1" stroke="red" stroke-width="1" fill="red" />
<circle cx="25.193" cy="287.337" r="1" stroke="red" stroke-width="1" fill="red" />
<circle cx="212.377" cy="29.884" r="1" stroke="red" stroke-width="1" fill="red" />
<circle cx="280.530" cy="285.324" r="1" stroke="red" stroke-width="1" fill="red" />
<circle cx="38.239" cy="25.854" r="1" stroke="red" stroke-width="1" fill="red" />
<circle cx="689.876" cy="591.382" r="1" stroke="red" stroke-width="1" fill="red" />
<circle cx="281.506" cy="800.528" r="1" stroke="red" stroke-width="1" fill="red" />
<circle cx="724.336" cy="968.789" r="1" stroke="red" stroke-width="1" fill="red" />
<circle cx="237.817" cy="964.672" r="1" stroke="red" stroke-width="1" fill="red" />
<circle cx="394.913" cy="732.508" r="1" stroke="red" stroke-width="1" fill="red" />
<circle cx="409.318" cy="579.755" r="1" stroke="red" stroke-width="1" fill="red" />
<circle cx="951.224" cy="40.424" r="1" stroke="red" stroke-width="1" fill="red" />
<circle cx="864.216" cy="529.851" r="1" stroke="red" stroke-width="1" fill="red" />
<circle cx="259.135" cy="592.601" r="1" stroke="red" stroke-width="1" fill="red" />
<circle cx="112.255" cy="638.538" r="1" stroke="red" stroke-width="1" fill="red" />
<circle cx="762.271" cy="869.863" r="1" stroke="red" stroke-width="1" fill="red" />
<circle cx="563.859" cy="393.443" r="1" stroke="red" stroke-width="1" fill="red" />
<circle cx="338.931" cy="575.439" r="1" stroke="red" stroke-width="1" fill="red" />
<circle cx="468.600" cy="751.083" r="1" stroke="red" stroke-width="1" fill="red" />
<circle cx="802.868" cy="764.843" r="1" stroke="red" stroke-width="1" fill="red" />
<circle cx="651.553" cy="120.686" r="1" stroke="red" stroke-width="1" fill="red" />
<circle cx="457.389" cy="38.872" r="1" stroke="red" stroke-width="1" fill="red" />
<circle cx="510.651" cy="394.077" r="1" stroke="red" stroke-width="1" fill="red" />
<circle cx="889.794" cy="746.055" r="1" stroke="red" stroke-width="1" fill="red" />
<circle cx="480.418" cy="564.139" r="1" stroke="red" stroke-width="1" fill="red" />
<circle cx="538.646" cy="35.971" r="1" stroke="red" stroke-width="1" fill="red" />
<circle cx="523.824" cy="340.715" r="1" stroke="red" stroke-width="1" fill="red" />
<circle cx="644.454" cy="38.954" r="1" stroke="red" stroke-width="1" fill="red" />
<circle cx="965.344" cy="206.385" r="1" stroke="red" stroke-width="1" fill="red" />
<circle cx="948.256" cy="960.787" r="1" stroke="red" stroke-width="1" fill="red" />
<circle cx="46.234" cy="74.838" r="1" stroke="red" stroke-width="1" fill="red" />
<circle cx="514.006" cy="249.568" r="1" stroke="red" stroke-width="1" fill="red" />
<circle cx="805.703" cy="822.482" r="1" stroke="red" stroke-width="1" fill="red" />
<circle cx="46.219" cy="698.133" r="1" stroke="red" stroke-width="1" fill="red" />
<circle cx="226.933" cy="645.000" r="1" stroke="red" stroke-width="1" fill="red" />
<circle cx="706.091" cy="723.149" r="1" stroke="red" stroke-width="1" fill="red" />
<circle cx="953.713" cy="555.328" r="1" stroke="red" stroke-width="1" fill="red" />
<circle cx="785.003" cy="497.538" r="1" stroke="red" stroke-width="1" fill="red" />
<circle cx="335.550" cy="861.753" r="1" stroke="red" stroke-width="1" fill="red" />
<circle cx="141.493" cy="275.918" r="1" stroke="red" stroke-width="1" fill="red" />
<circle cx="501.768" cy="795.841" r="1" stroke="red" stroke-width="1" fill="red" />
<circle cx="20.683" cy="215.045" r="1" stroke="red" stroke-width="1" fill="red" />
<circle cx="467.395" cy="111.191" r="1" stroke="red" stroke-width="1" fill="red" />
<circle cx="322.019" cy="716.873" r="1" stroke="red" stroke-width="1" fill="red" />
<circle cx="104.672" cy="758.485" r="1" stroke="red" stroke-width="1" fill="red" />
<circle cx="303.174" cy="98.982" r="1" stroke="red" stroke-width="1" fill="red" />
<circle cx="164.394" cy="670.588" r="1" stroke="red" stroke-width="1" fill="red" />
<circle cx="846.155" cy="964.679" r="1" stroke="red" stroke-width="1" fill="red" />
<circle cx="104.225" cy="234.554" r="1" stroke="red" stroke-width="1" fill="red" />
<circle cx="323.806" cy="498.372" r="1" stroke="red" stroke-width="1" fill="red" />
<circle cx="523.556" cy="454.671" r="1" stroke="red" stroke-width="1" fill="red" />
<circle cx="559.523" cy="676.288" r="1" stroke="red" stroke-width="1" fill="red" />
<circle cx="123.190" cy="36.442" r="1" stroke="red" stroke-width="1" fill="red" />
<circle cx="849.709" cy="31.982" r="1" stroke="red" stroke-width="1" fill="red" />
<circle cx="455.600" cy="633.729" r="1" stroke="red" stroke-width="1" fill="red" />
<circle cx="244.762" cy="412.474" r="1" stroke="red" stroke-width="1" fill="red" />
<circle cx="45.124" cy="437.860" r="1" stroke="red" stroke-width="1" fill="red" />
<circle cx="244.096" cy="698.841" r="1" stroke="red" stroke-width="1" fill="red" />
<circle cx="585.941" cy="907.356" r="1" stroke="red" stroke-width="1" fill="red" />
<circle cx="477.890" cy="691.479" r="1" stroke="red" stroke-width="1" fill="red" />
<circle cx="261.229" cy="215.027" r="1" stroke="red" stroke-width="1" fill="red" />
<circle cx="448.924" cy="834.511" r="1" stroke="red" stroke-width="1" fill="red" />
<circle cx="211.615" cy="810.340" r="1" stroke="red" stroke-width="1" fill="red" />
<circle cx="214.418" cy="524.314" r="1" stroke="red" stroke-width="1" fill="red" />
<circle cx="433.918" cy="252.428" r="1" stroke="red" stroke-width="1" fill="red" />
<circle cx="729.132" cy="828.463" r="1" stroke="red" stroke-width="1" fill="red" />
<circle cx="411.686" cy="403.224" r="1" stroke="red" stroke-width="1" fill="red" />
<circle cx="152.800" cy="191.154" r="1" stroke="red" stroke-width="1" fill="red" />
<circle cx="808.491" cy="715.776" r="1" stroke="red" stroke-width="1" fill="red" />
<circle cx="647.207" cy="537.940" r="1" stroke="red" stroke-width="1" fill="red" />
<circle cx="968.548" cy="629.327" r="1" stroke="red" stroke-width="1" fill="red" />
<circle cx="390.457" cy="118.475" r="1" stroke="red" stroke-width="1" fill="red" />
<circle cx="908.097" cy="466.942" r="1" stroke="red" stroke-width="1" fill="red" />
<circle cx="474.845" cy="188.737" r="1" stroke="red" stroke-width="1" fill="red" />
<circle cx="680.275" cy="903.687" r="1" stroke="red" stroke-width="1" fill="red" />
<circle cx="842.478" cy="246.263" r="1" stroke="red" stroke-width="1" fill="red" />
<circle cx="638.583" cy="718.527" r="1" stroke="red" stroke-width="1" fill="red" />
<circle cx="599.772" cy="340.914" r="1" stroke="red" stroke-width="1" fill="red" />
<circle cx="909.578" cy="384.216" r="1" stroke="red" stroke-width="1" fill="red" />
<circle cx="472.255" cy="419.475" r="1" stroke="red" stroke-width="1" fill="red" />
<circle cx="581.523" cy="490.180" r="1" stroke="red" stroke-width="1" fill="red" />
<circle cx="372.737" cy="905.851" r="1" stroke="red" stroke-width="1" fill="red" />
<circle cx="642.878" cy="290.626" r="1" stroke="red" stroke-width="1" fill="red" />
<circle cx="274.091" cy="877.159" r="1" stroke="red" stroke-width="1" fill="red" />
<circle cx="926.301" cy="697.680" r="1" stroke="red" stroke-width="1" fill="red" />
<circle cx="146.890" cy="445.341" r="1" stroke="red" stroke-width="1" fill="red" />
<circle cx="618.787" cy="841.483" r="1" stroke="red" stroke-width="1" fill="red" />
<circle cx="737.641" cy="36.056" r="1" stroke="red" stroke-width="1" fill="red" />
<circle cx="514.032" cy="874.901" r="1" stroke="red" stroke-width="1" fill="red" />
<circle cx="34.233" cy="505.667" r="1" stroke="red" stroke-width="1" fill="red" />
<circle cx="395.220" cy="193.261" r="1" stroke="red" stroke-width="1" fill="red" />
<circle cx="538.478" cy="605.458" r="1" stroke="red" stroke-width="1" fill="red" />
<circle cx="643.620" cy="455.878" r="1" stroke="red" stroke-width="1" fill="red" />
<circle cx="351.038" cy="382.716" r="1" stroke="red" stroke-width="1" fill="red" />
<circle cx="580.576" cy="87.968" r="1" stroke="red" stroke-width="1" fill="red" />
<circle cx="190.536" cy="587.752" r="1" stroke="red" stroke-width="1" fill="red" />
<circle cx="138.191" cy="827.983" r="1" stroke="red" stroke-width="1" fill="red" />
<circle cx="592.594" cy="161.073" r="1" stroke="red" stroke-width="1" fill="red" />
<circle cx="710.943" cy="651.915" r="1" stroke="red" stroke-width="1" fill="red" />
<circle cx="226.676" cy="347.072" r="1" stroke="red" stroke-width="1" fill="red" />
<circle cx="461.601" cy="362.012" r="1" stroke="red" stroke-width="1" fill="red" />
<circle cx="571.653" cy="752.827" r="1" stroke="red" stroke-width="1" fill="red" />
<circle cx="668.493" cy="809.033" r="1" stroke="red" stroke-width="1" fill="red" />
<circle cx="521.492" cy="518.148" r="1" stroke="red" stroke-width="1" fill="red" />
<circle cx="473.424" cy="299.363" r="1" stroke="red" stroke-width="1" fill="red" />
<circle cx="219.906" cy="88.029" r="1" stroke="red" stroke-width="1" fill="red" />
<circle cx="75.413" cy="127.209" r="1" stroke="red" stroke-width="1" fill="red" />
<circle cx="901.994" cy="618.019" r="1" stroke="red" stroke-width="1" fill="red" />
<circle cx="955.250" cy="293.615" r="1" stroke="red" stroke-width="1" fill="red" />
<circle cx="869.965" cy="327.336" r="1" stroke="red" stroke-width="1" fill="red" />
<circle cx="267.969" cy="471.307" r="1" stroke="red" stroke-width="1" fill="red" />
<circle cx="121.003" cy="897.261" r="1" stroke="red" stroke-width="1" fill="red" />
<circle cx="836.669" cy="428.033" r="1" stroke="red" stroke-width="1" fill="red" />
<circle cx="61.221" cy="251.983" r="1" stroke="red" stroke-width="1" fill="red" />
<circle cx="136.443" cy="110.082" r="1" stroke="red" stroke-width="1" fill="red" />
<circle cx="384.262" cy="456.637" r="1" stroke="red" stroke-width="1" fill="red" />
<circle cx="971.058" cy="474.745" r="1" stroke="red" stroke-width="1" fill="red" />
<circle cx="820.951" cy="172.826" r="1" stroke="red" stroke-width="1" fill="red" />
<circle cx="699.277" cy="498.073" r="1" stroke="red" stroke-width="1" fill="red" />
<circle cx="383.241" cy="41.461" r="1" stroke="red" stroke-width="1" fill="red" />
<circle cx="176.791" cy="326.684" r="1" stroke="red" stroke-width="1" fill="red" />
<circle cx="95.145" cy="522.518" r="1" stroke="red" stroke-width="1" fill="red" />
<circle cx="788.030" cy="91.091" r="1" stroke="red" stroke-width="1" fill="red" />
<circle cx="559.169" cy="213.064" r="1" stroke="red" stroke-width="1" fill="red" />
<circle cx="560.089" cy="822.554" r="1" stroke="red" stroke-width="1" fill="red" />
<circle cx="955.567" cy="822.067" r="1" stroke="red" stroke-width="1" fill="red" />
<circle cx="783.263" cy="362.296" r="1" stroke="red" stroke-width="1" fill="red" />
<circle cx="127.880" cy="570.785" r="1" stroke="red" stroke-width="1" fill="red" />
<circle cx="208.054" cy="262.207" r="1" stroke="red" stroke-width="1" fill="red" />
<circle cx="472.547" cy="970.141" r="1" stroke="red" stroke-width="1" fill="red" />
<circle cx="527.246" cy="135.182" r="1" stroke="red" stroke-width="1" fill="red" />
<circle cx="782.189" cy="924.407" r="1" stroke="red" stroke-width="1" fill="red" />
<circle cx="338.218" cy="323.770" r="1" stroke="red" stroke-width="1" fill="red" />
<circle cx="454.301" cy="462.155" r="1" stroke="red" stroke-width="1" fill="red" />
<circle cx="529.863" cy="956.310" r="1" stroke="red" stroke-width="1" fill="red" />
<circle cx="621.387" cy="968.301" r="1" stroke="red" stroke-width="1" fill="red" />
<circle cx="701.644" cy="252.019" r="1" stroke="red" stroke-width="1" fill="red" />
<circle cx="587.427" cy="555.091" r="1" stroke="red" stroke-width="1" fill="red" />
<circle cx="284.147" cy="362.145" r="1" stroke="red" stroke-width="1" fill="red" />
<circle cx="644.445" cy="379.982" r="1" stroke="red" stroke-width="1" fill="red" />
<circle cx="359.144" cy="262.624" r="1" stroke="red" stroke-width="1" fill="red" />
<circle cx="177.847" cy="391.839" r="1" stroke="red" stroke-width="1" fill="red" />
<circle cx="798.371" cy="300.410" r="1" stroke="red" stroke-width="1" fill="red" />
<circle cx="858.921" cy="883.333" r="1" stroke="red" stroke-width="1" fill="red" />
<circle cx="594.589" cy="435.177" r="1" stroke="red" stroke-width="1" fill="red" />
<circle cx="732.498" cy="121.052" r="1" stroke="red" stroke-width="1" fill="red" />
<circle cx="967.063" cy="759.625" r="1" stroke="red" stroke-width="1" fill="red" />
<circle cx="282.521" cy="543.575" r="1" stroke="red" stroke-width="1" fill="red" />
<circle cx="443.871" cy="512.030" r="1" stroke="red" stroke-width="1" fill="red" />
<circle cx="696.044" cy="422.711" r="1" stroke="red" stroke-width="1" fill="red" />
<circle cx="381.559" cy="518.664" r="1" stroke="red" stroke-width="1" fill="red" />
<circle cx="320.260" cy="431.674" r="1" stroke="red" stroke-width="1" fill="red" />
<circle cx="395.130" cy="818.707" r="1" stroke="red" stroke-width="1" fill="red" />
<circle cx="775.161" cy="660.888" r="1" stroke="red" stroke-width="1" fill="red" />
<circle cx="205.984" cy="891.656" r="1" stroke="red" stroke-width="1" fill="red" />
<circle cx="52.735" cy="966.969" r="1" stroke="red" stroke-width="1" fill="red" />
<circle cx="140.685" cy="492.439" r="1" stroke="red" stroke-width="1" fill="red" />
<circle cx="41.461" cy="893.475" r="1" stroke="red" stroke-width="1" fill="red" />
<circle cx="752.357" cy="563.277" r="1" stroke="red" stroke-width="1" fill="red" />
<circle cx="77.301" cy="389.053" r="1" stroke="red" stroke-width="1" fill="red" />
<circle cx="857.036" cy="671.575" r="1" stroke="red" stroke-width="1" fill="red" />
<circle cx="905.471" cy="119.183" r="1" stroke="red" stroke-width="1" fill="red" />
<circle cx="219.056" cy="153.656" r="1" stroke="red" stroke-width="1" fill="red" />
<circle cx="626.438" cy="629.761" r="1" stroke="red" stroke-width="1" fill="red" />
<circle cx="445.803" cy="902.109" r="1" stroke="red" stroke-width="1" fill="red" />
<circle cx="763.507" cy="239.812" r="1" stroke="red" stroke-width="1" fill="red" />
<circle cx="416.197" cy="963.357" r="1" stroke="red" stroke-width="1" fill="red" />
<circle cx="945.701" cy="888.374" r="1" stroke="red" stroke-width="1" fill="red" />
<circle cx="122.212" cy="344.612" r="1" stroke="red" stroke-width="1" fill="red" />
<circle cx="74.315" cy="318.768" r="1" stroke="red" stroke-width="1" fill="red" />
<circle cx="407.609" cy="331.961" r="1" stroke="red" stroke-width="1" fill="red" />
</svg>
