<svg xmlns = "http://www.w3.org/2000/svg" width = "1000" height = "1000">
<g>
<polygon points = "181.936, 429.912 169.642, 472.296 182.143, 497.755 232.311, 488.836 238.221, 449.047 205.378, 421.376 "
fill = "none" stroke = "black"/>
</g>
<g>
<polygon points = "340.959, 933.088 325.612, 907.863 313.260, 903.125 261.741, 923.314 280.423, 999.000 312.657, 999.000 "
fill = "none" stroke = "black"/>
</g>
<g>
<polygon points = "198.681, 700.412 123.228, 706.855 148.855, 780.008 166.993, 786.244 204.989, 765.056 212.338, 727.947 "
fill = "none" stroke = "black"/>
</g>
<g>
<polygon points = "857.095, 625.976 869.661, 579.695 812.374, 543.688 802.751, 547.327 773.159, 609.886 819.065, 643.506 "
fill = "none" stroke = "black"/>
</g>
<g>
<polygon points = "244.347, 789.671 295.404, 755.622 279.752, 722.141 212.338, 727.947 204.989, 765.056 "
fill = "none" stroke = "black"/>
</g>
<g>
<polygon points = "153.329, 413.360 141.246, 378.573 110.716, 377.907 84.289, 428.671 94.739, 458.848 "
fill = "none" stroke = "black"/>
</g>
<g>
<polygon points = "889.468, 67.987 823.541, 66.411 812.130, 128.881 865.242, 149.205 "
fill = "none" stroke = "black"/>
</g>
<g>
<polygon points = "356.671, 828.231 379.796, 775.645 352.944, 750.435 304.973, 760.255 313.365, 826.871 "
fill = "none" stroke = "black"/>
</g>
<g>
<polygon points = "726.692, 216.097 763.344, 181.549 762.861, 170.624 691.955, 136.592 653.830, 172.306 677.046, 213.718 "
fill = "none" stroke = "black"/>
</g>
<g>
<polygon points = "59.988, 647.006 87.417, 597.132 78.662, 568.930 54.463, 551.057 1.000, 553.892 1.000, 651.186 "
fill = "none" stroke = "black"/>
</g>
<g>
<polygon points = "721.751, 459.358 742.002, 475.627 795.983, 451.745 795.418, 406.984 736.454, 381.771 729.792, 385.152 "
fill = "none" stroke = "black"/>
</g>
<g>
<polygon points = "948.962, 664.454 954.133, 723.749 999.000, 730.489 999.000, 657.813 "
fill = "none" stroke = "black"/>
</g>
<g>
<polygon points = "899.501, 277.328 940.423, 247.700 924.764, 170.092 877.282, 168.176 857.821, 201.891 891.247, 274.924 "
fill = "none" stroke = "black"/>
</g>
<g>
<polygon points = "939.172, 342.322 941.925, 426.171 944.843, 428.353 999.000, 428.582 999.000, 331.379 "
fill = "none" stroke = "black"/>
</g>
<g>
<polygon points = "904.251, 852.454 908.264, 848.916 919.902, 786.465 849.004, 767.815 834.588, 792.172 845.829, 841.086 "
fill = "none" stroke = "black"/>
</g>
<g>
<polygon points = "757.394, 720.897 690.397, 767.450 706.529, 794.665 765.644, 802.765 771.600, 795.271 768.570, 736.057 "
fill = "none" stroke = "black"/>
</g>
<g>
<polygon points = "258.781, 53.435 265.499, 63.409 340.092, 65.885 349.308, 1.000 259.079, 1.000 "
fill = "none" stroke = "black"/>
</g>
<g>
<polygon points = "422.578, 679.652 411.821, 624.439 372.449, 604.911 339.012, 621.078 336.033, 673.525 364.640, 695.903 421.599, 682.057 "
fill = "none" stroke = "black"/>
</g>
<g>
<polygon points = "382.736, 943.470 340.959, 933.088 312.657, 999.000 390.778, 999.000 "
fill = "none" stroke = "black"/>
</g>
<g>
<polygon points = "62.093, 354.493 36.251, 324.157 1.000, 324.006 1.000, 408.312 38.464, 398.459 "
fill = "none" stroke = "black"/>
</g>
<g>
<polygon points = "350.983, 214.316 363.737, 157.722 341.829, 131.057 273.839, 145.895 269.782, 163.973 313.946, 231.092 "
fill = "none" stroke = "black"/>
</g>
<g>
<polygon points = "941.091, 87.207 932.375, 164.866 999.000, 167.688 999.000, 75.395 "
fill = "none" stroke = "black"/>
</g>
<g>
<polygon points = "287.605, 688.208 336.033, 673.525 339.012, 621.078 302.680, 600.978 263.667, 631.481 263.556, 662.981 "
fill = "none" stroke = "black"/>
</g>
<g>
<polygon points = "56.825, 216.094 72.053, 216.940 108.472, 190.424 111.797, 161.977 49.803, 150.153 24.653, 174.161 "
fill = "none" stroke = "black"/>
</g>
<g>
<polygon points = "81.789, 848.859 91.317, 807.759 50.849, 752.132 1.000, 749.390 1.000, 849.901 "
fill = "none" stroke = "black"/>
</g>
<g>
<polygon points = "602.963, 300.030 603.362, 260.089 592.722, 249.774 553.203, 251.872 518.326, 294.523 518.467, 295.853 561.828, 329.445 "
fill = "none" stroke = "black"/>
</g>
<g>
<polygon points = "45.316, 109.664 1.000, 89.644 1.000, 174.419 24.653, 174.161 49.803, 150.153 "
fill = "none" stroke = "black"/>
</g>
<g>
<polygon points = "195.344, 939.742 165.011, 917.462 102.191, 947.121 103.587, 999.000 195.071, 999.000 "
fill = "none" stroke = "black"/>
</g>
<g>
<polygon points = "641.974, 169.931 596.790, 200.511 592.722, 249.774 603.362, 260.089 659.221, 251.475 677.046, 213.718 653.830, 172.306 "
fill = "none" stroke = "black"/>
</g>
<g>
<polygon points = "60.103, 286.878 24.960, 251.065 1.000, 252.560 1.000, 324.006 36.251, 324.157 "
fill = "none" stroke = "black"/>
</g>
<g>
<polygon points = "170.118, 64.916 258.781, 53.435 259.079, 1.000 165.418, 1.000 "
fill = "none" stroke = "black"/>
</g>
<g>
<polygon points = "754.948, 322.596 741.930, 292.554 741.759, 292.460 689.097, 296.949 661.228, 334.996 688.926, 378.786 729.792, 385.152 736.454, 381.771 "
fill = "none" stroke = "black"/>
</g>
<g>
<polygon points = "235.730, 300.610 263.274, 324.632 297.048, 323.042 322.833, 284.351 309.874, 239.469 249.986, 255.912 "
fill = "none" stroke = "black"/>
</g>
<g>
<polygon points = "250.885, 836.239 297.628, 840.762 313.365, 826.871 304.973, 760.255 295.404, 755.622 244.347, 789.671 "
fill = "none" stroke = "black"/>
</g>
<g>
<polygon points = "261.741, 923.314 247.021, 917.213 195.344, 939.742 195.071, 999.000 280.423, 999.000 "
fill = "none" stroke = "black"/>
</g>
<g>
<polygon points = "423.251, 775.536 438.301, 715.835 421.599, 682.057 364.640, 695.903 352.944, 750.435 379.796, 775.645 "
fill = "none" stroke = "black"/>
</g>
<g>
<polygon points = "707.015, 545.980 693.627, 544.632 642.810, 585.205 671.042, 631.869 735.550, 609.418 "
fill = "none" stroke = "black"/>
</g>
<g>
<polygon points = "1.000, 57.077 79.071, 44.334 84.472, 1.000 1.000, 1.000 "
fill = "none" stroke = "black"/>
</g>
<g>
<polygon points = "898.292, 62.344 941.091, 87.207 999.000, 75.395 999.000, 1.000 903.394, 1.000 "
fill = "none" stroke = "black"/>
</g>
<g>
<polygon points = "902.394, 565.670 915.682, 518.991 856.080, 477.417 837.340, 482.487 812.374, 543.688 869.661, 579.695 "
fill = "none" stroke = "black"/>
</g>
<g>
<polygon points = "242.619, 554.632 226.607, 565.117 223.654, 606.890 263.667, 631.481 302.680, 600.978 298.439, 581.259 "
fill = "none" stroke = "black"/>
</g>
<g>
<polygon points = "106.348, 698.378 111.203, 698.685 157.757, 622.950 150.435, 611.665 87.417, 597.132 59.988, 647.006 "
fill = "none" stroke = "black"/>
</g>
<g>
<polygon points = "605.527, 394.943 603.348, 381.899 561.765, 353.470 536.999, 372.275 537.568, 420.015 555.472, 431.800 "
fill = "none" stroke = "black"/>
</g>
<g>
<polygon points = "343.548, 534.515 322.511, 538.644 298.439, 581.259 302.680, 600.978 339.012, 621.078 372.449, 604.911 375.304, 558.358 "
fill = "none" stroke = "black"/>
</g>
<g>
<polygon points = "786.006, 989.280 730.616, 917.077 672.920, 956.125 672.717, 999.000 786.334, 999.000 "
fill = "none" stroke = "black"/>
</g>
<g>
<polygon points = "768.570, 736.057 771.600, 795.271 834.588, 792.172 849.004, 767.815 844.008, 744.702 "
fill = "none" stroke = "black"/>
</g>
<g>
<polygon points = "692.229, 75.978 626.501, 81.688 608.410, 120.933 641.974, 169.931 653.830, 172.306 691.955, 136.592 "
fill = "none" stroke = "black"/>
</g>
<g>
<polygon points = "421.591, 76.713 425.639, 80.117 499.179, 69.942 496.717, 1.000 418.948, 1.000 "
fill = "none" stroke = "black"/>
</g>
<g>
<polygon points = "479.327, 388.444 504.824, 426.989 537.568, 420.015 536.999, 372.275 496.443, 362.263 "
fill = "none" stroke = "black"/>
</g>
<g>
<polygon points = "449.332, 592.274 440.729, 553.104 415.357, 540.159 375.304, 558.358 372.449, 604.911 411.821, 624.439 "
fill = "none" stroke = "black"/>
</g>
<g>
<polygon points = "715.673, 873.199 731.658, 911.951 809.637, 883.474 811.341, 871.247 767.881, 831.409 "
fill = "none" stroke = "black"/>
</g>
<g>
<polygon points = "493.036, 607.860 525.142, 562.745 481.965, 524.184 440.729, 553.104 449.332, 592.274 "
fill = "none" stroke = "black"/>
</g>
<g>
<polygon points = "499.179, 69.942 513.301, 83.319 530.663, 85.314 591.586, 36.186 592.578, 1.000 496.717, 1.000 "
fill = "none" stroke = "black"/>
</g>
<g>
<polygon points = "486.887, 334.344 496.443, 362.263 536.999, 372.275 561.765, 353.470 561.828, 329.445 518.467, 295.853 "
fill = "none" stroke = "black"/>
</g>
<g>
<polygon points = "591.586, 36.186 626.501, 81.688 692.229, 75.978 692.243, 75.963 689.912, 1.000 592.578, 1.000 "
fill = "none" stroke = "black"/>
</g>
<g>
<polygon points = "932.375, 164.866 924.764, 170.092 940.423, 247.700 999.000, 254.478 999.000, 167.688 "
fill = "none" stroke = "black"/>
</g>
<g>
<polygon points = "899.965, 926.240 895.989, 930.825 898.588, 999.000 999.000, 999.000 999.000, 922.744 "
fill = "none" stroke = "black"/>
</g>
<g>
<polygon points = "433.697, 786.886 459.013, 792.856 520.202, 747.512 520.521, 728.650 438.301, 715.835 423.251, 775.536 "
fill = "none" stroke = "black"/>
</g>
<g>
<polygon points = "95.552, 81.674 96.496, 79.259 79.071, 44.334 1.000, 57.077 1.000, 89.644 45.316, 109.664 "
fill = "none" stroke = "black"/>
</g>
<g>
<polygon points = "922.993, 783.791 930.847, 739.073 884.368, 703.997 854.231, 717.252 844.008, 744.702 849.004, 767.815 919.902, 786.465 "
fill = "none" stroke = "black"/>
</g>
<g>
<polygon points = "515.691, 205.463 473.310, 232.746 474.233, 258.588 518.326, 294.523 553.203, 251.872 "
fill = "none" stroke = "black"/>
</g>
<g>
<polygon points = "50.849, 752.132 106.348, 698.378 59.988, 647.006 1.000, 651.186 1.000, 749.390 "
fill = "none" stroke = "black"/>
</g>
<g>
<polygon points = "767.881, 831.409 811.341, 871.247 845.829, 841.086 834.588, 792.172 771.600, 795.271 765.644, 802.765 "
fill = "none" stroke = "black"/>
</g>
<g>
<polygon points = "263.556, 662.981 263.667, 631.481 223.654, 606.890 184.914, 631.520 205.375, 681.529 "
fill = "none" stroke = "black"/>
</g>
<g>
<polygon points = "738.417, 689.569 674.774, 685.233 669.764, 758.417 690.397, 767.450 757.394, 720.897 756.590, 709.729 "
fill = "none" stroke = "black"/>
</g>
<g>
<polygon points = "837.340, 482.487 795.983, 451.745 742.002, 475.627 742.262, 517.288 802.751, 547.327 812.374, 543.688 "
fill = "none" stroke = "black"/>
</g>
<g>
<polygon points = "934.835, 509.107 915.682, 518.991 902.394, 565.670 939.873, 596.589 999.000, 584.736 999.000, 522.917 "
fill = "none" stroke = "black"/>
</g>
<g>
<polygon points = "380.663, 861.438 356.671, 828.231 313.365, 826.871 297.628, 840.762 313.260, 903.125 325.612, 907.863 "
fill = "none" stroke = "black"/>
</g>
<g>
<polygon points = "24.960, 251.065 56.825, 216.094 24.653, 174.161 1.000, 174.419 1.000, 252.560 "
fill = "none" stroke = "black"/>
</g>
<g>
<polygon points = "112.721, 304.895 142.109, 313.144 178.624, 287.755 168.029, 236.322 146.970, 233.512 97.012, 278.524 96.658, 279.711 "
fill = "none" stroke = "black"/>
</g>
<g>
<polygon points = "491.936, 837.847 519.785, 833.527 542.551, 783.823 520.202, 747.512 459.013, 792.856 "
fill = "none" stroke = "black"/>
</g>
<g>
<polygon points = "513.301, 83.319 499.179, 69.942 425.639, 80.117 432.571, 153.337 432.910, 153.635 487.206, 148.418 "
fill = "none" stroke = "black"/>
</g>
<g>
<polygon points = "304.973, 760.255 352.944, 750.435 364.640, 695.903 336.033, 673.525 287.605, 688.208 279.752, 722.141 295.404, 755.622 "
fill = "none" stroke = "black"/>
</g>
<g>
<polygon points = "50.849, 752.132 91.317, 807.759 148.855, 780.008 123.228, 706.855 111.203, 698.685 106.348, 698.378 "
fill = "none" stroke = "black"/>
</g>
<g>
<polygon points = "352.520, 83.184 340.092, 65.885 265.499, 63.409 257.879, 121.340 273.839, 145.895 341.829, 131.057 "
fill = "none" stroke = "black"/>
</g>
<g>
<polygon points = "205.375, 681.529 184.914, 631.520 157.757, 622.950 111.203, 698.685 123.228, 706.855 198.681, 700.412 "
fill = "none" stroke = "black"/>
</g>
<g>
<polygon points = "108.472, 190.424 72.053, 216.940 97.012, 278.524 146.970, 233.512 "
fill = "none" stroke = "black"/>
</g>
<g>
<polygon points = "895.989, 930.825 829.389, 920.374 786.006, 989.280 786.334, 999.000 898.588, 999.000 "
fill = "none" stroke = "black"/>
</g>
<g>
<polygon points = "305.055, 465.926 285.980, 505.280 322.511, 538.644 343.548, 534.515 360.360, 486.668 344.590, 463.824 "
fill = "none" stroke = "black"/>
</g>
<g>
<polygon points = "504.824, 426.989 488.158, 451.281 491.847, 485.412 543.554, 487.093 562.264, 456.551 555.472, 431.800 537.568, 420.015 "
fill = "none" stroke = "black"/>
</g>
<g>
<polygon points = "578.448, 632.124 512.709, 651.656 525.594, 720.896 592.138, 710.350 609.823, 677.248 "
fill = "none" stroke = "black"/>
</g>
<g>
<polygon points = "793.721, 35.295 823.541, 66.411 889.468, 67.987 898.292, 62.344 903.394, 1.000 792.474, 1.000 "
fill = "none" stroke = "black"/>
</g>
<g>
<polygon points = "79.071, 44.334 96.496, 79.259 169.473, 66.124 170.118, 64.916 165.418, 1.000 84.472, 1.000 "
fill = "none" stroke = "black"/>
</g>
<g>
<polygon points = "506.479, 647.268 493.036, 607.860 449.332, 592.274 411.821, 624.439 422.578, 679.652 "
fill = "none" stroke = "black"/>
</g>
<g>
<polygon points = "74.837, 477.411 91.538, 467.542 94.478, 462.394 94.739, 458.848 84.289, 428.671 38.464, 398.459 1.000, 408.312 1.000, 465.551 "
fill = "none" stroke = "black"/>
</g>
<g>
<polygon points = "279.825, 432.637 286.888, 404.864 249.836, 375.869 216.574, 385.067 205.378, 421.376 238.221, 449.047 "
fill = "none" stroke = "black"/>
</g>
<g>
<polygon points = "279.752, 722.141 287.605, 688.208 263.556, 662.981 205.375, 681.529 198.681, 700.412 212.338, 727.947 "
fill = "none" stroke = "black"/>
</g>
<g>
<polygon points = "633.685, 920.368 632.482, 889.437 579.449, 862.993 560.010, 868.919 540.573, 911.983 576.784, 953.462 "
fill = "none" stroke = "black"/>
</g>
<g>
<polygon points = "206.809, 207.248 249.986, 255.912 309.874, 239.469 313.946, 231.092 269.782, 163.973 "
fill = "none" stroke = "black"/>
</g>
<g>
<polygon points = "438.301, 715.835 520.521, 728.650 525.594, 720.896 512.709, 651.656 506.479, 647.268 422.578, 679.652 421.599, 682.057 "
fill = "none" stroke = "black"/>
</g>
<g>
<polygon points = "410.279, 866.598 472.324, 869.463 491.936, 837.847 459.013, 792.856 433.697, 786.886 "
fill = "none" stroke = "black"/>
</g>
<g>
<polygon points = "182.109, 849.150 233.287, 852.694 250.885, 836.239 244.347, 789.671 204.989, 765.056 166.993, 786.244 "
fill = "none" stroke = "black"/>
</g>
<g>
<polygon points = "687.275, 854.755 715.673, 873.199 767.881, 831.409 765.644, 802.765 706.529, 794.665 "
fill = "none" stroke = "black"/>
</g>
<g>
<polygon points = "400.337, 285.438 430.485, 295.411 474.233, 258.588 473.310, 232.746 436.044, 208.799 393.666, 236.515 "
fill = "none" stroke = "black"/>
</g>
<g>
<polygon points = "165.315, 536.684 168.921, 543.400 226.607, 565.117 242.619, 554.632 254.801, 511.558 232.311, 488.836 182.143, 497.755 "
fill = "none" stroke = "black"/>
</g>
<g>
<polygon points = "423.580, 366.796 389.555, 368.742 373.170, 417.195 420.685, 441.591 437.028, 429.772 446.482, 394.535 "
fill = "none" stroke = "black"/>
</g>
<g>
<polygon points = "656.711, 496.415 626.226, 497.748 609.805, 520.331 627.418, 581.723 642.810, 585.205 693.627, 544.632 "
fill = "none" stroke = "black"/>
</g>
<g>
<polygon points = "815.055, 674.226 756.590, 709.729 757.394, 720.897 768.570, 736.057 844.008, 744.702 854.231, 717.252 "
fill = "none" stroke = "black"/>
</g>
<g>
<polygon points = "205.577, 207.123 170.628, 145.371 116.493, 156.293 111.797, 161.977 108.472, 190.424 146.970, 233.512 168.029, 236.322 "
fill = "none" stroke = "black"/>
</g>
<g>
<polygon points = "939.873, 596.589 930.301, 652.920 948.962, 664.454 999.000, 657.813 999.000, 584.736 "
fill = "none" stroke = "black"/>
</g>
<g>
<polygon points = "432.571, 153.337 425.639, 80.117 421.591, 76.713 352.520, 83.184 341.829, 131.057 363.737, 157.722 "
fill = "none" stroke = "black"/>
</g>
<g>
<polygon points = "944.843, 428.353 941.925, 426.171 884.554, 425.144 856.080, 477.417 915.682, 518.991 934.835, 509.107 "
fill = "none" stroke = "black"/>
</g>
<g>
<polygon points = "522.254, 182.711 487.206, 148.418 432.910, 153.635 436.044, 208.799 473.310, 232.746 515.691, 205.463 "
fill = "none" stroke = "black"/>
</g>
<g>
<polygon points = "687.275, 854.755 664.729, 857.562 632.482, 889.437 633.685, 920.368 672.920, 956.125 730.616, 917.077 731.658, 911.951 715.673, 873.199 "
fill = "none" stroke = "black"/>
</g>
<g>
<polygon points = "801.760, 258.133 842.615, 291.412 891.247, 274.924 857.821, 201.891 805.091, 217.349 "
fill = "none" stroke = "black"/>
</g>
<g>
<polygon points = "561.765, 353.470 603.348, 381.899 644.105, 335.297 602.963, 300.030 561.828, 329.445 "
fill = "none" stroke = "black"/>
</g>
<g>
<polygon points = "609.823, 677.248 592.138, 710.350 624.447, 773.394 669.764, 758.417 674.774, 685.233 660.980, 670.249 "
fill = "none" stroke = "black"/>
</g>
<g>
<polygon points = "884.554, 425.144 941.925, 426.171 939.172, 342.322 921.721, 333.525 856.704, 378.805 "
fill = "none" stroke = "black"/>
</g>
<g>
<polygon points = "446.482, 394.535 437.028, 429.772 488.158, 451.281 504.824, 426.989 479.327, 388.444 "
fill = "none" stroke = "black"/>
</g>
<g>
<polygon points = "609.694, 467.819 562.264, 456.551 543.554, 487.093 561.104, 524.761 609.805, 520.331 626.226, 497.748 "
fill = "none" stroke = "black"/>
</g>
<g>
<polygon points = "410.228, 922.692 407.444, 868.320 380.663, 861.438 325.612, 907.863 340.959, 933.088 382.736, 943.470 "
fill = "none" stroke = "black"/>
</g>
<g>
<polygon points = "659.221, 251.475 603.362, 260.089 602.963, 300.030 644.105, 335.297 661.228, 334.996 689.097, 296.949 "
fill = "none" stroke = "black"/>
</g>
<g>
<polygon points = "900.151, 662.120 884.368, 703.997 930.847, 739.073 954.133, 723.749 948.962, 664.454 930.301, 652.920 "
fill = "none" stroke = "black"/>
</g>
<g>
<polygon points = "153.329, 413.360 94.739, 458.848 94.478, 462.394 169.642, 472.296 181.936, 429.912 "
fill = "none" stroke = "black"/>
</g>
<g>
<polygon points = "297.628, 840.762 250.885, 836.239 233.287, 852.694 247.021, 917.213 261.741, 923.314 313.260, 903.125 "
fill = "none" stroke = "black"/>
</g>
<g>
<polygon points = "579.449, 862.993 632.482, 889.437 664.729, 857.562 617.545, 785.286 601.811, 793.651 "
fill = "none" stroke = "black"/>
</g>
<g>
<polygon points = "692.243, 75.963 745.767, 79.201 793.721, 35.295 792.474, 1.000 689.912, 1.000 "
fill = "none" stroke = "black"/>
</g>
<g>
<polygon points = "492.972, 921.240 540.573, 911.983 560.010, 868.919 519.785, 833.527 491.936, 837.847 472.324, 869.463 "
fill = "none" stroke = "black"/>
</g>
<g>
<polygon points = "54.463, 551.057 74.837, 477.411 1.000, 465.551 1.000, 553.892 "
fill = "none" stroke = "black"/>
</g>
<g>
<polygon points = "393.666, 236.515 436.044, 208.799 432.910, 153.635 432.571, 153.337 363.737, 157.722 350.983, 214.316 "
fill = "none" stroke = "black"/>
</g>
<g>
<polygon points = "506.479, 647.268 512.709, 651.656 578.448, 632.124 586.461, 603.121 541.617, 559.540 525.142, 562.745 493.036, 607.860 "
fill = "none" stroke = "black"/>
</g>
<g>
<polygon points = "656.400, 418.065 630.817, 417.787 609.694, 467.819 626.226, 497.748 656.711, 496.415 683.562, 460.997 "
fill = "none" stroke = "black"/>
</g>
<g>
<polygon points = "370.584, 347.598 321.978, 358.169 311.559, 392.050 360.567, 422.860 373.170, 417.195 389.555, 368.742 "
fill = "none" stroke = "black"/>
</g>
<g>
<polygon points = "591.586, 36.186 530.663, 85.314 568.067, 127.565 608.410, 120.933 626.501, 81.688 "
fill = "none" stroke = "black"/>
</g>
<g>
<polygon points = "83.337, 851.145 161.923, 870.642 182.109, 849.150 166.993, 786.244 148.855, 780.008 91.317, 807.759 81.789, 848.859 "
fill = "none" stroke = "black"/>
</g>
<g>
<polygon points = "168.921, 543.400 150.435, 611.665 157.757, 622.950 184.914, 631.520 223.654, 606.890 226.607, 565.117 "
fill = "none" stroke = "black"/>
</g>
<g>
<polygon points = "568.067, 127.565 550.864, 170.984 596.790, 200.511 641.974, 169.931 608.410, 120.933 "
fill = "none" stroke = "black"/>
</g>
<g>
<polygon points = "748.754, 615.588 735.550, 609.418 671.042, 631.869 660.980, 670.249 674.774, 685.233 738.417, 689.569 "
fill = "none" stroke = "black"/>
</g>
<g>
<polygon points = "216.574, 385.067 249.836, 375.869 263.274, 324.632 235.730, 300.610 214.667, 305.231 192.687, 359.013 "
fill = "none" stroke = "black"/>
</g>
<g>
<polygon points = "423.580, 366.796 446.482, 394.535 479.327, 388.444 496.443, 362.263 486.887, 334.344 445.942, 326.617 "
fill = "none" stroke = "black"/>
</g>
<g>
<polygon points = "542.551, 783.823 601.811, 793.651 617.545, 785.286 624.447, 773.394 592.138, 710.350 525.594, 720.896 520.521, 728.650 520.202, 747.512 "
fill = "none" stroke = "black"/>
</g>
<g>
<polygon points = "624.447, 773.394 617.545, 785.286 664.729, 857.562 687.275, 854.755 706.529, 794.665 690.397, 767.450 669.764, 758.417 "
fill = "none" stroke = "black"/>
</g>
<g>
<polygon points = "541.617, 559.540 561.104, 524.761 543.554, 487.093 491.847, 485.412 484.308, 494.458 481.965, 524.184 525.142, 562.745 "
fill = "none" stroke = "black"/>
</g>
<g>
<polygon points = "445.942, 326.617 486.887, 334.344 518.467, 295.853 518.326, 294.523 474.233, 258.588 430.485, 295.411 "
fill = "none" stroke = "black"/>
</g>
<g>
<polygon points = "116.493, 156.293 95.552, 81.674 45.316, 109.664 49.803, 150.153 111.797, 161.977 "
fill = "none" stroke = "black"/>
</g>
<g>
<polygon points = "170.118, 64.916 169.473, 66.124 183.809, 120.380 257.879, 121.340 265.499, 63.409 258.781, 53.435 "
fill = "none" stroke = "black"/>
</g>
<g>
<polygon points = "900.151, 662.120 930.301, 652.920 939.873, 596.589 902.394, 565.670 869.661, 579.695 857.095, 625.976 "
fill = "none" stroke = "black"/>
</g>
<g>
<polygon points = "940.423, 247.700 899.501, 277.328 921.721, 333.525 939.172, 342.322 999.000, 331.379 999.000, 254.478 "
fill = "none" stroke = "black"/>
</g>
<g>
<polygon points = "254.801, 511.558 285.980, 505.280 305.055, 465.926 279.825, 432.637 238.221, 449.047 232.311, 488.836 "
fill = "none" stroke = "black"/>
</g>
<g>
<polygon points = "824.501, 339.576 837.798, 372.553 856.704, 378.805 921.721, 333.525 899.501, 277.328 891.247, 274.924 842.615, 291.412 "
fill = "none" stroke = "black"/>
</g>
<g>
<polygon points = "79.812, 925.204 102.191, 947.121 165.011, 917.462 161.923, 870.642 83.337, 851.145 "
fill = "none" stroke = "black"/>
</g>
<g>
<polygon points = "96.658, 279.711 97.012, 278.524 72.053, 216.940 56.825, 216.094 24.960, 251.065 60.103, 286.878 "
fill = "none" stroke = "black"/>
</g>
<g>
<polygon points = "837.340, 482.487 856.080, 477.417 884.554, 425.144 856.704, 378.805 837.798, 372.553 795.418, 406.984 795.983, 451.745 "
fill = "none" stroke = "black"/>
</g>
<g>
<polygon points = "183.809, 120.380 169.473, 66.124 96.496, 79.259 95.552, 81.674 116.493, 156.293 170.628, 145.371 "
fill = "none" stroke = "black"/>
</g>
<g>
<polygon points = "944.843, 428.353 934.835, 509.107 999.000, 522.917 999.000, 428.582 "
fill = "none" stroke = "black"/>
</g>
<g>
<polygon points = "779.633, 141.970 762.861, 170.624 763.344, 181.549 805.091, 217.349 857.821, 201.891 877.282, 168.176 865.242, 149.205 812.130, 128.881 "
fill = "none" stroke = "black"/>
</g>
<g>
<polygon points = "409.891, 488.826 417.618, 480.511 420.685, 441.591 373.170, 417.195 360.567, 422.860 344.590, 463.824 360.360, 486.668 "
fill = "none" stroke = "black"/>
</g>
<g>
<polygon points = "742.262, 517.288 742.002, 475.627 721.751, 459.358 683.562, 460.997 656.711, 496.415 693.627, 544.632 707.015, 545.980 "
fill = "none" stroke = "black"/>
</g>
<g>
<polygon points = "340.092, 65.885 352.520, 83.184 421.591, 76.713 418.948, 1.000 349.308, 1.000 "
fill = "none" stroke = "black"/>
</g>
<g>
<polygon points = "157.364, 359.585 192.687, 359.013 214.667, 305.231 178.624, 287.755 142.109, 313.144 "
fill = "none" stroke = "black"/>
</g>
<g>
<polygon points = "91.538, 467.542 74.837, 477.411 54.463, 551.057 78.662, 568.930 133.803, 531.534 "
fill = "none" stroke = "black"/>
</g>
<g>
<polygon points = "745.767, 79.201 779.633, 141.970 812.130, 128.881 823.541, 66.411 793.721, 35.295 "
fill = "none" stroke = "black"/>
</g>
<g>
<polygon points = "550.864, 170.984 522.254, 182.711 515.691, 205.463 553.203, 251.872 592.722, 249.774 596.790, 200.511 "
fill = "none" stroke = "black"/>
</g>
<g>
<polygon points = "560.010, 868.919 579.449, 862.993 601.811, 793.651 542.551, 783.823 519.785, 833.527 "
fill = "none" stroke = "black"/>
</g>
<g>
<polygon points = "922.993, 783.791 919.902, 786.465 908.264, 848.916 999.000, 862.418 999.000, 797.784 "
fill = "none" stroke = "black"/>
</g>
<g>
<polygon points = "837.798, 372.553 824.501, 339.576 754.948, 322.596 736.454, 381.771 795.418, 406.984 "
fill = "none" stroke = "black"/>
</g>
<g>
<polygon points = "133.803, 531.534 78.662, 568.930 87.417, 597.132 150.435, 611.665 168.921, 543.400 165.315, 536.684 "
fill = "none" stroke = "black"/>
</g>
<g>
<polygon points = "491.591, 923.382 447.507, 940.712 440.489, 999.000 509.837, 999.000 "
fill = "none" stroke = "black"/>
</g>
<g>
<polygon points = "214.667, 305.231 235.730, 300.610 249.986, 255.912 206.809, 207.248 205.577, 207.123 168.029, 236.322 178.624, 287.755 "
fill = "none" stroke = "black"/>
</g>
<g>
<polygon points = "550.864, 170.984 568.067, 127.565 530.663, 85.314 513.301, 83.319 487.206, 148.418 522.254, 182.711 "
fill = "none" stroke = "black"/>
</g>
<g>
<polygon points = "829.389, 920.374 809.637, 883.474 731.658, 911.951 730.616, 917.077 786.006, 989.280 "
fill = "none" stroke = "black"/>
</g>
<g>
<polygon points = "576.784, 953.462 540.573, 911.983 492.972, 921.240 491.591, 923.382 509.837, 999.000 570.818, 999.000 "
fill = "none" stroke = "black"/>
</g>
<g>
<polygon points = "437.028, 429.772 420.685, 441.591 417.618, 480.511 484.308, 494.458 491.847, 485.412 488.158, 451.281 "
fill = "none" stroke = "black"/>
</g>
<g>
<polygon points = "321.978, 358.169 370.584, 347.598 375.906, 302.514 322.833, 284.351 297.048, 323.042 "
fill = "none" stroke = "black"/>
</g>
<g>
<polygon points = "672.920, 956.125 633.685, 920.368 576.784, 953.462 570.818, 999.000 672.717, 999.000 "
fill = "none" stroke = "black"/>
</g>
<g>
<polygon points = "726.692, 216.097 677.046, 213.718 659.221, 251.475 689.097, 296.949 741.759, 292.460 "
fill = "none" stroke = "black"/>
</g>
<g>
<polygon points = "249.836, 375.869 286.888, 404.864 311.559, 392.050 321.978, 358.169 297.048, 323.042 263.274, 324.632 "
fill = "none" stroke = "black"/>
</g>
<g>
<polygon points = "627.418, 581.723 609.805, 520.331 561.104, 524.761 541.617, 559.540 586.461, 603.121 "
fill = "none" stroke = "black"/>
</g>
<g>
<polygon points = "644.105, 335.297 603.348, 381.899 605.527, 394.943 630.817, 417.787 656.400, 418.065 688.926, 378.786 661.228, 334.996 "
fill = "none" stroke = "black"/>
</g>
<g>
<polygon points = "216.574, 385.067 192.687, 359.013 157.364, 359.585 141.246, 378.573 153.329, 413.360 181.936, 429.912 205.378, 421.376 "
fill = "none" stroke = "black"/>
</g>
<g>
<polygon points = "375.906, 302.514 400.337, 285.438 393.666, 236.515 350.983, 214.316 313.946, 231.092 309.874, 239.469 322.833, 284.351 "
fill = "none" stroke = "black"/>
</g>
<g>
<polygon points = "824.501, 339.576 842.615, 291.412 801.760, 258.133 741.930, 292.554 754.948, 322.596 "
fill = "none" stroke = "black"/>
</g>
<g>
<polygon points = "829.389, 920.374 895.989, 930.825 899.965, 926.240 904.251, 852.454 845.829, 841.086 811.341, 871.247 809.637, 883.474 "
fill = "none" stroke = "black"/>
</g>
<g>
<polygon points = "954.133, 723.749 930.847, 739.073 922.993, 783.791 999.000, 797.784 999.000, 730.489 "
fill = "none" stroke = "black"/>
</g>
<g>
<polygon points = "630.817, 417.787 605.527, 394.943 555.472, 431.800 562.264, 456.551 609.694, 467.819 "
fill = "none" stroke = "black"/>
</g>
<g>
<polygon points = "745.767, 79.201 692.243, 75.963 692.229, 75.978 691.955, 136.592 762.861, 170.624 779.633, 141.970 "
fill = "none" stroke = "black"/>
</g>
<g>
<polygon points = "254.801, 511.558 242.619, 554.632 298.439, 581.259 322.511, 538.644 285.980, 505.280 "
fill = "none" stroke = "black"/>
</g>
<g>
<polygon points = "656.400, 418.065 683.562, 460.997 721.751, 459.358 729.792, 385.152 688.926, 378.786 "
fill = "none" stroke = "black"/>
</g>
<g>
<polygon points = "409.891, 488.826 360.360, 486.668 343.548, 534.515 375.304, 558.358 415.357, 540.159 "
fill = "none" stroke = "black"/>
</g>
<g>
<polygon points = "360.567, 422.860 311.559, 392.050 286.888, 404.864 279.825, 432.637 305.055, 465.926 344.590, 463.824 "
fill = "none" stroke = "black"/>
</g>
<g>
<polygon points = "380.663, 861.438 407.444, 868.320 410.279, 866.598 433.697, 786.886 423.251, 775.536 379.796, 775.645 356.671, 828.231 "
fill = "none" stroke = "black"/>
</g>
<g>
<polygon points = "417.618, 480.511 409.891, 488.826 415.357, 540.159 440.729, 553.104 481.965, 524.184 484.308, 494.458 "
fill = "none" stroke = "black"/>
</g>
<g>
<polygon points = "748.754, 615.588 738.417, 689.569 756.590, 709.729 815.055, 674.226 819.065, 643.506 773.159, 609.886 "
fill = "none" stroke = "black"/>
</g>
<g>
<polygon points = "102.191, 947.121 79.812, 925.204 1.000, 937.294 1.000, 999.000 103.587, 999.000 "
fill = "none" stroke = "black"/>
</g>
<g>
<polygon points = "161.923, 870.642 165.011, 917.462 195.344, 939.742 247.021, 917.213 233.287, 852.694 182.109, 849.150 "
fill = "none" stroke = "black"/>
</g>
<g>
<polygon points = "94.478, 462.394 91.538, 467.542 133.803, 531.534 165.315, 536.684 182.143, 497.755 169.642, 472.296 "
fill = "none" stroke = "black"/>
</g>
<g>
<polygon points = "79.812, 925.204 83.337, 851.145 81.789, 848.859 1.000, 849.901 1.000, 937.294 "
fill = "none" stroke = "black"/>
</g>
<g>
<polygon points = "742.262, 517.288 707.015, 545.980 735.550, 609.418 748.754, 615.588 773.159, 609.886 802.751, 547.327 "
fill = "none" stroke = "black"/>
</g>
<g>
<polygon points = "86.519, 353.456 62.093, 354.493 38.464, 398.459 84.289, 428.671 110.716, 377.907 "
fill = "none" stroke = "black"/>
</g>
<g>
<polygon points = "815.055, 674.226 854.231, 717.252 884.368, 703.997 900.151, 662.120 857.095, 625.976 819.065, 643.506 "
fill = "none" stroke = "black"/>
</g>
<g>
<polygon points = "898.292, 62.344 889.468, 67.987 865.242, 149.205 877.282, 168.176 924.764, 170.092 932.375, 164.866 941.091, 87.207 "
fill = "none" stroke = "black"/>
</g>
<g>
<polygon points = "257.879, 121.340 183.809, 120.380 170.628, 145.371 205.577, 207.123 206.809, 207.248 269.782, 163.973 273.839, 145.895 "
fill = "none" stroke = "black"/>
</g>
<g>
<polygon points = "627.418, 581.723 586.461, 603.121 578.448, 632.124 609.823, 677.248 660.980, 670.249 671.042, 631.869 642.810, 585.205 "
fill = "none" stroke = "black"/>
</g>
<g>
<polygon points = "447.507, 940.712 491.591, 923.382 492.972, 921.240 472.324, 869.463 410.279, 866.598 407.444, 868.320 410.228, 922.692 "
fill = "none" stroke = "black"/>
</g>
<g>
<polygon points = "763.344, 181.549 726.692, 216.097 741.759, 292.460 741.930, 292.554 801.760, 258.133 805.091, 217.349 "
fill = "none" stroke = "black"/>
</g>
<g>
<polygon points = "447.507, 940.712 410.228, 922.692 382.736, 943.470 390.778, 999.000 440.489, 999.000 "
fill = "none" stroke = "black"/>
</g>
<g>
<polygon points = "908.264, 848.916 904.251, 852.454 899.965, 926.240 999.000, 922.744 999.000, 862.418 "
fill = "none" stroke = "black"/>
</g>
<g>
<polygon points = "157.364, 359.585 142.109, 313.144 112.721, 304.895 86.519, 353.456 110.716, 377.907 141.246, 378.573 "
fill = "none" stroke = "black"/>
</g>
<g>
<polygon points = "86.519, 353.456 112.721, 304.895 96.658, 279.711 60.103, 286.878 36.251, 324.157 62.093, 354.493 "
fill = "none" stroke = "black"/>
</g>
<g>
<polygon points = "375.906, 302.514 370.584, 347.598 389.555, 368.742 423.580, 366.796 445.942, 326.617 430.485, 295.411 400.337, 285.438 "
fill = "none" stroke = "black"/>
</g>
<circle cx="203.287" cy="461.700" r="1" stroke="red" stroke-width="1" fill="red" />
<circle cx="302.162" cy="948.789" r="1" stroke="red" stroke-width="1" fill="red" />
<circle cx="169.948" cy="735.618" r="1" stroke="red" stroke-width="1" fill="red" />
<circle cx="822.387" cy="596.403" r="1" stroke="red" stroke-width="1" fill="red" />
<circle cx="248.606" cy="751.194" r="1" stroke="red" stroke-width="1" fill="red" />
<circle cx="120.750" cy="411.672" r="1" stroke="red" stroke-width="1" fill="red" />
<circle cx="848.034" cy="102.051" r="1" stroke="red" stroke-width="1" fill="red" />
<circle cx="337.695" cy="793.449" r="1" stroke="red" stroke-width="1" fill="red" />
<circle cx="901.432" cy="219.280" r="1" stroke="red" stroke-width="1" fill="red" />
<circle cx="705.192" cy="177.944" r="1" stroke="red" stroke-width="1" fill="red" />
<circle cx="39.147" cy="598.332" r="1" stroke="red" stroke-width="1" fill="red" />
<circle cx="754.711" cy="429.068" r="1" stroke="red" stroke-width="1" fill="red" />
<circle cx="977.032" cy="693.255" r="1" stroke="red" stroke-width="1" fill="red" />
<circle cx="971.450" cy="382.185" r="1" stroke="red" stroke-width="1" fill="red" />
<circle cx="873.807" cy="806.831" r="1" stroke="red" stroke-width="1" fill="red" />
<circle cx="737.390" cy="768.194" r="1" stroke="red" stroke-width="1" fill="red" />
<circle cx="305.450" cy="30.413" r="1" stroke="red" stroke-width="1" fill="red" />
<circle cx="374.732" cy="649.486" r="1" stroke="red" stroke-width="1" fill="red" />
<circle cx="24.878" cy="360.880" r="1" stroke="red" stroke-width="1" fill="red" />
<circle cx="320.053" cy="176.321" r="1" stroke="red" stroke-width="1" fill="red" />
<circle cx="356.291" cy="972.032" r="1" stroke="red" stroke-width="1" fill="red" />
<circle cx="968.736" cy="126.284" r="1" stroke="red" stroke-width="1" fill="red" />
<circle cx="709.066" cy="339.107" r="1" stroke="red" stroke-width="1" fill="red" />
<circle cx="300.306" cy="645.258" r="1" stroke="red" stroke-width="1" fill="red" />
<circle cx="40.324" cy="805.297" r="1" stroke="red" stroke-width="1" fill="red" />
<circle cx="65.171" cy="180.913" r="1" stroke="red" stroke-width="1" fill="red" />
<circle cx="19.790" cy="133.373" r="1" stroke="red" stroke-width="1" fill="red" />
<circle cx="563.244" cy="289.830" r="1" stroke="red" stroke-width="1" fill="red" />
<circle cx="631.842" cy="219.065" r="1" stroke="red" stroke-width="1" fill="red" />
<circle cx="152.643" cy="964.279" r="1" stroke="red" stroke-width="1" fill="red" />
<circle cx="25.193" cy="287.337" r="1" stroke="red" stroke-width="1" fill="red" />
<circle cx="212.377" cy="29.884" r="1" stroke="red" stroke-width="1" fill="red" />
<circle cx="280.530" cy="285.324" r="1" stroke="red" stroke-width="1" fill="red" />
<circle cx="38.239" cy="25.854" r="1" stroke="red" stroke-width="1" fill="red" />
<circle cx="689.876" cy="591.382" r="1" stroke="red" stroke-width="1" fill="red" />
<circle cx="281.506" cy="800.528" r="1" stroke="red" stroke-width="1" fill="red" />
<circle cx="724.336" cy="968.789" r="1" stroke="red" stroke-width="1" fill="red" />
<circle cx="237.817" cy="964.672" r="1" stroke="red" stroke-width="1" fill="red" />
<circle cx="394.913" cy="732.508" r="1" stroke="red" stroke-width="1" fill="red" />
<circle cx="409.318" cy="579.755" r="1" stroke="red" stroke-width="1" fill="red" />
<circle cx="951.224" cy="40.424" r="1" stroke="red" stroke-width="1" fill="red" />
<circle cx="864.216" cy="529.851" r="1" stroke="red" stroke-width="1" fill="red" />
<circle cx="259.135" cy="592.601" r="1" stroke="red" stroke-width="1" fill="red" />
<circle cx="112.255" cy="638.538" r="1" stroke="red" stroke-width="1" fill="red" />
<circle cx="762.271" cy="869.863" r="1" stroke="red" stroke-width="1" fill="red" />
<circle cx="563.859" cy="393.443" r="1" stroke="red" stroke-width="1" fill="red" />
<circle cx="338.931" cy="575.439" r="1" stroke="red" stroke-width="1" fill="red" />
<circle cx="468.600" cy="751.083" r="1" stroke="red" stroke-width="1" fill="red" />
<circle cx="802.868" cy="764.843" r="1" stroke="red" stroke-width="1" fill="red" />
<circle cx="651.553" cy="120.686" r="1" stroke="red" stroke-width="1" fill="red" />
<circle cx="457.389" cy="38.872" r="1" stroke="red" stroke-width="1" fill="red" />
<circle cx="510.651" cy="394.077" r="1" stroke="red" stroke-width="1" fill="red" />
<circle cx="889.794" cy="746.055" r="1" stroke="red" stroke-width="1" fill="red" />
<circle cx="480.418" cy="564.139" r="1" stroke="red" stroke-width="1" fill="red" />
<circle cx="538.646" cy="35.971" r="1" stroke="red" stroke-width="1" fill="red" />
<circle cx="523.824" cy="340.715" r="1" stroke="red" stroke-width="1" fill="red" />
<circle cx="644.454" cy="38.954" r="1" stroke="red" stroke-width="1" fill="red" />
<circle cx="965.344" cy="206.385" r="1" stroke="red" stroke-width="1" fill="red" />
<circle cx="948.256" cy="960.787" r="1" stroke="red" stroke-width="1" fill="red" />
<circle cx="46.234" cy="74.838" r="1" stroke="red" stroke-width="1" fill="red" />
<circle cx="514.006" cy="249.568" r="1" stroke="red" stroke-width="1" fill="red" />
<circle cx="805.703" cy="822.482" r="1" stroke="red" stroke-width="1" fill="red" />
<circle cx="46.219" cy="698.133" r="1" stroke="red" stroke-width="1" fill="red" />
<circle cx="226.933" cy="645.000" r="1" stroke="red" stroke-width="1" fill="red" />
<circle cx="706.091" cy="723.149" r="1" stroke="red" stroke-width="1" fill="red" />
<circle cx="953.713" cy="555.328" r="1" stroke="red" stroke-width="1" fill="red" />
<circle cx="785.003" cy="497.538" r="1" stroke="red" stroke-width="1" fill="red" />
<circle cx="335.550" cy="861.753" r="1" stroke="red" stroke-width="1" fill="red" />
<circle cx="141.493" cy="275.918" r="1" stroke="red" stroke-width="1" fill="red" />
<circle cx="501.768" cy="795.841" r="1" stroke="red" stroke-width="1" fill="red" />
<circle cx="20.683" cy="215.045" r="1" stroke="red" stroke-width="1" fill="red" />
<circle cx="467.395" cy="111.191" r="1" stroke="red" stroke-width="1" fill="red" />
<circle cx="322.019" cy="716.873" r="1" stroke="red" stroke-width="1" fill="red" />
<circle cx="104.672" cy="758.485" r="1" stroke="red" stroke-width="1" fill="red" />
<circle cx="303.174" cy="98.982" r="1" stroke="red" stroke-width="1" fill="red" />
<circle cx="164.394" cy="670.588" r="1" stroke="red" stroke-width="1" fill="red" />
<circle cx="846.155" cy="964.679" r="1" stroke="red" stroke-width="1" fill="red" />
<circle cx="104.225" cy="234.554" r="1" stroke="red" stroke-width="1" fill="red" />
<circle cx="323.806" cy="498.372" r="1" stroke="red" stroke-width="1" fill="red" />
<circle cx="523.556" cy="454.671" r="1" stroke="red" stroke-width="1" fill="red" />
<circle cx="559.523" cy="676.288" r="1" stroke="red" stroke-width="1" fill="red" />
<circle cx="123.190" cy="36.442" r="1" stroke="red" stroke-width="1" fill="red" />
<circle cx="849.709" cy="31.982" r="1" stroke="red" stroke-width="1" fill="red" />
<circle cx="455.600" cy="633.729" r="1" stroke="red" stroke-width="1" fill="red" />
<circle cx="244.762" cy="412.474" r="1" stroke="red" stroke-width="1" fill="red" />
<circle cx="45.124" cy="437.860" r="1" stroke="red" stroke-width="1" fill="red" />
<circle cx="244.096" cy="698.841" r="1" stroke="red" stroke-width="1" fill="red" />
<circle cx="585.941" cy="907.356" r="1" stroke="red" stroke-width="1" fill="red" />
<circle cx="477.890" cy="691.479" r="1" stroke="red" stroke-width="1" fill="red" />
<circle cx="261.229" cy="215.027" r="1" stroke="red" stroke-width="1" fill="red" />
<circle cx="448.924" cy="834.511" r="1" stroke="red" stroke-width="1" fill="red" />
<circle cx="211.615" cy="810.340" r="1" stroke="red" stroke-width="1" fill="red" />
<circle cx="214.418" cy="524.314" r="1" stroke="red" stroke-width="1" fill="red" />
<circle cx="433.918" cy="252.428" r="1" stroke="red" stroke-width="1" fill="red" />
<circle cx="729.132" cy="828.463" r="1" stroke="red" stroke-width="1" fill="red" />
<circle cx="411.686" cy="403.224" r="1" stroke="red" stroke-width="1" fill="red" />
<circle cx="152.800" cy="191.154" r="1" stroke="red" stroke-width="1" fill="red" />
<circle cx="808.491" cy="715.776" r="1" stroke="red" stroke-width="1" fill="red" />
<circle cx="647.207" cy="537.940" r="1" stroke="red" stroke-width="1" fill="red" />
<circle cx="968.548" cy="629.327" r="1" stroke="red" stroke-width="1" fill="red" />
<circle cx="390.457" cy="118.475" r="1" stroke="red" stroke-width="1" fill="red" />
<circle cx="908.097" cy="466.942" r="1" stroke="red" stroke-width="1" fill="red" />
<circle cx="474.845" cy="188.737" r="1" stroke="red" stroke-width="1" fill="red" />
<circle cx="680.275" cy="903.687" r="1" stroke="red" stroke-width="1" fill="red" />
<circle cx="842.478" cy="246.263" r="1" stroke="red" stroke-width="1" fill="red" />
<circle cx="638.583" cy="718.527" r="1" stroke="red" stroke-width="1" fill="red" />
<circle cx="599.772" cy="340.914" r="1" stroke="red" stroke-width="1" fill="red" />
<circle cx="909.578" cy="384.216" r="1" stroke="red" stroke-width="1" fill="red" />
<circle cx="472.255" cy="419.475" r="1" stroke="red" stroke-width="1" fill="red" />
<circle cx="581.523" cy="490.180" r="1" stroke="red" stroke-width="1" fill="red" />
<circle cx="372.737" cy="905.851" r="1" stroke="red" stroke-width="1" fill="red" />
<circle cx="642.878" cy="290.626" r="1" stroke="red" stroke-width="1" fill="red" />
<circle cx="274.091" cy="877.159" r="1" stroke="red" stroke-width="1" fill="red" />
<circle cx="926.301" cy="697.680" r="1" stroke="red" stroke-width="1" fill="red" />
<circle cx="146.890" cy="445.341" r="1" stroke="red" stroke-width="1" fill="red" />
<circle cx="618.787" cy="841.483" r="1" stroke="red" stroke-width="1" fill="red" />
<circle cx="737.641" cy="36.056" r="1" stroke="red" stroke-width="1" fill="red" />
<circle cx="514.032" cy="874.901" r="1" stroke="red" stroke-width="1" fill="red" />
<circle cx="34.233" cy="505.667" r="1" stroke="red" stroke-width="1" fill="red" />
<circle cx="395.220" cy="193.261" r="1" stroke="red" stroke-width="1" fill="red" />
<circle cx="538.478" cy="605.458" r="1" stroke="red" stroke-width="1" fill="red" />
<circle cx="643.620" cy="455.878" r="1" stroke="red" stroke-width="1" fill="red" />
<circle cx="351.038" cy="382.716" r="1" stroke="red" stroke-width="1" fill="red" />
<circle cx="580.576" cy="87.968" r="1" stroke="red" stroke-width="1" fill="red" />
<circle cx="190.536" cy="587.752" r="1" stroke="red" stroke-width="1" fill="red" />
<circle cx="138.191" cy="827.983" r="1" stroke="red" stroke-width="1" fill="red" />
<circle cx="592.594" cy="161.073" r="1" stroke="red" stroke-width="1" fill="red" />
<circle cx="710.943" cy="651.915" r="1" stroke="red" stroke-width="1" fill="red" />
<circle cx="226.676" cy="347.072" r="1" stroke="red" stroke-width="1" fill="red" />
<circle cx="461.601" cy="362.012" r="1" stroke="red" stroke-width="1" fill="red" />
<circle cx="571.653" cy="752.827" r="1" stroke="red" stroke-width="1" fill="red" />
<circle cx="668.493" cy="809.033" r="1" stroke="red" stroke-width="1" fill="red" />
<circle cx="521.492" cy="518.148" r="1" stroke="red" stroke-width="1" fill="red" />
<circle cx="473.424" cy="299.363" r="1" stroke="red" stroke-width="1" fill="red" />
<circle cx="219.906" cy="88.029" r="1" stroke="red" stroke-width="1" fill="red" />
<circle cx="75.413" cy="127.209" r="1" stroke="red" stroke-width="1" fill="red" />
<circle cx="901.994" cy="618.019" r="1" stroke="red" stroke-width="1" fill="red" />
<circle cx="955.250" cy="293.615" r="1" stroke="red" stroke-width="1" fill="red" />
<circle cx="869.965" cy="327.336" r="1" stroke="red" stroke-width="1" fill="red" />
<circle cx="267.969" cy="471.307" r="1" stroke="red" stroke-width="1" fill="red" />
<circle cx="121.003" cy="897.261" r="1" stroke="red" stroke-width="1" fill="red" />
<circle cx="836.669" cy="428.033" r="1" stroke="red" stroke-width="1" fill="red" />
<circle cx="61.221" cy="251.983" r="1" stroke="red" stroke-width="1" fill="red" />
<circle cx="136.443" cy="110.082" r="1" stroke="red" stroke-width="1" fill="red" />
<circle cx="384.262" cy="456.637" r="1" stroke="red" stroke-width="1" fill="red" />
<circle cx="971.058" cy="474.745" r="1" stroke="red" stroke-width="1" fill="red" />
<circle cx="820.951" cy="172.826" r="1" stroke="red" stroke-width="1" fill="red" />
<circle cx="699.277" cy="498.073" r="1" stroke="red" stroke-width="1" fill="red" />
<circle cx="383.241" cy="41.461" r="1" stroke="red" stroke-width="1" fill="red" />
<circle cx="176.791" cy="326.684" r="1" stroke="red" stroke-width="1" fill="red" />
<circle cx="95.145" cy="522.518" r="1" stroke="red" stroke-width="1" fill="red" />
<circle cx="788.030" cy="91.091" r="1" stroke="red" stroke-width="1" fill="red" />
<circle cx="559.169" cy="213.064" r="1" stroke="red" stroke-width="1" fill="red" />
<circle cx="560.089" cy="822.554" r="1" stroke="red" stroke-width="1" fill="red" />
<circle cx="955.567" cy="822.067" r="1" stroke="red" stroke-width="1" fill="red" />
<circle cx="783.263" cy="362.296" r="1" stroke="red" stroke-width="1" fill="red" />
<circle cx="127.880" cy="570.785" r="1" stroke="red" stroke-width="1" fill="red" />
<circle cx="208.054" cy="262.207" r="1" stroke="red" stroke-width="1" fill="red" />
<circle cx="472.547" cy="970.141" r="1" stroke="red" stroke-width="1" fill="red" />
<circle cx="527.246" cy="135.182" r="1" stroke="red" stroke-width="1" fill="red" />
<circle cx="782.189" cy="924.407" r="1" stroke="red" stroke-width="1" fill="red" />
<circle cx="338.218" cy="323.770" r="1" stroke="red" stroke-width="1" fill="red" />
<circle cx="454.301" cy="462.155" r="1" stroke="red" stroke-width="1" fill="red" />
<circle cx="529.863" cy="956.310" r="1" stroke="red" stroke-width="1" fill="red" />
<circle cx="621.387" cy="968.301" r="1" stroke="red" stroke-width="1" fill="red" />
<circle cx="701.644" cy="252.019" r="1" stroke="red" stroke-width="1" fill="red" />
<circle cx="587.427" cy="555.091" r="1" stroke="red" stroke-width="1" fill="red" />
<circle cx="284.147" cy="362.145" r="1" stroke="red" stroke-width="1" fill="red" />
<circle cx="644.445" cy="379.982" r="1" stroke="red" stroke-width="1" fill="red" />
<circle cx="359.144" cy="262.624" r="1" stroke="red" stroke-width="1" fill="red" />
<circle cx="177.847" cy="391.839" r="1" stroke="red" stroke-width="1" fill="red" />
<circle cx="798.371" cy="300.410" r="1" stroke="red" stroke-width="1" fill="red" />
<circle cx="858.921" cy="883.333" r="1" stroke="red" stroke-width="1" fill="red" />
<circle cx="594.589" cy="435.177" r="1" stroke="red" stroke-width="1" fill="red" />
<circle cx="732.498" cy="121.052" r="1" stroke="red" stroke-width="1" fill="red" />
<circle cx="967.063" cy="759.625" r="1" stroke="red" stroke-width="1" fill="red" />
<circle cx="282.521" cy="543.575" r="1" stroke="red" stroke-width="1" fill="red" />
<circle cx="443.871" cy="512.030" r="1" stroke="red" stroke-width="1" fill="red" />
<circle cx="696.044" cy="422.711" r="1" stroke="red" stroke-width="1" fill="red" />
<circle cx="381.559" cy="518.664" r="1" stroke="red" stroke-width="1" fill="red" />
<circle cx="320.260" cy="431.674" r="1" stroke="red" stroke-width="1" fill="red" />
<circle cx="395.130" cy="818.707" r="1" stroke="red" stroke-width="1" fill="red" />
<circle cx="775.161" cy="660.888" r="1" stroke="red" stroke-width="1" fill="red" />
<circle cx="205.984" cy="891.656" r="1" stroke="red" stroke-width="1" fill="red" />
<circle cx="52.735" cy="966.969" r="1" stroke="red" stroke-width="1" fill="red" />
<circle cx="140.685" cy="492.439" r="1" stroke="red" stroke-width="1" fill="red" />
<circle cx="41.461" cy="893.475" r="1" stroke="red" stroke-width="1" fill="red" />
<circle cx="752.357" cy="563.277" r="1" stroke="red" stroke-width="1" fill="red" />
<circle cx="77.301" cy="389.053" r="1" stroke="red" stroke-width="1" fill="red" />
<circle cx="857.036" cy="671.575" r="1" stroke="red" stroke-width="1" fill="red" />
<circle cx="905.471" cy="119.183" r="1" stroke="red" stroke-width="1" fill="red" />
<circle cx="219.056" cy="153.656" r="1" stroke="red" stroke-width="1" fill="red" />
<circle cx="626.438" cy="629.761" r="1" stroke="red" stroke-width="1" fill="red" />
<circle cx="445.803" cy="902.109" r="1" stroke="red" stroke-width="1" fill="red" />
<circle cx="763.507" cy="239.812" r="1" stroke="red" stroke-width="1" fill="red" />
<circle cx="416.197" cy="963.357" r="1" stroke="red" stroke-width="1" fill="red" />
<circle cx="945.701" cy="888.374" r="1" stroke="red" stroke-width="1" fill="red" />
<circle cx="122.212" cy="344.612" r="1" stroke="red" stroke-width="1" fill="red" />
<circle cx="74.315" cy="318.768" r="1" stroke="red" stroke-width="1" fill="red" />
<circle cx="407.609" cy="331.961" r="1" stroke="red" stroke-width="1" fill="red" />
</svg>
