<svg xmlns = "http://www.w3.org/2000/svg" width = "1000" height = "1000">
<g>
<polygon points = ""
fill = "none" stroke = "black"/>
</g>
<g>
<polygon points = ""
fill = "none" stroke = "black"/>
</g>
<g>
<polygon points = ""
fill = "none" stroke = "black"/>
</g>
<g>
<polygon points = ""
fill = "none" stroke = "black"/>
</g>
<g>
<polygon points = ""
fill = "none" stroke = "black"/>
</g>
<g>
<polygon points = "563.964, 451.069 456.370, 373.636 419.596, 403.729 360.139, 475.169 360.598, 486.011 558.778, 465.087 "
fill = "none" stroke = "black"/>
</g>
<g>
<polygon points = "211.505, 256.555 242.268, 287.118 437.851, 293.107 442.559, 281.313 338.363, 1.000 227.111, 1.000 "
fill = "none" stroke = "black"/>
</g>
<g>
<polygon points = ""
fill = "none" stroke = "black"/>
</g>
<g>
<polygon points = ""
fill = "none" stroke = "black"/>
</g>
<g>
<polygon points = ""
fill = "none" stroke = "black"/>
</g>
<g>
<polygon points = ""
fill = "none" stroke = "black"/>
</g>
<g>
<polygon points = "753.608, 125.442 779.676, 279.127 856.314, 341.122 999.000, 300.282 999.000, 1.000 906.109, 1.000 "
fill = "none" stroke = "black"/>
</g>
<g>
<polygon points = ""
fill = "none" stroke = "black"/>
</g>
<g>
<polygon points = ""
fill = "none" stroke = "black"/>
</g>
<g>
<polygon points = ""
fill = "none" stroke = "black"/>
</g>
<g>
<polygon points = "447.917, 818.680 377.702, 753.064 272.711, 743.927 133.740, 999.000 440.028, 999.000 "
fill = "none" stroke = "black"/>
</g>
<g>
<polygon points = "38.557, 400.277 216.088, 497.050 285.744, 407.452 242.268, 287.118 211.505, 256.555 84.942, 258.306 "
fill = "none" stroke = "black"/>
</g>
<g>
<polygon points = ""
fill = "none" stroke = "black"/>
</g>
<g>
<polygon points = "763.172, 392.873 852.407, 348.460 856.314, 341.122 779.676, 279.127 665.639, 395.456 "
fill = "none" stroke = "black"/>
</g>
<g>
<polygon points = "293.669, 588.106 282.547, 608.246 281.077, 614.557 281.879, 617.904 383.784, 715.149 614.581, 665.257 622.437, 647.378 558.778, 465.087 360.598, 486.011 "
fill = "none" stroke = "black"/>
</g>
<g>
<polygon points = ""
fill = "none" stroke = "black"/>
</g>
<g>
<polygon points = ""
fill = "none" stroke = "black"/>
</g>
<g>
<polygon points = ""
fill = "none" stroke = "black"/>
</g>
<g>
<polygon points = "852.407, 348.460 763.172, 392.873 693.036, 633.246 871.715, 649.337 871.813, 649.209 880.226, 634.094 "
fill = "none" stroke = "black"/>
</g>
<g>
<polygon points = ""
fill = "none" stroke = "black"/>
</g>
<g>
<polygon points = ""
fill = "none" stroke = "black"/>
</g>
<g>
<polygon points = ""
fill = "none" stroke = "black"/>
</g>
<g>
<polygon points = ""
fill = "none" stroke = "black"/>
</g>
<g>
<polygon points = ""
fill = "none" stroke = "black"/>
</g>
<g>
<polygon points = ""
fill = "none" stroke = "black"/>
</g>
<g>
<polygon points = ""
fill = "none" stroke = "black"/>
</g>
<g>
<polygon points = ""
fill = "none" stroke = "black"/>
</g>
<g>
<polygon points = "441.895, 320.320 437.851, 293.107 242.268, 287.118 285.744, 407.452 314.843, 444.312 360.139, 475.169 419.596, 403.729 "
fill = "none" stroke = "black"/>
</g>
<g>
<polygon points = ""
fill = "none" stroke = "black"/>
</g>
<g>
<polygon points = ""
fill = "none" stroke = "black"/>
</g>
<g>
<polygon points = ""
fill = "none" stroke = "black"/>
</g>
<g>
<polygon points = ""
fill = "none" stroke = "black"/>
</g>
<g>
<polygon points = ""
fill = "none" stroke = "black"/>
</g>
<g>
<polygon points = ""
fill = "none" stroke = "black"/>
</g>
<g>
<polygon points = ""
fill = "none" stroke = "black"/>
</g>
<g>
<polygon points = ""
fill = "none" stroke = "black"/>
</g>
<g>
<polygon points = "826.431, 955.197 733.139, 938.425 720.450, 999.000 865.611, 999.000 "
fill = "none" stroke = "black"/>
</g>
<g>
<polygon points = ""
fill = "none" stroke = "black"/>
</g>
<g>
<polygon points = ""
fill = "none" stroke = "black"/>
</g>
<g>
<polygon points = ""
fill = "none" stroke = "black"/>
</g>
<g>
<polygon points = "888.926, 636.116 880.226, 634.094 871.813, 649.209 "
fill = "none" stroke = "black"/>
</g>
<g>
<polygon points = ""
fill = "none" stroke = "black"/>
</g>
<g>
<polygon points = "626.908, 729.318 804.500, 867.899 881.698, 712.325 871.715, 649.337 693.036, 633.246 634.490, 647.645 620.527, 685.928 "
fill = "none" stroke = "black"/>
</g>
<g>
<polygon points = ""
fill = "none" stroke = "black"/>
</g>
<g>
<polygon points = ""
fill = "none" stroke = "black"/>
</g>
<g>
<polygon points = "856.314, 341.122 852.407, 348.460 880.226, 634.094 888.926, 636.116 999.000, 614.514 999.000, 300.282 "
fill = "none" stroke = "black"/>
</g>
<g>
<polygon points = "888.926, 636.116 871.813, 649.209 871.715, 649.337 881.698, 712.325 999.000, 836.822 999.000, 614.514 "
fill = "none" stroke = "black"/>
</g>
<g>
<polygon points = ""
fill = "none" stroke = "black"/>
</g>
<g>
<polygon points = ""
fill = "none" stroke = "black"/>
</g>
<g>
<polygon points = ""
fill = "none" stroke = "black"/>
</g>
<g>
<polygon points = ""
fill = "none" stroke = "black"/>
</g>
<g>
<polygon points = "620.527, 685.928 634.490, 647.645 622.437, 647.378 614.581, 665.257 "
fill = "none" stroke = "black"/>
</g>
<g>
<polygon points = ""
fill = "none" stroke = "black"/>
</g>
<g>
<polygon points = ""
fill = "none" stroke = "black"/>
</g>
<g>
<polygon points = ""
fill = "none" stroke = "black"/>
</g>
<g>
<polygon points = "733.139, 938.425 598.357, 796.534 447.917, 818.680 440.028, 999.000 720.450, 999.000 "
fill = "none" stroke = "black"/>
</g>
<g>
<polygon points = "442.559, 281.313 647.219, 71.352 621.359, 1.000 338.363, 1.000 "
fill = "none" stroke = "black"/>
</g>
<g>
<polygon points = ""
fill = "none" stroke = "black"/>
</g>
<g>
<polygon points = ""
fill = "none" stroke = "black"/>
</g>
<g>
<polygon points = ""
fill = "none" stroke = "black"/>
</g>
<g>
<polygon points = "647.219, 71.352 753.608, 125.442 906.109, 1.000 621.359, 1.000 "
fill = "none" stroke = "black"/>
</g>
<g>
<polygon points = ""
fill = "none" stroke = "black"/>
</g>
<g>
<polygon points = "314.843, 444.312 293.669, 588.106 360.598, 486.011 360.139, 475.169 "
fill = "none" stroke = "black"/>
</g>
<g>
<polygon points = ""
fill = "none" stroke = "black"/>
</g>
<g>
<polygon points = "314.843, 444.312 285.744, 407.452 216.088, 497.050 282.547, 608.246 293.669, 588.106 "
fill = "none" stroke = "black"/>
</g>
<g>
<polygon points = ""
fill = "none" stroke = "black"/>
</g>
<g>
<polygon points = "881.698, 712.325 804.500, 867.899 826.431, 955.197 865.611, 999.000 999.000, 999.000 999.000, 836.822 "
fill = "none" stroke = "black"/>
</g>
<g>
<polygon points = "41.187, 624.979 130.008, 632.857 281.077, 614.557 282.547, 608.246 216.088, 497.050 38.557, 400.277 1.000, 415.428 1.000, 611.406 "
fill = "none" stroke = "black"/>
</g>
<g>
<polygon points = "1.000, 202.386 84.942, 258.306 211.505, 256.555 227.111, 1.000 1.000, 1.000 "
fill = "none" stroke = "black"/>
</g>
<g>
<polygon points = ""
fill = "none" stroke = "black"/>
</g>
<g>
<polygon points = "272.711, 743.927 269.982, 722.818 130.008, 632.857 41.187, 624.979 1.000, 643.990 1.000, 999.000 133.740, 999.000 "
fill = "none" stroke = "black"/>
</g>
<g>
<polygon points = ""
fill = "none" stroke = "black"/>
</g>
<g>
<polygon points = ""
fill = "none" stroke = "black"/>
</g>
<g>
<polygon points = ""
fill = "none" stroke = "black"/>
</g>
<g>
<polygon points = "665.639, 395.456 779.676, 279.127 753.608, 125.442 647.219, 71.352 442.559, 281.313 437.851, 293.107 441.895, 320.320 456.370, 373.636 563.964, 451.069 "
fill = "none" stroke = "black"/>
</g>
<g>
<polygon points = ""
fill = "none" stroke = "black"/>
</g>
<g>
<polygon points = "598.357, 796.534 733.139, 938.425 826.431, 955.197 804.500, 867.899 626.908, 729.318 "
fill = "none" stroke = "black"/>
</g>
<g>
<polygon points = "634.490, 647.645 693.036, 633.246 763.172, 392.873 665.639, 395.456 563.964, 451.069 558.778, 465.087 622.437, 647.378 "
fill = "none" stroke = "black"/>
</g>
<g>
<polygon points = "598.357, 796.534 626.908, 729.318 620.527, 685.928 614.581, 665.257 383.784, 715.149 377.702, 753.064 447.917, 818.680 "
fill = "none" stroke = "black"/>
</g>
<g>
<polygon points = ""
fill = "none" stroke = "black"/>
</g>
<g>
<polygon points = "441.895, 320.320 419.596, 403.729 456.370, 373.636 "
fill = "none" stroke = "black"/>
</g>
<g>
<polygon points = ""
fill = "none" stroke = "black"/>
</g>
<g>
<polygon points = "41.187, 624.979 1.000, 611.406 1.000, 643.990 "
fill = "none" stroke = "black"/>
</g>
<g>
<polygon points = "1.000, 202.386 1.000, 415.428 38.557, 400.277 84.942, 258.306 "
fill = "none" stroke = "black"/>
</g>
<g>
<polygon points = ""
fill = "none" stroke = "black"/>
</g>
<g>
<polygon points = ""
fill = "none" stroke = "black"/>
</g>
<g>
<polygon points = ""
fill = "none" stroke = "black"/>
</g>
<g>
<polygon points = ""
fill = "none" stroke = "black"/>
</g>
<g>
<polygon points = "269.982, 722.818 281.879, 617.904 281.077, 614.557 130.008, 632.857 "
fill = "none" stroke = "black"/>
</g>
<g>
<polygon points = "269.982, 722.818 272.711, 743.927 377.702, 753.064 383.784, 715.149 281.879, 617.904 "
fill = "none" stroke = "black"/>
</g>
<g>
<polygon points = ""
fill = "none" stroke = "black"/>
</g>
<g>
<polygon points = ""
fill = "none" stroke = "black"/>
</g>
<g>
<polygon points = ""
fill = "none" stroke = "black"/>
</g>
<g>
<polygon points = ""
fill = "none" stroke = "black"/>
</g>
<g>
<polygon points = ""
fill = "none" stroke = "black"/>
</g>
<circle cx="600.108" cy="298.053" r="1" stroke="red" stroke-width="1" fill="red" />
<circle cx="282.181" cy="752.754" r="1" stroke="red" stroke-width="1" fill="red" />
<circle cx="436.224" cy="829.906" r="1" stroke="red" stroke-width="1" fill="red" />
<circle cx="696.848" cy="295.354" r="1" stroke="red" stroke-width="1" fill="red" />
<circle cx="157.681" cy="452.934" r="1" stroke="red" stroke-width="1" fill="red" />
<circle cx="474.198" cy="438.398" r="1" stroke="red" stroke-width="1" fill="red" />
<circle cx="347.001" cy="202.263" r="1" stroke="red" stroke-width="1" fill="red" />
<circle cx="564.853" cy="181.347" r="1" stroke="red" stroke-width="1" fill="red" />
<circle cx="63.579" cy="688.203" r="1" stroke="red" stroke-width="1" fill="red" />
<circle cx="879.828" cy="583.957" r="1" stroke="red" stroke-width="1" fill="red" />
<circle cx="78.728" cy="560.344" r="1" stroke="red" stroke-width="1" fill="red" />
<circle cx="831.647" cy="251.361" r="1" stroke="red" stroke-width="1" fill="red" />
<circle cx="183.932" cy="329.646" r="1" stroke="red" stroke-width="1" fill="red" />
<circle cx="209.314" cy="609.097" r="1" stroke="red" stroke-width="1" fill="red" />
<circle cx="292.918" cy="949.089" r="1" stroke="red" stroke-width="1" fill="red" />
<circle cx="359.989" cy="912.628" r="1" stroke="red" stroke-width="1" fill="red" />
<circle cx="152.294" cy="398.242" r="1" stroke="red" stroke-width="1" fill="red" />
<circle cx="839.291" cy="460.213" r="1" stroke="red" stroke-width="1" fill="red" />
<circle cx="699.960" cy="414.150" r="1" stroke="red" stroke-width="1" fill="red" />
<circle cx="490.942" cy="596.992" r="1" stroke="red" stroke-width="1" fill="red" />
<circle cx="94.925" cy="717.890" r="1" stroke="red" stroke-width="1" fill="red" />
<circle cx="700.368" cy="827.173" r="1" stroke="red" stroke-width="1" fill="red" />
<circle cx="652.948" cy="616.905" r="1" stroke="red" stroke-width="1" fill="red" />
<circle cx="762.845" cy="540.500" r="1" stroke="red" stroke-width="1" fill="red" />
<circle cx="263.703" cy="786.613" r="1" stroke="red" stroke-width="1" fill="red" />
<circle cx="155.742" cy="461.185" r="1" stroke="red" stroke-width="1" fill="red" />
<circle cx="606.570" cy="934.364" r="1" stroke="red" stroke-width="1" fill="red" />
<circle cx="188.842" cy="683.187" r="1" stroke="red" stroke-width="1" fill="red" />
<circle cx="669.199" cy="800.700" r="1" stroke="red" stroke-width="1" fill="red" />
<circle cx="192.940" cy="267.643" r="1" stroke="red" stroke-width="1" fill="red" />
<circle cx="203.325" cy="380.155" r="1" stroke="red" stroke-width="1" fill="red" />
<circle cx="71.258" cy="373.538" r="1" stroke="red" stroke-width="1" fill="red" />
<circle cx="343.111" cy="329.300" r="1" stroke="red" stroke-width="1" fill="red" />
<circle cx="267.856" cy="474.293" r="1" stroke="red" stroke-width="1" fill="red" />
<circle cx="222.826" cy="624.604" r="1" stroke="red" stroke-width="1" fill="red" />
<circle cx="490.028" cy="477.993" r="1" stroke="red" stroke-width="1" fill="red" />
<circle cx="546.539" cy="960.994" r="1" stroke="red" stroke-width="1" fill="red" />
<circle cx="828.712" cy="814.571" r="1" stroke="red" stroke-width="1" fill="red" />
<circle cx="441.233" cy="696.650" r="1" stroke="red" stroke-width="1" fill="red" />
<circle cx="223.747" cy="535.290" r="1" stroke="red" stroke-width="1" fill="red" />
<circle cx="257.377" cy="904.171" r="1" stroke="red" stroke-width="1" fill="red" />
<circle cx="647.279" cy="941.575" r="1" stroke="red" stroke-width="1" fill="red" />
<circle cx="237.109" cy="317.319" r="1" stroke="red" stroke-width="1" fill="red" />
<circle cx="130.842" cy="259.665" r="1" stroke="red" stroke-width="1" fill="red" />
<circle cx="460.463" cy="751.462" r="1" stroke="red" stroke-width="1" fill="red" />
<circle cx="890.455" cy="611.533" r="1" stroke="red" stroke-width="1" fill="red" />
<circle cx="142.136" cy="391.863" r="1" stroke="red" stroke-width="1" fill="red" />
<circle cx="747.917" cy="706.265" r="1" stroke="red" stroke-width="1" fill="red" />
<circle cx="204.861" cy="464.894" r="1" stroke="red" stroke-width="1" fill="red" />
<circle cx="77.706" cy="575.041" r="1" stroke="red" stroke-width="1" fill="red" />
<circle cx="910.295" cy="526.139" r="1" stroke="red" stroke-width="1" fill="red" />
<circle cx="939.679" cy="675.870" r="1" stroke="red" stroke-width="1" fill="red" />
<circle cx="75.154" cy="681.486" r="1" stroke="red" stroke-width="1" fill="red" />
<circle cx="432.000" cy="861.441" r="1" stroke="red" stroke-width="1" fill="red" />
<circle cx="550.999" cy="610.824" r="1" stroke="red" stroke-width="1" fill="red" />
<circle cx="211.690" cy="285.561" r="1" stroke="red" stroke-width="1" fill="red" />
<circle cx="699.184" cy="688.491" r="1" stroke="red" stroke-width="1" fill="red" />
<circle cx="401.297" cy="253.794" r="1" stroke="red" stroke-width="1" fill="red" />
<circle cx="231.357" cy="179.976" r="1" stroke="red" stroke-width="1" fill="red" />
<circle cx="220.494" cy="349.089" r="1" stroke="red" stroke-width="1" fill="red" />
<circle cx="548.450" cy="920.873" r="1" stroke="red" stroke-width="1" fill="red" />
<circle cx="445.657" cy="165.591" r="1" stroke="red" stroke-width="1" fill="red" />
<circle cx="663.941" cy="827.537" r="1" stroke="red" stroke-width="1" fill="red" />
<circle cx="300.629" cy="753.149" r="1" stroke="red" stroke-width="1" fill="red" />
<circle cx="420.485" cy="551.667" r="1" stroke="red" stroke-width="1" fill="red" />
<circle cx="688.744" cy="76.237" r="1" stroke="red" stroke-width="1" fill="red" />
<circle cx="106.645" cy="317.451" r="1" stroke="red" stroke-width="1" fill="red" />
<circle cx="262.688" cy="447.356" r="1" stroke="red" stroke-width="1" fill="red" />
<circle cx="72.104" cy="416.446" r="1" stroke="red" stroke-width="1" fill="red" />
<circle cx="204.435" cy="438.778" r="1" stroke="red" stroke-width="1" fill="red" />
<circle cx="83.677" cy="665.575" r="1" stroke="red" stroke-width="1" fill="red" />
<circle cx="852.396" cy="758.109" r="1" stroke="red" stroke-width="1" fill="red" />
<circle cx="94.323" cy="504.589" r="1" stroke="red" stroke-width="1" fill="red" />
<circle cx="149.415" cy="190.197" r="1" stroke="red" stroke-width="1" fill="red" />
<circle cx="276.251" cy="562.199" r="1" stroke="red" stroke-width="1" fill="red" />
<circle cx="72.048" cy="755.750" r="1" stroke="red" stroke-width="1" fill="red" />
<circle cx="876.951" cy="473.713" r="1" stroke="red" stroke-width="1" fill="red" />
<circle cx="419.132" cy="581.351" r="1" stroke="red" stroke-width="1" fill="red" />
<circle cx="309.456" cy="47.107" r="1" stroke="red" stroke-width="1" fill="red" />
<circle cx="577.819" cy="294.415" r="1" stroke="red" stroke-width="1" fill="red" />
<circle cx="616.806" cy="844.507" r="1" stroke="red" stroke-width="1" fill="red" />
<circle cx="672.120" cy="803.398" r="1" stroke="red" stroke-width="1" fill="red" />
<circle cx="702.843" cy="522.993" r="1" stroke="red" stroke-width="1" fill="red" />
<circle cx="521.755" cy="739.527" r="1" stroke="red" stroke-width="1" fill="red" />
<circle cx="686.669" cy="730.451" r="1" stroke="red" stroke-width="1" fill="red" />
<circle cx="396.628" cy="343.608" r="1" stroke="red" stroke-width="1" fill="red" />
<circle cx="557.956" cy="249.658" r="1" stroke="red" stroke-width="1" fill="red" />
<circle cx="35.551" cy="678.599" r="1" stroke="red" stroke-width="1" fill="red" />
<circle cx="36.108" cy="360.282" r="1" stroke="red" stroke-width="1" fill="red" />
<circle cx="559.173" cy="381.036" r="1" stroke="red" stroke-width="1" fill="red" />
<circle cx="732.083" cy="627.022" r="1" stroke="red" stroke-width="1" fill="red" />
<circle cx="469.744" cy="124.914" r="1" stroke="red" stroke-width="1" fill="red" />
<circle cx="271.963" cy="226.633" r="1" stroke="red" stroke-width="1" fill="red" />
<circle cx="116.391" cy="686.755" r="1" stroke="red" stroke-width="1" fill="red" />
<circle cx="377.074" cy="716.317" r="1" stroke="red" stroke-width="1" fill="red" />
<circle cx="323.550" cy="858.625" r="1" stroke="red" stroke-width="1" fill="red" />
<circle cx="241.541" cy="837.584" r="1" stroke="red" stroke-width="1" fill="red" />
<circle cx="529.878" cy="82.354" r="1" stroke="red" stroke-width="1" fill="red" />
<circle cx="479.582" cy="853.778" r="1" stroke="red" stroke-width="1" fill="red" />
<circle cx="987.809" cy="535.856" r="1" stroke="red" stroke-width="1" fill="red" />
</svg>
