<svg xmlns = "http://www.w3.org/2000/svg" width = "1000" height = "1000">
<g>
<polygon points = "1.000, 751.000 1.000, 999.000 92.333, 999.000 155.000, 905.000 "
fill = "none" stroke = "black"/>
</g>
<g>
<polygon points = "263.462, 832.692 155.000, 905.000 92.333, 999.000 374.333, 999.000 "
fill = "none" stroke = "black"/>
</g>
<g>
<polygon points = "281.667, 741.667 263.462, 832.692 374.333, 999.000 999.000, 999.000 999.000, 741.667 "
fill = "none" stroke = "black"/>
</g>
<g>
<polygon points = "267.857, 703.571 275.000, 725.000 281.667, 741.667 999.000, 741.667 999.000, 1.000 443.500, 1.000 "
fill = "none" stroke = "black"/>
</g>
<g>
<polygon points = ""
fill = "none" stroke = "black"/>
</g>
<g>
<polygon points = "265.000, 705.000 275.000, 725.000 267.857, 703.571 "
fill = "none" stroke = "black"/>
</g>
<g>
<polygon points = "1.000, 588.000 175.000, 675.000 265.000, 705.000 267.857, 703.571 443.500, 1.000 1.000, 1.000 "
fill = "none" stroke = "black"/>
</g>
<g>
<polygon points = "175.000, 675.000 1.000, 588.000 1.000, 675.000 "
fill = "none" stroke = "black"/>
</g>
<g>
<polygon points = "275.000, 725.000 265.000, 705.000 175.000, 675.000 1.000, 675.000 1.000, 751.000 155.000, 905.000 263.462, 832.692 281.667, 741.667 "
fill = "none" stroke = "black"/>
</g>
<g>
<polygon points = "50.000, 850.000 200.000, 950.000 350.000, 850.000 350.000, 700.000 250.000, 700.000 200.000, 750.000 150.000, 650.000 100.000, 750.000 100.000, 800.000 "
fill = "none" stroke = "black"/>
</g>
</svg>
