<svg xmlns = "http://www.w3.org/2000/svg" width = "1000" height = "1000">
<g>
<polygon points = "930.208, 110.127 952.005, 116.142 963.855, 101.513 941.022, 68.421 "
fill = "none" stroke = "black"/>
</g>
<g>
<polygon points = "915.089, 330.190 895.547, 313.600 840.097, 331.393 828.171, 355.739 847.234, 374.759 901.559, 344.174 "
fill = "none" stroke = "black"/>
</g>
<g>
<polygon points = "655.585, 803.319 686.257, 776.388 681.109, 719.812 639.255, 753.815 639.329, 799.122 "
fill = "none" stroke = "black"/>
</g>
<g>
<polygon points = "318.309, 309.248 312.000, 259.072 282.579, 257.485 238.582, 291.285 251.262, 332.755 289.044, 340.604 "
fill = "none" stroke = "black"/>
</g>
<g>
<polygon points = "745.917, 990.668 687.511, 975.791 651.781, 999.000 753.281, 999.000 "
fill = "none" stroke = "black"/>
</g>
<g>
<polygon points = "525.969, 377.491 460.791, 371.048 459.092, 372.326 471.568, 455.459 500.916, 446.142 "
fill = "none" stroke = "black"/>
</g>
<g>
<polygon points = "101.932, 435.490 93.431, 447.712 85.409, 535.028 134.313, 517.907 143.704, 485.132 123.509, 450.117 105.797, 436.525 "
fill = "none" stroke = "black"/>
</g>
<g>
<polygon points = "609.188, 712.578 574.719, 665.910 526.938, 702.769 522.771, 753.686 537.779, 762.135 571.022, 758.034 596.836, 735.622 "
fill = "none" stroke = "black"/>
</g>
<g>
<polygon points = "438.950, 952.866 404.782, 931.506 391.383, 935.983 356.954, 995.754 357.358, 999.000 414.062, 999.000 "
fill = "none" stroke = "black"/>
</g>
<g>
<polygon points = "286.925, 889.021 300.700, 912.081 336.268, 895.734 321.921, 875.139 320.845, 874.908 "
fill = "none" stroke = "black"/>
</g>
<g>
<polygon points = "346.179, 368.804 397.853, 424.470 427.708, 370.778 403.387, 352.261 385.504, 347.853 "
fill = "none" stroke = "black"/>
</g>
<g>
<polygon points = "822.357, 356.905 814.505, 399.963 817.854, 401.570 846.512, 394.443 847.234, 374.759 828.171, 355.739 "
fill = "none" stroke = "black"/>
</g>
<g>
<polygon points = "455.857, 477.723 475.572, 525.181 482.502, 527.772 577.394, 516.143 579.985, 512.560 580.051, 461.946 515.704, 447.870 500.916, 446.142 471.568, 455.459 "
fill = "none" stroke = "black"/>
</g>
<g>
<polygon points = "120.891, 23.284 120.396, 46.029 158.112, 39.172 122.276, 21.768 "
fill = "none" stroke = "black"/>
</g>
<g>
<polygon points = "306.365, 542.027 321.724, 598.618 359.553, 630.771 382.920, 593.254 378.632, 569.317 "
fill = "none" stroke = "black"/>
</g>
<g>
<polygon points = "783.008, 105.941 795.086, 96.618 737.976, 47.439 699.496, 97.685 712.931, 116.107 "
fill = "none" stroke = "black"/>
</g>
<g>
<polygon points = "193.365, 453.953 198.233, 451.789 200.474, 397.519 199.989, 397.559 164.904, 435.369 "
fill = "none" stroke = "black"/>
</g>
<g>
<polygon points = "769.946, 374.353 779.473, 352.863 776.903, 335.328 670.510, 335.028 675.029, 344.287 717.175, 390.505 "
fill = "none" stroke = "black"/>
</g>
<g>
<polygon points = "432.529, 878.524 421.753, 870.467 365.520, 870.245 352.880, 898.187 353.924, 900.168 391.383, 935.983 404.782, 931.506 "
fill = "none" stroke = "black"/>
</g>
<g>
<polygon points = "491.870, 995.232 477.318, 961.538 438.950, 952.866 414.062, 999.000 491.589, 999.000 "
fill = "none" stroke = "black"/>
</g>
<g>
<polygon points = "399.043, 814.386 399.250, 810.470 381.622, 755.415 375.071, 753.200 363.790, 756.490 332.551, 833.737 333.719, 835.512 360.759, 855.953 "
fill = "none" stroke = "black"/>
</g>
<g>
<polygon points = "687.511, 975.791 650.916, 956.225 616.839, 965.566 611.639, 999.000 651.781, 999.000 "
fill = "none" stroke = "black"/>
</g>
<g>
<polygon points = "1.000, 12.894 16.012, 27.491 53.118, 45.403 109.851, 19.568 90.811, 1.000 1.000, 1.000 "
fill = "none" stroke = "black"/>
</g>
<g>
<polygon points = "596.836, 735.622 571.022, 758.034 625.834, 800.981 639.329, 799.122 639.255, 753.815 "
fill = "none" stroke = "black"/>
</g>
<g>
<polygon points = "26.797, 519.770 34.285, 500.887 25.432, 455.160 1.000, 427.577 1.000, 532.093 "
fill = "none" stroke = "black"/>
</g>
<g>
<polygon points = "662.386, 533.619 669.606, 552.835 698.268, 588.015 711.732, 588.192 718.021, 544.879 691.512, 499.480 661.902, 522.376 "
fill = "none" stroke = "black"/>
</g>
<g>
<polygon points = "944.707, 407.497 917.950, 435.495 912.173, 494.940 999.000, 525.580 999.000, 414.954 "
fill = "none" stroke = "black"/>
</g>
<g>
<polygon points = "456.574, 116.738 439.388, 112.697 384.822, 225.684 387.747, 229.029 472.569, 206.108 474.305, 171.881 "
fill = "none" stroke = "black"/>
</g>
<g>
<polygon points = "264.261, 726.289 293.590, 716.302 293.562, 690.645 259.249, 682.294 233.228, 709.680 "
fill = "none" stroke = "black"/>
</g>
<g>
<polygon points = "682.011, 264.710 782.497, 291.208 787.053, 288.572 803.134, 270.028 806.937, 237.991 801.864, 208.934 757.320, 209.280 677.538, 215.925 666.180, 224.590 "
fill = "none" stroke = "black"/>
</g>
<g>
<polygon points = "271.264, 640.931 320.182, 599.416 272.841, 603.176 269.106, 639.372 "
fill = "none" stroke = "black"/>
</g>
<g>
<polygon points = "269.669, 523.799 276.073, 519.937 242.571, 461.587 223.678, 461.325 201.842, 491.598 "
fill = "none" stroke = "black"/>
</g>
<g>
<polygon points = "666.873, 84.943 614.628, 192.230 651.666, 218.874 666.180, 224.590 677.538, 215.925 702.972, 174.307 712.931, 116.107 699.496, 97.685 "
fill = "none" stroke = "black"/>
</g>
<g>
<polygon points = "651.666, 218.874 614.628, 192.230 593.023, 185.219 522.558, 236.376 513.523, 282.631 555.857, 322.963 557.208, 322.591 "
fill = "none" stroke = "black"/>
</g>
<g>
<polygon points = "122.276, 21.768 158.112, 39.172 171.005, 38.071 194.536, 1.000 138.706, 1.000 "
fill = "none" stroke = "black"/>
</g>
<g>
<polygon points = "120.264, 610.339 142.633, 600.635 173.949, 574.826 174.664, 555.430 172.667, 546.681 144.539, 531.804 "
fill = "none" stroke = "black"/>
</g>
<g>
<polygon points = "923.882, 207.430 950.914, 196.072 918.715, 160.265 898.656, 156.192 857.155, 186.502 873.920, 197.828 900.699, 206.382 "
fill = "none" stroke = "black"/>
</g>
<g>
<polygon points = "412.016, 546.531 387.865, 539.678 378.632, 569.317 382.920, 593.254 409.191, 585.140 "
fill = "none" stroke = "black"/>
</g>
<g>
<polygon points = "914.386, 48.977 939.096, 64.211 999.000, 54.627 999.000, 1.000 964.301, 1.000 "
fill = "none" stroke = "black"/>
</g>
<g>
<polygon points = "980.473, 681.867 915.797, 617.639 905.498, 615.561 858.124, 707.189 "
fill = "none" stroke = "black"/>
</g>
<g>
<polygon points = "363.292, 644.943 364.958, 646.609 452.737, 647.904 459.179, 643.180 445.016, 591.456 409.191, 585.140 382.920, 593.254 359.553, 630.771 "
fill = "none" stroke = "black"/>
</g>
<g>
<polygon points = "165.255, 386.901 157.299, 388.575 105.797, 436.525 123.509, 450.117 164.904, 435.369 199.989, 397.559 "
fill = "none" stroke = "black"/>
</g>
<g>
<polygon points = "255.363, 956.028 244.618, 927.273 187.690, 915.706 182.807, 917.059 215.581, 999.000 225.467, 999.000 "
fill = "none" stroke = "black"/>
</g>
<g>
<polygon points = "163.535, 343.384 127.068, 359.465 157.299, 388.575 165.255, 386.901 "
fill = "none" stroke = "black"/>
</g>
<g>
<polygon points = "299.529, 834.885 314.023, 870.620 320.845, 874.908 321.921, 875.139 333.719, 835.512 332.551, 833.737 "
fill = "none" stroke = "black"/>
</g>
<g>
<polygon points = "356.954, 995.754 317.936, 959.358 291.031, 946.298 255.363, 956.028 225.467, 999.000 357.358, 999.000 "
fill = "none" stroke = "black"/>
</g>
<g>
<polygon points = "759.684, 156.068 759.407, 155.661 702.972, 174.307 677.538, 215.925 757.320, 209.280 "
fill = "none" stroke = "black"/>
</g>
<g>
<polygon points = "375.891, 518.880 300.651, 529.942 306.365, 542.027 378.632, 569.317 387.865, 539.678 "
fill = "none" stroke = "black"/>
</g>
<g>
<polygon points = "585.700, 410.412 553.963, 377.809 515.704, 447.870 580.051, 461.946 592.789, 439.194 "
fill = "none" stroke = "black"/>
</g>
<g>
<polygon points = "254.431, 545.217 229.436, 565.791 207.163, 594.944 209.301, 619.628 213.804, 631.380 237.181, 627.477 256.981, 590.468 "
fill = "none" stroke = "black"/>
</g>
<g>
<polygon points = "168.039, 927.287 171.818, 917.206 93.642, 926.992 45.190, 999.000 99.758, 999.000 "
fill = "none" stroke = "black"/>
</g>
<g>
<polygon points = "360.759, 855.953 333.719, 835.512 321.921, 875.139 336.268, 895.734 352.880, 898.187 365.520, 870.245 "
fill = "none" stroke = "black"/>
</g>
<g>
<polygon points = "584.746, 171.406 568.629, 153.938 474.305, 171.881 472.569, 206.108 522.558, 236.376 593.023, 185.219 "
fill = "none" stroke = "black"/>
</g>
<g>
<polygon points = "535.794, 608.724 579.603, 547.848 577.394, 516.143 482.502, 527.772 496.690, 557.773 "
fill = "none" stroke = "black"/>
</g>
<g>
<polygon points = "143.018, 145.189 192.574, 116.467 162.243, 80.308 110.018, 72.343 106.173, 74.377 "
fill = "none" stroke = "black"/>
</g>
<g>
<polygon points = "131.236, 785.444 168.635, 833.522 191.775, 832.594 183.830, 773.235 180.616, 766.162 "
fill = "none" stroke = "black"/>
</g>
<g>
<polygon points = "626.384, 61.395 584.746, 171.406 593.023, 185.219 614.628, 192.230 666.873, 84.943 652.487, 61.084 "
fill = "none" stroke = "black"/>
</g>
<g>
<polygon points = "474.873, 870.942 495.668, 883.566 548.658, 851.372 552.810, 843.035 537.779, 762.135 522.771, 753.686 486.499, 761.931 469.781, 826.461 "
fill = "none" stroke = "black"/>
</g>
<g>
<polygon points = "641.518, 630.104 679.360, 686.322 681.162, 687.278 738.759, 616.773 740.692, 606.876 711.732, 588.192 698.268, 588.015 "
fill = "none" stroke = "black"/>
</g>
<g>
<polygon points = "603.094, 836.038 625.834, 800.981 571.022, 758.034 537.779, 762.135 552.810, 843.035 "
fill = "none" stroke = "black"/>
</g>
<g>
<polygon points = "911.801, 909.644 856.036, 999.000 866.291, 999.000 999.000, 931.187 999.000, 867.087 "
fill = "none" stroke = "black"/>
</g>
<g>
<polygon points = "831.003, 768.807 875.146, 815.451 999.000, 836.298 999.000, 733.540 "
fill = "none" stroke = "black"/>
</g>
<g>
<polygon points = "137.872, 210.457 128.924, 161.659 69.587, 141.171 46.109, 148.819 1.000, 191.878 1.000, 217.719 137.444, 211.449 "
fill = "none" stroke = "black"/>
</g>
<g>
<polygon points = "744.343, 509.352 796.775, 477.853 787.539, 459.467 778.958, 453.336 712.769, 449.625 699.358, 463.936 697.449, 488.236 "
fill = "none" stroke = "black"/>
</g>
<g>
<polygon points = "212.543, 668.652 213.268, 706.627 233.228, 709.680 259.249, 682.294 253.608, 669.635 "
fill = "none" stroke = "black"/>
</g>
<g>
<polygon points = "640.248, 437.830 699.358, 463.936 712.769, 449.625 717.175, 390.505 675.029, 344.287 "
fill = "none" stroke = "black"/>
</g>
<g>
<polygon points = "342.592, 40.237 447.995, 1.189 448.095, 1.000 341.540, 1.000 "
fill = "none" stroke = "black"/>
</g>
<g>
<polygon points = "166.055, 338.701 162.778, 333.527 89.140, 303.766 61.379, 317.630 68.620, 345.052 127.068, 359.465 163.535, 343.384 "
fill = "none" stroke = "black"/>
</g>
<g>
<polygon points = "142.183, 259.102 137.444, 211.449 1.000, 217.719 1.000, 279.201 61.379, 317.630 89.140, 303.766 "
fill = "none" stroke = "black"/>
</g>
<g>
<polygon points = "708.548, 919.017 689.624, 920.542 650.916, 956.225 687.511, 975.791 745.917, 990.668 "
fill = "none" stroke = "black"/>
</g>
<g>
<polygon points = "157.413, 485.045 183.739, 466.887 193.365, 453.953 164.904, 435.369 123.509, 450.117 143.704, 485.132 "
fill = "none" stroke = "black"/>
</g>
<g>
<polygon points = "603.094, 836.038 628.893, 872.509 639.033, 867.108 661.111, 814.950 655.585, 803.319 639.329, 799.122 625.834, 800.981 "
fill = "none" stroke = "black"/>
</g>
<g>
<polygon points = "652.487, 61.084 666.873, 84.943 699.496, 97.685 737.976, 47.439 725.470, 1.000 684.656, 1.000 "
fill = "none" stroke = "black"/>
</g>
<g>
<polygon points = "703.992, 854.075 667.946, 869.073 668.764, 907.699 689.624, 920.542 708.548, 919.017 723.877, 883.259 "
fill = "none" stroke = "black"/>
</g>
<g>
<polygon points = "341.373, 753.944 269.560, 796.197 259.560, 818.783 257.312, 830.172 299.529, 834.885 332.551, 833.737 363.790, 756.490 "
fill = "none" stroke = "black"/>
</g>
<g>
<polygon points = "531.528, 96.733 520.482, 95.395 456.574, 116.738 474.305, 171.881 568.629, 153.938 "
fill = "none" stroke = "black"/>
</g>
<g>
<polygon points = "901.559, 344.174 847.234, 374.759 846.512, 394.443 867.344, 414.965 869.653, 414.876 "
fill = "none" stroke = "black"/>
</g>
<g>
<polygon points = "253.608, 669.635 259.249, 682.294 293.562, 690.645 301.289, 671.495 271.795, 642.327 "
fill = "none" stroke = "black"/>
</g>
<g>
<polygon points = "915.797, 617.639 980.473, 681.867 999.000, 693.016 999.000, 527.980 "
fill = "none" stroke = "black"/>
</g>
<g>
<polygon points = "168.039, 927.287 99.758, 999.000 154.362, 999.000 "
fill = "none" stroke = "black"/>
</g>
<g>
<polygon points = "963.855, 101.513 952.005, 116.142 966.891, 195.696 999.000, 207.578 999.000, 86.888 "
fill = "none" stroke = "black"/>
</g>
<g>
<polygon points = "821.589, 433.477 849.340, 436.872 867.344, 414.965 846.512, 394.443 817.854, 401.570 "
fill = "none" stroke = "black"/>
</g>
<g>
<polygon points = "883.045, 599.895 869.553, 601.228 838.468, 625.388 811.034, 736.246 818.142, 742.168 858.124, 707.189 905.498, 615.561 "
fill = "none" stroke = "black"/>
</g>
<g>
<polygon points = "199.639, 477.914 200.930, 491.474 201.842, 491.598 223.678, 461.325 221.581, 460.964 "
fill = "none" stroke = "black"/>
</g>
<g>
<polygon points = "661.902, 522.376 691.512, 499.480 697.449, 488.236 699.358, 463.936 640.248, 437.830 592.789, 439.194 580.051, 461.946 579.985, 512.560 "
fill = "none" stroke = "black"/>
</g>
<g>
<polygon points = "452.737, 647.904 364.958, 646.609 375.071, 753.200 381.622, 755.415 438.228, 743.269 "
fill = "none" stroke = "black"/>
</g>
<g>
<polygon points = "245.526, 339.305 225.604, 386.318 247.249, 424.845 282.806, 424.585 321.383, 405.159 324.219, 372.830 289.044, 340.604 251.262, 332.755 "
fill = "none" stroke = "black"/>
</g>
<g>
<polygon points = "226.689, 278.757 171.082, 272.078 162.778, 333.527 166.055, 338.701 245.526, 339.305 251.262, 332.755 238.582, 291.285 "
fill = "none" stroke = "black"/>
</g>
<g>
<polygon points = "469.781, 826.461 486.499, 761.931 438.228, 743.269 381.622, 755.415 399.250, 810.470 "
fill = "none" stroke = "black"/>
</g>
<g>
<polygon points = "298.402, 499.457 282.806, 424.585 247.249, 424.845 242.571, 461.587 276.073, 519.937 287.005, 519.853 "
fill = "none" stroke = "black"/>
</g>
<g>
<polygon points = "324.219, 372.830 321.383, 405.159 341.114, 447.489 394.849, 455.071 397.853, 424.470 346.179, 368.804 "
fill = "none" stroke = "black"/>
</g>
<g>
<polygon points = "497.858, 894.156 554.438, 933.462 600.044, 928.380 602.866, 917.019 548.658, 851.372 495.668, 883.566 "
fill = "none" stroke = "black"/>
</g>
<g>
<polygon points = "394.849, 455.071 407.442, 468.438 455.857, 477.723 471.568, 455.459 459.092, 372.326 427.708, 370.778 397.853, 424.470 "
fill = "none" stroke = "black"/>
</g>
<g>
<polygon points = "887.372, 296.333 874.293, 285.851 803.134, 270.028 787.053, 288.572 840.097, 331.393 895.547, 313.600 "
fill = "none" stroke = "black"/>
</g>
<g>
<polygon points = "853.482, 128.125 854.834, 135.082 898.656, 156.192 918.715, 160.265 904.614, 119.677 "
fill = "none" stroke = "black"/>
</g>
<g>
<polygon points = "849.340, 436.872 855.816, 498.448 888.864, 506.773 912.173, 494.940 917.950, 435.495 869.653, 414.876 867.344, 414.965 "
fill = "none" stroke = "black"/>
</g>
<g>
<polygon points = "123.037, 656.333 119.624, 701.683 184.962, 731.393 190.329, 729.042 213.268, 706.627 212.543, 668.652 205.105, 648.064 "
fill = "none" stroke = "black"/>
</g>
<g>
<polygon points = "916.552, 330.555 915.089, 330.190 901.559, 344.174 869.653, 414.876 917.950, 435.495 944.707, 407.497 "
fill = "none" stroke = "black"/>
</g>
<g>
<polygon points = "782.497, 291.208 682.011, 264.710 669.819, 334.029 670.510, 335.028 776.903, 335.328 "
fill = "none" stroke = "black"/>
</g>
<g>
<polygon points = "620.733, 899.262 628.893, 872.509 603.094, 836.038 552.810, 843.035 548.658, 851.372 602.866, 917.019 "
fill = "none" stroke = "black"/>
</g>
<g>
<polygon points = "228.607, 211.886 200.406, 196.805 137.872, 210.457 137.444, 211.449 142.183, 259.102 171.082, 272.078 226.689, 278.757 "
fill = "none" stroke = "black"/>
</g>
<g>
<polygon points = "174.664, 555.430 173.949, 574.826 207.163, 594.944 229.436, 565.791 "
fill = "none" stroke = "black"/>
</g>
<g>
<polygon points = "171.082, 272.078 142.183, 259.102 89.140, 303.766 162.778, 333.527 "
fill = "none" stroke = "black"/>
</g>
<g>
<polygon points = "689.624, 920.542 668.764, 907.699 620.733, 899.262 602.866, 917.019 600.044, 928.380 616.839, 965.566 650.916, 956.225 "
fill = "none" stroke = "black"/>
</g>
<g>
<polygon points = "869.277, 252.493 900.699, 206.382 873.920, 197.828 855.777, 238.315 "
fill = "none" stroke = "black"/>
</g>
<g>
<polygon points = "966.891, 195.696 952.005, 116.142 930.208, 110.127 914.173, 108.323 904.614, 119.677 918.715, 160.265 950.914, 196.072 "
fill = "none" stroke = "black"/>
</g>
<g>
<polygon points = "686.951, 695.347 793.458, 726.649 782.905, 681.226 738.759, 616.773 681.162, 687.278 "
fill = "none" stroke = "black"/>
</g>
<g>
<polygon points = "377.031, 221.813 344.416, 191.048 295.175, 173.434 282.579, 257.485 312.000, 259.072 "
fill = "none" stroke = "black"/>
</g>
<g>
<polygon points = "797.186, 620.796 782.905, 681.226 793.458, 726.649 797.707, 730.197 811.034, 736.246 838.468, 625.388 "
fill = "none" stroke = "black"/>
</g>
<g>
<polygon points = "480.089, 297.464 439.112, 283.529 403.387, 352.261 427.708, 370.778 459.092, 372.326 460.791, 371.048 "
fill = "none" stroke = "black"/>
</g>
<g>
<polygon points = "515.704, 447.870 553.963, 377.809 547.766, 370.523 525.969, 377.491 500.916, 446.142 "
fill = "none" stroke = "black"/>
</g>
<g>
<polygon points = "109.851, 19.568 53.118, 45.403 97.499, 75.740 106.173, 74.377 110.018, 72.343 120.396, 46.029 120.891, 23.284 "
fill = "none" stroke = "black"/>
</g>
<g>
<polygon points = "723.920, 819.305 801.677, 813.000 830.548, 768.602 818.142, 742.168 811.034, 736.246 797.707, 730.197 712.592, 785.368 "
fill = "none" stroke = "black"/>
</g>
<g>
<polygon points = "256.981, 590.468 237.181, 627.477 269.106, 639.372 272.841, 603.176 "
fill = "none" stroke = "black"/>
</g>
<g>
<polygon points = "485.423, 645.072 473.086, 643.269 459.179, 643.180 452.737, 647.904 438.228, 743.269 486.499, 761.931 522.771, 753.686 526.938, 702.769 "
fill = "none" stroke = "black"/>
</g>
<g>
<polygon points = "262.246, 530.145 254.431, 545.217 256.981, 590.468 272.841, 603.176 320.182, 599.416 321.724, 598.618 306.365, 542.027 300.651, 529.942 287.005, 519.853 276.073, 519.937 269.669, 523.799 "
fill = "none" stroke = "black"/>
</g>
<g>
<polygon points = "320.182, 599.416 271.264, 640.931 271.795, 642.327 301.289, 671.495 363.292, 644.943 359.553, 630.771 321.724, 598.618 "
fill = "none" stroke = "black"/>
</g>
<g>
<polygon points = "535.175, 970.346 554.438, 933.462 497.858, 894.156 477.318, 961.538 491.870, 995.232 "
fill = "none" stroke = "black"/>
</g>
<g>
<polygon points = "317.936, 959.358 356.954, 995.754 391.383, 935.983 353.924, 900.168 "
fill = "none" stroke = "black"/>
</g>
<g>
<polygon points = "439.112, 283.529 389.438, 237.576 370.267, 283.194 385.504, 347.853 403.387, 352.261 "
fill = "none" stroke = "black"/>
</g>
<g>
<polygon points = "109.851, 19.568 120.891, 23.284 122.276, 21.768 138.706, 1.000 90.811, 1.000 "
fill = "none" stroke = "black"/>
</g>
<g>
<polygon points = "848.669, 36.139 820.127, 90.337 853.482, 128.125 904.614, 119.677 914.173, 108.323 898.607, 51.975 "
fill = "none" stroke = "black"/>
</g>
<g>
<polygon points = "803.044, 206.713 802.914, 206.520 759.684, 156.068 757.320, 209.280 801.864, 208.934 "
fill = "none" stroke = "black"/>
</g>
<g>
<polygon points = "468.585, 532.713 445.016, 591.456 459.179, 643.180 473.086, 643.269 496.690, 557.773 482.502, 527.772 475.572, 525.181 "
fill = "none" stroke = "black"/>
</g>
<g>
<polygon points = "412.016, 546.531 409.191, 585.140 445.016, 591.456 468.585, 532.713 "
fill = "none" stroke = "black"/>
</g>
<g>
<polygon points = "778.958, 453.336 787.539, 459.467 821.589, 433.477 817.854, 401.570 814.505, 399.963 785.734, 395.837 "
fill = "none" stroke = "black"/>
</g>
<g>
<polygon points = "785.734, 395.837 814.505, 399.963 822.357, 356.905 779.473, 352.863 769.946, 374.353 "
fill = "none" stroke = "black"/>
</g>
<g>
<polygon points = "67.936, 852.008 72.941, 831.166 59.424, 797.907 1.000, 837.174 1.000, 870.094 "
fill = "none" stroke = "black"/>
</g>
<g>
<polygon points = "330.272, 117.688 315.127, 60.636 309.923, 61.799 258.319, 121.658 289.412, 169.279 289.727, 169.402 "
fill = "none" stroke = "black"/>
</g>
<g>
<polygon points = "295.175, 173.434 289.727, 169.402 289.412, 169.279 228.607, 211.886 226.689, 278.757 238.582, 291.285 282.579, 257.485 "
fill = "none" stroke = "black"/>
</g>
<g>
<polygon points = "939.096, 64.211 941.022, 68.421 963.855, 101.513 999.000, 86.888 999.000, 54.627 "
fill = "none" stroke = "black"/>
</g>
<g>
<polygon points = "182.807, 917.059 177.285, 914.275 171.818, 917.206 168.039, 927.287 154.362, 999.000 215.581, 999.000 "
fill = "none" stroke = "black"/>
</g>
<g>
<polygon points = "807.289, 583.572 845.504, 585.773 810.493, 522.522 796.044, 534.115 "
fill = "none" stroke = "black"/>
</g>
<g>
<polygon points = "912.173, 494.940 888.864, 506.773 883.045, 599.895 905.498, 615.561 915.797, 617.639 999.000, 527.980 999.000, 525.580 "
fill = "none" stroke = "black"/>
</g>
<g>
<polygon points = "291.031, 946.298 300.700, 912.081 286.925, 889.021 265.945, 866.963 252.246, 856.016 242.725, 897.013 244.618, 927.273 255.363, 956.028 "
fill = "none" stroke = "black"/>
</g>
<g>
<polygon points = "75.498, 749.457 59.424, 797.907 72.941, 831.166 114.303, 830.675 111.120, 781.784 "
fill = "none" stroke = "black"/>
</g>
<g>
<polygon points = "547.766, 370.523 553.963, 377.809 585.700, 410.412 653.897, 338.925 557.208, 322.591 555.857, 322.963 "
fill = "none" stroke = "black"/>
</g>
<g>
<polygon points = "782.905, 681.226 797.186, 620.796 780.163, 603.185 757.798, 597.471 740.692, 606.876 738.759, 616.773 "
fill = "none" stroke = "black"/>
</g>
<g>
<polygon points = "812.769, 912.667 788.242, 874.558 723.877, 883.259 708.548, 919.017 745.917, 990.668 753.281, 999.000 836.787, 999.000 "
fill = "none" stroke = "black"/>
</g>
<g>
<polygon points = "911.801, 909.644 876.853, 855.159 812.769, 912.667 836.787, 999.000 856.036, 999.000 "
fill = "none" stroke = "black"/>
</g>
<g>
<polygon points = "447.995, 1.189 413.656, 89.693 439.388, 112.697 456.574, 116.738 520.482, 95.395 467.951, 1.000 448.095, 1.000 "
fill = "none" stroke = "black"/>
</g>
<g>
<polygon points = "653.897, 338.925 669.819, 334.029 682.011, 264.710 666.180, 224.590 651.666, 218.874 557.208, 322.591 "
fill = "none" stroke = "black"/>
</g>
<g>
<polygon points = "875.146, 815.451 876.853, 855.159 911.801, 909.644 999.000, 867.087 999.000, 836.298 "
fill = "none" stroke = "black"/>
</g>
<g>
<polygon points = "712.769, 449.625 778.958, 453.336 785.734, 395.837 769.946, 374.353 717.175, 390.505 "
fill = "none" stroke = "black"/>
</g>
<g>
<polygon points = "535.175, 970.346 491.870, 995.232 491.589, 999.000 603.402, 999.000 "
fill = "none" stroke = "black"/>
</g>
<g>
<polygon points = "474.873, 870.942 469.781, 826.461 399.250, 810.470 399.043, 814.386 421.753, 870.467 432.529, 878.524 "
fill = "none" stroke = "black"/>
</g>
<g>
<polygon points = "535.623, 611.326 580.828, 644.333 628.308, 624.011 618.330, 596.421 579.603, 547.848 535.794, 608.724 "
fill = "none" stroke = "black"/>
</g>
<g>
<polygon points = "224.922, 108.475 258.319, 121.658 309.923, 61.799 229.163, 4.004 "
fill = "none" stroke = "black"/>
</g>
<g>
<polygon points = "99.756, 618.689 83.982, 536.012 26.797, 519.770 1.000, 532.093 1.000, 624.947 "
fill = "none" stroke = "black"/>
</g>
<g>
<polygon points = "396.217, 89.137 413.656, 89.693 447.995, 1.189 342.592, 40.237 341.765, 47.319 "
fill = "none" stroke = "black"/>
</g>
<g>
<polygon points = "83.982, 536.012 85.409, 535.028 93.431, 447.712 34.285, 500.887 26.797, 519.770 "
fill = "none" stroke = "black"/>
</g>
<g>
<polygon points = "237.181, 627.477 213.804, 631.380 205.105, 648.064 212.543, 668.652 253.608, 669.635 271.795, 642.327 271.264, 640.931 269.106, 639.372 "
fill = "none" stroke = "black"/>
</g>
<g>
<polygon points = "679.360, 686.322 641.518, 630.104 635.018, 626.468 628.308, 624.011 580.828, 644.333 574.719, 665.910 609.188, 712.578 "
fill = "none" stroke = "black"/>
</g>
<g>
<polygon points = "768.696, 540.636 772.987, 543.094 796.044, 534.115 810.493, 522.522 820.459, 504.189 796.775, 477.853 744.343, 509.352 "
fill = "none" stroke = "black"/>
</g>
<g>
<polygon points = "640.248, 437.830 675.029, 344.287 670.510, 335.028 669.819, 334.029 653.897, 338.925 585.700, 410.412 592.789, 439.194 "
fill = "none" stroke = "black"/>
</g>
<g>
<polygon points = "242.725, 897.013 203.746, 903.581 187.690, 915.706 244.618, 927.273 "
fill = "none" stroke = "black"/>
</g>
<g>
<polygon points = "787.053, 288.572 782.497, 291.208 776.903, 335.328 779.473, 352.863 822.357, 356.905 828.171, 355.739 840.097, 331.393 "
fill = "none" stroke = "black"/>
</g>
<g>
<polygon points = "229.163, 4.004 309.923, 61.799 315.127, 60.636 341.765, 47.319 342.592, 40.237 341.540, 1.000 227.985, 1.000 "
fill = "none" stroke = "black"/>
</g>
<g>
<polygon points = "780.163, 603.185 797.186, 620.796 838.468, 625.388 869.553, 601.228 845.504, 585.773 807.289, 583.572 "
fill = "none" stroke = "black"/>
</g>
<g>
<polygon points = "740.692, 606.876 757.798, 597.471 760.188, 585.505 726.662, 545.567 718.021, 544.879 711.732, 588.192 "
fill = "none" stroke = "black"/>
</g>
<g>
<polygon points = "291.031, 946.298 317.936, 959.358 353.924, 900.168 352.880, 898.187 336.268, 895.734 300.700, 912.081 "
fill = "none" stroke = "black"/>
</g>
<g>
<polygon points = "635.018, 626.468 641.518, 630.104 698.268, 588.015 669.606, 552.835 "
fill = "none" stroke = "black"/>
</g>
<g>
<polygon points = "364.438, 143.845 392.498, 93.228 333.707, 116.939 "
fill = "none" stroke = "black"/>
</g>
<g>
<polygon points = "726.662, 545.567 760.188, 585.505 772.987, 543.094 768.696, 540.636 "
fill = "none" stroke = "black"/>
</g>
<g>
<polygon points = "737.976, 47.439 795.086, 96.618 809.764, 94.412 820.127, 90.337 848.669, 36.139 840.527, 1.000 725.470, 1.000 "
fill = "none" stroke = "black"/>
</g>
<g>
<polygon points = "866.291, 999.000 999.000, 999.000 999.000, 931.187 "
fill = "none" stroke = "black"/>
</g>
<g>
<polygon points = "898.607, 51.975 914.173, 108.323 930.208, 110.127 941.022, 68.421 939.096, 64.211 914.386, 48.977 "
fill = "none" stroke = "black"/>
</g>
<g>
<polygon points = "618.330, 596.421 628.308, 624.011 635.018, 626.468 669.606, 552.835 662.386, 533.619 "
fill = "none" stroke = "black"/>
</g>
<g>
<polygon points = "106.180, 621.884 123.037, 656.333 205.105, 648.064 213.804, 631.380 209.301, 619.628 142.633, 600.635 120.264, 610.339 "
fill = "none" stroke = "black"/>
</g>
<g>
<polygon points = "966.891, 195.696 950.914, 196.072 923.882, 207.430 909.969, 249.070 980.849, 300.409 999.000, 292.859 999.000, 207.578 "
fill = "none" stroke = "black"/>
</g>
<g>
<polygon points = "712.592, 785.368 797.707, 730.197 793.458, 726.649 686.951, 695.347 681.109, 719.812 686.257, 776.388 "
fill = "none" stroke = "black"/>
</g>
<g>
<polygon points = "289.412, 169.279 258.319, 121.658 224.922, 108.475 196.422, 116.943 200.406, 196.805 228.607, 211.886 "
fill = "none" stroke = "black"/>
</g>
<g>
<polygon points = "616.839, 965.566 600.044, 928.380 554.438, 933.462 535.175, 970.346 603.402, 999.000 611.639, 999.000 "
fill = "none" stroke = "black"/>
</g>
<g>
<polygon points = "820.127, 90.337 809.764, 94.412 803.829, 206.039 853.078, 184.194 854.834, 135.082 853.482, 128.125 "
fill = "none" stroke = "black"/>
</g>
<g>
<polygon points = "324.219, 372.830 346.179, 368.804 385.504, 347.853 370.267, 283.194 318.309, 309.248 289.044, 340.604 "
fill = "none" stroke = "black"/>
</g>
<g>
<polygon points = "265.945, 866.963 286.925, 889.021 320.845, 874.908 314.023, 870.620 "
fill = "none" stroke = "black"/>
</g>
<g>
<polygon points = "46.109, 148.819 16.012, 27.491 1.000, 12.894 1.000, 191.878 "
fill = "none" stroke = "black"/>
</g>
<g>
<polygon points = "255.374, 759.729 269.560, 796.197 341.373, 753.944 293.590, 716.302 264.261, 726.289 "
fill = "none" stroke = "black"/>
</g>
<g>
<polygon points = "69.587, 141.171 128.924, 161.659 143.018, 145.189 106.173, 74.377 97.499, 75.740 "
fill = "none" stroke = "black"/>
</g>
<g>
<polygon points = "341.114, 447.489 321.383, 405.159 282.806, 424.585 298.402, 499.457 "
fill = "none" stroke = "black"/>
</g>
<g>
<polygon points = "222.768, 779.541 183.830, 773.235 191.775, 832.594 201.943, 838.984 213.453, 840.623 247.905, 841.559 257.312, 830.172 259.560, 818.783 "
fill = "none" stroke = "black"/>
</g>
<g>
<polygon points = "573.382, 40.818 531.528, 96.733 568.629, 153.938 584.746, 171.406 626.384, 61.395 "
fill = "none" stroke = "black"/>
</g>
<g>
<polygon points = "618.330, 596.421 662.386, 533.619 661.902, 522.376 579.985, 512.560 577.394, 516.143 579.603, 547.848 "
fill = "none" stroke = "black"/>
</g>
<g>
<polygon points = "257.312, 830.172 247.905, 841.559 252.246, 856.016 265.945, 866.963 314.023, 870.620 299.529, 834.885 "
fill = "none" stroke = "black"/>
</g>
<g>
<polygon points = "196.422, 116.943 192.574, 116.467 143.018, 145.189 128.924, 161.659 137.872, 210.457 200.406, 196.805 "
fill = "none" stroke = "black"/>
</g>
<g>
<polygon points = "573.382, 40.818 626.384, 61.395 652.487, 61.084 684.656, 1.000 568.043, 1.000 "
fill = "none" stroke = "black"/>
</g>
<g>
<polygon points = "661.111, 814.950 703.532, 850.448 723.920, 819.305 712.592, 785.368 686.257, 776.388 655.585, 803.319 "
fill = "none" stroke = "black"/>
</g>
<g>
<polygon points = "788.242, 874.558 812.769, 912.667 876.853, 855.159 875.146, 815.451 831.003, 768.807 830.548, 768.602 801.677, 813.000 "
fill = "none" stroke = "black"/>
</g>
<g>
<polygon points = "726.662, 545.567 768.696, 540.636 744.343, 509.352 697.449, 488.236 691.512, 499.480 718.021, 544.879 "
fill = "none" stroke = "black"/>
</g>
<g>
<polygon points = "547.766, 370.523 555.857, 322.963 513.523, 282.631 480.089, 297.464 460.791, 371.048 525.969, 377.491 "
fill = "none" stroke = "black"/>
</g>
<g>
<polygon points = "227.612, 755.166 222.768, 779.541 259.560, 818.783 269.560, 796.197 255.374, 759.729 "
fill = "none" stroke = "black"/>
</g>
<g>
<polygon points = "854.834, 135.082 853.078, 184.194 857.155, 186.502 898.656, 156.192 "
fill = "none" stroke = "black"/>
</g>
<g>
<polygon points = "182.834, 497.982 200.930, 491.474 199.639, 477.914 183.739, 466.887 157.413, 485.045 "
fill = "none" stroke = "black"/>
</g>
<g>
<polygon points = "129.725, 851.693 121.881, 871.492 173.673, 895.365 201.943, 838.984 191.775, 832.594 168.635, 833.522 "
fill = "none" stroke = "black"/>
</g>
<g>
<polygon points = "855.777, 238.315 873.920, 197.828 857.155, 186.502 853.078, 184.194 803.829, 206.039 803.044, 206.713 801.864, 208.934 806.937, 237.991 "
fill = "none" stroke = "black"/>
</g>
<g>
<polygon points = "980.849, 300.409 909.969, 249.070 887.372, 296.333 895.547, 313.600 915.089, 330.190 916.552, 330.555 "
fill = "none" stroke = "black"/>
</g>
<g>
<polygon points = "197.040, 528.909 172.667, 546.681 174.664, 555.430 229.436, 565.791 254.431, 545.217 262.246, 530.145 "
fill = "none" stroke = "black"/>
</g>
<g>
<polygon points = "74.118, 744.474 119.624, 701.683 123.037, 656.333 106.180, 621.884 99.756, 618.689 1.000, 624.947 1.000, 719.132 "
fill = "none" stroke = "black"/>
</g>
<g>
<polygon points = "520.482, 95.395 531.528, 96.733 573.382, 40.818 568.043, 1.000 467.951, 1.000 "
fill = "none" stroke = "black"/>
</g>
<g>
<polygon points = "111.120, 781.784 114.303, 830.675 129.725, 851.693 168.635, 833.522 131.236, 785.444 "
fill = "none" stroke = "black"/>
</g>
<g>
<polygon points = "46.109, 148.819 69.587, 141.171 97.499, 75.740 53.118, 45.403 16.012, 27.491 "
fill = "none" stroke = "black"/>
</g>
<g>
<polygon points = "820.459, 504.189 810.493, 522.522 845.504, 585.773 869.553, 601.228 883.045, 599.895 888.864, 506.773 855.816, 498.448 "
fill = "none" stroke = "black"/>
</g>
<g>
<polygon points = "221.581, 460.964 223.678, 461.325 242.571, 461.587 247.249, 424.845 225.604, 386.318 200.474, 397.519 198.233, 451.789 "
fill = "none" stroke = "black"/>
</g>
<g>
<polygon points = "869.277, 252.493 855.777, 238.315 806.937, 237.991 803.134, 270.028 874.293, 285.851 "
fill = "none" stroke = "black"/>
</g>
<g>
<polygon points = "93.642, 926.992 104.353, 888.791 67.936, 852.008 1.000, 870.094 1.000, 999.000 45.190, 999.000 "
fill = "none" stroke = "black"/>
</g>
<g>
<polygon points = "333.707, 116.939 392.498, 93.228 396.217, 89.137 341.765, 47.319 315.127, 60.636 330.272, 117.688 "
fill = "none" stroke = "black"/>
</g>
<g>
<polygon points = "703.532, 850.448 661.111, 814.950 639.033, 867.108 667.946, 869.073 703.992, 854.075 "
fill = "none" stroke = "black"/>
</g>
<g>
<polygon points = "166.055, 338.701 163.535, 343.384 165.255, 386.901 199.989, 397.559 200.474, 397.519 225.604, 386.318 245.526, 339.305 "
fill = "none" stroke = "black"/>
</g>
<g>
<polygon points = "190.329, 729.042 184.962, 731.393 180.616, 766.162 183.830, 773.235 222.768, 779.541 227.612, 755.166 "
fill = "none" stroke = "black"/>
</g>
<g>
<polygon points = "580.828, 644.333 535.623, 611.326 485.423, 645.072 526.938, 702.769 574.719, 665.910 "
fill = "none" stroke = "black"/>
</g>
<g>
<polygon points = "413.656, 89.693 396.217, 89.137 392.498, 93.228 364.438, 143.845 344.416, 191.048 377.031, 221.813 384.822, 225.684 439.388, 112.697 "
fill = "none" stroke = "black"/>
</g>
<g>
<polygon points = "820.459, 504.189 855.816, 498.448 849.340, 436.872 821.589, 433.477 787.539, 459.467 796.775, 477.853 "
fill = "none" stroke = "black"/>
</g>
<g>
<polygon points = "775.399, 127.343 759.407, 155.661 759.684, 156.068 802.914, 206.520 "
fill = "none" stroke = "black"/>
</g>
<g>
<polygon points = "199.639, 477.914 221.581, 460.964 198.233, 451.789 193.365, 453.953 183.739, 466.887 "
fill = "none" stroke = "black"/>
</g>
<g>
<polygon points = "668.764, 907.699 667.946, 869.073 639.033, 867.108 628.893, 872.509 620.733, 899.262 "
fill = "none" stroke = "black"/>
</g>
<g>
<polygon points = "209.301, 619.628 207.163, 594.944 173.949, 574.826 142.633, 600.635 "
fill = "none" stroke = "black"/>
</g>
<g>
<polygon points = "247.905, 841.559 213.453, 840.623 203.746, 903.581 242.725, 897.013 252.246, 856.016 "
fill = "none" stroke = "black"/>
</g>
<g>
<polygon points = "803.829, 206.039 809.764, 94.412 795.086, 96.618 783.008, 105.941 775.399, 127.343 802.914, 206.520 803.044, 206.713 "
fill = "none" stroke = "black"/>
</g>
<g>
<polygon points = "407.442, 468.438 394.849, 455.071 341.114, 447.489 298.402, 499.457 287.005, 519.853 300.651, 529.942 375.891, 518.880 "
fill = "none" stroke = "black"/>
</g>
<g>
<polygon points = "364.438, 143.845 333.707, 116.939 330.272, 117.688 289.727, 169.402 295.175, 173.434 344.416, 191.048 "
fill = "none" stroke = "black"/>
</g>
<g>
<polygon points = "399.043, 814.386 360.759, 855.953 365.520, 870.245 421.753, 870.467 "
fill = "none" stroke = "black"/>
</g>
<g>
<polygon points = "909.969, 249.070 923.882, 207.430 900.699, 206.382 869.277, 252.493 874.293, 285.851 887.372, 296.333 "
fill = "none" stroke = "black"/>
</g>
<g>
<polygon points = "197.040, 528.909 262.246, 530.145 269.669, 523.799 201.842, 491.598 200.930, 491.474 182.834, 497.982 "
fill = "none" stroke = "black"/>
</g>
<g>
<polygon points = "213.453, 840.623 201.943, 838.984 173.673, 895.365 177.285, 914.275 182.807, 917.059 187.690, 915.706 203.746, 903.581 "
fill = "none" stroke = "black"/>
</g>
<g>
<polygon points = "301.289, 671.495 293.562, 690.645 293.590, 716.302 341.373, 753.944 363.790, 756.490 375.071, 753.200 364.958, 646.609 363.292, 644.943 "
fill = "none" stroke = "black"/>
</g>
<g>
<polygon points = "171.005, 38.071 162.243, 80.308 192.574, 116.467 196.422, 116.943 224.922, 108.475 229.163, 4.004 227.985, 1.000 194.536, 1.000 "
fill = "none" stroke = "black"/>
</g>
<g>
<polygon points = "760.188, 585.505 757.798, 597.471 780.163, 603.185 807.289, 583.572 796.044, 534.115 772.987, 543.094 "
fill = "none" stroke = "black"/>
</g>
<g>
<polygon points = "980.473, 681.867 858.124, 707.189 818.142, 742.168 830.548, 768.602 831.003, 768.807 999.000, 733.540 999.000, 693.016 "
fill = "none" stroke = "black"/>
</g>
<g>
<polygon points = "477.318, 961.538 497.858, 894.156 495.668, 883.566 474.873, 870.942 432.529, 878.524 404.782, 931.506 438.950, 952.866 "
fill = "none" stroke = "black"/>
</g>
<g>
<polygon points = "801.677, 813.000 723.920, 819.305 703.532, 850.448 703.992, 854.075 723.877, 883.259 788.242, 874.558 "
fill = "none" stroke = "black"/>
</g>
<g>
<polygon points = "980.849, 300.409 916.552, 330.555 944.707, 407.497 999.000, 414.954 999.000, 292.859 "
fill = "none" stroke = "black"/>
</g>
<g>
<polygon points = "25.432, 455.160 94.097, 426.752 66.995, 381.993 1.000, 418.723 1.000, 427.577 "
fill = "none" stroke = "black"/>
</g>
<g>
<polygon points = "94.097, 426.752 25.432, 455.160 34.285, 500.887 93.431, 447.712 101.932, 435.490 "
fill = "none" stroke = "black"/>
</g>
<g>
<polygon points = "407.442, 468.438 375.891, 518.880 387.865, 539.678 412.016, 546.531 468.585, 532.713 475.572, 525.181 455.857, 477.723 "
fill = "none" stroke = "black"/>
</g>
<g>
<polygon points = "127.068, 359.465 68.620, 345.052 66.995, 381.993 94.097, 426.752 101.932, 435.490 105.797, 436.525 157.299, 388.575 "
fill = "none" stroke = "black"/>
</g>
<g>
<polygon points = "173.673, 895.365 121.881, 871.492 104.353, 888.791 93.642, 926.992 171.818, 917.206 177.285, 914.275 "
fill = "none" stroke = "black"/>
</g>
<g>
<polygon points = "114.303, 830.675 72.941, 831.166 67.936, 852.008 104.353, 888.791 121.881, 871.492 129.725, 851.693 "
fill = "none" stroke = "black"/>
</g>
<g>
<polygon points = "370.267, 283.194 389.438, 237.576 387.747, 229.029 384.822, 225.684 377.031, 221.813 312.000, 259.072 318.309, 309.248 "
fill = "none" stroke = "black"/>
</g>
<g>
<polygon points = "686.951, 695.347 681.162, 687.278 679.360, 686.322 609.188, 712.578 596.836, 735.622 639.255, 753.815 681.109, 719.812 "
fill = "none" stroke = "black"/>
</g>
<g>
<polygon points = "74.118, 744.474 75.498, 749.457 111.120, 781.784 131.236, 785.444 180.616, 766.162 184.962, 731.393 119.624, 701.683 "
fill = "none" stroke = "black"/>
</g>
<g>
<polygon points = "144.539, 531.804 172.667, 546.681 197.040, 528.909 182.834, 497.982 157.413, 485.045 143.704, 485.132 134.313, 517.907 "
fill = "none" stroke = "black"/>
</g>
<g>
<polygon points = "110.018, 72.343 162.243, 80.308 171.005, 38.071 158.112, 39.172 120.396, 46.029 "
fill = "none" stroke = "black"/>
</g>
<g>
<polygon points = "848.669, 36.139 898.607, 51.975 914.386, 48.977 964.301, 1.000 840.527, 1.000 "
fill = "none" stroke = "black"/>
</g>
<g>
<polygon points = "59.424, 797.907 75.498, 749.457 74.118, 744.474 1.000, 719.132 1.000, 837.174 "
fill = "none" stroke = "black"/>
</g>
<g>
<polygon points = "473.086, 643.269 485.423, 645.072 535.623, 611.326 535.794, 608.724 496.690, 557.773 "
fill = "none" stroke = "black"/>
</g>
<g>
<polygon points = "66.995, 381.993 68.620, 345.052 61.379, 317.630 1.000, 279.201 1.000, 418.723 "
fill = "none" stroke = "black"/>
</g>
<g>
<polygon points = "389.438, 237.576 439.112, 283.529 480.089, 297.464 513.523, 282.631 522.558, 236.376 472.569, 206.108 387.747, 229.029 "
fill = "none" stroke = "black"/>
</g>
<g>
<polygon points = "213.268, 706.627 190.329, 729.042 227.612, 755.166 255.374, 759.729 264.261, 726.289 233.228, 709.680 "
fill = "none" stroke = "black"/>
</g>
<g>
<polygon points = "759.407, 155.661 775.399, 127.343 783.008, 105.941 712.931, 116.107 702.972, 174.307 "
fill = "none" stroke = "black"/>
</g>
<g>
<polygon points = "83.982, 536.012 99.756, 618.689 106.180, 621.884 120.264, 610.339 144.539, 531.804 134.313, 517.907 85.409, 535.028 "
fill = "none" stroke = "black"/>
</g>
<circle cx="654.572" cy="761.823" r="1" stroke="red" stroke-width="1" fill="red" />
<circle cx="302.473" cy="278.842" r="1" stroke="red" stroke-width="1" fill="red" />
<circle cx="852.566" cy="352.472" r="1" stroke="red" stroke-width="1" fill="red" />
<circle cx="939.391" cy="89.049" r="1" stroke="red" stroke-width="1" fill="red" />
<circle cx="673.993" cy="990.210" r="1" stroke="red" stroke-width="1" fill="red" />
<circle cx="498.025" cy="407.019" r="1" stroke="red" stroke-width="1" fill="red" />
<circle cx="100.151" cy="495.688" r="1" stroke="red" stroke-width="1" fill="red" />
<circle cx="574.654" cy="705.076" r="1" stroke="red" stroke-width="1" fill="red" />
<circle cx="415.521" cy="974.244" r="1" stroke="red" stroke-width="1" fill="red" />
<circle cx="309.849" cy="885.029" r="1" stroke="red" stroke-width="1" fill="red" />
<circle cx="386.218" cy="391.431" r="1" stroke="red" stroke-width="1" fill="red" />
<circle cx="521.121" cy="479.769" r="1" stroke="red" stroke-width="1" fill="red" />
<circle cx="824.959" cy="380.142" r="1" stroke="red" stroke-width="1" fill="red" />
<circle cx="142.112" cy="33.196" r="1" stroke="red" stroke-width="1" fill="red" />
<circle cx="356.530" cy="571.941" r="1" stroke="red" stroke-width="1" fill="red" />
<circle cx="735.874" cy="84.450" r="1" stroke="red" stroke-width="1" fill="red" />
<circle cx="184.710" cy="437.315" r="1" stroke="red" stroke-width="1" fill="red" />
<circle cx="739.395" cy="345.662" r="1" stroke="red" stroke-width="1" fill="red" />
<circle cx="387.674" cy="890.897" r="1" stroke="red" stroke-width="1" fill="red" />
<circle cx="364.700" cy="828.459" r="1" stroke="red" stroke-width="1" fill="red" />
<circle cx="668.841" cy="982.280" r="1" stroke="red" stroke-width="1" fill="red" />
<circle cx="433.950" cy="984.186" r="1" stroke="red" stroke-width="1" fill="red" />
<circle cx="93.322" cy="19.224" r="1" stroke="red" stroke-width="1" fill="red" />
<circle cx="697.209" cy="555.287" r="1" stroke="red" stroke-width="1" fill="red" />
<circle cx="7.342" cy="465.611" r="1" stroke="red" stroke-width="1" fill="red" />
<circle cx="623.965" cy="761.873" r="1" stroke="red" stroke-width="1" fill="red" />
<circle cx="442.380" cy="174.198" r="1" stroke="red" stroke-width="1" fill="red" />
<circle cx="961.034" cy="456.633" r="1" stroke="red" stroke-width="1" fill="red" />
<circle cx="261.269" cy="695.389" r="1" stroke="red" stroke-width="1" fill="red" />
<circle cx="761.607" cy="240.775" r="1" stroke="red" stroke-width="1" fill="red" />
<circle cx="212.274" cy="483.862" r="1" stroke="red" stroke-width="1" fill="red" />
<circle cx="279.714" cy="612.181" r="1" stroke="red" stroke-width="1" fill="red" />
<circle cx="573.439" cy="270.540" r="1" stroke="red" stroke-width="1" fill="red" />
<circle cx="956.677" cy="47.906" r="1" stroke="red" stroke-width="1" fill="red" />
<circle cx="675.777" cy="128.278" r="1" stroke="red" stroke-width="1" fill="red" />
<circle cx="143.522" cy="30.291" r="1" stroke="red" stroke-width="1" fill="red" />
<circle cx="149.603" cy="565.278" r="1" stroke="red" stroke-width="1" fill="red" />
<circle cx="890.628" cy="165.891" r="1" stroke="red" stroke-width="1" fill="red" />
<circle cx="400.271" cy="564.105" r="1" stroke="red" stroke-width="1" fill="red" />
<circle cx="901.238" cy="679.006" r="1" stroke="red" stroke-width="1" fill="red" />
<circle cx="413.687" cy="607.541" r="1" stroke="red" stroke-width="1" fill="red" />
<circle cx="161.484" cy="415.764" r="1" stroke="red" stroke-width="1" fill="red" />
<circle cx="210.448" cy="930.517" r="1" stroke="red" stroke-width="1" fill="red" />
<circle cx="150.176" cy="362.004" r="1" stroke="red" stroke-width="1" fill="red" />
<circle cx="314.971" cy="861.166" r="1" stroke="red" stroke-width="1" fill="red" />
<circle cx="294.899" cy="989.270" r="1" stroke="red" stroke-width="1" fill="red" />
<circle cx="363.781" cy="552.738" r="1" stroke="red" stroke-width="1" fill="red" />
<circle cx="756.338" cy="177.511" r="1" stroke="red" stroke-width="1" fill="red" />
<circle cx="236.196" cy="595.566" r="1" stroke="red" stroke-width="1" fill="red" />
<circle cx="533.945" cy="421.145" r="1" stroke="red" stroke-width="1" fill="red" />
<circle cx="152.785" cy="938.636" r="1" stroke="red" stroke-width="1" fill="red" />
<circle cx="335.383" cy="867.243" r="1" stroke="red" stroke-width="1" fill="red" />
<circle cx="505.832" cy="177.417" r="1" stroke="red" stroke-width="1" fill="red" />
<circle cx="531.569" cy="565.028" r="1" stroke="red" stroke-width="1" fill="red" />
<circle cx="158.365" cy="795.576" r="1" stroke="red" stroke-width="1" fill="red" />
<circle cx="137.096" cy="103.790" r="1" stroke="red" stroke-width="1" fill="red" />
<circle cx="508.118" cy="823.256" r="1" stroke="red" stroke-width="1" fill="red" />
<circle cx="627.267" cy="104.655" r="1" stroke="red" stroke-width="1" fill="red" />
<circle cx="696.348" cy="620.704" r="1" stroke="red" stroke-width="1" fill="red" />
<circle cx="587.414" cy="808.523" r="1" stroke="red" stroke-width="1" fill="red" />
<circle cx="923.567" cy="785.889" r="1" stroke="red" stroke-width="1" fill="red" />
<circle cx="951.183" cy="941.115" r="1" stroke="red" stroke-width="1" fill="red" />
<circle cx="756.544" cy="489.163" r="1" stroke="red" stroke-width="1" fill="red" />
<circle cx="88.197" cy="187.008" r="1" stroke="red" stroke-width="1" fill="red" />
<circle cx="246.067" cy="680.945" r="1" stroke="red" stroke-width="1" fill="red" />
<circle cx="670.477" cy="408.506" r="1" stroke="red" stroke-width="1" fill="red" />
<circle cx="388.038" cy="15.537" r="1" stroke="red" stroke-width="1" fill="red" />
<circle cx="140.777" cy="340.691" r="1" stroke="red" stroke-width="1" fill="red" />
<circle cx="90.646" cy="240.303" r="1" stroke="red" stroke-width="1" fill="red" />
<circle cx="682.538" cy="956.661" r="1" stroke="red" stroke-width="1" fill="red" />
<circle cx="174.651" cy="452.721" r="1" stroke="red" stroke-width="1" fill="red" />
<circle cx="634.611" cy="839.138" r="1" stroke="red" stroke-width="1" fill="red" />
<circle cx="702.792" cy="59.114" r="1" stroke="red" stroke-width="1" fill="red" />
<circle cx="676.843" cy="886.025" r="1" stroke="red" stroke-width="1" fill="red" />
<circle cx="313.109" cy="807.596" r="1" stroke="red" stroke-width="1" fill="red" />
<circle cx="501.597" cy="155.157" r="1" stroke="red" stroke-width="1" fill="red" />
<circle cx="869.054" cy="381.759" r="1" stroke="red" stroke-width="1" fill="red" />
<circle cx="267.061" cy="671.592" r="1" stroke="red" stroke-width="1" fill="red" />
<circle cx="977.061" cy="602.654" r="1" stroke="red" stroke-width="1" fill="red" />
<circle cx="981.126" cy="122.856" r="1" stroke="red" stroke-width="1" fill="red" />
<circle cx="157.451" cy="943.078" r="1" stroke="red" stroke-width="1" fill="red" />
<circle cx="856.193" cy="655.716" r="1" stroke="red" stroke-width="1" fill="red" />
<circle cx="834.168" cy="417.174" r="1" stroke="red" stroke-width="1" fill="red" />
<circle cx="638.935" cy="479.924" r="1" stroke="red" stroke-width="1" fill="red" />
<circle cx="205.892" cy="479.259" r="1" stroke="red" stroke-width="1" fill="red" />
<circle cx="412.514" cy="687.098" r="1" stroke="red" stroke-width="1" fill="red" />
<circle cx="276.760" cy="402.604" r="1" stroke="red" stroke-width="1" fill="red" />
<circle cx="178.658" cy="316.700" r="1" stroke="red" stroke-width="1" fill="red" />
<circle cx="437.823" cy="805.045" r="1" stroke="red" stroke-width="1" fill="red" />
<circle cx="277.082" cy="446.651" r="1" stroke="red" stroke-width="1" fill="red" />
<circle cx="365.770" cy="410.413" r="1" stroke="red" stroke-width="1" fill="red" />
<circle cx="554.932" cy="900.307" r="1" stroke="red" stroke-width="1" fill="red" />
<circle cx="432.057" cy="416.919" r="1" stroke="red" stroke-width="1" fill="red" />
<circle cx="837.973" cy="306.994" r="1" stroke="red" stroke-width="1" fill="red" />
<circle cx="871.603" cy="447.942" r="1" stroke="red" stroke-width="1" fill="red" />
<circle cx="179.512" cy="682.218" r="1" stroke="red" stroke-width="1" fill="red" />
<circle cx="895.046" cy="144.131" r="1" stroke="red" stroke-width="1" fill="red" />
<circle cx="894.882" cy="393.414" r="1" stroke="red" stroke-width="1" fill="red" />
<circle cx="595.523" cy="866.789" r="1" stroke="red" stroke-width="1" fill="red" />
<circle cx="739.454" cy="324.783" r="1" stroke="red" stroke-width="1" fill="red" />
<circle cx="189.009" cy="230.520" r="1" stroke="red" stroke-width="1" fill="red" />
<circle cx="198.931" cy="567.096" r="1" stroke="red" stroke-width="1" fill="red" />
<circle cx="653.049" cy="924.672" r="1" stroke="red" stroke-width="1" fill="red" />
<circle cx="151.933" cy="313.088" r="1" stroke="red" stroke-width="1" fill="red" />
<circle cx="869.020" cy="233.536" r="1" stroke="red" stroke-width="1" fill="red" />
<circle cx="927.282" cy="132.931" r="1" stroke="red" stroke-width="1" fill="red" />
<circle cx="743.368" cy="659.115" r="1" stroke="red" stroke-width="1" fill="red" />
<circle cx="304.654" cy="238.392" r="1" stroke="red" stroke-width="1" fill="red" />
<circle cx="808.645" cy="643.950" r="1" stroke="red" stroke-width="1" fill="red" />
<circle cx="436.576" cy="325.289" r="1" stroke="red" stroke-width="1" fill="red" />
<circle cx="739.987" cy="795.209" r="1" stroke="red" stroke-width="1" fill="red" />
<circle cx="99.259" cy="32.263" r="1" stroke="red" stroke-width="1" fill="red" />
<circle cx="528.326" cy="418.077" r="1" stroke="red" stroke-width="1" fill="red" />
<circle cx="264.274" cy="610.588" r="1" stroke="red" stroke-width="1" fill="red" />
<circle cx="278.207" cy="593.199" r="1" stroke="red" stroke-width="1" fill="red" />
<circle cx="301.005" cy="637.268" r="1" stroke="red" stroke-width="1" fill="red" />
<circle cx="479.483" cy="697.286" r="1" stroke="red" stroke-width="1" fill="red" />
<circle cx="523.539" cy="945.495" r="1" stroke="red" stroke-width="1" fill="red" />
<circle cx="406.391" cy="309.600" r="1" stroke="red" stroke-width="1" fill="red" />
<circle cx="887.689" cy="99.600" r="1" stroke="red" stroke-width="1" fill="red" />
<circle cx="346.175" cy="934.300" r="1" stroke="red" stroke-width="1" fill="red" />
<circle cx="109.092" cy="3.052" r="1" stroke="red" stroke-width="1" fill="red" />
<circle cx="761.116" cy="177.723" r="1" stroke="red" stroke-width="1" fill="red" />
<circle cx="480.168" cy="589.336" r="1" stroke="red" stroke-width="1" fill="red" />
<circle cx="805.585" cy="420.519" r="1" stroke="red" stroke-width="1" fill="red" />
<circle cx="421.077" cy="565.628" r="1" stroke="red" stroke-width="1" fill="red" />
<circle cx="315.863" cy="107.399" r="1" stroke="red" stroke-width="1" fill="red" />
<circle cx="811.721" cy="377.728" r="1" stroke="red" stroke-width="1" fill="red" />
<circle cx="49.198" cy="834.475" r="1" stroke="red" stroke-width="1" fill="red" />
<circle cx="267.071" cy="232.759" r="1" stroke="red" stroke-width="1" fill="red" />
<circle cx="960.886" cy="74.218" r="1" stroke="red" stroke-width="1" fill="red" />
<circle cx="926.171" cy="555.428" r="1" stroke="red" stroke-width="1" fill="red" />
<circle cx="815.381" cy="567.239" r="1" stroke="red" stroke-width="1" fill="red" />
<circle cx="172.071" cy="945.866" r="1" stroke="red" stroke-width="1" fill="red" />
<circle cx="272.543" cy="907.314" r="1" stroke="red" stroke-width="1" fill="red" />
<circle cx="597.823" cy="358.965" r="1" stroke="red" stroke-width="1" fill="red" />
<circle cx="92.261" cy="816.974" r="1" stroke="red" stroke-width="1" fill="red" />
<circle cx="776.575" cy="636.371" r="1" stroke="red" stroke-width="1" fill="red" />
<circle cx="754.303" cy="919.233" r="1" stroke="red" stroke-width="1" fill="red" />
<circle cx="866.227" cy="888.096" r="1" stroke="red" stroke-width="1" fill="red" />
<circle cx="607.519" cy="301.577" r="1" stroke="red" stroke-width="1" fill="red" />
<circle cx="469.475" cy="58.975" r="1" stroke="red" stroke-width="1" fill="red" />
<circle cx="760.689" cy="415.229" r="1" stroke="red" stroke-width="1" fill="red" />
<circle cx="550.788" cy="992.911" r="1" stroke="red" stroke-width="1" fill="red" />
<circle cx="911.222" cy="859.235" r="1" stroke="red" stroke-width="1" fill="red" />
<circle cx="431.712" cy="832.001" r="1" stroke="red" stroke-width="1" fill="red" />
<circle cx="578.569" cy="598.851" r="1" stroke="red" stroke-width="1" fill="red" />
<circle cx="263.945" cy="62.641" r="1" stroke="red" stroke-width="1" fill="red" />
<circle cx="56.700" cy="568.940" r="1" stroke="red" stroke-width="1" fill="red" />
<circle cx="393.162" cy="29.366" r="1" stroke="red" stroke-width="1" fill="red" />
<circle cx="78.081" cy="493.660" r="1" stroke="red" stroke-width="1" fill="red" />
<circle cx="246.617" cy="657.976" r="1" stroke="red" stroke-width="1" fill="red" />
<circle cx="612.173" cy="677.365" r="1" stroke="red" stroke-width="1" fill="red" />
<circle cx="767.897" cy="508.061" r="1" stroke="red" stroke-width="1" fill="red" />
<circle cx="636.519" cy="395.880" r="1" stroke="red" stroke-width="1" fill="red" />
<circle cx="214.424" cy="910.951" r="1" stroke="red" stroke-width="1" fill="red" />
<circle cx="815.799" cy="334.462" r="1" stroke="red" stroke-width="1" fill="red" />
<circle cx="295.887" cy="18.008" r="1" stroke="red" stroke-width="1" fill="red" />
<circle cx="813.452" cy="600.727" r="1" stroke="red" stroke-width="1" fill="red" />
<circle cx="735.014" cy="560.775" r="1" stroke="red" stroke-width="1" fill="red" />
<circle cx="327.188" cy="922.755" r="1" stroke="red" stroke-width="1" fill="red" />
<circle cx="666.430" cy="580.363" r="1" stroke="red" stroke-width="1" fill="red" />
<circle cx="740.193" cy="556.427" r="1" stroke="red" stroke-width="1" fill="red" />
<circle cx="347.207" cy="125.224" r="1" stroke="red" stroke-width="1" fill="red" />
<circle cx="774.264" cy="39.867" r="1" stroke="red" stroke-width="1" fill="red" />
<circle cx="962.938" cy="964.120" r="1" stroke="red" stroke-width="1" fill="red" />
<circle cx="932.423" cy="87.243" r="1" stroke="red" stroke-width="1" fill="red" />
<circle cx="650.448" cy="572.856" r="1" stroke="red" stroke-width="1" fill="red" />
<circle cx="173.213" cy="619.702" r="1" stroke="red" stroke-width="1" fill="red" />
<circle cx="930.279" cy="260.255" r="1" stroke="red" stroke-width="1" fill="red" />
<circle cx="714.794" cy="756.343" r="1" stroke="red" stroke-width="1" fill="red" />
<circle cx="222.118" cy="168.606" r="1" stroke="red" stroke-width="1" fill="red" />
<circle cx="562.218" cy="965.696" r="1" stroke="red" stroke-width="1" fill="red" />
<circle cx="820.932" cy="158.527" r="1" stroke="red" stroke-width="1" fill="red" />
<circle cx="349.734" cy="322.951" r="1" stroke="red" stroke-width="1" fill="red" />
<circle cx="305.915" cy="875.574" r="1" stroke="red" stroke-width="1" fill="red" />
<circle cx="9.916" cy="105.002" r="1" stroke="red" stroke-width="1" fill="red" />
<circle cx="280.746" cy="752.593" r="1" stroke="red" stroke-width="1" fill="red" />
<circle cx="112.514" cy="116.581" r="1" stroke="red" stroke-width="1" fill="red" />
<circle cx="214.274" cy="788.093" r="1" stroke="red" stroke-width="1" fill="red" />
<circle cx="296.865" cy="442.531" r="1" stroke="red" stroke-width="1" fill="red" />
<circle cx="597.078" cy="93.230" r="1" stroke="red" stroke-width="1" fill="red" />
<circle cx="629.556" cy="558.200" r="1" stroke="red" stroke-width="1" fill="red" />
<circle cx="306.757" cy="864.497" r="1" stroke="red" stroke-width="1" fill="red" />
<circle cx="175.996" cy="170.908" r="1" stroke="red" stroke-width="1" fill="red" />
<circle cx="626.236" cy="18.126" r="1" stroke="red" stroke-width="1" fill="red" />
<circle cx="696.602" cy="809.691" r="1" stroke="red" stroke-width="1" fill="red" />
<circle cx="842.962" cy="862.171" r="1" stroke="red" stroke-width="1" fill="red" />
<circle cx="737.313" cy="531.869" r="1" stroke="red" stroke-width="1" fill="red" />
<circle cx="504.347" cy="343.063" r="1" stroke="red" stroke-width="1" fill="red" />
<circle cx="231.849" cy="771.615" r="1" stroke="red" stroke-width="1" fill="red" />
<circle cx="886.974" cy="160.888" r="1" stroke="red" stroke-width="1" fill="red" />
<circle cx="193.753" cy="480.414" r="1" stroke="red" stroke-width="1" fill="red" />
<circle cx="161.438" cy="872.169" r="1" stroke="red" stroke-width="1" fill="red" />
<circle cx="850.529" cy="225.250" r="1" stroke="red" stroke-width="1" fill="red" />
<circle cx="926.929" cy="264.881" r="1" stroke="red" stroke-width="1" fill="red" />
<circle cx="201.516" cy="553.434" r="1" stroke="red" stroke-width="1" fill="red" />
<circle cx="63.324" cy="673.475" r="1" stroke="red" stroke-width="1" fill="red" />
<circle cx="516.417" cy="32.852" r="1" stroke="red" stroke-width="1" fill="red" />
<circle cx="134.382" cy="814.232" r="1" stroke="red" stroke-width="1" fill="red" />
<circle cx="57.628" cy="93.167" r="1" stroke="red" stroke-width="1" fill="red" />
<circle cx="845.791" cy="550.406" r="1" stroke="red" stroke-width="1" fill="red" />
<circle cx="212.903" cy="438.480" r="1" stroke="red" stroke-width="1" fill="red" />
<circle cx="850.356" cy="251.309" r="1" stroke="red" stroke-width="1" fill="red" />
<circle cx="60.578" cy="876.592" r="1" stroke="red" stroke-width="1" fill="red" />
<circle cx="337.682" cy="101.607" r="1" stroke="red" stroke-width="1" fill="red" />
<circle cx="662.192" cy="850.812" r="1" stroke="red" stroke-width="1" fill="red" />
<circle cx="178.322" cy="360.891" r="1" stroke="red" stroke-width="1" fill="red" />
<circle cx="217.407" cy="768.745" r="1" stroke="red" stroke-width="1" fill="red" />
<circle cx="536.819" cy="656.031" r="1" stroke="red" stroke-width="1" fill="red" />
<circle cx="791.860" cy="156.981" r="1" stroke="red" stroke-width="1" fill="red" />
<circle cx="389.359" cy="148.592" r="1" stroke="red" stroke-width="1" fill="red" />
<circle cx="780.865" cy="160.802" r="1" stroke="red" stroke-width="1" fill="red" />
<circle cx="829.867" cy="452.331" r="1" stroke="red" stroke-width="1" fill="red" />
<circle cx="199.917" cy="471.525" r="1" stroke="red" stroke-width="1" fill="red" />
<circle cx="659.775" cy="886.387" r="1" stroke="red" stroke-width="1" fill="red" />
<circle cx="178.670" cy="600.547" r="1" stroke="red" stroke-width="1" fill="red" />
<circle cx="211.419" cy="893.119" r="1" stroke="red" stroke-width="1" fill="red" />
<circle cx="354.549" cy="489.940" r="1" stroke="red" stroke-width="1" fill="red" />
<circle cx="343.703" cy="129.226" r="1" stroke="red" stroke-width="1" fill="red" />
<circle cx="887.014" cy="245.797" r="1" stroke="red" stroke-width="1" fill="red" />
<circle cx="387.836" cy="849.768" r="1" stroke="red" stroke-width="1" fill="red" />
<circle cx="202.442" cy="504.572" r="1" stroke="red" stroke-width="1" fill="red" />
<circle cx="199.580" cy="891.294" r="1" stroke="red" stroke-width="1" fill="red" />
<circle cx="325.865" cy="695.319" r="1" stroke="red" stroke-width="1" fill="red" />
<circle cx="189.742" cy="59.629" r="1" stroke="red" stroke-width="1" fill="red" />
<circle cx="792.931" cy="572.343" r="1" stroke="red" stroke-width="1" fill="red" />
<circle cx="908.884" cy="715.944" r="1" stroke="red" stroke-width="1" fill="red" />
<circle cx="447.906" cy="922.440" r="1" stroke="red" stroke-width="1" fill="red" />
<circle cx="743.659" cy="840.498" r="1" stroke="red" stroke-width="1" fill="red" />
<circle cx="973.675" cy="364.582" r="1" stroke="red" stroke-width="1" fill="red" />
<circle cx="37.990" cy="438.464" r="1" stroke="red" stroke-width="1" fill="red" />
<circle cx="46.115" cy="458.104" r="1" stroke="red" stroke-width="1" fill="red" />
<circle cx="411.253" cy="525.408" r="1" stroke="red" stroke-width="1" fill="red" />
<circle cx="130.477" cy="382.460" r="1" stroke="red" stroke-width="1" fill="red" />
<circle cx="148.090" cy="901.128" r="1" stroke="red" stroke-width="1" fill="red" />
<circle cx="92.592" cy="844.896" r="1" stroke="red" stroke-width="1" fill="red" />
<circle cx="326.125" cy="275.868" r="1" stroke="red" stroke-width="1" fill="red" />
<circle cx="634.554" cy="737.183" r="1" stroke="red" stroke-width="1" fill="red" />
<circle cx="144.320" cy="759.610" r="1" stroke="red" stroke-width="1" fill="red" />
<circle cx="175.058" cy="517.150" r="1" stroke="red" stroke-width="1" fill="red" />
<circle cx="145.239" cy="50.397" r="1" stroke="red" stroke-width="1" fill="red" />
<circle cx="917.130" cy="6.762" r="1" stroke="red" stroke-width="1" fill="red" />
<circle cx="21.703" cy="793.565" r="1" stroke="red" stroke-width="1" fill="red" />
<circle cx="3.716" cy="376.884" r="1" stroke="red" stroke-width="1" fill="red" />
<circle cx="494.678" cy="593.342" r="1" stroke="red" stroke-width="1" fill="red" />
<circle cx="462.561" cy="248.880" r="1" stroke="red" stroke-width="1" fill="red" />
<circle cx="236.892" cy="740.938" r="1" stroke="red" stroke-width="1" fill="red" />
<circle cx="121.471" cy="556.582" r="1" stroke="red" stroke-width="1" fill="red" />
<circle cx="743.924" cy="139.940" r="1" stroke="red" stroke-width="1" fill="red" />
</svg>
