<svg xmlns = "http://www.w3.org/2000/svg" width = "1000" height = "1000">
<g>
<polygon points = "260.600, 846.863 202.958, 864.297 209.048, 893.033 271.288, 875.856 "
fill = "none" stroke = "black"/>
</g>
<g>
<polygon points = "712.390, 847.070 721.319, 823.700 704.995, 804.263 689.279, 847.265 693.231, 861.794 696.231, 864.528 "
fill = "none" stroke = "black"/>
</g>
<g>
<polygon points = "531.913, 355.596 522.468, 350.192 477.234, 381.266 480.372, 408.654 515.087, 423.801 519.446, 423.297 "
fill = "none" stroke = "black"/>
</g>
<g>
<polygon points = "262.836, 144.999 266.046, 155.245 309.259, 192.051 353.519, 219.376 392.031, 201.184 408.255, 152.845 403.983, 137.541 351.321, 87.643 "
fill = "none" stroke = "black"/>
</g>
<g>
<polygon points = "335.600, 978.873 263.225, 942.434 224.723, 966.541 219.788, 999.000 334.482, 999.000 "
fill = "none" stroke = "black"/>
</g>
<g>
<polygon points = "514.924, 483.007 538.424, 469.175 546.009, 447.611 521.484, 423.907 519.446, 423.297 515.087, 423.801 494.074, 475.834 "
fill = "none" stroke = "black"/>
</g>
<g>
<polygon points = "799.531, 980.714 852.651, 940.682 859.751, 903.947 813.196, 856.312 810.891, 855.585 796.873, 863.659 788.778, 968.207 "
fill = "none" stroke = "black"/>
</g>
<g>
<polygon points = "772.347, 772.167 708.122, 750.697 699.235, 774.476 704.141, 781.700 747.020, 806.517 750.576, 807.058 775.504, 790.946 "
fill = "none" stroke = "black"/>
</g>
<g>
<polygon points = "418.973, 588.116 415.005, 579.885 380.220, 545.048 294.175, 539.809 275.062, 583.133 295.518, 627.369 393.470, 632.496 "
fill = "none" stroke = "black"/>
</g>
<g>
<polygon points = "123.687, 233.286 123.636, 234.458 159.913, 239.312 176.621, 227.858 189.047, 202.596 185.134, 188.566 151.594, 165.447 "
fill = "none" stroke = "black"/>
</g>
<g>
<polygon points = "88.737, 802.660 163.027, 755.033 162.402, 747.758 121.817, 726.615 12.514, 721.745 1.000, 727.373 1.000, 746.979 "
fill = "none" stroke = "black"/>
</g>
<g>
<polygon points = "892.929, 16.639 918.273, 38.281 935.081, 39.639 999.000, 22.401 999.000, 1.000 889.113, 1.000 "
fill = "none" stroke = "black"/>
</g>
<g>
<polygon points = "114.677, 709.173 97.587, 619.334 61.854, 615.837 53.202, 648.068 "
fill = "none" stroke = "black"/>
</g>
<g>
<polygon points = "650.866, 922.769 706.231, 888.410 696.231, 864.528 693.231, 861.794 650.603, 858.438 608.288, 884.117 614.865, 904.077 633.915, 924.191 "
fill = "none" stroke = "black"/>
</g>
<g>
<polygon points = "374.398, 852.424 403.183, 923.266 430.918, 926.154 444.907, 909.401 436.310, 826.104 396.281, 818.073 375.347, 846.183 "
fill = "none" stroke = "black"/>
</g>
<g>
<polygon points = "530.539, 695.745 523.691, 702.261 516.191, 758.743 521.368, 760.171 603.668, 729.994 606.689, 717.918 "
fill = "none" stroke = "black"/>
</g>
<g>
<polygon points = "990.342, 133.680 954.487, 124.514 911.299, 122.724 899.205, 187.327 943.563, 231.079 "
fill = "none" stroke = "black"/>
</g>
<g>
<polygon points = "634.713, 811.511 633.379, 791.468 633.003, 791.244 588.365, 809.451 585.163, 869.313 606.380, 882.374 "
fill = "none" stroke = "black"/>
</g>
<g>
<polygon points = "344.065, 231.588 343.124, 247.534 343.265, 287.344 366.031, 316.450 394.322, 321.767 410.571, 316.825 450.917, 272.685 392.031, 201.184 353.519, 219.376 "
fill = "none" stroke = "black"/>
</g>
<g>
<polygon points = "512.589, 963.572 516.492, 965.322 541.262, 968.428 541.477, 941.727 482.418, 901.690 482.387, 901.691 478.100, 903.639 "
fill = "none" stroke = "black"/>
</g>
<g>
<polygon points = "633.383, 135.277 641.974, 76.017 620.806, 110.176 "
fill = "none" stroke = "black"/>
</g>
<g>
<polygon points = "764.170, 869.211 793.065, 863.873 750.616, 814.259 746.384, 833.499 "
fill = "none" stroke = "black"/>
</g>
<g>
<polygon points = "752.866, 436.384 782.158, 463.161 810.983, 428.589 753.387, 432.924 "
fill = "none" stroke = "black"/>
</g>
<g>
<polygon points = "803.148, 808.023 775.504, 790.946 750.576, 807.058 750.616, 814.259 793.065, 863.873 796.873, 863.659 810.891, 855.585 "
fill = "none" stroke = "black"/>
</g>
<g>
<polygon points = "127.652, 115.252 125.734, 115.538 151.594, 165.447 185.134, 188.566 202.362, 175.814 226.645, 138.847 "
fill = "none" stroke = "black"/>
</g>
<g>
<polygon points = "608.666, 49.197 649.067, 58.064 665.357, 44.108 661.076, 1.000 587.178, 1.000 "
fill = "none" stroke = "black"/>
</g>
<g>
<polygon points = "864.797, 900.706 882.346, 822.083 813.196, 856.312 859.751, 903.947 "
fill = "none" stroke = "black"/>
</g>
<g>
<polygon points = "330.962, 40.171 351.321, 87.643 403.983, 137.541 451.608, 68.793 468.354, 1.000 342.322, 1.000 "
fill = "none" stroke = "black"/>
</g>
<g>
<polygon points = "809.436, 170.446 795.556, 258.961 839.972, 273.956 845.525, 271.736 867.888, 248.413 846.725, 194.364 "
fill = "none" stroke = "black"/>
</g>
<g>
<polygon points = "649.565, 60.452 649.131, 58.329 649.067, 58.064 608.666, 49.197 587.279, 70.860 602.190, 106.340 620.806, 110.176 641.974, 76.017 "
fill = "none" stroke = "black"/>
</g>
<g>
<polygon points = "71.510, 215.477 42.656, 259.292 56.463, 292.619 101.009, 281.487 117.872, 239.511 "
fill = "none" stroke = "black"/>
</g>
<g>
<polygon points = "224.723, 966.541 211.302, 936.482 196.100, 916.125 170.429, 913.207 104.195, 955.762 110.524, 999.000 219.788, 999.000 "
fill = "none" stroke = "black"/>
</g>
<g>
<polygon points = "847.384, 489.690 897.316, 470.732 900.727, 461.335 893.957, 438.387 868.873, 409.751 820.395, 433.390 "
fill = "none" stroke = "black"/>
</g>
<g>
<polygon points = "172.639, 732.584 162.402, 747.758 163.027, 755.033 175.780, 776.566 256.252, 806.295 301.969, 783.575 335.152, 745.207 319.994, 727.449 "
fill = "none" stroke = "black"/>
</g>
<g>
<polygon points = "897.481, 807.385 910.644, 784.224 877.931, 754.395 803.148, 808.023 810.891, 855.585 813.196, 856.312 882.346, 822.083 "
fill = "none" stroke = "black"/>
</g>
<g>
<polygon points = "975.903, 380.091 951.443, 425.877 961.534, 440.571 995.943, 455.826 999.000, 454.741 999.000, 381.136 "
fill = "none" stroke = "black"/>
</g>
<g>
<polygon points = "291.274, 658.908 319.994, 727.449 335.152, 745.207 352.282, 746.433 371.133, 733.033 403.308, 671.510 393.470, 632.496 295.518, 627.369 "
fill = "none" stroke = "black"/>
</g>
<g>
<polygon points = "986.413, 496.168 971.697, 481.655 919.267, 490.171 934.310, 529.019 940.325, 532.372 953.487, 535.755 "
fill = "none" stroke = "black"/>
</g>
<g>
<polygon points = "944.932, 252.404 943.563, 231.079 899.205, 187.327 846.725, 194.364 867.888, 248.413 "
fill = "none" stroke = "black"/>
</g>
<g>
<polygon points = "934.912, 604.346 979.641, 555.509 953.487, 535.755 940.325, 532.372 "
fill = "none" stroke = "black"/>
</g>
<g>
<polygon points = "723.175, 93.255 649.131, 58.329 649.565, 60.452 681.228, 122.236 719.965, 110.196 "
fill = "none" stroke = "black"/>
</g>
<g>
<polygon points = "845.390, 492.565 859.007, 559.899 871.665, 565.693 890.477, 567.940 934.310, 529.019 919.267, 490.171 897.316, 470.732 847.384, 489.690 "
fill = "none" stroke = "black"/>
</g>
<g>
<polygon points = "836.848, 296.151 850.573, 329.733 891.838, 313.466 845.525, 271.736 839.972, 273.956 "
fill = "none" stroke = "black"/>
</g>
<g>
<polygon points = "836.599, 108.204 829.115, 89.078 804.990, 65.019 735.449, 121.066 770.282, 167.407 807.619, 167.172 "
fill = "none" stroke = "black"/>
</g>
<g>
<polygon points = "196.100, 916.125 211.302, 936.482 279.182, 883.581 271.288, 875.856 209.048, 893.033 "
fill = "none" stroke = "black"/>
</g>
<g>
<polygon points = "625.324, 592.343 628.567, 591.033 668.633, 526.613 667.236, 523.001 606.331, 492.447 585.608, 513.258 568.035, 547.425 571.597, 577.121 "
fill = "none" stroke = "black"/>
</g>
<g>
<polygon points = "916.355, 952.400 892.322, 955.992 895.089, 999.000 931.802, 999.000 "
fill = "none" stroke = "black"/>
</g>
<g>
<polygon points = "169.734, 821.293 157.474, 841.492 153.568, 864.865 170.429, 913.207 196.100, 916.125 209.048, 893.033 202.958, 864.297 "
fill = "none" stroke = "black"/>
</g>
<g>
<polygon points = "70.492, 913.048 72.864, 860.415 67.959, 844.324 1.000, 817.854 1.000, 919.900 "
fill = "none" stroke = "black"/>
</g>
<g>
<polygon points = "429.747, 459.440 458.889, 482.489 494.074, 475.834 515.087, 423.801 480.372, 408.654 "
fill = "none" stroke = "black"/>
</g>
<g>
<polygon points = "997.676, 560.678 986.029, 556.644 979.641, 555.509 934.912, 604.346 931.487, 610.596 938.111, 643.446 "
fill = "none" stroke = "black"/>
</g>
<g>
<polygon points = "221.974, 305.636 225.299, 278.963 169.580, 266.879 153.420, 295.958 198.415, 322.071 "
fill = "none" stroke = "black"/>
</g>
<g>
<polygon points = "202.362, 175.814 185.134, 188.566 189.047, 202.596 220.394, 214.617 244.126, 193.100 244.695, 190.351 "
fill = "none" stroke = "black"/>
</g>
<g>
<polygon points = "415.940, 457.470 408.539, 451.027 320.796, 441.293 308.433, 455.826 290.745, 525.059 294.175, 539.809 380.220, 545.048 "
fill = "none" stroke = "black"/>
</g>
<g>
<polygon points = "408.969, 423.338 360.899, 368.995 341.591, 369.122 315.109, 379.836 320.796, 441.293 408.539, 451.027 "
fill = "none" stroke = "black"/>
</g>
<g>
<polygon points = "784.999, 343.946 760.588, 342.795 768.429, 383.512 777.747, 387.572 790.151, 383.354 "
fill = "none" stroke = "black"/>
</g>
<g>
<polygon points = "557.916, 795.940 588.365, 809.451 633.003, 791.244 627.097, 764.745 603.668, 729.994 521.368, 760.171 "
fill = "none" stroke = "black"/>
</g>
<g>
<polygon points = "462.756, 502.944 458.889, 482.489 429.747, 459.440 415.940, 457.470 380.220, 545.048 415.005, 579.885 "
fill = "none" stroke = "black"/>
</g>
<g>
<polygon points = "549.387, 85.466 541.412, 82.989 525.341, 91.767 485.241, 153.612 518.362, 171.847 576.412, 171.450 "
fill = "none" stroke = "black"/>
</g>
<g>
<polygon points = "67.959, 844.324 72.864, 860.415 157.474, 841.492 169.734, 821.293 175.780, 776.566 163.027, 755.033 88.737, 802.660 "
fill = "none" stroke = "black"/>
</g>
<g>
<polygon points = "114.939, 477.829 118.757, 476.664 91.915, 385.808 77.930, 383.280 34.400, 440.170 "
fill = "none" stroke = "black"/>
</g>
<g>
<polygon points = "989.585, 496.958 986.029, 556.644 997.676, 560.678 999.000, 560.937 999.000, 497.070 "
fill = "none" stroke = "black"/>
</g>
<g>
<polygon points = "58.482, 356.930 39.291, 319.184 1.000, 322.278 1.000, 386.091 "
fill = "none" stroke = "black"/>
</g>
<g>
<polygon points = "962.635, 887.931 934.206, 888.343 904.737, 900.941 930.407, 942.808 951.598, 937.971 "
fill = "none" stroke = "black"/>
</g>
<g>
<polygon points = "714.318, 328.434 651.508, 416.246 656.040, 418.180 721.267, 404.982 724.253, 397.486 "
fill = "none" stroke = "black"/>
</g>
<g>
<polygon points = "697.694, 314.854 669.401, 311.328 624.154, 404.493 628.584, 412.577 651.508, 416.246 714.318, 328.434 714.981, 325.524 "
fill = "none" stroke = "black"/>
</g>
<g>
<polygon points = "39.291, 319.184 56.463, 292.619 42.656, 259.292 1.000, 222.299 1.000, 322.278 "
fill = "none" stroke = "black"/>
</g>
<g>
<polygon points = "531.904, 526.553 568.035, 547.425 585.608, 513.258 538.424, 469.175 514.924, 483.007 "
fill = "none" stroke = "black"/>
</g>
<g>
<polygon points = "182.145, 706.491 172.639, 732.584 319.994, 727.449 291.274, 658.908 "
fill = "none" stroke = "black"/>
</g>
<g>
<polygon points = "692.045, 226.926 704.991, 176.349 669.496, 145.246 641.432, 158.302 604.234, 193.175 605.674, 201.130 621.625, 236.390 623.092, 237.294 684.201, 231.023 "
fill = "none" stroke = "black"/>
</g>
<g>
<polygon points = "478.100, 903.639 482.387, 901.691 495.329, 832.633 476.652, 805.028 436.310, 826.104 444.907, 909.401 "
fill = "none" stroke = "black"/>
</g>
<g>
<polygon points = "726.329, 708.037 728.869, 702.051 691.522, 681.785 640.831, 685.936 679.350, 723.372 706.425, 732.022 "
fill = "none" stroke = "black"/>
</g>
<g>
<polygon points = "863.788, 645.047 876.806, 646.727 871.665, 565.693 859.007, 559.899 810.847, 598.241 "
fill = "none" stroke = "black"/>
</g>
<g>
<polygon points = "907.235, 661.324 938.478, 646.739 938.111, 643.446 931.487, 610.596 890.477, 567.940 871.665, 565.693 876.806, 646.727 "
fill = "none" stroke = "black"/>
</g>
<g>
<polygon points = "286.040, 888.236 279.182, 883.581 211.302, 936.482 224.723, 966.541 263.225, 942.434 "
fill = "none" stroke = "black"/>
</g>
<g>
<polygon points = "311.348, 376.069 297.331, 348.953 285.378, 340.458 262.412, 335.809 220.864, 383.653 221.509, 396.672 227.315, 399.369 "
fill = "none" stroke = "black"/>
</g>
<g>
<polygon points = "815.386, 427.698 815.208, 396.966 790.151, 383.354 777.747, 387.572 752.356, 430.893 753.387, 432.924 810.983, 428.589 "
fill = "none" stroke = "black"/>
</g>
<g>
<polygon points = "935.081, 39.639 918.273, 38.281 896.320, 114.025 911.299, 122.724 954.487, 124.514 "
fill = "none" stroke = "black"/>
</g>
<g>
<polygon points = "728.518, 555.141 705.902, 604.421 713.226, 627.487 757.752, 664.244 765.974, 663.311 805.341, 598.979 753.528, 542.523 "
fill = "none" stroke = "black"/>
</g>
<g>
<polygon points = "912.631, 870.588 902.561, 868.211 883.908, 895.387 904.737, 900.941 934.206, 888.343 "
fill = "none" stroke = "black"/>
</g>
<g>
<polygon points = "970.978, 376.241 912.277, 368.879 893.957, 438.387 900.727, 461.335 951.443, 425.877 975.903, 380.091 "
fill = "none" stroke = "black"/>
</g>
<g>
<polygon points = "679.350, 723.372 640.831, 685.936 638.942, 684.715 631.068, 681.363 616.560, 689.193 606.689, 717.918 603.668, 729.994 627.097, 764.745 "
fill = "none" stroke = "black"/>
</g>
<g>
<polygon points = "641.432, 158.302 669.496, 145.246 681.228, 122.236 649.565, 60.452 641.974, 76.017 633.383, 135.277 "
fill = "none" stroke = "black"/>
</g>
<g>
<polygon points = "912.631, 870.588 934.206, 888.343 962.635, 887.931 999.000, 843.764 999.000, 809.018 "
fill = "none" stroke = "black"/>
</g>
<g>
<polygon points = "118.722, 112.343 125.734, 115.538 127.652, 115.252 235.638, 63.509 238.886, 55.628 200.544, 1.000 119.057, 1.000 "
fill = "none" stroke = "black"/>
</g>
<g>
<polygon points = "238.886, 55.628 330.962, 40.171 342.322, 1.000 200.544, 1.000 "
fill = "none" stroke = "black"/>
</g>
<g>
<polygon points = "905.043, 364.562 897.901, 314.339 891.838, 313.466 850.573, 329.733 841.065, 352.810 846.629, 368.743 861.486, 374.234 "
fill = "none" stroke = "black"/>
</g>
<g>
<polygon points = "749.574, 379.154 724.253, 397.486 721.267, 404.982 752.356, 430.893 777.747, 387.572 768.429, 383.512 "
fill = "none" stroke = "black"/>
</g>
<g>
<polygon points = "12.514, 721.745 53.202, 648.068 61.854, 615.837 1.000, 551.282 1.000, 727.373 "
fill = "none" stroke = "black"/>
</g>
<g>
<polygon points = "653.403, 793.333 699.235, 774.476 708.122, 750.697 706.425, 732.022 679.350, 723.372 627.097, 764.745 633.003, 791.244 633.379, 791.468 "
fill = "none" stroke = "black"/>
</g>
<g>
<polygon points = "802.871, 691.016 817.892, 719.071 875.189, 748.136 907.235, 661.324 876.806, 646.727 863.788, 645.047 "
fill = "none" stroke = "black"/>
</g>
<g>
<polygon points = "244.695, 190.351 244.126, 193.100 257.068, 210.599 309.259, 192.051 266.046, 155.245 "
fill = "none" stroke = "black"/>
</g>
<g>
<polygon points = "72.864, 860.415 70.492, 913.048 72.043, 914.310 153.568, 864.865 157.474, 841.492 "
fill = "none" stroke = "black"/>
</g>
<g>
<polygon points = "178.546, 422.356 172.984, 475.175 175.721, 477.234 186.881, 478.482 252.767, 436.652 227.315, 399.369 221.509, 396.672 "
fill = "none" stroke = "black"/>
</g>
<g>
<polygon points = "204.401, 592.837 189.267, 582.695 108.585, 610.433 99.559, 618.754 178.647, 670.578 "
fill = "none" stroke = "black"/>
</g>
<g>
<polygon points = "460.894, 673.534 501.668, 681.035 509.046, 606.498 482.751, 602.160 "
fill = "none" stroke = "black"/>
</g>
<g>
<polygon points = "751.845, 341.424 749.574, 379.154 768.429, 383.512 760.588, 342.795 "
fill = "none" stroke = "black"/>
</g>
<g>
<polygon points = "585.608, 513.258 606.331, 492.447 614.293, 435.950 546.009, 447.611 538.424, 469.175 "
fill = "none" stroke = "black"/>
</g>
<g>
<polygon points = "245.211, 132.598 226.645, 138.847 202.362, 175.814 244.695, 190.351 266.046, 155.245 262.836, 144.999 "
fill = "none" stroke = "black"/>
</g>
<g>
<polygon points = "883.908, 895.387 902.561, 868.211 897.481, 807.385 882.346, 822.083 864.797, 900.706 "
fill = "none" stroke = "black"/>
</g>
<g>
<polygon points = "773.451, 271.958 798.686, 325.954 836.848, 296.151 839.972, 273.956 795.556, 258.961 "
fill = "none" stroke = "black"/>
</g>
<g>
<polygon points = "473.767, 596.301 482.751, 602.160 509.046, 606.498 547.167, 602.404 571.597, 577.121 568.035, 547.425 531.904, 526.553 525.148, 527.307 484.088, 547.319 "
fill = "none" stroke = "black"/>
</g>
<g>
<polygon points = "602.190, 106.340 578.495, 172.476 604.234, 193.175 641.432, 158.302 633.383, 135.277 620.806, 110.176 "
fill = "none" stroke = "black"/>
</g>
<g>
<polygon points = "995.943, 455.826 973.239, 475.803 971.697, 481.655 986.413, 496.168 989.585, 496.958 999.000, 497.070 999.000, 454.741 "
fill = "none" stroke = "black"/>
</g>
<g>
<polygon points = "540.120, 847.330 576.828, 870.620 585.163, 869.313 588.365, 809.451 557.916, 795.940 "
fill = "none" stroke = "black"/>
</g>
<g>
<polygon points = "861.486, 374.234 846.629, 368.743 815.208, 396.966 815.386, 427.698 820.395, 433.390 868.873, 409.751 "
fill = "none" stroke = "black"/>
</g>
<g>
<polygon points = "746.384, 833.499 750.616, 814.259 750.576, 807.058 747.020, 806.517 721.319, 823.700 712.390, 847.070 "
fill = "none" stroke = "black"/>
</g>
<g>
<polygon points = "421.031, 376.364 417.996, 373.022 376.697, 363.532 360.899, 368.995 408.969, 423.338 "
fill = "none" stroke = "black"/>
</g>
<g>
<polygon points = "256.252, 806.295 175.780, 776.566 169.734, 821.293 202.958, 864.297 260.600, 846.863 "
fill = "none" stroke = "black"/>
</g>
<g>
<polygon points = "61.854, 615.837 97.587, 619.334 99.559, 618.754 108.585, 610.433 117.591, 552.276 42.327, 535.591 1.000, 550.543 1.000, 551.282 "
fill = "none" stroke = "black"/>
</g>
<g>
<polygon points = "462.756, 502.944 463.798, 504.150 525.148, 527.307 531.904, 526.553 514.924, 483.007 494.074, 475.834 458.889, 482.489 "
fill = "none" stroke = "black"/>
</g>
<g>
<polygon points = "997.676, 560.678 938.111, 643.446 938.478, 646.739 999.000, 668.750 999.000, 560.937 "
fill = "none" stroke = "black"/>
</g>
<g>
<polygon points = "951.598, 937.971 930.407, 942.808 916.355, 952.400 931.802, 999.000 999.000, 999.000 999.000, 980.857 "
fill = "none" stroke = "black"/>
</g>
<g>
<polygon points = "588.756, 351.956 646.375, 290.378 623.092, 237.294 621.625, 236.390 572.041, 283.370 "
fill = "none" stroke = "black"/>
</g>
<g>
<polygon points = "949.029, 258.782 945.892, 268.666 970.978, 376.241 975.903, 380.091 999.000, 381.136 999.000, 263.087 "
fill = "none" stroke = "black"/>
</g>
<g>
<polygon points = "725.535, 323.739 714.981, 325.524 714.318, 328.434 724.253, 397.486 749.574, 379.154 751.845, 341.424 "
fill = "none" stroke = "black"/>
</g>
<g>
<polygon points = "989.585, 496.958 986.413, 496.168 953.487, 535.755 979.641, 555.509 986.029, 556.644 "
fill = "none" stroke = "black"/>
</g>
<g>
<polygon points = "665.357, 44.108 649.067, 58.064 649.131, 58.329 723.175, 93.255 737.763, 35.202 "
fill = "none" stroke = "black"/>
</g>
<g>
<polygon points = "511.226, 247.406 605.674, 201.130 604.234, 193.175 578.495, 172.476 576.412, 171.450 518.362, 171.847 505.498, 246.679 "
fill = "none" stroke = "black"/>
</g>
<g>
<polygon points = "297.331, 348.953 311.348, 376.069 315.109, 379.836 341.591, 369.122 366.031, 316.450 343.265, 287.344 "
fill = "none" stroke = "black"/>
</g>
<g>
<polygon points = "550.829, 980.544 541.262, 968.428 516.492, 965.322 476.785, 999.000 561.333, 999.000 "
fill = "none" stroke = "black"/>
</g>
<g>
<polygon points = "452.066, 273.159 505.498, 246.679 518.362, 171.847 485.241, 153.612 408.255, 152.845 392.031, 201.184 450.917, 272.685 "
fill = "none" stroke = "black"/>
</g>
<g>
<polygon points = "469.847, 747.101 371.133, 733.033 352.282, 746.433 396.281, 818.073 436.310, 826.104 476.652, 805.028 496.033, 766.857 "
fill = "none" stroke = "black"/>
</g>
<g>
<polygon points = "72.043, 914.310 104.195, 955.762 170.429, 913.207 153.568, 864.865 "
fill = "none" stroke = "black"/>
</g>
<g>
<polygon points = "945.892, 268.666 897.901, 314.339 905.043, 364.562 912.277, 368.879 970.978, 376.241 "
fill = "none" stroke = "black"/>
</g>
<g>
<polygon points = "768.632, 168.511 770.282, 167.407 735.449, 121.066 719.965, 110.196 681.228, 122.236 669.496, 145.246 704.991, 176.349 "
fill = "none" stroke = "black"/>
</g>
<g>
<polygon points = "646.375, 290.378 669.401, 311.328 697.694, 314.854 704.583, 275.071 684.201, 231.023 623.092, 237.294 "
fill = "none" stroke = "black"/>
</g>
<g>
<polygon points = "990.342, 133.680 943.563, 231.079 944.932, 252.404 949.029, 258.782 999.000, 263.087 999.000, 130.844 "
fill = "none" stroke = "black"/>
</g>
<g>
<polygon points = "633.915, 924.191 614.865, 904.077 605.151, 910.367 550.829, 980.544 561.333, 999.000 612.506, 999.000 "
fill = "none" stroke = "black"/>
</g>
<g>
<polygon points = "125.819, 300.772 153.420, 295.958 169.580, 266.879 159.913, 239.312 123.636, 234.458 117.872, 239.511 101.009, 281.487 "
fill = "none" stroke = "black"/>
</g>
<g>
<polygon points = "757.752, 664.244 713.226, 627.487 710.331, 629.560 688.099, 663.136 691.522, 681.785 728.869, 702.051 "
fill = "none" stroke = "black"/>
</g>
<g>
<polygon points = "191.186, 340.091 136.796, 372.472 178.546, 422.356 221.509, 396.672 220.864, 383.653 "
fill = "none" stroke = "black"/>
</g>
<g>
<polygon points = "42.327, 535.591 117.591, 552.276 124.664, 548.353 135.010, 480.660 118.757, 476.664 114.939, 477.829 "
fill = "none" stroke = "black"/>
</g>
<g>
<polygon points = "66.861, 369.848 58.482, 356.930 1.000, 386.091 1.000, 390.636 "
fill = "none" stroke = "black"/>
</g>
<g>
<polygon points = "737.763, 35.202 723.175, 93.255 719.965, 110.196 735.449, 121.066 804.990, 65.019 768.378, 12.490 "
fill = "none" stroke = "black"/>
</g>
<g>
<polygon points = "1.000, 129.171 104.977, 118.436 118.722, 112.343 119.057, 1.000 1.000, 1.000 "
fill = "none" stroke = "black"/>
</g>
<g>
<polygon points = "512.848, 321.411 456.264, 279.498 456.284, 368.034 477.234, 381.266 522.468, 350.192 "
fill = "none" stroke = "black"/>
</g>
<g>
<polygon points = "798.686, 325.954 798.452, 332.835 841.065, 352.810 850.573, 329.733 836.848, 296.151 "
fill = "none" stroke = "black"/>
</g>
<g>
<polygon points = "96.162, 180.964 70.035, 210.711 71.510, 215.477 117.872, 239.511 123.636, 234.458 123.687, 233.286 "
fill = "none" stroke = "black"/>
</g>
<g>
<polygon points = "734.576, 232.687 768.632, 168.511 704.991, 176.349 692.045, 226.926 "
fill = "none" stroke = "black"/>
</g>
<g>
<polygon points = "252.767, 436.652 186.881, 478.482 290.745, 525.059 308.433, 455.826 "
fill = "none" stroke = "black"/>
</g>
<g>
<polygon points = "800.800, 502.947 845.390, 492.565 847.384, 489.690 820.395, 433.390 815.386, 427.698 810.983, 428.589 782.158, 463.161 "
fill = "none" stroke = "black"/>
</g>
<g>
<polygon points = "636.452, 658.136 710.331, 629.560 713.226, 627.487 705.902, 604.421 628.567, 591.033 625.324, 592.343 "
fill = "none" stroke = "black"/>
</g>
<g>
<polygon points = "938.478, 646.739 907.235, 661.324 875.189, 748.136 877.931, 754.395 910.644, 784.224 999.000, 795.526 999.000, 668.750 "
fill = "none" stroke = "black"/>
</g>
<g>
<polygon points = "279.182, 883.581 286.040, 888.236 286.642, 888.297 318.035, 824.218 301.969, 783.575 256.252, 806.295 260.600, 846.863 271.288, 875.856 "
fill = "none" stroke = "black"/>
</g>
<g>
<polygon points = "286.103, 315.027 285.378, 340.458 297.331, 348.953 343.265, 287.344 343.124, 247.534 "
fill = "none" stroke = "black"/>
</g>
<g>
<polygon points = "973.239, 475.803 995.943, 455.826 961.534, 440.571 "
fill = "none" stroke = "black"/>
</g>
<g>
<polygon points = "104.195, 955.762 72.043, 914.310 70.492, 913.048 1.000, 919.900 1.000, 999.000 110.524, 999.000 "
fill = "none" stroke = "black"/>
</g>
<g>
<polygon points = "807.619, 167.172 770.282, 167.407 768.632, 168.511 734.576, 232.687 748.765, 255.210 768.653, 272.123 773.451, 271.958 795.556, 258.961 809.436, 170.446 "
fill = "none" stroke = "black"/>
</g>
<g>
<polygon points = "733.218, 478.685 760.417, 523.846 800.800, 502.947 782.158, 463.161 752.866, 436.384 "
fill = "none" stroke = "black"/>
</g>
<g>
<polygon points = "692.198, 970.146 650.866, 922.769 633.915, 924.191 612.506, 999.000 682.159, 999.000 "
fill = "none" stroke = "black"/>
</g>
<g>
<polygon points = "782.156, 963.999 788.778, 968.207 796.873, 863.659 793.065, 863.873 764.170, 869.211 721.542, 896.931 722.385, 898.919 "
fill = "none" stroke = "black"/>
</g>
<g>
<polygon points = "875.189, 748.136 817.892, 719.071 780.172, 753.659 772.347, 772.167 775.504, 790.946 803.148, 808.023 877.931, 754.395 "
fill = "none" stroke = "black"/>
</g>
<g>
<polygon points = "178.647, 670.578 99.559, 618.754 97.587, 619.334 114.677, 709.173 121.817, 726.615 162.402, 747.758 172.639, 732.584 182.145, 706.491 "
fill = "none" stroke = "black"/>
</g>
<g>
<polygon points = "768.653, 272.123 725.535, 323.739 751.845, 341.424 760.588, 342.795 784.999, 343.946 798.452, 332.835 798.686, 325.954 773.451, 271.958 "
fill = "none" stroke = "black"/>
</g>
<g>
<polygon points = "586.543, 366.930 593.817, 377.615 624.154, 404.493 669.401, 311.328 646.375, 290.378 588.756, 351.956 "
fill = "none" stroke = "black"/>
</g>
<g>
<polygon points = "541.412, 82.989 549.387, 85.466 587.279, 70.860 608.666, 49.197 587.178, 1.000 509.014, 1.000 "
fill = "none" stroke = "black"/>
</g>
<g>
<polygon points = "451.572, 679.641 403.308, 671.510 371.133, 733.033 469.847, 747.101 "
fill = "none" stroke = "black"/>
</g>
<g>
<polygon points = "935.081, 39.639 954.487, 124.514 990.342, 133.680 999.000, 130.844 999.000, 22.401 "
fill = "none" stroke = "black"/>
</g>
<g>
<polygon points = "186.881, 478.482 175.721, 477.234 183.897, 572.931 189.267, 582.695 204.401, 592.837 275.062, 583.133 294.175, 539.809 290.745, 525.059 "
fill = "none" stroke = "black"/>
</g>
<g>
<polygon points = "118.722, 112.343 104.977, 118.436 96.162, 180.964 123.687, 233.286 151.594, 165.447 125.734, 115.538 "
fill = "none" stroke = "black"/>
</g>
<g>
<polygon points = "496.033, 766.857 476.652, 805.028 495.329, 832.633 519.160, 849.179 540.120, 847.330 557.916, 795.940 521.368, 760.171 516.191, 758.743 "
fill = "none" stroke = "black"/>
</g>
<g>
<polygon points = "543.944, 897.964 545.076, 930.875 605.151, 910.367 614.865, 904.077 608.288, 884.117 606.380, 882.374 585.163, 869.313 576.828, 870.620 "
fill = "none" stroke = "black"/>
</g>
<g>
<polygon points = "516.492, 965.322 512.589, 963.572 441.012, 954.528 438.065, 999.000 476.785, 999.000 "
fill = "none" stroke = "black"/>
</g>
<g>
<polygon points = "67.959, 844.324 88.737, 802.660 1.000, 746.979 1.000, 817.854 "
fill = "none" stroke = "black"/>
</g>
<g>
<polygon points = "235.638, 63.509 127.652, 115.252 226.645, 138.847 245.211, 132.598 "
fill = "none" stroke = "black"/>
</g>
<g>
<polygon points = "229.642, 270.752 176.621, 227.858 159.913, 239.312 169.580, 266.879 225.299, 278.963 "
fill = "none" stroke = "black"/>
</g>
<g>
<polygon points = "519.998, 887.373 519.160, 849.179 495.329, 832.633 482.387, 901.691 482.418, 901.690 "
fill = "none" stroke = "black"/>
</g>
<g>
<polygon points = "768.653, 272.123 748.765, 255.210 704.583, 275.071 697.694, 314.854 714.981, 325.524 725.535, 323.739 "
fill = "none" stroke = "black"/>
</g>
<g>
<polygon points = "334.993, 842.574 318.035, 824.218 286.642, 888.297 302.310, 892.626 "
fill = "none" stroke = "black"/>
</g>
<g>
<polygon points = "605.151, 910.367 545.076, 930.875 541.477, 941.727 541.262, 968.428 550.829, 980.544 "
fill = "none" stroke = "black"/>
</g>
<g>
<polygon points = "133.194, 371.547 136.796, 372.472 191.186, 340.091 198.415, 322.071 153.420, 295.958 125.819, 300.772 "
fill = "none" stroke = "black"/>
</g>
<g>
<polygon points = "614.293, 435.950 628.584, 412.577 624.154, 404.493 593.817, 377.615 521.484, 423.907 546.009, 447.611 "
fill = "none" stroke = "black"/>
</g>
<g>
<polygon points = "760.417, 523.846 753.528, 542.523 805.341, 598.979 810.847, 598.241 859.007, 559.899 845.390, 492.565 800.800, 502.947 "
fill = "none" stroke = "black"/>
</g>
<g>
<polygon points = "286.103, 315.027 278.830, 255.016 263.937, 254.348 239.000, 261.561 229.642, 270.752 225.299, 278.963 221.974, 305.636 262.412, 335.809 285.378, 340.458 "
fill = "none" stroke = "black"/>
</g>
<g>
<polygon points = "829.115, 89.078 836.599, 108.204 896.320, 114.025 918.273, 38.281 892.929, 16.639 "
fill = "none" stroke = "black"/>
</g>
<g>
<polygon points = "410.571, 316.825 394.322, 321.767 376.697, 363.532 417.996, 373.022 "
fill = "none" stroke = "black"/>
</g>
<g>
<polygon points = "705.902, 604.421 728.518, 555.141 668.633, 526.613 628.567, 591.033 "
fill = "none" stroke = "black"/>
</g>
<g>
<polygon points = "694.849, 968.175 722.385, 898.919 721.542, 896.931 706.231, 888.410 650.866, 922.769 692.198, 970.146 "
fill = "none" stroke = "black"/>
</g>
<g>
<polygon points = "183.897, 572.931 124.664, 548.353 117.591, 552.276 108.585, 610.433 189.267, 582.695 "
fill = "none" stroke = "black"/>
</g>
<g>
<polygon points = "39.291, 319.184 58.482, 356.930 66.861, 369.848 69.129, 373.077 77.930, 383.280 91.915, 385.808 133.194, 371.547 125.819, 300.772 101.009, 281.487 56.463, 292.619 "
fill = "none" stroke = "black"/>
</g>
<g>
<polygon points = "451.608, 68.793 403.983, 137.541 408.255, 152.845 485.241, 153.612 525.341, 91.767 "
fill = "none" stroke = "black"/>
</g>
<g>
<polygon points = "586.543, 366.930 588.756, 351.956 572.041, 283.370 563.676, 283.763 512.848, 321.411 522.468, 350.192 531.913, 355.596 "
fill = "none" stroke = "black"/>
</g>
<g>
<polygon points = "34.400, 440.170 77.930, 383.280 69.129, 373.077 1.000, 399.447 1.000, 457.733 "
fill = "none" stroke = "black"/>
</g>
<g>
<polygon points = "183.897, 572.931 175.721, 477.234 172.984, 475.175 135.010, 480.660 124.664, 548.353 "
fill = "none" stroke = "black"/>
</g>
<g>
<polygon points = "802.871, 691.016 863.788, 645.047 810.847, 598.241 805.341, 598.979 765.974, 663.311 "
fill = "none" stroke = "black"/>
</g>
<g>
<polygon points = "892.322, 955.992 852.651, 940.682 799.531, 980.714 798.946, 999.000 895.089, 999.000 "
fill = "none" stroke = "black"/>
</g>
<g>
<polygon points = "318.035, 824.218 334.993, 842.574 375.347, 846.183 396.281, 818.073 352.282, 746.433 335.152, 745.207 301.969, 783.575 "
fill = "none" stroke = "black"/>
</g>
<g>
<polygon points = "563.676, 283.763 572.041, 283.370 621.625, 236.390 605.674, 201.130 511.226, 247.406 "
fill = "none" stroke = "black"/>
</g>
<g>
<polygon points = "441.012, 954.528 512.589, 963.572 478.100, 903.639 444.907, 909.401 430.918, 926.154 "
fill = "none" stroke = "black"/>
</g>
<g>
<polygon points = "919.267, 490.171 971.697, 481.655 973.239, 475.803 961.534, 440.571 951.443, 425.877 900.727, 461.335 897.316, 470.732 "
fill = "none" stroke = "black"/>
</g>
<g>
<polygon points = "12.514, 721.745 121.817, 726.615 114.677, 709.173 53.202, 648.068 "
fill = "none" stroke = "black"/>
</g>
<g>
<polygon points = "799.531, 980.714 788.778, 968.207 782.156, 963.999 694.849, 968.175 692.198, 970.146 682.159, 999.000 798.946, 999.000 "
fill = "none" stroke = "black"/>
</g>
<g>
<polygon points = "896.320, 114.025 836.599, 108.204 807.619, 167.172 809.436, 170.446 846.725, 194.364 899.205, 187.327 911.299, 122.724 "
fill = "none" stroke = "black"/>
</g>
<g>
<polygon points = "912.277, 368.879 905.043, 364.562 861.486, 374.234 868.873, 409.751 893.957, 438.387 "
fill = "none" stroke = "black"/>
</g>
<g>
<polygon points = "945.892, 268.666 949.029, 258.782 944.932, 252.404 867.888, 248.413 845.525, 271.736 891.838, 313.466 897.901, 314.339 "
fill = "none" stroke = "black"/>
</g>
<g>
<polygon points = "653.403, 793.333 689.279, 847.265 704.995, 804.263 704.141, 781.700 699.235, 774.476 "
fill = "none" stroke = "black"/>
</g>
<g>
<polygon points = "456.284, 368.034 456.264, 279.498 452.066, 273.159 450.917, 272.685 410.571, 316.825 417.996, 373.022 421.031, 376.364 "
fill = "none" stroke = "black"/>
</g>
<g>
<polygon points = "815.208, 396.966 846.629, 368.743 841.065, 352.810 798.452, 332.835 784.999, 343.946 790.151, 383.354 "
fill = "none" stroke = "black"/>
</g>
<g>
<polygon points = "721.542, 896.931 764.170, 869.211 746.384, 833.499 712.390, 847.070 696.231, 864.528 706.231, 888.410 "
fill = "none" stroke = "black"/>
</g>
<g>
<polygon points = "616.560, 689.193 631.068, 681.363 636.452, 658.136 625.324, 592.343 571.597, 577.121 547.167, 602.404 561.103, 660.383 "
fill = "none" stroke = "black"/>
</g>
<g>
<polygon points = "930.407, 942.808 904.737, 900.941 883.908, 895.387 864.797, 900.706 859.751, 903.947 852.651, 940.682 892.322, 955.992 916.355, 952.400 "
fill = "none" stroke = "black"/>
</g>
<g>
<polygon points = "780.172, 753.659 817.892, 719.071 802.871, 691.016 765.974, 663.311 757.752, 664.244 728.869, 702.051 726.329, 708.037 "
fill = "none" stroke = "black"/>
</g>
<g>
<polygon points = "728.518, 555.141 753.528, 542.523 760.417, 523.846 733.218, 478.685 691.983, 471.358 667.236, 523.001 668.633, 526.613 "
fill = "none" stroke = "black"/>
</g>
<g>
<polygon points = "634.713, 811.511 606.380, 882.374 608.288, 884.117 650.603, 858.438 "
fill = "none" stroke = "black"/>
</g>
<g>
<polygon points = "962.635, 887.931 951.598, 937.971 999.000, 980.857 999.000, 843.764 "
fill = "none" stroke = "black"/>
</g>
<g>
<polygon points = "403.308, 671.510 451.572, 679.641 460.894, 673.534 482.751, 602.160 473.767, 596.301 418.973, 588.116 393.470, 632.496 "
fill = "none" stroke = "black"/>
</g>
<g>
<polygon points = "239.000, 261.561 263.937, 254.348 257.068, 210.599 244.126, 193.100 220.394, 214.617 "
fill = "none" stroke = "black"/>
</g>
<g>
<polygon points = "563.676, 283.763 511.226, 247.406 505.498, 246.679 452.066, 273.159 456.264, 279.498 512.848, 321.411 "
fill = "none" stroke = "black"/>
</g>
<g>
<polygon points = "42.327, 535.591 114.939, 477.829 34.400, 440.170 1.000, 457.733 1.000, 550.543 "
fill = "none" stroke = "black"/>
</g>
<g>
<polygon points = "136.796, 372.472 133.194, 371.547 91.915, 385.808 118.757, 476.664 135.010, 480.660 172.984, 475.175 178.546, 422.356 "
fill = "none" stroke = "black"/>
</g>
<g>
<polygon points = "545.076, 930.875 543.944, 897.964 519.998, 887.373 482.418, 901.690 541.477, 941.727 "
fill = "none" stroke = "black"/>
</g>
<g>
<polygon points = "104.977, 118.436 1.000, 129.171 1.000, 161.621 70.035, 210.711 96.162, 180.964 "
fill = "none" stroke = "black"/>
</g>
<g>
<polygon points = "593.817, 377.615 586.543, 366.930 531.913, 355.596 519.446, 423.297 521.484, 423.907 "
fill = "none" stroke = "black"/>
</g>
<g>
<polygon points = "614.293, 435.950 606.331, 492.447 667.236, 523.001 691.983, 471.358 656.040, 418.180 651.508, 416.246 628.584, 412.577 "
fill = "none" stroke = "black"/>
</g>
<g>
<polygon points = "69.129, 373.077 66.861, 369.848 1.000, 390.636 1.000, 399.447 "
fill = "none" stroke = "black"/>
</g>
<g>
<polygon points = "311.348, 376.069 227.315, 399.369 252.767, 436.652 308.433, 455.826 320.796, 441.293 315.109, 379.836 "
fill = "none" stroke = "black"/>
</g>
<g>
<polygon points = "768.378, 12.490 804.990, 65.019 829.115, 89.078 892.929, 16.639 889.113, 1.000 770.046, 1.000 "
fill = "none" stroke = "black"/>
</g>
<g>
<polygon points = "543.944, 897.964 576.828, 870.620 540.120, 847.330 519.160, 849.179 519.998, 887.373 "
fill = "none" stroke = "black"/>
</g>
<g>
<polygon points = "221.974, 305.636 198.415, 322.071 191.186, 340.091 220.864, 383.653 262.412, 335.809 "
fill = "none" stroke = "black"/>
</g>
<g>
<polygon points = "441.012, 954.528 430.918, 926.154 403.183, 923.266 347.713, 943.042 335.600, 978.873 334.482, 999.000 438.065, 999.000 "
fill = "none" stroke = "black"/>
</g>
<g>
<polygon points = "747.020, 806.517 704.141, 781.700 704.995, 804.263 721.319, 823.700 "
fill = "none" stroke = "black"/>
</g>
<g>
<polygon points = "780.172, 753.659 726.329, 708.037 706.425, 732.022 708.122, 750.697 772.347, 772.167 "
fill = "none" stroke = "black"/>
</g>
<g>
<polygon points = "347.713, 943.042 322.534, 905.102 302.310, 892.626 286.642, 888.297 286.040, 888.236 263.225, 942.434 335.600, 978.873 "
fill = "none" stroke = "black"/>
</g>
<g>
<polygon points = "257.068, 210.599 263.937, 254.348 278.830, 255.016 344.065, 231.588 353.519, 219.376 309.259, 192.051 "
fill = "none" stroke = "black"/>
</g>
<g>
<polygon points = "549.387, 85.466 576.412, 171.450 578.495, 172.476 602.190, 106.340 587.279, 70.860 "
fill = "none" stroke = "black"/>
</g>
<g>
<polygon points = "931.487, 610.596 934.912, 604.346 940.325, 532.372 934.310, 529.019 890.477, 567.940 "
fill = "none" stroke = "black"/>
</g>
<g>
<polygon points = "451.608, 68.793 525.341, 91.767 541.412, 82.989 509.014, 1.000 468.354, 1.000 "
fill = "none" stroke = "black"/>
</g>
<g>
<polygon points = "229.642, 270.752 239.000, 261.561 220.394, 214.617 189.047, 202.596 176.621, 227.858 "
fill = "none" stroke = "black"/>
</g>
<g>
<polygon points = "561.103, 660.383 547.167, 602.404 509.046, 606.498 501.668, 681.035 523.691, 702.261 530.539, 695.745 "
fill = "none" stroke = "black"/>
</g>
<g>
<polygon points = "665.357, 44.108 737.763, 35.202 768.378, 12.490 770.046, 1.000 661.076, 1.000 "
fill = "none" stroke = "black"/>
</g>
<g>
<polygon points = "782.156, 963.999 722.385, 898.919 694.849, 968.175 "
fill = "none" stroke = "black"/>
</g>
<g>
<polygon points = "501.668, 681.035 460.894, 673.534 451.572, 679.641 469.847, 747.101 496.033, 766.857 516.191, 758.743 523.691, 702.261 "
fill = "none" stroke = "black"/>
</g>
<g>
<polygon points = "322.534, 905.102 347.713, 943.042 403.183, 923.266 374.398, 852.424 "
fill = "none" stroke = "black"/>
</g>
<g>
<polygon points = "70.035, 210.711 1.000, 161.621 1.000, 222.299 42.656, 259.292 71.510, 215.477 "
fill = "none" stroke = "black"/>
</g>
<g>
<polygon points = "484.088, 547.319 525.148, 527.307 463.798, 504.150 "
fill = "none" stroke = "black"/>
</g>
<g>
<polygon points = "752.356, 430.893 721.267, 404.982 656.040, 418.180 691.983, 471.358 733.218, 478.685 752.866, 436.384 753.387, 432.924 "
fill = "none" stroke = "black"/>
</g>
<g>
<polygon points = "631.068, 681.363 638.942, 684.715 688.099, 663.136 710.331, 629.560 636.452, 658.136 "
fill = "none" stroke = "black"/>
</g>
<g>
<polygon points = "653.403, 793.333 633.379, 791.468 634.713, 811.511 650.603, 858.438 693.231, 861.794 689.279, 847.265 "
fill = "none" stroke = "black"/>
</g>
<g>
<polygon points = "561.103, 660.383 530.539, 695.745 606.689, 717.918 616.560, 689.193 "
fill = "none" stroke = "black"/>
</g>
<g>
<polygon points = "394.322, 321.767 366.031, 316.450 341.591, 369.122 360.899, 368.995 376.697, 363.532 "
fill = "none" stroke = "black"/>
</g>
<g>
<polygon points = "278.830, 255.016 286.103, 315.027 343.124, 247.534 344.065, 231.588 "
fill = "none" stroke = "black"/>
</g>
<g>
<polygon points = "204.401, 592.837 178.647, 670.578 182.145, 706.491 291.274, 658.908 295.518, 627.369 275.062, 583.133 "
fill = "none" stroke = "black"/>
</g>
<g>
<polygon points = "638.942, 684.715 640.831, 685.936 691.522, 681.785 688.099, 663.136 "
fill = "none" stroke = "black"/>
</g>
<g>
<polygon points = "456.284, 368.034 421.031, 376.364 408.969, 423.338 408.539, 451.027 415.940, 457.470 429.747, 459.440 480.372, 408.654 477.234, 381.266 "
fill = "none" stroke = "black"/>
</g>
<g>
<polygon points = "238.886, 55.628 235.638, 63.509 245.211, 132.598 262.836, 144.999 351.321, 87.643 330.962, 40.171 "
fill = "none" stroke = "black"/>
</g>
<g>
<polygon points = "322.534, 905.102 374.398, 852.424 375.347, 846.183 334.993, 842.574 302.310, 892.626 "
fill = "none" stroke = "black"/>
</g>
<g>
<polygon points = "473.767, 596.301 484.088, 547.319 463.798, 504.150 462.756, 502.944 415.005, 579.885 418.973, 588.116 "
fill = "none" stroke = "black"/>
</g>
<g>
<polygon points = "704.583, 275.071 748.765, 255.210 734.576, 232.687 692.045, 226.926 684.201, 231.023 "
fill = "none" stroke = "black"/>
</g>
<g>
<polygon points = "910.644, 784.224 897.481, 807.385 902.561, 868.211 912.631, 870.588 999.000, 809.018 999.000, 795.526 "
fill = "none" stroke = "black"/>
</g>
<circle cx="310.525" cy="148.773" r="1" stroke="red" stroke-width="1" fill="red" />
<circle cx="710.306" cy="820.821" r="1" stroke="red" stroke-width="1" fill="red" />
<circle cx="512.279" cy="391.779" r="1" stroke="red" stroke-width="1" fill="red" />
<circle cx="225.611" cy="867.842" r="1" stroke="red" stroke-width="1" fill="red" />
<circle cx="356.551" cy="592.861" r="1" stroke="red" stroke-width="1" fill="red" />
<circle cx="813.622" cy="904.497" r="1" stroke="red" stroke-width="1" fill="red" />
<circle cx="276.443" cy="967.130" r="1" stroke="red" stroke-width="1" fill="red" />
<circle cx="519.658" cy="455.620" r="1" stroke="red" stroke-width="1" fill="red" />
<circle cx="738.815" cy="780.514" r="1" stroke="red" stroke-width="1" fill="red" />
<circle cx="70.399" cy="766.307" r="1" stroke="red" stroke-width="1" fill="red" />
<circle cx="155.885" cy="208.665" r="1" stroke="red" stroke-width="1" fill="red" />
<circle cx="936.523" cy="5.289" r="1" stroke="red" stroke-width="1" fill="red" />
<circle cx="87.767" cy="668.791" r="1" stroke="red" stroke-width="1" fill="red" />
<circle cx="654.016" cy="882.591" r="1" stroke="red" stroke-width="1" fill="red" />
<circle cx="565.158" cy="709.607" r="1" stroke="red" stroke-width="1" fill="red" />
<circle cx="406.258" cy="872.315" r="1" stroke="red" stroke-width="1" fill="red" />
<circle cx="926.874" cy="173.136" r="1" stroke="red" stroke-width="1" fill="red" />
<circle cx="380.745" cy="297.427" r="1" stroke="red" stroke-width="1" fill="red" />
<circle cx="615.003" cy="837.961" r="1" stroke="red" stroke-width="1" fill="red" />
<circle cx="505.122" cy="931.131" r="1" stroke="red" stroke-width="1" fill="red" />
<circle cx="76.553" cy="239.131" r="1" stroke="red" stroke-width="1" fill="red" />
<circle cx="633.802" cy="108.702" r="1" stroke="red" stroke-width="1" fill="red" />
<circle cx="761.875" cy="835.592" r="1" stroke="red" stroke-width="1" fill="red" />
<circle cx="769.950" cy="828.683" r="1" stroke="red" stroke-width="1" fill="red" />
<circle cx="785.531" cy="452.369" r="1" stroke="red" stroke-width="1" fill="red" />
<circle cx="636.024" cy="8.200" r="1" stroke="red" stroke-width="1" fill="red" />
<circle cx="193.510" cy="154.079" r="1" stroke="red" stroke-width="1" fill="red" />
<circle cx="410.164" cy="43.614" r="1" stroke="red" stroke-width="1" fill="red" />
<circle cx="861.359" cy="857.843" r="1" stroke="red" stroke-width="1" fill="red" />
<circle cx="832.475" cy="235.909" r="1" stroke="red" stroke-width="1" fill="red" />
<circle cx="616.342" cy="97.882" r="1" stroke="red" stroke-width="1" fill="red" />
<circle cx="175.165" cy="951.733" r="1" stroke="red" stroke-width="1" fill="red" />
<circle cx="857.184" cy="426.735" r="1" stroke="red" stroke-width="1" fill="red" />
<circle cx="256.220" cy="750.339" r="1" stroke="red" stroke-width="1" fill="red" />
<circle cx="694.801" cy="81.863" r="1" stroke="red" stroke-width="1" fill="red" />
<circle cx="841.184" cy="817.086" r="1" stroke="red" stroke-width="1" fill="red" />
<circle cx="984.076" cy="443.663" r="1" stroke="red" stroke-width="1" fill="red" />
<circle cx="352.614" cy="668.061" r="1" stroke="red" stroke-width="1" fill="red" />
<circle cx="963.108" cy="504.483" r="1" stroke="red" stroke-width="1" fill="red" />
<circle cx="885.396" cy="215.189" r="1" stroke="red" stroke-width="1" fill="red" />
<circle cx="946.838" cy="567.790" r="1" stroke="red" stroke-width="1" fill="red" />
<circle cx="896.498" cy="530.277" r="1" stroke="red" stroke-width="1" fill="red" />
<circle cx="860.768" cy="306.686" r="1" stroke="red" stroke-width="1" fill="red" />
<circle cx="766.731" cy="109.139" r="1" stroke="red" stroke-width="1" fill="red" />
<circle cx="628.616" cy="537.140" r="1" stroke="red" stroke-width="1" fill="red" />
<circle cx="236.187" cy="906.163" r="1" stroke="red" stroke-width="1" fill="red" />
<circle cx="183.690" cy="876.728" r="1" stroke="red" stroke-width="1" fill="red" />
<circle cx="911.959" cy="985.902" r="1" stroke="red" stroke-width="1" fill="red" />
<circle cx="24.170" cy="861.916" r="1" stroke="red" stroke-width="1" fill="red" />
<circle cx="489.702" cy="443.522" r="1" stroke="red" stroke-width="1" fill="red" />
<circle cx="970.282" cy="589.262" r="1" stroke="red" stroke-width="1" fill="red" />
<circle cx="180.190" cy="285.727" r="1" stroke="red" stroke-width="1" fill="red" />
<circle cx="220.563" cy="190.628" r="1" stroke="red" stroke-width="1" fill="red" />
<circle cx="362.526" cy="494.717" r="1" stroke="red" stroke-width="1" fill="red" />
<circle cx="373.221" cy="398.314" r="1" stroke="red" stroke-width="1" fill="red" />
<circle cx="768.328" cy="367.928" r="1" stroke="red" stroke-width="1" fill="red" />
<circle cx="428.068" cy="521.449" r="1" stroke="red" stroke-width="1" fill="red" />
<circle cx="587.464" cy="770.443" r="1" stroke="red" stroke-width="1" fill="red" />
<circle cx="678.043" cy="190.314" r="1" stroke="red" stroke-width="1" fill="red" />
<circle cx="12.940" cy="374.305" r="1" stroke="red" stroke-width="1" fill="red" />
<circle cx="533.495" cy="127.111" r="1" stroke="red" stroke-width="1" fill="red" />
<circle cx="114.116" cy="834.498" r="1" stroke="red" stroke-width="1" fill="red" />
<circle cx="79.482" cy="440.344" r="1" stroke="red" stroke-width="1" fill="red" />
<circle cx="993.830" cy="521.274" r="1" stroke="red" stroke-width="1" fill="red" />
<circle cx="541.167" cy="492.162" r="1" stroke="red" stroke-width="1" fill="red" />
<circle cx="924.271" cy="908.209" r="1" stroke="red" stroke-width="1" fill="red" />
<circle cx="702.874" cy="372.513" r="1" stroke="red" stroke-width="1" fill="red" />
<circle cx="676.300" cy="353.505" r="1" stroke="red" stroke-width="1" fill="red" />
<circle cx="4.433" cy="269.009" r="1" stroke="red" stroke-width="1" fill="red" />
<circle cx="861.089" cy="607.635" r="1" stroke="red" stroke-width="1" fill="red" />
<circle cx="254.782" cy="709.055" r="1" stroke="red" stroke-width="1" fill="red" />
<circle cx="475.166" cy="865.203" r="1" stroke="red" stroke-width="1" fill="red" />
<circle cx="685.202" cy="691.083" r="1" stroke="red" stroke-width="1" fill="red" />
<circle cx="887.457" cy="605.962" r="1" stroke="red" stroke-width="1" fill="red" />
<circle cx="251.726" cy="373.862" r="1" stroke="red" stroke-width="1" fill="red" />
<circle cx="246.782" cy="919.757" r="1" stroke="red" stroke-width="1" fill="red" />
<circle cx="782.258" cy="408.886" r="1" stroke="red" stroke-width="1" fill="red" />
<circle cx="923.700" cy="868.773" r="1" stroke="red" stroke-width="1" fill="red" />
<circle cx="930.992" cy="73.774" r="1" stroke="red" stroke-width="1" fill="red" />
<circle cx="918.517" cy="408.641" r="1" stroke="red" stroke-width="1" fill="red" />
<circle cx="179.307" cy="58.890" r="1" stroke="red" stroke-width="1" fill="red" />
<circle cx="753.073" cy="602.126" r="1" stroke="red" stroke-width="1" fill="red" />
<circle cx="912.980" cy="881.799" r="1" stroke="red" stroke-width="1" fill="red" />
<circle cx="873.752" cy="339.624" r="1" stroke="red" stroke-width="1" fill="red" />
<circle cx="647.241" cy="730.142" r="1" stroke="red" stroke-width="1" fill="red" />
<circle cx="640.528" cy="109.677" r="1" stroke="red" stroke-width="1" fill="red" />
<circle cx="262.206" cy="0.705" r="1" stroke="red" stroke-width="1" fill="red" />
<circle cx="756.947" cy="394.050" r="1" stroke="red" stroke-width="1" fill="red" />
<circle cx="665.397" cy="753.072" r="1" stroke="red" stroke-width="1" fill="red" />
<circle cx="223.566" cy="434.475" r="1" stroke="red" stroke-width="1" fill="red" />
<circle cx="12.906" cy="648.695" r="1" stroke="red" stroke-width="1" fill="red" />
<circle cx="851.679" cy="680.548" r="1" stroke="red" stroke-width="1" fill="red" />
<circle cx="266.733" cy="200.188" r="1" stroke="red" stroke-width="1" fill="red" />
<circle cx="121.226" cy="866.290" r="1" stroke="red" stroke-width="1" fill="red" />
<circle cx="762.736" cy="369.005" r="1" stroke="red" stroke-width="1" fill="red" />
<circle cx="149.071" cy="624.814" r="1" stroke="red" stroke-width="1" fill="red" />
<circle cx="225.824" cy="175.307" r="1" stroke="red" stroke-width="1" fill="red" />
<circle cx="561.544" cy="470.352" r="1" stroke="red" stroke-width="1" fill="red" />
<circle cx="489.275" cy="657.595" r="1" stroke="red" stroke-width="1" fill="red" />
<circle cx="994.404" cy="472.750" r="1" stroke="red" stroke-width="1" fill="red" />
<circle cx="506.739" cy="551.758" r="1" stroke="red" stroke-width="1" fill="red" />
<circle cx="810.949" cy="299.673" r="1" stroke="red" stroke-width="1" fill="red" />
<circle cx="886.136" cy="863.373" r="1" stroke="red" stroke-width="1" fill="red" />
<circle cx="611.846" cy="119.703" r="1" stroke="red" stroke-width="1" fill="red" />
<circle cx="558.838" cy="834.957" r="1" stroke="red" stroke-width="1" fill="red" />
<circle cx="848.293" cy="408.502" r="1" stroke="red" stroke-width="1" fill="red" />
<circle cx="731.446" cy="828.898" r="1" stroke="red" stroke-width="1" fill="red" />
<circle cx="97.541" cy="568.912" r="1" stroke="red" stroke-width="1" fill="red" />
<circle cx="388.495" cy="384.803" r="1" stroke="red" stroke-width="1" fill="red" />
<circle cx="219.850" cy="848.791" r="1" stroke="red" stroke-width="1" fill="red" />
<circle cx="501.805" cy="507.511" r="1" stroke="red" stroke-width="1" fill="red" />
<circle cx="605.816" cy="307.496" r="1" stroke="red" stroke-width="1" fill="red" />
<circle cx="979.273" cy="595.732" r="1" stroke="red" stroke-width="1" fill="red" />
<circle cx="989.778" cy="317.516" r="1" stroke="red" stroke-width="1" fill="red" />
<circle cx="939.892" cy="976.643" r="1" stroke="red" stroke-width="1" fill="red" />
<circle cx="737.725" cy="367.499" r="1" stroke="red" stroke-width="1" fill="red" />
<circle cx="982.483" cy="520.597" r="1" stroke="red" stroke-width="1" fill="red" />
<circle cx="696.338" cy="78.604" r="1" stroke="red" stroke-width="1" fill="red" />
<circle cx="534.107" cy="216.373" r="1" stroke="red" stroke-width="1" fill="red" />
<circle cx="344.024" cy="326.149" r="1" stroke="red" stroke-width="1" fill="red" />
<circle cx="488.653" cy="208.558" r="1" stroke="red" stroke-width="1" fill="red" />
<circle cx="497.034" cy="995.649" r="1" stroke="red" stroke-width="1" fill="red" />
<circle cx="426.410" cy="771.877" r="1" stroke="red" stroke-width="1" fill="red" />
<circle cx="137.357" cy="892.887" r="1" stroke="red" stroke-width="1" fill="red" />
<circle cx="928.142" cy="331.890" r="1" stroke="red" stroke-width="1" fill="red" />
<circle cx="715.297" cy="147.801" r="1" stroke="red" stroke-width="1" fill="red" />
<circle cx="147.971" cy="267.822" r="1" stroke="red" stroke-width="1" fill="red" />
<circle cx="189.184" cy="376.963" r="1" stroke="red" stroke-width="1" fill="red" />
<circle cx="999.222" cy="207.882" r="1" stroke="red" stroke-width="1" fill="red" />
<circle cx="686.440" cy="272.133" r="1" stroke="red" stroke-width="1" fill="red" />
<circle cx="17.563" cy="383.418" r="1" stroke="red" stroke-width="1" fill="red" />
<circle cx="591.286" cy="942.004" r="1" stroke="red" stroke-width="1" fill="red" />
<circle cx="753.749" cy="93.031" r="1" stroke="red" stroke-width="1" fill="red" />
<circle cx="695.873" cy="671.417" r="1" stroke="red" stroke-width="1" fill="red" />
<circle cx="106.450" cy="528.725" r="1" stroke="red" stroke-width="1" fill="red" />
<circle cx="479.994" cy="344.782" r="1" stroke="red" stroke-width="1" fill="red" />
<circle cx="58.460" cy="58.526" r="1" stroke="red" stroke-width="1" fill="red" />
<circle cx="827.155" cy="320.424" r="1" stroke="red" stroke-width="1" fill="red" />
<circle cx="93.745" cy="205.965" r="1" stroke="red" stroke-width="1" fill="red" />
<circle cx="242.314" cy="464.004" r="1" stroke="red" stroke-width="1" fill="red" />
<circle cx="721.915" cy="201.543" r="1" stroke="red" stroke-width="1" fill="red" />
<circle cx="792.167" cy="457.902" r="1" stroke="red" stroke-width="1" fill="red" />
<circle cx="666.048" cy="629.759" r="1" stroke="red" stroke-width="1" fill="red" />
<circle cx="936.975" cy="712.035" r="1" stroke="red" stroke-width="1" fill="red" />
<circle cx="305.858" cy="297.693" r="1" stroke="red" stroke-width="1" fill="red" />
<circle cx="300.833" cy="840.112" r="1" stroke="red" stroke-width="1" fill="red" />
<circle cx="774.038" cy="901.432" r="1" stroke="red" stroke-width="1" fill="red" />
<circle cx="978.961" cy="455.199" r="1" stroke="red" stroke-width="1" fill="red" />
<circle cx="35.048" cy="972.243" r="1" stroke="red" stroke-width="1" fill="red" />
<circle cx="767.464" cy="225.715" r="1" stroke="red" stroke-width="1" fill="red" />
<circle cx="771.712" cy="467.487" r="1" stroke="red" stroke-width="1" fill="red" />
<circle cx="660.666" cy="961.860" r="1" stroke="red" stroke-width="1" fill="red" />
<circle cx="806.765" cy="769.089" r="1" stroke="red" stroke-width="1" fill="red" />
<circle cx="124.881" cy="661.731" r="1" stroke="red" stroke-width="1" fill="red" />
<circle cx="770.658" cy="318.502" r="1" stroke="red" stroke-width="1" fill="red" />
<circle cx="631.987" cy="331.984" r="1" stroke="red" stroke-width="1" fill="red" />
<circle cx="203.944" cy="110.306" r="1" stroke="red" stroke-width="1" fill="red" />
<circle cx="559.887" cy="42.146" r="1" stroke="red" stroke-width="1" fill="red" />
<circle cx="953.598" cy="68.606" r="1" stroke="red" stroke-width="1" fill="red" />
<circle cx="118.133" cy="193.135" r="1" stroke="red" stroke-width="1" fill="red" />
<circle cx="435.060" cy="711.177" r="1" stroke="red" stroke-width="1" fill="red" />
<circle cx="212.940" cy="529.505" r="1" stroke="red" stroke-width="1" fill="red" />
<circle cx="533.062" cy="826.031" r="1" stroke="red" stroke-width="1" fill="red" />
<circle cx="187.045" cy="254.119" r="1" stroke="red" stroke-width="1" fill="red" />
<circle cx="570.610" cy="910.076" r="1" stroke="red" stroke-width="1" fill="red" />
<circle cx="48.036" cy="801.545" r="1" stroke="red" stroke-width="1" fill="red" />
<circle cx="483.396" cy="979.570" r="1" stroke="red" stroke-width="1" fill="red" />
<circle cx="157.817" cy="324.277" r="1" stroke="red" stroke-width="1" fill="red" />
<circle cx="553.117" cy="421.003" r="1" stroke="red" stroke-width="1" fill="red" />
<circle cx="502.330" cy="870.293" r="1" stroke="red" stroke-width="1" fill="red" />
<circle cx="316.020" cy="847.552" r="1" stroke="red" stroke-width="1" fill="red" />
<circle cx="722.657" cy="278.405" r="1" stroke="red" stroke-width="1" fill="red" />
<circle cx="812.952" cy="547.172" r="1" stroke="red" stroke-width="1" fill="red" />
<circle cx="577.999" cy="931.719" r="1" stroke="red" stroke-width="1" fill="red" />
<circle cx="267.367" cy="296.596" r="1" stroke="red" stroke-width="1" fill="red" />
<circle cx="888.546" cy="61.472" r="1" stroke="red" stroke-width="1" fill="red" />
<circle cx="99.354" cy="330.369" r="1" stroke="red" stroke-width="1" fill="red" />
<circle cx="396.597" cy="349.545" r="1" stroke="red" stroke-width="1" fill="red" />
<circle cx="676.884" cy="567.161" r="1" stroke="red" stroke-width="1" fill="red" />
<circle cx="688.266" cy="937.781" r="1" stroke="red" stroke-width="1" fill="red" />
<circle cx="131.669" cy="574.197" r="1" stroke="red" stroke-width="1" fill="red" />
<circle cx="489.746" cy="98.744" r="1" stroke="red" stroke-width="1" fill="red" />
<circle cx="147.909" cy="535.061" r="1" stroke="red" stroke-width="1" fill="red" />
<circle cx="549.771" cy="248.343" r="1" stroke="red" stroke-width="1" fill="red" />
<circle cx="553.153" cy="320.331" r="1" stroke="red" stroke-width="1" fill="red" />
<circle cx="488.293" cy="940.815" r="1" stroke="red" stroke-width="1" fill="red" />
<circle cx="22.446" cy="396.701" r="1" stroke="red" stroke-width="1" fill="red" />
<circle cx="826.327" cy="646.952" r="1" stroke="red" stroke-width="1" fill="red" />
<circle cx="341.455" cy="824.054" r="1" stroke="red" stroke-width="1" fill="red" />
<circle cx="876.680" cy="988.172" r="1" stroke="red" stroke-width="1" fill="red" />
<circle cx="902.353" cy="921.647" r="1" stroke="red" stroke-width="1" fill="red" />
<circle cx="887.249" cy="400.400" r="1" stroke="red" stroke-width="1" fill="red" />
<circle cx="956.325" cy="462.720" r="1" stroke="red" stroke-width="1" fill="red" />
<circle cx="722.064" cy="983.222" r="1" stroke="red" stroke-width="1" fill="red" />
<circle cx="74.133" cy="682.507" r="1" stroke="red" stroke-width="1" fill="red" />
<circle cx="599.171" cy="641.070" r="1" stroke="red" stroke-width="1" fill="red" />
<circle cx="878.543" cy="164.088" r="1" stroke="red" stroke-width="1" fill="red" />
<circle cx="767.099" cy="725.832" r="1" stroke="red" stroke-width="1" fill="red" />
<circle cx="881.868" cy="283.268" r="1" stroke="red" stroke-width="1" fill="red" />
<circle cx="690.258" cy="813.495" r="1" stroke="red" stroke-width="1" fill="red" />
<circle cx="432.563" cy="344.792" r="1" stroke="red" stroke-width="1" fill="red" />
<circle cx="807.275" cy="362.836" r="1" stroke="red" stroke-width="1" fill="red" />
<circle cx="738.721" cy="847.123" r="1" stroke="red" stroke-width="1" fill="red" />
<circle cx="518.173" cy="911.879" r="1" stroke="red" stroke-width="1" fill="red" />
<circle cx="705.318" cy="507.473" r="1" stroke="red" stroke-width="1" fill="red" />
<circle cx="446.305" cy="644.436" r="1" stroke="red" stroke-width="1" fill="red" />
<circle cx="988.910" cy="922.464" r="1" stroke="red" stroke-width="1" fill="red" />
<circle cx="630.754" cy="844.259" r="1" stroke="red" stroke-width="1" fill="red" />
<circle cx="525.629" cy="283.171" r="1" stroke="red" stroke-width="1" fill="red" />
<circle cx="244.284" cy="216.792" r="1" stroke="red" stroke-width="1" fill="red" />
<circle cx="536.900" cy="869.535" r="1" stroke="red" stroke-width="1" fill="red" />
<circle cx="63.438" cy="474.654" r="1" stroke="red" stroke-width="1" fill="red" />
<circle cx="131.989" cy="424.832" r="1" stroke="red" stroke-width="1" fill="red" />
<circle cx="18.706" cy="387.038" r="1" stroke="red" stroke-width="1" fill="red" />
<circle cx="655.481" cy="483.591" r="1" stroke="red" stroke-width="1" fill="red" />
<circle cx="71.682" cy="186.587" r="1" stroke="red" stroke-width="1" fill="red" />
<circle cx="537.371" cy="396.399" r="1" stroke="red" stroke-width="1" fill="red" />
<circle cx="750.576" cy="745.333" r="1" stroke="red" stroke-width="1" fill="red" />
<circle cx="586.246" cy="110.531" r="1" stroke="red" stroke-width="1" fill="red" />
<circle cx="261.376" cy="408.664" r="1" stroke="red" stroke-width="1" fill="red" />
<circle cx="849.006" cy="26.640" r="1" stroke="red" stroke-width="1" fill="red" />
<circle cx="204.480" cy="232.568" r="1" stroke="red" stroke-width="1" fill="red" />
<circle cx="226.232" cy="351.723" r="1" stroke="red" stroke-width="1" fill="red" />
<circle cx="395.694" cy="973.758" r="1" stroke="red" stroke-width="1" fill="red" />
<circle cx="720.386" cy="812.356" r="1" stroke="red" stroke-width="1" fill="red" />
<circle cx="720.504" cy="950.599" r="1" stroke="red" stroke-width="1" fill="red" />
<circle cx="290.936" cy="938.345" r="1" stroke="red" stroke-width="1" fill="red" />
<circle cx="271.136" cy="212.576" r="1" stroke="red" stroke-width="1" fill="red" />
<circle cx="365.441" cy="888.900" r="1" stroke="red" stroke-width="1" fill="red" />
<circle cx="928.588" cy="566.418" r="1" stroke="red" stroke-width="1" fill="red" />
<circle cx="500.009" cy="65.807" r="1" stroke="red" stroke-width="1" fill="red" />
<circle cx="494.546" cy="526.742" r="1" stroke="red" stroke-width="1" fill="red" />
<circle cx="518.415" cy="660.480" r="1" stroke="red" stroke-width="1" fill="red" />
<circle cx="687.055" cy="3.133" r="1" stroke="red" stroke-width="1" fill="red" />
<circle cx="47.788" cy="220.188" r="1" stroke="red" stroke-width="1" fill="red" />
<circle cx="481.744" cy="698.530" r="1" stroke="red" stroke-width="1" fill="red" />
<circle cx="677.440" cy="659.212" r="1" stroke="red" stroke-width="1" fill="red" />
<circle cx="716.943" cy="442.048" r="1" stroke="red" stroke-width="1" fill="red" />
<circle cx="657.754" cy="835.116" r="1" stroke="red" stroke-width="1" fill="red" />
<circle cx="567.189" cy="702.635" r="1" stroke="red" stroke-width="1" fill="red" />
<circle cx="338.066" cy="861.947" r="1" stroke="red" stroke-width="1" fill="red" />
<circle cx="372.834" cy="339.517" r="1" stroke="red" stroke-width="1" fill="red" />
<circle cx="299.894" cy="292.654" r="1" stroke="red" stroke-width="1" fill="red" />
<circle cx="229.696" cy="651.522" r="1" stroke="red" stroke-width="1" fill="red" />
<circle cx="683.773" cy="673.638" r="1" stroke="red" stroke-width="1" fill="red" />
<circle cx="278.862" cy="99.925" r="1" stroke="red" stroke-width="1" fill="red" />
<circle cx="461.571" cy="542.241" r="1" stroke="red" stroke-width="1" fill="red" />
<circle cx="445.475" cy="399.435" r="1" stroke="red" stroke-width="1" fill="red" />
<circle cx="714.087" cy="259.340" r="1" stroke="red" stroke-width="1" fill="red" />
<circle cx="917.956" cy="860.716" r="1" stroke="red" stroke-width="1" fill="red" />
</svg>
